<svg width="23" height="23" viewBox="0 0 23 23" fill="none" xmlns="http://www.w3.org/2000/svg">
<path d="M11.5004 0C17.8527 0 23 5.14877 23 11.5004C23 17.8527 17.8512 23 11.5004 23C5.14654 23 0 17.8512 0 11.5004C0 5.14654 5.14877 0 11.5004 0ZM11.5004 1.48315C5.96747 1.48315 1.48315 5.96673 1.48315 11.5004C1.48315 17.0325 5.96673 21.5168 11.5004 21.5168C17.0325 21.5168 21.5168 17.0333 21.5168 11.5004C21.5168 5.96747 17.034 1.48315 11.5004 1.48315ZM16.5082 6.71646C16.6715 6.55796 16.8901 6.46934 17.1176 6.46941C17.3451 6.46948 17.5636 6.55824 17.7268 6.71683C17.8899 6.87543 17.9848 7.09137 17.9913 7.3188C17.9978 7.54623 17.9153 7.76723 17.7615 7.93487L10.1603 15.7526C10.0005 15.9168 9.78253 16.0117 9.55341 16.0168C9.32429 16.0219 9.10231 15.9369 8.93526 15.78L5.24369 12.305C5.15528 12.2276 5.08337 12.1332 5.03225 12.0274C4.98113 11.9217 4.95186 11.8067 4.94617 11.6893C4.94049 11.572 4.95851 11.4547 4.99916 11.3445C5.03981 11.2343 5.10226 11.1334 5.18278 11.0478C5.26329 10.9623 5.36023 10.8938 5.46778 10.8466C5.57534 10.7993 5.69132 10.7742 5.80879 10.7728C5.92626 10.7713 6.04282 10.7936 6.1515 10.8382C6.26018 10.8828 6.35875 10.9489 6.44133 11.0324L9.51443 13.9246L16.5082 6.71646Z" fill="#328DFB"/>
</svg>
