<svg width="16.000000" height="16.000000" viewBox="0 0 16 16" fill="none" xmlns="http://www.w3.org/2000/svg" xmlns:xlink="http://www.w3.org/1999/xlink">
	<desc>
			Created with Pixso.
	</desc>
	<defs/>
	<path id="Vector" d="M8.10217 4.44531C7.79211 4.42773 7.48181 4.47461 7.19043 4.58203C6.89917 4.69043 6.63318 4.85645 6.40894 5.07129C6.19482 5.29297 6.02832 5.55566 5.9198 5.84375C5.81128 6.13184 5.76294 6.43945 5.77783 6.74707L6.81335 6.74707C6.78967 6.3916 6.88159 6.03711 7.07556 5.73828C7.19043 5.59473 7.33923 5.4834 7.50854 5.41309C7.67773 5.3418 7.86206 5.31445 8.04443 5.33398C8.19421 5.32422 8.34424 5.3457 8.4856 5.39648C8.62683 5.44629 8.75647 5.52539 8.8667 5.62695C9.06201 5.84668 9.16406 6.13379 9.15112 6.42676C9.14612 6.68652 9.05371 6.9375 8.88892 7.13867L8.72449 7.3252C8.29236 7.66895 7.91602 8.0791 7.60889 8.53809C7.47559 8.8291 7.41162 9.14746 7.42224 9.4668L7.42224 9.63184L8.44446 9.63184L8.44446 9.4668C8.4397 9.23926 8.49329 9.01465 8.59998 8.81348C8.70068 8.62402 8.83643 8.45508 9 8.31641C9.29932 8.08008 9.58435 7.82617 9.85339 7.55566C10.1069 7.20801 10.2368 6.78613 10.2222 6.35645C10.235 6.09473 10.1897 5.83301 10.0898 5.5918C9.98999 5.34961 9.83789 5.13281 9.64441 4.95605C9.21326 4.59668 8.66235 4.41406 8.10217 4.44531ZM7.66797 10.209C7.75378 10.1758 7.8457 10.1602 7.93774 10.165L7.92444 10.1602C8.0199 10.1562 8.11523 10.1709 8.20459 10.2041C8.29407 10.2383 8.37561 10.29 8.44446 10.3564C8.51318 10.4199 8.56714 10.498 8.60254 10.584C8.63782 10.6709 8.65369 10.7646 8.64893 10.8584C8.65112 10.9521 8.63416 11.0459 8.599 11.1328C8.56384 11.2197 8.51123 11.2988 8.44446 11.3652C8.30457 11.4883 8.12427 11.5566 7.93774 11.5557C7.7522 11.5537 7.57458 11.4795 7.44202 11.3496C7.30957 11.2197 7.23242 11.0439 7.22668 10.8584C7.22278 10.7646 7.23987 10.6709 7.27673 10.585C7.31372 10.499 7.36951 10.4219 7.43994 10.3604C7.50452 10.2949 7.58215 10.2432 7.66797 10.209Z" clip-rule="evenodd" fill="#419488" fill-opacity="1.000000" fill-rule="evenodd"/>
	<path id="Vector" d="M3.55542 1.34863C4.87097 0.46875 6.41772 0 8 0C10.1217 0 12.1566 0.842773 13.6569 2.34277C15.1571 3.84375 16 5.87793 16 8C16 9.58203 15.5308 11.1289 14.6519 12.4443C13.7727 13.7598 12.5233 14.7852 11.0615 15.3906C9.59961 15.9961 7.99109 16.1553 6.43933 15.8467C4.88745 15.5381 3.46191 14.7754 2.34314 13.6572C1.22437 12.5381 0.462402 11.1123 0.153687 9.56055C-0.154907 8.00879 0.00341797 6.40039 0.609009 4.93848C1.21448 3.47656 2.23987 2.22754 3.55542 1.34863ZM8 0.888672C9.40649 0.888672 10.7812 1.30566 11.9507 2.08691C13.1201 2.86914 14.0316 3.97949 14.5698 5.27832C15.108 6.57812 15.2489 8.00781 14.9745 9.3877C14.7001 10.7666 14.0228 12.0342 13.0283 13.0283C12.0338 14.0225 10.7667 14.7002 9.38733 14.9746C8.00793 15.249 6.57812 15.1084 5.27869 14.5693C3.97937 14.0312 2.86865 13.1201 2.08728 11.9512C1.30591 10.7812 0.888916 9.40625 0.888916 8C0.888916 6.11426 1.63806 4.30566 2.97168 2.97168C4.3053 1.6377 6.11401 0.888672 8 0.888672Z" clip-rule="evenodd" fill="#419488" fill-opacity="1.000000" fill-rule="evenodd"/>
</svg>
