<svg width="59.997803" height="60.000000" viewBox="0 0 59.9978 60" fill="none" xmlns="http://www.w3.org/2000/svg" xmlns:xlink="http://www.w3.org/1999/xlink">
	<desc>
			Created with Pixso.
	</desc>
	<defs/>
	<path id="path" d="M4.03 45C3.94 44.84 3.87 44.68 3.81 44.51C3.75 44.34 3.71 44.17 3.69 43.99C3.66 43.81 3.66 43.64 3.67 43.46C3.68 43.28 3.71 43.1 3.75 42.93C3.8 42.76 3.86 42.59 3.94 42.43C4.02 42.27 4.11 42.12 4.22 41.98C4.33 41.83 4.45 41.7 4.59 41.59C4.72 41.47 4.86 41.37 5.02 41.28L12.11 37.19C12.27 37.1 12.43 37.02 12.6 36.97C12.77 36.91 12.94 36.87 13.12 36.84C13.29 36.82 13.47 36.81 13.65 36.83C13.83 36.83 14 36.86 14.18 36.91C14.35 36.96 14.52 37.02 14.68 37.1C14.84 37.17 14.99 37.27 15.13 37.38C15.27 37.49 15.4 37.61 15.52 37.74C15.64 37.87 15.74 38.02 15.83 38.17C15.92 38.33 16 38.49 16.05 38.66C16.11 38.83 16.15 39 16.18 39.18C16.2 39.35 16.21 39.53 16.2 39.71C16.18 39.89 16.16 40.06 16.11 40.24C16.06 40.41 16 40.58 15.92 40.74C15.84 40.9 15.75 41.05 15.64 41.19C15.53 41.33 15.41 41.46 15.28 41.58C15.15 41.7 15 41.8 14.85 41.89L7.83 46C7.67 46.09 7.51 46.16 7.34 46.22C7.17 46.28 7 46.32 6.82 46.34C6.64 46.36 6.46 46.37 6.29 46.36C6.11 46.34 5.93 46.31 5.76 46.27C5.59 46.22 5.42 46.16 5.26 46.08C5.1 46 4.95 45.9 4.81 45.79C4.67 45.68 4.54 45.56 4.42 45.43C4.3 45.29 4.2 45.15 4.11 45L4.03 45Z" fill="#419488" fill-opacity="1.000000" fill-rule="nonzero"/>
	<g opacity="0.900000">
		<path id="path" d="M0 30C0 29.82 0.01 29.64 0.05 29.46C0.08 29.28 0.13 29.11 0.2 28.95C0.27 28.78 0.36 28.62 0.46 28.48C0.56 28.33 0.67 28.19 0.8 28.06C0.92 27.93 1.06 27.82 1.21 27.72C1.36 27.62 1.52 27.54 1.68 27.47C1.85 27.4 2.02 27.35 2.2 27.31C2.37 27.28 2.55 27.26 2.73 27.26L10.91 27.26C11.1 27.24 11.29 27.24 11.47 27.26C11.66 27.29 11.85 27.33 12.03 27.39C12.21 27.45 12.38 27.53 12.55 27.62C12.71 27.72 12.86 27.83 13 27.96C13.15 28.09 13.27 28.23 13.38 28.38C13.49 28.54 13.59 28.7 13.67 28.88C13.74 29.05 13.8 29.23 13.84 29.42C13.88 29.6 13.9 29.79 13.9 29.98C13.9 30.17 13.88 30.36 13.84 30.55C13.8 30.73 13.74 30.91 13.67 31.09C13.59 31.26 13.49 31.43 13.38 31.58C13.27 31.74 13.15 31.88 13 32C12.86 32.13 12.71 32.25 12.55 32.34C12.38 32.44 12.21 32.51 12.03 32.58C11.85 32.64 11.66 32.68 11.47 32.7C11.29 32.72 11.1 32.72 10.91 32.7L2.68 32.7C2.5 32.7 2.33 32.68 2.16 32.64C1.98 32.61 1.82 32.55 1.65 32.48C1.49 32.41 1.34 32.33 1.19 32.23C1.05 32.13 0.91 32.02 0.79 31.89C0.66 31.77 0.55 31.63 0.45 31.49C0.36 31.34 0.27 31.18 0.21 31.02C0.14 30.86 0.09 30.69 0.05 30.52C0.02 30.34 0 30.17 0 30Z" fill="#419488" fill-opacity="1.000000" fill-rule="nonzero"/>
	</g>
	<g opacity="0.800000">
		<path id="path" d="M4.01 15.02C4.1 14.87 4.2 14.72 4.32 14.59C4.44 14.45 4.57 14.33 4.71 14.22C4.85 14.11 5 14.02 5.16 13.94C5.32 13.86 5.49 13.8 5.66 13.75C5.83 13.7 6.01 13.67 6.19 13.66C6.37 13.65 6.54 13.65 6.72 13.68C6.9 13.7 7.07 13.74 7.24 13.79C7.41 13.85 7.57 13.92 7.73 14.01L14.82 18.1C14.96 18.2 15.09 18.31 15.21 18.42C15.33 18.55 15.44 18.68 15.54 18.82C15.63 18.96 15.71 19.11 15.78 19.26C15.85 19.42 15.9 19.58 15.94 19.75C15.98 19.91 16 20.08 16.01 20.25C16.01 20.42 16.01 20.59 15.98 20.76C15.96 20.92 15.91 21.09 15.86 21.25C15.8 21.41 15.73 21.57 15.65 21.71C15.56 21.86 15.47 22 15.36 22.13C15.25 22.26 15.12 22.38 14.99 22.48C14.86 22.59 14.72 22.68 14.57 22.76C14.42 22.84 14.26 22.91 14.1 22.96C13.94 23.01 13.77 23.05 13.6 23.07C13.43 23.09 13.26 23.09 13.09 23.08C12.92 23.07 12.76 23.04 12.59 23C12.43 22.96 12.27 22.9 12.11 22.83L5.02 18.74C4.86 18.65 4.72 18.55 4.59 18.43C4.45 18.31 4.33 18.18 4.22 18.04C4.11 17.9 4.02 17.75 3.94 17.59C3.86 17.43 3.79 17.26 3.75 17.09C3.7 16.92 3.67 16.74 3.66 16.56C3.65 16.38 3.65 16.21 3.67 16.03C3.7 15.85 3.74 15.68 3.79 15.51C3.85 15.34 3.92 15.18 4.01 15.02Z" fill="#419488" fill-opacity="1.000000" fill-rule="nonzero"/>
	</g>
	<g opacity="0.700000">
		<path id="path" d="M14.99 4.03C15.15 3.94 15.31 3.87 15.48 3.81C15.65 3.75 15.82 3.71 16 3.69C16.18 3.66 16.35 3.66 16.53 3.67C16.71 3.68 16.89 3.71 17.06 3.75C17.23 3.8 17.4 3.86 17.56 3.94C17.72 4.02 17.87 4.11 18.01 4.22C18.16 4.33 18.29 4.45 18.4 4.59C18.52 4.72 18.62 4.87 18.71 5.02L22.8 12.11C22.89 12.27 22.97 12.43 23.02 12.6C23.08 12.77 23.12 12.94 23.14 13.12C23.17 13.29 23.17 13.47 23.16 13.65C23.15 13.83 23.12 14 23.08 14.18C23.03 14.35 22.97 14.51 22.89 14.67C22.81 14.83 22.72 14.99 22.61 15.13C22.5 15.27 22.38 15.4 22.25 15.52C22.11 15.64 21.97 15.74 21.82 15.83C21.66 15.92 21.5 15.99 21.33 16.05C21.16 16.11 20.99 16.15 20.81 16.17C20.64 16.2 20.46 16.2 20.28 16.19C20.1 16.18 19.93 16.15 19.75 16.11C19.58 16.06 19.41 16 19.25 15.92C19.09 15.84 18.94 15.75 18.8 15.64C18.66 15.53 18.53 15.41 18.41 15.28C18.29 15.15 18.19 15 18.1 14.85L13.98 7.83C13.9 7.67 13.82 7.51 13.77 7.34C13.71 7.17 13.67 7 13.65 6.82C13.63 6.64 13.62 6.47 13.63 6.29C13.65 6.11 13.68 5.93 13.72 5.76C13.77 5.59 13.83 5.42 13.91 5.26C13.99 5.1 14.09 4.95 14.2 4.81C14.3 4.67 14.43 4.54 14.56 4.42C14.7 4.3 14.84 4.2 14.99 4.11L14.99 4.03Z" fill="#419488" fill-opacity="1.000000" fill-rule="nonzero"/>
	</g>
	<g opacity="0.600000">
		<path id="path" d="M29.99 0C30.17 0 30.35 0.01 30.53 0.05C30.7 0.08 30.87 0.14 31.04 0.2C31.21 0.27 31.36 0.36 31.51 0.46C31.66 0.56 31.8 0.67 31.93 0.8C32.05 0.92 32.17 1.06 32.27 1.21C32.37 1.36 32.45 1.52 32.52 1.68C32.59 1.85 32.64 2.02 32.67 2.2C32.71 2.37 32.73 2.55 32.73 2.73L32.73 10.91C32.75 11.1 32.74 11.29 32.72 11.47C32.7 11.66 32.66 11.85 32.6 12.03C32.54 12.21 32.46 12.38 32.36 12.55C32.27 12.71 32.16 12.86 32.03 13C31.9 13.15 31.76 13.27 31.6 13.38C31.45 13.5 31.29 13.59 31.11 13.66C30.94 13.74 30.76 13.8 30.57 13.84C30.38 13.88 30.2 13.9 30.01 13.9C29.82 13.9 29.63 13.88 29.44 13.84C29.25 13.8 29.07 13.74 28.9 13.66C28.73 13.59 28.56 13.5 28.41 13.38C28.25 13.27 28.11 13.15 27.98 13C27.85 12.86 27.74 12.71 27.65 12.55C27.55 12.38 27.47 12.21 27.41 12.03C27.35 11.85 27.31 11.66 27.29 11.47C27.27 11.29 27.27 11.1 27.28 10.91L27.28 2.68C27.29 2.5 27.31 2.33 27.34 2.16C27.38 1.98 27.43 1.82 27.5 1.66C27.57 1.49 27.66 1.34 27.76 1.19C27.86 1.05 27.97 0.91 28.09 0.79C28.22 0.66 28.35 0.55 28.5 0.45C28.65 0.36 28.8 0.27 28.97 0.21C29.13 0.14 29.3 0.09 29.47 0.05C29.64 0.01 29.82 0 29.99 0Z" fill="#419488" fill-opacity="1.000000" fill-rule="nonzero"/>
	</g>
	<g opacity="0.500000">
		<path id="path" d="M44.97 4.01C45.13 4.1 45.28 4.2 45.42 4.32C45.56 4.44 45.69 4.58 45.8 4.72C45.92 4.87 46.01 5.02 46.1 5.19C46.18 5.35 46.24 5.52 46.29 5.7C46.34 5.88 46.37 6.06 46.38 6.25C46.39 6.43 46.38 6.61 46.35 6.8C46.32 6.98 46.28 7.16 46.22 7.33C46.15 7.5 46.08 7.67 45.98 7.83L41.89 14.92C41.79 15.06 41.69 15.19 41.57 15.31C41.44 15.43 41.31 15.54 41.17 15.64C41.03 15.73 40.88 15.81 40.73 15.88C40.57 15.95 40.41 16 40.25 16.04C40.08 16.08 39.91 16.1 39.74 16.11C39.57 16.11 39.4 16.1 39.23 16.08C39.06 16.05 38.9 16.01 38.74 15.96C38.58 15.9 38.42 15.83 38.28 15.75C38.13 15.66 37.99 15.57 37.86 15.45C37.73 15.34 37.61 15.22 37.51 15.09C37.4 14.96 37.31 14.82 37.23 14.66C37.15 14.51 37.08 14.36 37.03 14.2C36.98 14.03 36.94 13.87 36.92 13.7C36.9 13.53 36.9 13.36 36.91 13.19C36.92 13.02 36.95 12.85 36.99 12.69C37.03 12.52 37.09 12.36 37.16 12.21L41.25 5.12C41.34 4.96 41.44 4.81 41.55 4.67C41.66 4.53 41.79 4.41 41.93 4.29C42.07 4.18 42.22 4.08 42.38 3.99C42.54 3.91 42.71 3.84 42.88 3.79C43.05 3.74 43.23 3.7 43.41 3.69C43.59 3.67 43.77 3.67 43.95 3.69C44.13 3.71 44.3 3.75 44.47 3.8C44.65 3.85 44.81 3.92 44.97 4.01Z" fill="#419488" fill-opacity="1.000000" fill-rule="nonzero"/>
	</g>
	<g opacity="0.400000">
		<path id="path" d="M55.95 15C56.04 15.15 56.12 15.31 56.18 15.48C56.24 15.65 56.28 15.82 56.3 16C56.33 16.18 56.33 16.36 56.32 16.53C56.31 16.71 56.28 16.89 56.24 17.06C56.19 17.23 56.13 17.4 56.05 17.56C55.97 17.72 55.88 17.87 55.77 18.01C55.66 18.16 55.54 18.29 55.4 18.41C55.27 18.52 55.12 18.63 54.97 18.72L47.87 22.8C47.72 22.9 47.56 22.97 47.39 23.03C47.22 23.09 47.05 23.13 46.87 23.15C46.69 23.18 46.52 23.18 46.34 23.17C46.16 23.16 45.98 23.13 45.81 23.09C45.64 23.04 45.47 22.98 45.31 22.9C45.15 22.82 45 22.73 44.86 22.62C44.71 22.51 44.58 22.39 44.47 22.25C44.35 22.12 44.25 21.97 44.16 21.82C44.06 21.66 43.99 21.5 43.93 21.33C43.87 21.16 43.83 20.99 43.81 20.81C43.78 20.63 43.78 20.45 43.79 20.27C43.8 20.09 43.83 19.92 43.87 19.74C43.92 19.57 43.98 19.4 44.06 19.24C44.14 19.08 44.23 18.92 44.34 18.78C44.45 18.64 44.57 18.51 44.71 18.39C44.84 18.27 44.99 18.16 45.14 18.08L52.16 13.99C52.32 13.9 52.48 13.83 52.65 13.77C52.82 13.71 52.99 13.67 53.17 13.65C53.35 13.63 53.52 13.62 53.7 13.64C53.88 13.65 54.06 13.68 54.23 13.73C54.4 13.77 54.57 13.83 54.73 13.91C54.89 13.99 55.04 14.09 55.18 14.2C55.32 14.31 55.45 14.43 55.57 14.56C55.69 14.7 55.79 14.84 55.88 15L55.95 15Z" fill="#419488" fill-opacity="1.000000" fill-rule="nonzero"/>
	</g>
	<g opacity="0.300000">
		<path id="path" d="M59.99 30C59.99 30.17 59.98 30.35 59.94 30.53C59.91 30.7 59.85 30.88 59.78 31.04C59.72 31.21 59.63 31.36 59.53 31.51C59.43 31.66 59.32 31.8 59.19 31.93C59.07 32.06 58.93 32.17 58.78 32.27C58.63 32.37 58.47 32.45 58.31 32.52C58.14 32.59 57.97 32.64 57.79 32.68C57.62 32.71 57.44 32.73 57.26 32.73L49.08 32.73C48.89 32.75 48.7 32.75 48.51 32.72C48.32 32.7 48.14 32.66 47.96 32.6C47.78 32.54 47.61 32.46 47.44 32.37C47.28 32.27 47.12 32.16 46.98 32.03C46.84 31.9 46.72 31.76 46.61 31.61C46.49 31.45 46.4 31.29 46.32 31.11C46.25 30.94 46.19 30.76 46.15 30.57C46.11 30.39 46.09 30.2 46.09 30.01C46.09 29.82 46.11 29.63 46.15 29.44C46.19 29.25 46.25 29.08 46.32 28.9C46.4 28.73 46.49 28.56 46.61 28.41C46.72 28.25 46.84 28.11 46.98 27.99C47.12 27.86 47.28 27.75 47.44 27.65C47.61 27.55 47.78 27.47 47.96 27.41C48.14 27.35 48.32 27.31 48.51 27.29C48.7 27.27 48.89 27.27 49.08 27.29L57.26 27.29C57.44 27.29 57.61 27.3 57.79 27.34C57.96 27.37 58.13 27.42 58.3 27.49C58.46 27.56 58.62 27.64 58.77 27.74C58.92 27.84 59.06 27.95 59.18 28.08C59.31 28.2 59.42 28.34 59.52 28.49C59.62 28.64 59.71 28.79 59.78 28.96C59.85 29.12 59.9 29.29 59.94 29.47C59.97 29.64 59.99 29.82 59.99 30Z" fill="#419488" fill-opacity="1.000000" fill-rule="nonzero"/>
	</g>
	<g opacity="0.200000">
		<path id="path" d="M55.98 44.97C55.89 45.13 55.78 45.28 55.66 45.42C55.54 45.56 55.41 45.69 55.27 45.8C55.12 45.92 54.97 46.01 54.8 46.1C54.63 46.18 54.46 46.24 54.28 46.29C54.11 46.34 53.92 46.37 53.74 46.38C53.56 46.39 53.37 46.38 53.19 46.35C53.01 46.33 52.83 46.28 52.66 46.22C52.48 46.16 52.32 46.08 52.16 45.98L45.07 41.89C44.93 41.8 44.8 41.69 44.68 41.57C44.56 41.45 44.45 41.32 44.35 41.17C44.26 41.03 44.17 40.89 44.11 40.73C44.04 40.57 43.99 40.41 43.95 40.25C43.91 40.08 43.89 39.91 43.88 39.74C43.87 39.57 43.88 39.4 43.91 39.24C43.93 39.07 43.97 38.9 44.03 38.74C44.09 38.58 44.16 38.43 44.24 38.28C44.33 38.13 44.42 37.99 44.53 37.86C44.64 37.73 44.77 37.61 44.9 37.51C45.03 37.4 45.17 37.31 45.32 37.23C45.47 37.15 45.63 37.08 45.79 37.03C45.95 36.98 46.12 36.94 46.29 36.92C46.46 36.9 46.63 36.9 46.8 36.91C46.97 36.92 47.13 36.95 47.3 36.99C47.46 37.03 47.62 37.09 47.78 37.16L54.87 41.25C55.03 41.34 55.18 41.44 55.32 41.55C55.46 41.67 55.58 41.79 55.7 41.93C55.81 42.07 55.91 42.22 55.99 42.38C56.08 42.54 56.15 42.71 56.2 42.88C56.25 43.05 56.28 43.23 56.3 43.41C56.32 43.59 56.32 43.77 56.3 43.95C56.28 44.13 56.24 44.3 56.19 44.48C56.13 44.65 56.06 44.81 55.98 44.97Z" fill="#419488" fill-opacity="1.000000" fill-rule="nonzero"/>
	</g>
	<g opacity="0.100000">
		<path id="path" d="M44.99 55.95C44.84 56.05 44.68 56.12 44.51 56.18C44.34 56.24 44.17 56.28 43.99 56.3C43.81 56.33 43.63 56.33 43.46 56.32C43.28 56.31 43.1 56.28 42.93 56.24C42.76 56.19 42.59 56.13 42.43 56.05C42.27 55.97 42.12 55.88 41.97 55.77C41.83 55.66 41.7 55.54 41.58 55.4C41.47 55.27 41.36 55.12 41.27 54.97L37.19 47.88C37.1 47.72 37.02 47.56 36.96 47.39C36.9 47.22 36.86 47.05 36.84 46.87C36.81 46.69 36.81 46.52 36.82 46.34C36.83 46.16 36.86 45.98 36.9 45.81C36.95 45.64 37.01 45.47 37.09 45.31C37.17 45.15 37.26 45 37.37 44.86C37.48 44.72 37.6 44.58 37.74 44.47C37.87 44.35 38.02 44.25 38.17 44.16C38.33 44.07 38.49 43.99 38.66 43.93C38.83 43.87 39 43.83 39.18 43.81C39.36 43.78 39.54 43.78 39.72 43.79C39.9 43.8 40.07 43.83 40.25 43.87C40.42 43.92 40.59 43.98 40.75 44.06C40.91 44.14 41.06 44.23 41.21 44.34C41.35 44.45 41.48 44.57 41.6 44.71C41.72 44.84 41.82 44.99 41.91 45.14L46 52.16C46.09 52.32 46.16 52.48 46.22 52.65C46.28 52.82 46.32 52.99 46.34 53.17C46.36 53.35 46.37 53.52 46.35 53.7C46.34 53.88 46.31 54.06 46.27 54.23C46.22 54.4 46.15 54.57 46.08 54.73C46 54.89 45.9 55.04 45.79 55.18C45.68 55.32 45.56 55.45 45.43 55.57C45.29 55.69 45.15 55.79 44.99 55.88L44.99 55.95Z" fill="#419488" fill-opacity="1.000000" fill-rule="nonzero"/>
	</g>
	<path id="path" d="M29.99 60C29.82 59.99 29.64 59.98 29.46 59.94C29.29 59.9 29.12 59.85 28.95 59.78C28.79 59.71 28.63 59.63 28.49 59.53C28.34 59.43 28.2 59.31 28.08 59.19C27.95 59.06 27.84 58.92 27.74 58.77C27.64 58.62 27.56 58.47 27.49 58.3C27.42 58.14 27.37 57.97 27.34 57.79C27.3 57.62 27.28 57.44 27.28 57.26L27.28 49.08C27.27 48.9 27.27 48.71 27.29 48.52C27.31 48.33 27.35 48.14 27.41 47.96C27.47 47.78 27.55 47.61 27.65 47.44C27.74 47.28 27.85 47.13 27.98 46.99C28.11 46.84 28.25 46.72 28.41 46.61C28.56 46.5 28.73 46.4 28.9 46.33C29.07 46.25 29.25 46.19 29.44 46.15C29.63 46.11 29.82 46.09 30.01 46.09C30.2 46.09 30.38 46.11 30.57 46.15C30.76 46.19 30.94 46.25 31.11 46.33C31.29 46.4 31.45 46.5 31.6 46.61C31.76 46.72 31.9 46.84 32.03 46.99C32.16 47.13 32.27 47.28 32.36 47.44C32.46 47.61 32.54 47.78 32.6 47.96C32.66 48.14 32.7 48.33 32.72 48.52C32.74 48.71 32.75 48.9 32.73 49.08L32.73 57.26C32.73 57.44 32.71 57.62 32.67 57.79C32.64 57.97 32.59 58.14 32.52 58.31C32.45 58.47 32.37 58.63 32.27 58.78C32.17 58.93 32.05 59.07 31.93 59.19C31.8 59.32 31.66 59.43 31.51 59.53C31.36 59.63 31.21 59.72 31.04 59.79C30.87 59.86 30.7 59.91 30.53 59.94C30.35 59.98 30.17 60 29.99 60ZM15.02 55.98C14.86 55.89 14.71 55.79 14.57 55.67C14.43 55.55 14.3 55.41 14.19 55.27C14.07 55.12 13.97 54.97 13.89 54.8C13.81 54.64 13.75 54.47 13.7 54.29C13.65 54.11 13.62 53.93 13.61 53.74C13.6 53.56 13.61 53.38 13.64 53.19C13.66 53.01 13.71 52.83 13.77 52.66C13.83 52.49 13.91 52.32 14.01 52.16L18.1 45.07C18.19 44.93 18.3 44.8 18.42 44.68C18.54 44.56 18.67 44.45 18.81 44.35C18.96 44.26 19.1 44.18 19.26 44.11C19.42 44.04 19.58 43.99 19.74 43.95C19.91 43.91 20.08 43.89 20.25 43.88C20.42 43.88 20.59 43.89 20.75 43.91C20.92 43.94 21.09 43.98 21.25 44.03C21.41 44.09 21.56 44.16 21.71 44.24C21.86 44.33 22 44.42 22.13 44.54C22.26 44.65 22.37 44.77 22.48 44.9C22.59 45.03 22.68 45.17 22.76 45.33C22.84 45.47 22.91 45.63 22.96 45.79C23.01 45.96 23.05 46.12 23.07 46.29C23.09 46.46 23.09 46.63 23.08 46.8C23.07 46.97 23.04 47.14 23 47.3C22.96 47.47 22.9 47.62 22.83 47.78L18.74 54.87C18.65 55.03 18.55 55.18 18.44 55.32C18.32 55.46 18.2 55.58 18.06 55.7C17.92 55.81 17.77 55.91 17.61 56C17.45 56.08 17.28 56.15 17.11 56.2C16.94 56.25 16.76 56.29 16.58 56.3C16.4 56.32 16.22 56.32 16.04 56.3C15.86 56.28 15.69 56.25 15.51 56.19C15.34 56.14 15.18 56.07 15.02 55.98Z" fill="#419488" fill-opacity="1.000000" fill-rule="nonzero"/>
</svg>
