<svg width="60.000000" height="60.093750" viewBox="0 0 60 60.0938" fill="none" xmlns="http://www.w3.org/2000/svg" xmlns:xlink="http://www.w3.org/1999/xlink">
	<desc>
			Created with Pixso.
	</desc>
	<defs/>
	<path id="path" d="M44.99 55.98C44.84 56.07 44.68 56.14 44.51 56.2C44.34 56.26 44.17 56.3 43.99 56.33C43.81 56.35 43.64 56.36 43.46 56.35C43.28 56.34 43.1 56.31 42.93 56.26C42.76 56.22 42.59 56.16 42.43 56.08C42.27 56 42.12 55.91 41.98 55.8C41.83 55.69 41.7 55.57 41.59 55.43C41.47 55.3 41.36 55.15 41.28 55L37.19 47.91C37.1 47.76 37.02 47.59 36.97 47.43C36.91 47.26 36.87 47.08 36.84 46.91C36.82 46.73 36.81 46.55 36.82 46.38C36.84 46.2 36.86 46.02 36.91 45.85C36.96 45.67 37.02 45.51 37.1 45.35C37.17 45.19 37.27 45.04 37.38 44.89C37.48 44.75 37.61 44.62 37.74 44.5C37.87 44.39 38.02 44.28 38.17 44.19C38.33 44.1 38.49 44.03 38.66 43.97C38.83 43.91 39 43.87 39.18 43.84C39.35 43.82 39.53 43.82 39.71 43.83C39.89 43.84 40.06 43.86 40.24 43.91C40.41 43.96 40.58 44.02 40.74 44.09C40.9 44.17 41.05 44.27 41.19 44.38C41.33 44.48 41.46 44.6 41.58 44.74C41.7 44.87 41.8 45.02 41.89 45.17L46 52.18C46.09 52.34 46.17 52.5 46.22 52.67C46.28 52.84 46.32 53.01 46.34 53.19C46.36 53.37 46.37 53.55 46.36 53.72C46.34 53.9 46.31 54.08 46.27 54.25C46.22 54.42 46.16 54.59 46.08 54.75C46 54.91 45.9 55.06 45.79 55.2C45.69 55.34 45.56 55.47 45.43 55.59C45.29 55.71 45.15 55.81 44.99 55.9L44.99 55.98Z" fill="#419488" fill-opacity="1.000000" fill-rule="nonzero"/>
	<g opacity="0.900000">
		<path id="path" d="M29.99 60.04C29.81 60.04 29.64 60.02 29.46 59.99C29.29 59.95 29.11 59.9 28.95 59.83C28.78 59.76 28.62 59.68 28.48 59.58C28.33 59.48 28.19 59.37 28.06 59.24C27.93 59.12 27.82 58.98 27.72 58.83C27.62 58.68 27.54 58.52 27.47 58.36C27.4 58.19 27.35 58.02 27.31 57.84C27.28 57.67 27.26 57.49 27.26 57.31L27.26 49.13C27.24 48.94 27.24 48.75 27.27 48.57C27.29 48.38 27.33 48.19 27.39 48.01C27.45 47.83 27.53 47.66 27.62 47.49C27.72 47.33 27.83 47.17 27.96 47.03C28.09 46.89 28.23 46.77 28.38 46.66C28.54 46.54 28.7 46.45 28.88 46.37C29.05 46.29 29.23 46.24 29.42 46.2C29.6 46.16 29.79 46.14 29.98 46.14C30.17 46.14 30.36 46.16 30.55 46.19C30.73 46.23 30.91 46.29 31.09 46.37C31.26 46.44 31.43 46.54 31.58 46.65C31.74 46.76 31.88 46.89 32 47.03C32.13 47.17 32.25 47.32 32.34 47.49C32.44 47.65 32.52 47.82 32.58 48C32.64 48.18 32.68 48.37 32.7 48.56C32.72 48.75 32.72 48.93 32.7 49.12L32.7 57.35C32.7 57.53 32.68 57.7 32.64 57.87C32.61 58.05 32.55 58.21 32.48 58.38C32.41 58.54 32.33 58.69 32.23 58.84C32.13 58.99 32.02 59.12 31.89 59.25C31.77 59.37 31.63 59.48 31.49 59.58C31.34 59.68 31.18 59.76 31.02 59.83C30.86 59.9 30.69 59.95 30.52 59.98C30.35 60.02 30.17 60.04 29.99 60.04Z" fill="#419488" fill-opacity="1.000000" fill-rule="nonzero"/>
	</g>
	<g opacity="0.800000">
		<path id="path" d="M15.02 56.05C14.87 55.96 14.72 55.86 14.59 55.74C14.45 55.62 14.33 55.49 14.22 55.35C14.11 55.21 14.02 55.06 13.94 54.9C13.86 54.74 13.8 54.57 13.75 54.4C13.7 54.23 13.67 54.05 13.66 53.87C13.65 53.7 13.65 53.52 13.67 53.34C13.7 53.16 13.74 52.99 13.79 52.82C13.85 52.65 13.92 52.49 14.01 52.33L18.1 45.23C18.2 45.09 18.3 44.96 18.42 44.84C18.54 44.72 18.68 44.61 18.82 44.52C18.96 44.42 19.11 44.34 19.26 44.27C19.42 44.2 19.58 44.15 19.74 44.11C19.91 44.07 20.08 44.05 20.25 44.04C20.42 44.04 20.59 44.04 20.76 44.07C20.92 44.09 21.09 44.13 21.25 44.19C21.41 44.25 21.57 44.32 21.71 44.4C21.86 44.49 22 44.58 22.13 44.69C22.26 44.8 22.38 44.92 22.48 45.06C22.59 45.19 22.68 45.33 22.76 45.48C22.84 45.63 22.91 45.79 22.96 45.95C23.01 46.11 23.05 46.28 23.07 46.44C23.09 46.61 23.09 46.78 23.08 46.95C23.07 47.12 23.04 47.29 23 47.46C22.96 47.62 22.9 47.78 22.83 47.93L18.74 55.03C18.65 55.19 18.55 55.33 18.43 55.47C18.31 55.6 18.18 55.73 18.04 55.83C17.9 55.94 17.75 56.04 17.59 56.12C17.43 56.2 17.26 56.26 17.09 56.31C16.92 56.35 16.74 56.39 16.56 56.4C16.38 56.41 16.21 56.41 16.03 56.38C15.85 56.36 15.68 56.32 15.51 56.27C15.34 56.21 15.18 56.14 15.02 56.05Z" fill="#419488" fill-opacity="1.000000" fill-rule="nonzero"/>
	</g>
	<g opacity="0.700000">
		<path id="path" d="M4.03 45.08C3.94 44.93 3.87 44.77 3.81 44.6C3.75 44.43 3.71 44.25 3.69 44.08C3.66 43.9 3.66 43.72 3.67 43.54C3.68 43.37 3.71 43.19 3.75 43.02C3.8 42.84 3.86 42.68 3.94 42.52C4.02 42.36 4.11 42.2 4.22 42.06C4.33 41.92 4.45 41.79 4.59 41.67C4.72 41.55 4.86 41.45 5.02 41.36L12.11 37.26C12.27 37.17 12.43 37.1 12.6 37.04C12.77 36.98 12.94 36.94 13.12 36.92C13.29 36.89 13.47 36.89 13.65 36.9C13.83 36.91 14 36.94 14.18 36.98C14.35 37.03 14.51 37.09 14.67 37.17C14.83 37.25 14.99 37.34 15.13 37.45C15.27 37.56 15.4 37.68 15.52 37.81C15.64 37.94 15.74 38.09 15.83 38.24C15.92 38.4 15.99 38.56 16.05 38.73C16.11 38.9 16.15 39.07 16.17 39.25C16.2 39.42 16.2 39.6 16.19 39.78C16.18 39.96 16.15 40.13 16.11 40.3C16.06 40.48 16 40.64 15.92 40.8C15.84 40.96 15.75 41.11 15.64 41.26C15.53 41.4 15.41 41.53 15.28 41.65C15.15 41.77 15 41.87 14.85 41.96L7.83 46.08C7.67 46.17 7.51 46.25 7.34 46.3C7.17 46.36 7 46.4 6.82 46.42C6.64 46.44 6.46 46.45 6.29 46.44C6.11 46.43 5.93 46.4 5.76 46.35C5.59 46.3 5.42 46.24 5.26 46.16C5.1 46.08 4.95 45.99 4.81 45.88C4.67 45.77 4.54 45.65 4.42 45.51C4.3 45.38 4.2 45.24 4.11 45.08L4.03 45.08Z" fill="#419488" fill-opacity="1.000000" fill-rule="nonzero"/>
	</g>
	<g opacity="0.600000">
		<path id="path" d="M0 30.09C0 29.91 0.01 29.73 0.05 29.56C0.08 29.38 0.13 29.21 0.2 29.04C0.27 28.88 0.36 28.72 0.46 28.57C0.56 28.42 0.67 28.28 0.8 28.16C0.92 28.03 1.06 27.91 1.21 27.82C1.36 27.71 1.52 27.63 1.68 27.56C1.85 27.49 2.02 27.44 2.2 27.41C2.37 27.37 2.55 27.35 2.73 27.35L10.91 27.34C11.1 27.32 11.29 27.32 11.47 27.34C11.66 27.36 11.85 27.41 12.03 27.46C12.21 27.52 12.38 27.6 12.55 27.7C12.71 27.79 12.86 27.91 13 28.03C13.15 28.16 13.27 28.3 13.38 28.46C13.49 28.61 13.59 28.78 13.67 28.95C13.74 29.12 13.8 29.3 13.84 29.49C13.88 29.68 13.9 29.86 13.9 30.06C13.9 30.25 13.88 30.43 13.84 30.62C13.8 30.81 13.74 30.99 13.67 31.16C13.59 31.33 13.49 31.5 13.38 31.66C13.27 31.81 13.15 31.95 13 32.08C12.86 32.21 12.71 32.32 12.55 32.42C12.38 32.51 12.21 32.59 12.03 32.65C11.85 32.71 11.66 32.75 11.47 32.78C11.29 32.8 11.1 32.8 10.91 32.78L2.68 32.79C2.5 32.79 2.33 32.77 2.16 32.74C1.98 32.7 1.82 32.65 1.65 32.58C1.49 32.51 1.34 32.42 1.19 32.33C1.05 32.23 0.91 32.11 0.79 31.99C0.66 31.86 0.55 31.73 0.45 31.58C0.36 31.43 0.27 31.28 0.21 31.12C0.14 30.95 0.09 30.79 0.05 30.61C0.02 30.44 0 30.27 0 30.09Z" fill="#419488" fill-opacity="1.000000" fill-rule="nonzero"/>
	</g>
	<g opacity="0.500000">
		<path id="path" d="M4.01 15.11C4.1 14.94 4.2 14.79 4.32 14.65C4.44 14.51 4.58 14.39 4.72 14.27C4.87 14.16 5.02 14.06 5.19 13.98C5.35 13.9 5.52 13.83 5.7 13.78C5.88 13.74 6.06 13.71 6.25 13.7C6.43 13.69 6.61 13.69 6.8 13.72C6.98 13.75 7.16 13.79 7.33 13.85C7.5 13.91 7.67 14 7.83 14.09L14.92 18.17C15.06 18.26 15.19 18.37 15.31 18.49C15.43 18.61 15.54 18.74 15.64 18.88C15.73 19.02 15.81 19.17 15.88 19.33C15.95 19.49 16 19.65 16.04 19.81C16.08 19.98 16.1 20.15 16.11 20.32C16.11 20.49 16.1 20.66 16.08 20.82C16.05 20.99 16.01 21.16 15.96 21.32C15.9 21.48 15.83 21.63 15.75 21.78C15.66 21.93 15.57 22.07 15.45 22.2C15.34 22.33 15.22 22.44 15.09 22.55C14.96 22.66 14.82 22.75 14.67 22.83C14.52 22.91 14.36 22.98 14.2 23.03C14.04 23.08 13.87 23.12 13.7 23.14C13.53 23.16 13.36 23.16 13.19 23.15C13.02 23.14 12.85 23.12 12.69 23.07C12.53 23.03 12.37 22.97 12.21 22.9L5.12 18.82C4.96 18.74 4.81 18.64 4.67 18.52C4.53 18.41 4.41 18.28 4.29 18.14C4.18 18 4.08 17.85 3.99 17.7C3.91 17.54 3.84 17.37 3.79 17.2C3.74 17.02 3.7 16.85 3.69 16.67C3.67 16.49 3.67 16.31 3.69 16.13C3.71 15.95 3.75 15.77 3.8 15.6C3.85 15.43 3.92 15.26 4.01 15.11Z" fill="#419488" fill-opacity="1.000000" fill-rule="nonzero"/>
	</g>
	<g opacity="0.400000">
		<path id="path" d="M15 4.1C15.15 4.01 15.31 3.94 15.48 3.88C15.65 3.82 15.82 3.78 16 3.76C16.18 3.73 16.36 3.73 16.53 3.74C16.71 3.75 16.89 3.77 17.06 3.82C17.23 3.87 17.4 3.93 17.56 4.01C17.72 4.08 17.87 4.18 18.01 4.29C18.16 4.4 18.29 4.52 18.4 4.65C18.52 4.78 18.63 4.93 18.72 5.08L22.8 12.17C22.89 12.33 22.97 12.49 23.03 12.66C23.09 12.83 23.13 13 23.15 13.17C23.18 13.35 23.18 13.53 23.17 13.71C23.16 13.89 23.13 14.06 23.09 14.24C23.04 14.41 22.98 14.58 22.9 14.74C22.82 14.9 22.73 15.05 22.62 15.19C22.51 15.33 22.39 15.46 22.25 15.58C22.12 15.7 21.97 15.8 21.82 15.89C21.66 15.98 21.5 16.06 21.33 16.12C21.16 16.18 20.99 16.22 20.81 16.24C20.63 16.27 20.45 16.27 20.27 16.26C20.09 16.25 19.92 16.23 19.74 16.18C19.57 16.13 19.4 16.07 19.24 15.99C19.08 15.91 18.93 15.82 18.78 15.71C18.64 15.6 18.51 15.48 18.39 15.35C18.27 15.21 18.17 15.07 18.07 14.91L13.99 7.9C13.9 7.75 13.83 7.58 13.77 7.41C13.71 7.24 13.67 7.07 13.65 6.89C13.63 6.72 13.62 6.54 13.64 6.36C13.65 6.18 13.68 6 13.72 5.83C13.77 5.66 13.83 5.49 13.91 5.33C13.99 5.17 14.09 5.02 14.2 4.88C14.31 4.74 14.43 4.61 14.56 4.49C14.7 4.37 14.84 4.27 15 4.18L15 4.1Z" fill="#419488" fill-opacity="1.000000" fill-rule="nonzero"/>
	</g>
	<g opacity="0.300000">
		<path id="path" d="M30 0.04C30.18 0.04 30.35 0.06 30.53 0.09C30.71 0.13 30.88 0.18 31.04 0.25C31.21 0.32 31.37 0.4 31.51 0.5C31.66 0.6 31.8 0.71 31.93 0.84C32.06 0.97 32.17 1.1 32.27 1.25C32.37 1.4 32.45 1.56 32.52 1.73C32.59 1.89 32.64 2.06 32.68 2.24C32.71 2.41 32.73 2.59 32.73 2.77L32.73 10.95C32.75 11.14 32.75 11.33 32.72 11.52C32.7 11.71 32.66 11.89 32.6 12.07C32.54 12.25 32.46 12.42 32.37 12.59C32.27 12.75 32.16 12.91 32.03 13.05C31.9 13.19 31.76 13.32 31.61 13.43C31.45 13.54 31.29 13.63 31.11 13.71C30.94 13.79 30.76 13.85 30.57 13.89C30.39 13.93 30.2 13.95 30.01 13.95C29.82 13.95 29.63 13.93 29.44 13.89C29.26 13.85 29.08 13.79 28.9 13.71C28.73 13.64 28.56 13.54 28.41 13.43C28.25 13.32 28.11 13.2 27.99 13.06C27.86 12.91 27.75 12.76 27.65 12.6C27.55 12.43 27.47 12.26 27.41 12.08C27.35 11.9 27.31 11.72 27.29 11.53C27.27 11.34 27.27 11.15 27.29 10.96L27.29 2.78C27.29 2.6 27.3 2.42 27.34 2.25C27.37 2.08 27.42 1.91 27.49 1.74C27.56 1.58 27.64 1.42 27.74 1.27C27.84 1.12 27.95 0.98 28.08 0.85C28.2 0.73 28.34 0.61 28.49 0.51C28.64 0.41 28.79 0.33 28.96 0.26C29.12 0.19 29.29 0.14 29.47 0.1C29.64 0.06 29.82 0.04 30 0.04Z" fill="#419488" fill-opacity="1.000000" fill-rule="nonzero"/>
	</g>
	<g opacity="0.200000">
		<path id="path" d="M44.97 4.03C45.13 4.12 45.28 4.23 45.42 4.35C45.56 4.47 45.69 4.6 45.8 4.75C45.92 4.89 46.02 5.05 46.1 5.21C46.18 5.38 46.24 5.55 46.29 5.73C46.34 5.9 46.37 6.08 46.38 6.27C46.39 6.45 46.38 6.64 46.35 6.82C46.33 7 46.28 7.18 46.22 7.35C46.16 7.53 46.08 7.69 45.98 7.85L41.89 14.95C41.8 15.09 41.69 15.22 41.57 15.34C41.45 15.46 41.32 15.57 41.17 15.67C41.03 15.76 40.89 15.84 40.73 15.91C40.57 15.98 40.41 16.03 40.25 16.07C40.08 16.11 39.91 16.13 39.74 16.14C39.57 16.15 39.4 16.14 39.23 16.11C39.07 16.09 38.9 16.05 38.74 15.99C38.58 15.94 38.43 15.87 38.28 15.78C38.13 15.7 37.99 15.6 37.86 15.49C37.73 15.38 37.61 15.26 37.51 15.13C37.4 14.99 37.31 14.85 37.23 14.7C37.15 14.55 37.08 14.4 37.03 14.24C36.98 14.07 36.94 13.91 36.92 13.74C36.9 13.57 36.9 13.4 36.91 13.23C36.92 13.06 36.95 12.89 36.99 12.73C37.03 12.56 37.09 12.4 37.16 12.25L41.25 5.15C41.34 4.99 41.44 4.84 41.55 4.7C41.67 4.56 41.79 4.43 41.93 4.32C42.07 4.21 42.22 4.11 42.38 4.02C42.54 3.94 42.71 3.87 42.88 3.82C43.05 3.77 43.23 3.73 43.41 3.71C43.59 3.7 43.77 3.7 43.95 3.72C44.13 3.74 44.3 3.77 44.48 3.83C44.65 3.88 44.81 3.95 44.97 4.03Z" fill="#419488" fill-opacity="1.000000" fill-rule="nonzero"/>
	</g>
	<g opacity="0.100000">
		<path id="path" d="M55.95 15C56.04 15.16 56.12 15.32 56.18 15.49C56.24 15.66 56.28 15.83 56.3 16C56.33 16.18 56.33 16.36 56.32 16.54C56.31 16.72 56.28 16.89 56.24 17.07C56.19 17.24 56.13 17.41 56.05 17.57C55.97 17.73 55.88 17.88 55.77 18.02C55.66 18.16 55.54 18.29 55.4 18.41C55.27 18.53 55.12 18.63 54.97 18.72L47.88 22.82C47.72 22.91 47.56 22.99 47.39 23.05C47.22 23.1 47.05 23.15 46.87 23.17C46.69 23.2 46.52 23.2 46.34 23.19C46.16 23.18 45.98 23.15 45.81 23.11C45.64 23.06 45.47 23 45.31 22.92C45.15 22.84 45 22.75 44.86 22.64C44.72 22.53 44.58 22.41 44.47 22.28C44.35 22.14 44.25 22 44.16 21.84C44.07 21.69 43.99 21.52 43.93 21.35C43.87 21.18 43.83 21.01 43.81 20.83C43.78 20.66 43.78 20.48 43.79 20.3C43.8 20.12 43.83 19.94 43.87 19.77C43.92 19.59 43.98 19.42 44.06 19.26C44.14 19.1 44.23 18.95 44.34 18.81C44.45 18.66 44.57 18.53 44.71 18.41C44.84 18.29 44.99 18.19 45.14 18.1L52.16 14C52.32 13.91 52.48 13.84 52.65 13.78C52.82 13.72 52.99 13.68 53.17 13.66C53.35 13.64 53.52 13.63 53.7 13.65C53.88 13.66 54.06 13.69 54.23 13.73C54.4 13.78 54.57 13.84 54.73 13.92C54.89 14 55.04 14.09 55.18 14.2C55.32 14.31 55.45 14.43 55.57 14.57C55.69 14.7 55.79 14.85 55.88 15L55.95 15Z" fill="#419488" fill-opacity="1.000000" fill-rule="nonzero"/>
	</g>
	<path id="path" d="M60 30C59.99 30.17 59.97 30.35 59.94 30.52C59.9 30.7 59.85 30.87 59.78 31.03C59.71 31.2 59.63 31.35 59.53 31.5C59.43 31.65 59.31 31.79 59.19 31.91C59.06 32.04 58.92 32.15 58.77 32.25C58.62 32.35 58.47 32.43 58.3 32.5C58.14 32.57 57.97 32.62 57.79 32.66C57.62 32.69 57.44 32.71 57.26 32.71L49.08 32.72C48.89 32.74 48.71 32.74 48.52 32.72C48.33 32.7 48.14 32.66 47.96 32.6C47.78 32.54 47.61 32.46 47.44 32.36C47.28 32.27 47.13 32.15 46.99 32.03C46.84 31.9 46.72 31.76 46.61 31.6C46.5 31.45 46.4 31.28 46.32 31.11C46.25 30.94 46.19 30.76 46.15 30.57C46.11 30.38 46.09 30.2 46.09 30C46.09 29.82 46.11 29.63 46.15 29.44C46.19 29.25 46.25 29.07 46.32 28.9C46.4 28.72 46.5 28.56 46.61 28.41C46.72 28.25 46.84 28.11 46.99 27.98C47.13 27.85 47.28 27.74 47.44 27.64C47.61 27.55 47.78 27.47 47.96 27.41C48.14 27.35 48.33 27.31 48.52 27.28C48.71 27.26 48.89 27.26 49.08 27.28L57.26 27.27C57.44 27.26 57.62 27.28 57.79 27.32C57.97 27.35 58.14 27.4 58.31 27.47C58.47 27.54 58.63 27.62 58.78 27.72C58.93 27.82 59.07 27.94 59.19 28.06C59.32 28.19 59.43 28.33 59.53 28.48C59.63 28.63 59.72 28.78 59.79 28.95C59.86 29.11 59.91 29.29 59.94 29.46C59.98 29.64 60 29.82 60 30ZM55.98 44.98C55.89 45.14 55.79 45.29 55.67 45.43C55.55 45.57 55.41 45.7 55.27 45.81C55.12 45.92 54.97 46.02 54.8 46.1C54.64 46.19 54.47 46.25 54.29 46.3C54.11 46.35 53.93 46.38 53.74 46.39C53.56 46.4 53.38 46.39 53.19 46.36C53.01 46.34 52.83 46.29 52.66 46.23C52.49 46.17 52.32 46.09 52.16 45.99L45.07 41.91C44.93 41.82 44.8 41.71 44.68 41.59C44.56 41.47 44.45 41.34 44.35 41.2C44.26 41.06 44.18 40.91 44.11 40.75C44.04 40.6 43.99 40.44 43.95 40.27C43.91 40.1 43.89 39.94 43.88 39.77C43.88 39.6 43.89 39.43 43.91 39.26C43.94 39.09 43.98 38.93 44.03 38.76C44.09 38.6 44.16 38.45 44.24 38.3C44.33 38.16 44.43 38.02 44.54 37.89C44.65 37.76 44.77 37.64 44.9 37.53C45.03 37.42 45.17 37.33 45.32 37.25C45.47 37.17 45.63 37.1 45.79 37.05C45.96 37 46.12 36.96 46.29 36.94C46.46 36.92 46.63 36.92 46.8 36.93C46.97 36.94 47.14 36.97 47.3 37.01C47.47 37.05 47.62 37.11 47.78 37.18L54.87 41.26C55.03 41.34 55.18 41.44 55.32 41.56C55.46 41.67 55.59 41.8 55.7 41.94C55.81 42.08 55.91 42.23 56 42.39C56.08 42.55 56.15 42.71 56.2 42.89C56.25 43.06 56.29 43.24 56.3 43.41C56.32 43.59 56.32 43.77 56.3 43.95C56.28 44.13 56.24 44.31 56.19 44.48C56.14 44.65 56.07 44.82 55.98 44.98Z" fill="#419488" fill-opacity="1.000000" fill-rule="nonzero"/>
</svg>
