<svg width="59.997803" height="60.000000" viewBox="0 0 59.9978 60" fill="none" xmlns="http://www.w3.org/2000/svg" xmlns:xlink="http://www.w3.org/1999/xlink">
	<desc>
			Created with Pixso.
	</desc>
	<defs/>
	<path id="path" d="M55.95 15C56.04 15.15 56.12 15.31 56.18 15.48C56.24 15.65 56.28 15.82 56.3 16C56.33 16.18 56.33 16.35 56.32 16.53C56.31 16.71 56.28 16.89 56.24 17.06C56.19 17.23 56.13 17.4 56.05 17.56C55.97 17.72 55.88 17.87 55.77 18.01C55.66 18.16 55.54 18.29 55.4 18.4C55.27 18.52 55.12 18.62 54.97 18.71L47.87 22.8C47.72 22.89 47.56 22.97 47.39 23.02C47.22 23.08 47.05 23.12 46.87 23.15C46.69 23.17 46.52 23.18 46.34 23.16C46.16 23.16 45.98 23.13 45.81 23.08C45.64 23.03 45.47 22.97 45.31 22.89C45.15 22.82 45 22.72 44.86 22.61C44.72 22.5 44.59 22.38 44.47 22.25C44.35 22.12 44.25 21.97 44.16 21.82C44.07 21.66 43.99 21.5 43.93 21.33C43.88 21.16 43.84 20.99 43.81 20.81C43.79 20.64 43.78 20.46 43.79 20.28C43.8 20.1 43.83 19.93 43.88 19.75C43.92 19.58 43.99 19.41 44.06 19.25C44.14 19.09 44.24 18.94 44.34 18.8C44.45 18.66 44.57 18.53 44.71 18.41C44.84 18.29 44.99 18.19 45.14 18.1L52.16 13.99C52.32 13.9 52.48 13.83 52.65 13.77C52.82 13.71 52.99 13.67 53.17 13.65C53.35 13.63 53.52 13.62 53.7 13.63C53.88 13.65 54.06 13.68 54.23 13.72C54.4 13.77 54.57 13.83 54.73 13.91C54.89 13.99 55.04 14.09 55.18 14.2C55.32 14.31 55.45 14.43 55.57 14.56C55.69 14.7 55.79 14.84 55.88 15L55.95 15Z" fill="#419488" fill-opacity="1.000000" fill-rule="nonzero"/>
	<g opacity="0.900000">
		<path id="path" d="M59.99 30C59.99 30.17 59.98 30.35 59.94 30.53C59.91 30.71 59.85 30.88 59.78 31.04C59.72 31.21 59.63 31.37 59.53 31.51C59.43 31.66 59.32 31.8 59.19 31.93C59.07 32.06 58.93 32.17 58.78 32.27C58.63 32.37 58.47 32.45 58.31 32.52C58.14 32.59 57.97 32.64 57.79 32.68C57.62 32.71 57.44 32.73 57.26 32.73L49.08 32.73C48.89 32.75 48.7 32.75 48.51 32.73C48.32 32.7 48.14 32.66 47.96 32.6C47.78 32.54 47.61 32.46 47.44 32.37C47.28 32.27 47.12 32.16 46.98 32.03C46.84 31.9 46.72 31.76 46.61 31.61C46.49 31.45 46.4 31.29 46.32 31.11C46.25 30.94 46.19 30.76 46.15 30.57C46.11 30.39 46.09 30.2 46.09 30.01C46.09 29.82 46.11 29.63 46.15 29.44C46.19 29.26 46.25 29.08 46.32 28.9C46.4 28.73 46.49 28.56 46.61 28.41C46.72 28.25 46.84 28.11 46.98 27.99C47.12 27.86 47.28 27.75 47.44 27.65C47.61 27.55 47.78 27.48 47.96 27.41C48.14 27.35 48.32 27.31 48.51 27.29C48.7 27.27 48.89 27.27 49.08 27.29L57.31 27.29C57.48 27.29 57.66 27.31 57.83 27.35C58 27.38 58.17 27.44 58.33 27.51C58.5 27.58 58.65 27.66 58.8 27.76C58.94 27.86 59.08 27.97 59.2 28.1C59.33 28.22 59.44 28.36 59.53 28.5C59.63 28.65 59.71 28.81 59.78 28.97C59.85 29.13 59.9 29.3 59.94 29.47C59.97 29.65 59.99 29.82 59.99 30Z" fill="#419488" fill-opacity="1.000000" fill-rule="nonzero"/>
	</g>
	<g opacity="0.800000">
		<path id="path" d="M55.98 44.97C55.89 45.12 55.79 45.27 55.67 45.4C55.55 45.54 55.42 45.66 55.28 45.77C55.14 45.88 54.99 45.97 54.83 46.05C54.67 46.13 54.5 46.19 54.33 46.24C54.15 46.29 53.98 46.32 53.8 46.33C53.62 46.34 53.44 46.34 53.27 46.31C53.09 46.29 52.92 46.25 52.75 46.2C52.58 46.14 52.41 46.07 52.26 45.98L45.17 41.89C45.03 41.79 44.9 41.68 44.78 41.57C44.65 41.44 44.55 41.31 44.45 41.17C44.36 41.03 44.27 40.88 44.21 40.73C44.14 40.57 44.08 40.41 44.05 40.25C44.01 40.08 43.99 39.91 43.98 39.74C43.97 39.57 43.98 39.4 44.01 39.23C44.03 39.07 44.07 38.9 44.13 38.74C44.18 38.58 44.26 38.42 44.34 38.28C44.42 38.13 44.52 37.99 44.63 37.86C44.74 37.73 44.86 37.61 45 37.51C45.13 37.4 45.27 37.31 45.42 37.23C45.57 37.15 45.73 37.08 45.89 37.03C46.05 36.98 46.22 36.94 46.39 36.92C46.56 36.9 46.73 36.9 46.9 36.91C47.06 36.92 47.23 36.95 47.4 36.99C47.56 37.03 47.72 37.09 47.88 37.16L54.97 41.25C55.12 41.34 55.27 41.44 55.4 41.56C55.54 41.68 55.66 41.81 55.77 41.95C55.88 42.09 55.97 42.24 56.05 42.4C56.13 42.56 56.19 42.73 56.24 42.9C56.29 43.07 56.32 43.25 56.33 43.43C56.34 43.61 56.34 43.78 56.31 43.96C56.29 44.14 56.25 44.31 56.2 44.48C56.14 44.65 56.07 44.81 55.98 44.97Z" fill="#419488" fill-opacity="1.000000" fill-rule="nonzero"/>
	</g>
	<g opacity="0.700000">
		<path id="path" d="M44.99 55.96C44.84 56.05 44.68 56.12 44.51 56.18C44.34 56.24 44.17 56.28 43.99 56.3C43.81 56.33 43.63 56.33 43.46 56.32C43.28 56.31 43.1 56.28 42.93 56.24C42.76 56.19 42.59 56.13 42.43 56.05C42.27 55.97 42.12 55.88 41.97 55.77C41.83 55.66 41.7 55.54 41.58 55.4C41.47 55.27 41.36 55.12 41.27 54.97L37.19 47.88C37.1 47.72 37.02 47.56 36.97 47.39C36.91 47.22 36.87 47.05 36.84 46.87C36.82 46.7 36.81 46.52 36.82 46.34C36.84 46.16 36.86 45.99 36.91 45.81C36.96 45.64 37.02 45.48 37.1 45.32C37.18 45.16 37.27 45 37.38 44.86C37.49 44.72 37.61 44.59 37.74 44.47C37.87 44.35 38.02 44.25 38.17 44.16C38.33 44.07 38.49 44 38.66 43.94C38.83 43.88 39 43.84 39.18 43.82C39.35 43.79 39.53 43.79 39.71 43.8C39.89 43.81 40.06 43.84 40.23 43.88C40.41 43.93 40.57 43.99 40.73 44.07C40.89 44.15 41.05 44.24 41.19 44.35C41.33 44.46 41.46 44.58 41.58 44.71C41.7 44.84 41.8 44.99 41.89 45.14L46 52.16C46.09 52.32 46.16 52.48 46.22 52.65C46.28 52.82 46.32 52.99 46.34 53.17C46.36 53.35 46.37 53.52 46.35 53.7C46.34 53.88 46.31 54.06 46.27 54.23C46.22 54.4 46.15 54.57 46.08 54.73C46 54.89 45.9 55.04 45.79 55.18C45.68 55.32 45.56 55.45 45.43 55.57C45.29 55.69 45.15 55.79 44.99 55.88L44.99 55.96Z" fill="#419488" fill-opacity="1.000000" fill-rule="nonzero"/>
	</g>
	<g opacity="0.600000">
		<path id="path" d="M29.99 60C29.81 60 29.64 59.98 29.46 59.94C29.29 59.91 29.11 59.85 28.95 59.79C28.78 59.72 28.62 59.63 28.48 59.53C28.33 59.43 28.19 59.32 28.06 59.19C27.93 59.07 27.82 58.93 27.72 58.78C27.62 58.63 27.54 58.47 27.47 58.31C27.4 58.14 27.35 57.97 27.31 57.79C27.28 57.62 27.26 57.44 27.26 57.26L27.26 49.08C27.24 48.89 27.24 48.7 27.27 48.52C27.29 48.33 27.33 48.14 27.39 47.96C27.45 47.78 27.53 47.61 27.62 47.44C27.72 47.28 27.83 47.13 27.96 46.99C28.09 46.84 28.23 46.72 28.38 46.61C28.54 46.5 28.7 46.4 28.88 46.33C29.05 46.25 29.23 46.19 29.42 46.15C29.6 46.11 29.79 46.09 29.98 46.09C30.17 46.09 30.36 46.11 30.55 46.15C30.73 46.19 30.91 46.25 31.09 46.33C31.26 46.4 31.43 46.5 31.58 46.61C31.74 46.72 31.88 46.84 32 46.99C32.13 47.13 32.25 47.28 32.34 47.44C32.44 47.61 32.52 47.78 32.58 47.96C32.64 48.14 32.68 48.33 32.7 48.52C32.72 48.7 32.72 48.89 32.7 49.08L32.7 57.31C32.7 57.49 32.68 57.66 32.64 57.83C32.61 58.01 32.55 58.17 32.48 58.33C32.41 58.5 32.33 58.65 32.23 58.8C32.13 58.94 32.02 59.08 31.89 59.2C31.77 59.33 31.63 59.44 31.49 59.54C31.34 59.63 31.18 59.72 31.02 59.78C30.86 59.85 30.69 59.9 30.52 59.94C30.35 59.98 30.17 59.99 29.99 60Z" fill="#419488" fill-opacity="1.000000" fill-rule="nonzero"/>
	</g>
	<g opacity="0.500000">
		<path id="path" d="M15.02 55.98C14.86 55.89 14.71 55.79 14.57 55.67C14.43 55.55 14.3 55.41 14.19 55.27C14.07 55.12 13.97 54.97 13.89 54.8C13.81 54.64 13.75 54.47 13.7 54.29C13.65 54.11 13.62 53.93 13.61 53.74C13.6 53.56 13.61 53.38 13.64 53.19C13.66 53.01 13.71 52.83 13.77 52.66C13.83 52.49 13.91 52.32 14.01 52.16L18.1 45.07C18.19 44.93 18.3 44.8 18.42 44.68C18.54 44.56 18.67 44.45 18.81 44.35C18.96 44.26 19.1 44.18 19.26 44.11C19.42 44.04 19.58 43.99 19.74 43.95C19.91 43.91 20.08 43.89 20.25 43.88C20.42 43.88 20.59 43.89 20.75 43.91C20.92 43.94 21.09 43.98 21.25 44.03C21.41 44.09 21.56 44.16 21.71 44.24C21.86 44.33 22 44.42 22.13 44.54C22.26 44.65 22.37 44.77 22.48 44.9C22.59 45.03 22.68 45.17 22.76 45.33C22.84 45.48 22.91 45.63 22.96 45.79C23.01 45.96 23.05 46.12 23.07 46.29C23.09 46.46 23.09 46.63 23.08 46.8C23.07 46.97 23.04 47.14 23 47.3C22.96 47.47 22.9 47.63 22.83 47.78L18.74 54.87C18.65 55.03 18.55 55.18 18.44 55.32C18.32 55.46 18.2 55.58 18.06 55.7C17.92 55.81 17.77 55.91 17.61 56C17.45 56.08 17.28 56.15 17.11 56.2C16.94 56.25 16.76 56.29 16.58 56.3C16.4 56.32 16.22 56.32 16.04 56.3C15.86 56.28 15.69 56.25 15.51 56.19C15.34 56.14 15.18 56.07 15.02 55.98Z" fill="#419488" fill-opacity="1.000000" fill-rule="nonzero"/>
	</g>
	<g opacity="0.400000">
		<path id="path" d="M4.03 44.99C3.94 44.84 3.87 44.68 3.81 44.51C3.75 44.34 3.71 44.17 3.69 43.99C3.66 43.81 3.66 43.63 3.67 43.46C3.68 43.28 3.71 43.1 3.75 42.93C3.8 42.76 3.86 42.59 3.94 42.43C4.02 42.27 4.11 42.12 4.22 41.98C4.33 41.83 4.45 41.7 4.59 41.58C4.72 41.47 4.86 41.36 5.02 41.27L12.11 37.19C12.27 37.09 12.43 37.02 12.6 36.96C12.77 36.9 12.94 36.86 13.12 36.84C13.29 36.81 13.47 36.81 13.65 36.82C13.83 36.83 14.01 36.86 14.18 36.9C14.35 36.95 14.52 37.01 14.68 37.09C14.84 37.17 14.99 37.26 15.13 37.37C15.27 37.48 15.4 37.6 15.52 37.74C15.64 37.87 15.74 38.02 15.83 38.17C15.92 38.33 16 38.49 16.06 38.66C16.12 38.83 16.16 39 16.18 39.18C16.21 39.36 16.21 39.54 16.2 39.72C16.19 39.9 16.16 40.07 16.12 40.25C16.07 40.42 16.01 40.59 15.93 40.75C15.85 40.91 15.76 41.07 15.65 41.21C15.54 41.35 15.42 41.48 15.28 41.6C15.15 41.72 15 41.83 14.85 41.91L7.83 46C7.67 46.09 7.51 46.16 7.34 46.22C7.17 46.28 7 46.32 6.82 46.34C6.64 46.36 6.46 46.37 6.29 46.35C6.11 46.34 5.93 46.31 5.76 46.26C5.59 46.22 5.42 46.16 5.26 46.08C5.1 46 4.95 45.9 4.81 45.79C4.67 45.68 4.54 45.56 4.42 45.43C4.3 45.29 4.2 45.15 4.11 44.99L4.03 44.99Z" fill="#419488" fill-opacity="1.000000" fill-rule="nonzero"/>
	</g>
	<g opacity="0.300000">
		<path id="path" d="M0 30C0 29.82 0.01 29.64 0.05 29.46C0.08 29.29 0.13 29.11 0.2 28.95C0.27 28.78 0.36 28.63 0.46 28.48C0.56 28.33 0.67 28.19 0.8 28.06C0.92 27.93 1.06 27.82 1.21 27.72C1.36 27.62 1.52 27.54 1.68 27.47C1.85 27.4 2.02 27.35 2.2 27.31C2.37 27.28 2.55 27.26 2.73 27.26L10.91 27.26C11.1 27.24 11.29 27.25 11.47 27.27C11.66 27.29 11.85 27.33 12.03 27.39C12.21 27.45 12.38 27.53 12.55 27.62C12.71 27.72 12.86 27.83 13 27.96C13.15 28.09 13.27 28.23 13.38 28.38C13.49 28.54 13.59 28.7 13.67 28.88C13.74 29.05 13.8 29.23 13.84 29.42C13.88 29.6 13.9 29.79 13.9 29.98C13.9 30.17 13.88 30.36 13.84 30.55C13.8 30.74 13.74 30.91 13.67 31.09C13.59 31.26 13.49 31.43 13.38 31.58C13.27 31.74 13.15 31.88 13 32C12.86 32.13 12.71 32.25 12.55 32.34C12.38 32.44 12.21 32.52 12.03 32.58C11.85 32.64 11.66 32.68 11.47 32.7C11.29 32.72 11.1 32.72 10.91 32.7L2.73 32.7C2.55 32.7 2.37 32.69 2.2 32.65C2.02 32.62 1.85 32.57 1.69 32.5C1.52 32.43 1.37 32.35 1.22 32.25C1.07 32.15 0.93 32.04 0.8 31.91C0.68 31.79 0.56 31.65 0.46 31.5C0.36 31.35 0.28 31.2 0.21 31.03C0.14 30.87 0.09 30.7 0.05 30.52C0.02 30.35 0 30.17 0 30Z" fill="#419488" fill-opacity="1.000000" fill-rule="nonzero"/>
	</g>
	<g opacity="0.200000">
		<path id="path" d="M4.01 15.02C4.1 14.86 4.2 14.71 4.32 14.57C4.44 14.43 4.58 14.3 4.72 14.19C4.87 14.07 5.02 13.98 5.19 13.89C5.35 13.81 5.52 13.75 5.7 13.7C5.88 13.65 6.06 13.62 6.25 13.61C6.43 13.6 6.61 13.61 6.8 13.64C6.98 13.66 7.16 13.71 7.33 13.77C7.5 13.83 7.67 13.91 7.83 14.01L14.92 18.1C15.06 18.19 15.19 18.3 15.31 18.42C15.43 18.54 15.54 18.67 15.64 18.82C15.73 18.96 15.81 19.1 15.88 19.26C15.95 19.42 16 19.58 16.04 19.74C16.08 19.91 16.1 20.08 16.11 20.25C16.11 20.42 16.1 20.59 16.08 20.75C16.05 20.92 16.01 21.09 15.96 21.25C15.9 21.41 15.83 21.56 15.75 21.71C15.66 21.86 15.57 22 15.45 22.13C15.34 22.26 15.22 22.38 15.09 22.48C14.96 22.59 14.82 22.68 14.67 22.76C14.52 22.84 14.36 22.91 14.2 22.96C14.04 23.01 13.87 23.05 13.7 23.07C13.53 23.09 13.36 23.09 13.19 23.08C13.02 23.07 12.85 23.04 12.69 23C12.53 22.96 12.37 22.9 12.21 22.83L5.12 18.74C4.96 18.65 4.81 18.55 4.67 18.44C4.53 18.32 4.41 18.2 4.29 18.06C4.18 17.92 4.08 17.77 3.99 17.61C3.91 17.45 3.84 17.28 3.79 17.11C3.74 16.94 3.7 16.76 3.69 16.58C3.67 16.4 3.67 16.22 3.69 16.04C3.71 15.86 3.75 15.69 3.8 15.51C3.85 15.34 3.92 15.18 4.01 15.02Z" fill="#419488" fill-opacity="1.000000" fill-rule="nonzero"/>
	</g>
	<g opacity="0.100000">
		<path id="path" d="M14.99 4.04C15.15 3.94 15.31 3.87 15.48 3.81C15.65 3.75 15.82 3.71 16 3.69C16.18 3.66 16.35 3.66 16.53 3.67C16.71 3.68 16.89 3.71 17.06 3.75C17.23 3.8 17.4 3.86 17.56 3.94C17.72 4.02 17.87 4.11 18.01 4.22C18.16 4.33 18.29 4.45 18.4 4.59C18.52 4.72 18.62 4.87 18.71 5.02L22.8 12.11C22.89 12.27 22.97 12.43 23.03 12.6C23.08 12.77 23.13 12.94 23.15 13.12C23.17 13.3 23.18 13.47 23.17 13.65C23.16 13.83 23.13 14.01 23.08 14.18C23.04 14.35 22.98 14.52 22.9 14.68C22.82 14.84 22.72 14.99 22.62 15.13C22.51 15.27 22.39 15.41 22.25 15.52C22.12 15.64 21.97 15.74 21.82 15.83C21.66 15.92 21.5 16 21.33 16.06C21.16 16.12 20.99 16.16 20.81 16.18C20.63 16.21 20.45 16.21 20.27 16.2C20.09 16.19 19.91 16.16 19.74 16.12C19.57 16.07 19.4 16.01 19.24 15.93C19.08 15.85 18.92 15.76 18.78 15.65C18.64 15.54 18.51 15.42 18.39 15.28C18.27 15.15 18.16 15 18.07 14.85L13.98 7.83C13.9 7.67 13.82 7.51 13.77 7.34C13.71 7.17 13.67 7 13.65 6.82C13.63 6.64 13.62 6.47 13.63 6.29C13.65 6.11 13.68 5.93 13.72 5.76C13.77 5.59 13.83 5.42 13.91 5.26C13.99 5.1 14.09 4.95 14.2 4.81C14.3 4.67 14.43 4.54 14.56 4.42C14.7 4.3 14.84 4.2 14.99 4.11L14.99 4.04Z" fill="#419488" fill-opacity="1.000000" fill-rule="nonzero"/>
	</g>
	<path id="path" d="M29.99 0C30.17 0 30.35 0.01 30.52 0.05C30.7 0.09 30.87 0.14 31.03 0.21C31.2 0.28 31.35 0.36 31.5 0.46C31.65 0.56 31.79 0.68 31.91 0.8C32.04 0.93 32.15 1.07 32.25 1.22C32.35 1.37 32.43 1.52 32.5 1.69C32.57 1.85 32.62 2.02 32.65 2.2C32.69 2.37 32.7 2.55 32.7 2.73L32.7 10.91C32.72 11.09 32.72 11.28 32.7 11.47C32.68 11.66 32.64 11.85 32.58 12.03C32.52 12.21 32.44 12.38 32.34 12.55C32.25 12.71 32.13 12.86 32 13C31.88 13.15 31.74 13.27 31.58 13.38C31.43 13.5 31.26 13.59 31.09 13.66C30.91 13.74 30.73 13.8 30.55 13.84C30.36 13.88 30.17 13.9 29.98 13.9C29.79 13.9 29.6 13.88 29.42 13.84C29.23 13.8 29.05 13.74 28.88 13.66C28.7 13.59 28.54 13.5 28.38 13.38C28.23 13.27 28.09 13.15 27.96 13C27.83 12.86 27.72 12.71 27.62 12.55C27.53 12.38 27.45 12.21 27.39 12.03C27.33 11.85 27.29 11.66 27.27 11.47C27.24 11.28 27.24 11.09 27.26 10.91L27.26 2.73C27.26 2.55 27.28 2.37 27.31 2.2C27.35 2.02 27.4 1.85 27.47 1.68C27.54 1.52 27.62 1.36 27.72 1.21C27.82 1.06 27.93 0.92 28.06 0.8C28.19 0.67 28.33 0.56 28.48 0.46C28.62 0.36 28.78 0.27 28.95 0.2C29.11 0.13 29.29 0.08 29.46 0.05C29.64 0.01 29.81 0 29.99 0ZM44.97 4.01C45.13 4.1 45.28 4.2 45.42 4.32C45.56 4.44 45.69 4.58 45.8 4.72C45.92 4.87 46.01 5.02 46.1 5.19C46.18 5.35 46.24 5.52 46.29 5.7C46.34 5.88 46.37 6.06 46.38 6.25C46.39 6.43 46.38 6.61 46.35 6.8C46.32 6.98 46.28 7.16 46.22 7.33C46.15 7.5 46.08 7.67 45.98 7.83L41.89 14.92C41.79 15.06 41.69 15.19 41.57 15.31C41.44 15.43 41.31 15.54 41.17 15.64C41.03 15.73 40.88 15.81 40.73 15.88C40.57 15.95 40.41 16 40.25 16.04C40.08 16.08 39.91 16.1 39.74 16.11C39.57 16.11 39.4 16.1 39.23 16.08C39.06 16.05 38.9 16.01 38.74 15.96C38.58 15.9 38.42 15.83 38.28 15.75C38.13 15.66 37.99 15.57 37.86 15.45C37.73 15.34 37.61 15.22 37.51 15.09C37.4 14.96 37.31 14.82 37.23 14.66C37.15 14.52 37.08 14.36 37.03 14.2C36.98 14.03 36.94 13.87 36.92 13.7C36.9 13.53 36.9 13.36 36.91 13.19C36.92 13.02 36.95 12.85 36.99 12.69C37.03 12.52 37.09 12.37 37.16 12.21L41.25 5.12C41.34 4.96 41.44 4.81 41.55 4.67C41.66 4.53 41.79 4.41 41.93 4.29C42.07 4.18 42.22 4.08 42.38 3.99C42.54 3.91 42.71 3.84 42.88 3.79C43.05 3.74 43.23 3.7 43.41 3.69C43.59 3.67 43.77 3.67 43.95 3.69C44.13 3.71 44.3 3.75 44.47 3.8C44.65 3.85 44.81 3.92 44.97 4.01Z" fill="#419488" fill-opacity="1.000000" fill-rule="nonzero"/>
</svg>
