<svg width="60.000000" height="59.998047" viewBox="0 0 60 59.998" fill="none" xmlns="http://www.w3.org/2000/svg" xmlns:xlink="http://www.w3.org/1999/xlink">
	<desc>
			Created with Pixso.
	</desc>
	<defs/>
	<path id="path" d="M15 4.03C15.15 3.94 15.31 3.87 15.48 3.81C15.65 3.75 15.82 3.71 16 3.69C16.18 3.66 16.35 3.66 16.53 3.67C16.71 3.68 16.89 3.71 17.06 3.75C17.23 3.8 17.4 3.86 17.56 3.94C17.72 4.02 17.87 4.11 18.01 4.22C18.16 4.33 18.29 4.45 18.4 4.58C18.52 4.72 18.63 4.86 18.71 5.02L22.8 12.11C22.89 12.27 22.97 12.43 23.02 12.6C23.08 12.77 23.12 12.94 23.15 13.12C23.17 13.29 23.18 13.47 23.17 13.65C23.15 13.83 23.13 14 23.08 14.18C23.03 14.35 22.97 14.51 22.89 14.68C22.82 14.84 22.72 14.99 22.61 15.13C22.51 15.27 22.38 15.4 22.25 15.52C22.12 15.64 21.97 15.74 21.82 15.83C21.66 15.92 21.5 16 21.33 16.05C21.16 16.11 20.99 16.15 20.81 16.18C20.64 16.2 20.46 16.21 20.28 16.19C20.1 16.18 19.93 16.16 19.75 16.11C19.58 16.06 19.41 16 19.25 15.92C19.09 15.84 18.94 15.75 18.8 15.64C18.66 15.53 18.53 15.41 18.41 15.28C18.29 15.15 18.19 15 18.1 14.85L13.99 7.83C13.9 7.67 13.82 7.51 13.77 7.34C13.71 7.17 13.67 7 13.65 6.82C13.63 6.64 13.62 6.46 13.63 6.29C13.65 6.11 13.68 5.93 13.72 5.76C13.77 5.59 13.83 5.42 13.91 5.26C13.99 5.1 14.09 4.95 14.2 4.81C14.3 4.67 14.43 4.54 14.56 4.42C14.7 4.3 14.84 4.2 15 4.11L15 4.03Z" fill="#419488" fill-opacity="1.000000" fill-rule="nonzero"/>
	<g opacity="0.900000">
		<path id="path" d="M30 0C30.18 0 30.35 0.01 30.53 0.05C30.71 0.08 30.88 0.14 31.04 0.2C31.21 0.27 31.37 0.36 31.51 0.46C31.66 0.56 31.8 0.67 31.93 0.8C32.06 0.92 32.17 1.06 32.27 1.21C32.37 1.36 32.45 1.52 32.52 1.68C32.59 1.85 32.64 2.02 32.68 2.2C32.71 2.37 32.73 2.55 32.73 2.73L32.73 10.91C32.75 11.1 32.75 11.29 32.72 11.47C32.7 11.66 32.66 11.85 32.6 12.03C32.54 12.21 32.46 12.38 32.37 12.55C32.27 12.71 32.16 12.86 32.03 13C31.9 13.15 31.76 13.27 31.61 13.38C31.45 13.5 31.29 13.59 31.11 13.66C30.94 13.74 30.76 13.8 30.57 13.84C30.39 13.88 30.2 13.9 30.01 13.9C29.82 13.9 29.63 13.88 29.44 13.84C29.26 13.8 29.08 13.74 28.9 13.66C28.73 13.59 28.56 13.5 28.41 13.38C28.25 13.27 28.11 13.15 27.99 13C27.86 12.86 27.75 12.71 27.65 12.55C27.55 12.38 27.47 12.21 27.41 12.03C27.35 11.85 27.31 11.66 27.29 11.47C27.27 11.29 27.27 11.1 27.29 10.91L27.29 2.68C27.29 2.5 27.31 2.33 27.35 2.16C27.38 1.98 27.44 1.82 27.51 1.66C27.58 1.49 27.66 1.34 27.76 1.19C27.86 1.05 27.97 0.91 28.1 0.79C28.22 0.66 28.36 0.55 28.5 0.45C28.65 0.36 28.81 0.27 28.97 0.21C29.13 0.14 29.3 0.09 29.47 0.05C29.64 0.01 29.82 0 30 0Z" fill="#419488" fill-opacity="1.000000" fill-rule="nonzero"/>
	</g>
	<g opacity="0.800000">
		<path id="path" d="M44.97 4.01C45.12 4.1 45.27 4.2 45.4 4.32C45.54 4.44 45.66 4.57 45.77 4.71C45.88 4.85 45.97 5 46.05 5.16C46.13 5.32 46.19 5.49 46.24 5.66C46.29 5.83 46.32 6.01 46.33 6.19C46.34 6.37 46.34 6.54 46.32 6.72C46.29 6.9 46.25 7.07 46.2 7.24C46.14 7.41 46.07 7.57 45.98 7.73L41.89 14.82C41.79 14.96 41.69 15.09 41.57 15.21C41.45 15.33 41.31 15.44 41.17 15.54C41.03 15.63 40.88 15.72 40.73 15.78C40.57 15.85 40.41 15.9 40.25 15.94C40.08 15.98 39.91 16 39.74 16.01C39.57 16.01 39.4 16.01 39.23 15.98C39.07 15.96 38.9 15.91 38.74 15.86C38.58 15.8 38.42 15.73 38.28 15.65C38.13 15.56 37.99 15.47 37.86 15.36C37.73 15.25 37.61 15.12 37.51 14.99C37.4 14.86 37.31 14.72 37.23 14.57C37.15 14.42 37.08 14.26 37.03 14.1C36.98 13.94 36.94 13.77 36.92 13.6C36.9 13.43 36.9 13.26 36.91 13.09C36.92 12.92 36.95 12.76 36.99 12.59C37.03 12.43 37.09 12.27 37.16 12.11L41.25 5.02C41.34 4.86 41.44 4.72 41.56 4.59C41.68 4.45 41.81 4.33 41.95 4.22C42.09 4.11 42.24 4.02 42.4 3.94C42.56 3.86 42.73 3.8 42.9 3.75C43.07 3.7 43.25 3.67 43.43 3.66C43.61 3.65 43.78 3.65 43.96 3.67C44.14 3.7 44.31 3.74 44.48 3.79C44.65 3.85 44.81 3.92 44.97 4.01Z" fill="#419488" fill-opacity="1.000000" fill-rule="nonzero"/>
	</g>
	<g opacity="0.700000">
		<path id="path" d="M55.96 15C56.05 15.15 56.12 15.31 56.18 15.48C56.24 15.65 56.28 15.82 56.3 16C56.33 16.18 56.33 16.35 56.32 16.53C56.31 16.71 56.28 16.89 56.24 17.06C56.19 17.23 56.13 17.4 56.05 17.56C55.97 17.72 55.88 17.87 55.77 18.01C55.66 18.16 55.54 18.29 55.4 18.4C55.27 18.52 55.13 18.62 54.97 18.71L47.88 22.8C47.72 22.89 47.56 22.97 47.39 23.02C47.22 23.08 47.05 23.12 46.87 23.15C46.7 23.17 46.52 23.17 46.34 23.16C46.16 23.15 45.99 23.12 45.81 23.08C45.64 23.03 45.48 22.97 45.32 22.89C45.16 22.81 45 22.72 44.86 22.61C44.72 22.5 44.59 22.38 44.47 22.25C44.35 22.11 44.25 21.97 44.16 21.82C44.07 21.66 44 21.5 43.94 21.33C43.88 21.16 43.84 20.99 43.82 20.81C43.79 20.64 43.79 20.46 43.8 20.28C43.81 20.1 43.84 19.93 43.88 19.75C43.93 19.58 43.99 19.41 44.07 19.25C44.15 19.09 44.24 18.94 44.35 18.8C44.46 18.66 44.58 18.53 44.71 18.41C44.84 18.29 44.99 18.19 45.14 18.1L52.16 13.99C52.32 13.9 52.48 13.82 52.65 13.77C52.82 13.71 52.99 13.67 53.17 13.65C53.35 13.63 53.53 13.62 53.7 13.63C53.88 13.65 54.06 13.68 54.23 13.72C54.4 13.77 54.57 13.83 54.73 13.91C54.89 13.99 55.04 14.09 55.18 14.19C55.32 14.3 55.45 14.43 55.57 14.56C55.69 14.69 55.79 14.84 55.88 15L55.96 15Z" fill="#419488" fill-opacity="1.000000" fill-rule="nonzero"/>
	</g>
	<g opacity="0.600000">
		<path id="path" d="M60 29.99C60 30.17 59.98 30.35 59.94 30.53C59.91 30.7 59.86 30.87 59.79 31.04C59.72 31.21 59.63 31.36 59.53 31.51C59.43 31.66 59.32 31.8 59.19 31.93C59.07 32.05 58.93 32.17 58.78 32.27C58.63 32.37 58.47 32.45 58.31 32.52C58.14 32.59 57.97 32.64 57.79 32.67C57.62 32.71 57.44 32.73 57.26 32.73L49.08 32.73C48.89 32.75 48.71 32.74 48.52 32.72C48.33 32.7 48.14 32.66 47.96 32.6C47.78 32.54 47.61 32.46 47.44 32.36C47.28 32.27 47.13 32.16 46.99 32.03C46.84 31.9 46.72 31.76 46.61 31.6C46.5 31.45 46.4 31.29 46.32 31.11C46.25 30.94 46.19 30.76 46.15 30.57C46.11 30.38 46.09 30.2 46.09 30C46.09 29.82 46.11 29.63 46.15 29.44C46.19 29.25 46.25 29.07 46.32 28.9C46.4 28.73 46.5 28.56 46.61 28.41C46.72 28.25 46.84 28.11 46.99 27.98C47.13 27.85 47.28 27.74 47.44 27.65C47.61 27.55 47.78 27.47 47.96 27.41C48.14 27.35 48.33 27.31 48.52 27.29C48.71 27.27 48.89 27.27 49.08 27.28L57.31 27.28C57.49 27.29 57.66 27.31 57.83 27.34C58.01 27.38 58.17 27.43 58.34 27.5C58.5 27.57 58.65 27.66 58.8 27.76C58.94 27.85 59.08 27.97 59.2 28.09C59.33 28.22 59.44 28.35 59.54 28.5C59.63 28.65 59.72 28.8 59.78 28.97C59.85 29.13 59.9 29.3 59.94 29.47C59.98 29.64 59.99 29.82 60 29.99Z" fill="#419488" fill-opacity="1.000000" fill-rule="nonzero"/>
	</g>
	<g opacity="0.500000">
		<path id="path" d="M55.98 44.97C55.89 45.13 55.79 45.28 55.67 45.42C55.55 45.56 55.41 45.69 55.27 45.8C55.12 45.91 54.97 46.01 54.8 46.09C54.64 46.18 54.47 46.24 54.29 46.29C54.11 46.34 53.93 46.36 53.74 46.38C53.56 46.39 53.38 46.38 53.19 46.35C53.01 46.33 52.83 46.28 52.66 46.22C52.49 46.16 52.32 46.08 52.16 45.98L45.07 41.89C44.93 41.79 44.8 41.69 44.68 41.57C44.56 41.44 44.45 41.31 44.35 41.17C44.26 41.03 44.18 40.88 44.11 40.73C44.04 40.57 43.99 40.41 43.95 40.25C43.91 40.08 43.89 39.91 43.88 39.74C43.88 39.57 43.89 39.4 43.91 39.23C43.94 39.07 43.98 38.9 44.03 38.74C44.09 38.58 44.16 38.42 44.24 38.28C44.33 38.13 44.42 37.99 44.54 37.86C44.65 37.73 44.77 37.61 44.9 37.51C45.03 37.4 45.17 37.31 45.32 37.23C45.47 37.15 45.63 37.08 45.79 37.03C45.96 36.98 46.12 36.94 46.29 36.92C46.46 36.9 46.63 36.9 46.8 36.91C46.97 36.92 47.14 36.95 47.3 36.99C47.47 37.03 47.62 37.09 47.78 37.16L54.87 41.25C55.03 41.33 55.18 41.43 55.32 41.55C55.46 41.66 55.58 41.79 55.7 41.93C55.81 42.07 55.91 42.22 56 42.38C56.08 42.54 56.15 42.71 56.2 42.88C56.25 43.05 56.29 43.23 56.3 43.41C56.32 43.59 56.32 43.77 56.3 43.95C56.28 44.13 56.24 44.3 56.19 44.47C56.14 44.65 56.07 44.81 55.98 44.97Z" fill="#419488" fill-opacity="1.000000" fill-rule="nonzero"/>
	</g>
	<g opacity="0.400000">
		<path id="path" d="M44.99 55.95C44.84 56.04 44.68 56.12 44.51 56.18C44.34 56.24 44.17 56.28 43.99 56.3C43.81 56.33 43.63 56.33 43.46 56.32C43.28 56.31 43.1 56.28 42.93 56.24C42.76 56.19 42.59 56.13 42.43 56.05C42.27 55.97 42.12 55.88 41.98 55.77C41.83 55.66 41.7 55.54 41.59 55.4C41.47 55.27 41.36 55.12 41.27 54.97L37.19 47.87C37.1 47.72 37.02 47.56 36.96 47.39C36.9 47.22 36.86 47.05 36.84 46.87C36.81 46.69 36.81 46.51 36.82 46.34C36.83 46.16 36.86 45.98 36.9 45.81C36.95 45.64 37.01 45.47 37.09 45.31C37.17 45.15 37.26 45 37.37 44.86C37.48 44.71 37.6 44.58 37.74 44.47C37.87 44.35 38.02 44.25 38.17 44.16C38.33 44.06 38.49 43.99 38.66 43.93C38.83 43.87 39 43.83 39.18 43.81C39.36 43.78 39.54 43.77 39.72 43.79C39.9 43.8 40.07 43.83 40.25 43.87C40.42 43.92 40.59 43.98 40.75 44.06C40.91 44.14 41.06 44.23 41.21 44.34C41.35 44.45 41.48 44.57 41.6 44.7C41.72 44.84 41.82 44.99 41.92 45.14L46 52.16C46.09 52.32 46.16 52.48 46.22 52.65C46.28 52.82 46.32 52.99 46.34 53.17C46.36 53.34 46.37 53.52 46.35 53.7C46.34 53.88 46.31 54.06 46.27 54.23C46.22 54.4 46.16 54.57 46.08 54.73C46 54.89 45.9 55.04 45.79 55.18C45.68 55.32 45.56 55.45 45.43 55.57C45.29 55.69 45.15 55.79 44.99 55.88L44.99 55.95Z" fill="#419488" fill-opacity="1.000000" fill-rule="nonzero"/>
	</g>
	<g opacity="0.300000">
		<path id="path" d="M29.99 59.99C29.81 59.99 29.64 59.98 29.46 59.94C29.29 59.91 29.11 59.85 28.95 59.78C28.78 59.72 28.62 59.63 28.48 59.53C28.33 59.43 28.19 59.32 28.06 59.19C27.93 59.07 27.82 58.93 27.72 58.78C27.62 58.63 27.54 58.47 27.47 58.31C27.4 58.14 27.35 57.97 27.31 57.79C27.28 57.62 27.26 57.44 27.26 57.26L27.26 49.08C27.24 48.89 27.24 48.7 27.27 48.51C27.29 48.33 27.33 48.14 27.39 47.96C27.45 47.78 27.53 47.61 27.62 47.44C27.72 47.28 27.83 47.12 27.96 46.98C28.09 46.84 28.23 46.72 28.38 46.6C28.54 46.49 28.7 46.4 28.88 46.32C29.05 46.25 29.23 46.19 29.42 46.15C29.6 46.11 29.79 46.09 29.98 46.09C30.17 46.09 30.36 46.11 30.55 46.15C30.73 46.19 30.91 46.25 31.09 46.32C31.26 46.4 31.43 46.49 31.58 46.6C31.74 46.72 31.88 46.84 32 46.98C32.13 47.12 32.25 47.28 32.34 47.44C32.44 47.61 32.52 47.78 32.58 47.96C32.64 48.14 32.68 48.33 32.7 48.51C32.72 48.7 32.72 48.89 32.7 49.08L32.7 57.26C32.7 57.44 32.69 57.61 32.65 57.79C32.62 57.96 32.57 58.14 32.5 58.3C32.43 58.47 32.35 58.62 32.25 58.77C32.15 58.92 32.04 59.06 31.91 59.18C31.79 59.31 31.65 59.42 31.5 59.52C31.35 59.62 31.2 59.71 31.03 59.78C30.87 59.85 30.7 59.9 30.52 59.94C30.35 59.97 30.17 59.99 29.99 59.99Z" fill="#419488" fill-opacity="1.000000" fill-rule="nonzero"/>
	</g>
	<g opacity="0.200000">
		<path id="path" d="M15.02 55.98C14.86 55.89 14.71 55.78 14.57 55.66C14.43 55.54 14.3 55.41 14.19 55.27C14.07 55.12 13.98 54.97 13.89 54.8C13.81 54.63 13.75 54.46 13.7 54.28C13.65 54.11 13.62 53.92 13.61 53.74C13.6 53.56 13.61 53.37 13.64 53.19C13.66 53.01 13.71 52.83 13.77 52.66C13.83 52.48 13.91 52.32 14.01 52.16L18.1 45.07C18.19 44.93 18.3 44.8 18.42 44.67C18.54 44.56 18.67 44.45 18.82 44.35C18.96 44.26 19.1 44.17 19.26 44.11C19.42 44.04 19.58 43.99 19.74 43.95C19.91 43.91 20.08 43.89 20.25 43.88C20.42 43.87 20.59 43.88 20.76 43.91C20.92 43.93 21.09 43.97 21.25 44.03C21.41 44.08 21.56 44.16 21.71 44.24C21.86 44.33 22 44.42 22.13 44.53C22.26 44.64 22.38 44.76 22.48 44.9C22.59 45.03 22.68 45.17 22.76 45.32C22.84 45.47 22.91 45.63 22.96 45.79C23.01 45.95 23.05 46.12 23.07 46.29C23.09 46.46 23.09 46.63 23.08 46.8C23.07 46.97 23.04 47.13 23 47.3C22.96 47.46 22.9 47.62 22.83 47.78L18.74 54.87C18.65 55.03 18.55 55.18 18.44 55.32C18.32 55.46 18.2 55.58 18.06 55.7C17.92 55.81 17.77 55.91 17.61 55.99C17.45 56.08 17.28 56.15 17.11 56.2C16.94 56.25 16.76 56.28 16.58 56.3C16.4 56.32 16.22 56.32 16.04 56.3C15.86 56.28 15.69 56.24 15.52 56.19C15.34 56.13 15.18 56.06 15.02 55.98Z" fill="#419488" fill-opacity="1.000000" fill-rule="nonzero"/>
	</g>
	<g opacity="0.100000">
		<path id="path" d="M4.04 44.99C3.95 44.84 3.87 44.68 3.81 44.51C3.75 44.34 3.71 44.17 3.69 43.99C3.66 43.81 3.66 43.63 3.67 43.46C3.68 43.28 3.71 43.1 3.75 42.93C3.8 42.75 3.86 42.59 3.94 42.43C4.02 42.27 4.11 42.12 4.22 41.97C4.33 41.83 4.45 41.7 4.59 41.58C4.72 41.47 4.87 41.36 5.02 41.27L12.11 37.19C12.27 37.09 12.43 37.02 12.6 36.96C12.77 36.9 12.94 36.86 13.12 36.84C13.3 36.81 13.47 36.81 13.65 36.82C13.83 36.83 14.01 36.86 14.18 36.9C14.35 36.95 14.52 37.01 14.68 37.09C14.84 37.17 14.99 37.26 15.13 37.37C15.28 37.48 15.41 37.6 15.52 37.74C15.64 37.87 15.74 38.02 15.83 38.17C15.92 38.33 16 38.49 16.06 38.66C16.12 38.83 16.16 39 16.18 39.18C16.21 39.36 16.21 39.54 16.2 39.72C16.19 39.9 16.16 40.07 16.12 40.25C16.07 40.42 16.01 40.59 15.93 40.75C15.85 40.91 15.76 41.06 15.65 41.21C15.54 41.35 15.42 41.48 15.28 41.6C15.15 41.72 15 41.82 14.85 41.91L7.83 46C7.67 46.09 7.51 46.16 7.34 46.22C7.17 46.28 7 46.32 6.82 46.34C6.64 46.36 6.47 46.37 6.29 46.35C6.11 46.34 5.93 46.31 5.76 46.26C5.59 46.22 5.42 46.16 5.26 46.08C5.1 46 4.95 45.9 4.81 45.79C4.67 45.68 4.54 45.56 4.42 45.43C4.3 45.29 4.2 45.15 4.11 44.99L4.04 44.99Z" fill="#419488" fill-opacity="1.000000" fill-rule="nonzero"/>
	</g>
	<path id="path" d="M0 29.99C0 29.82 0.02 29.64 0.05 29.46C0.09 29.29 0.14 29.12 0.21 28.95C0.28 28.79 0.36 28.63 0.46 28.49C0.56 28.34 0.68 28.2 0.8 28.08C0.93 27.95 1.07 27.84 1.22 27.74C1.37 27.64 1.52 27.56 1.69 27.49C1.85 27.42 2.02 27.37 2.2 27.33C2.37 27.3 2.55 27.28 2.73 27.28L10.91 27.28C11.1 27.27 11.29 27.27 11.47 27.29C11.66 27.31 11.85 27.35 12.03 27.41C12.21 27.47 12.38 27.55 12.55 27.65C12.71 27.74 12.86 27.85 13 27.98C13.15 28.11 13.27 28.25 13.38 28.41C13.49 28.56 13.59 28.73 13.67 28.9C13.74 29.07 13.8 29.25 13.84 29.44C13.88 29.63 13.9 29.82 13.9 30C13.9 30.2 13.88 30.38 13.84 30.57C13.8 30.76 13.74 30.94 13.67 31.11C13.59 31.29 13.49 31.45 13.38 31.6C13.27 31.76 13.15 31.9 13 32.03C12.86 32.16 12.71 32.27 12.55 32.36C12.38 32.46 12.21 32.54 12.03 32.6C11.85 32.66 11.66 32.7 11.47 32.72C11.29 32.74 11.1 32.75 10.91 32.73L2.73 32.73C2.55 32.73 2.37 32.71 2.2 32.67C2.02 32.64 1.85 32.59 1.68 32.52C1.52 32.45 1.36 32.37 1.21 32.27C1.06 32.17 0.92 32.05 0.8 31.93C0.67 31.8 0.56 31.66 0.46 31.51C0.36 31.36 0.27 31.21 0.2 31.04C0.13 30.87 0.08 30.7 0.05 30.53C0.01 30.35 0 30.17 0 29.99ZM4.01 15.02C4.1 14.86 4.2 14.71 4.32 14.57C4.44 14.42 4.58 14.3 4.72 14.18C4.87 14.07 5.02 13.97 5.19 13.89C5.35 13.81 5.52 13.75 5.7 13.7C5.88 13.65 6.06 13.62 6.25 13.61C6.43 13.6 6.61 13.61 6.8 13.64C6.98 13.66 7.16 13.71 7.33 13.77C7.5 13.83 7.67 13.91 7.83 14.01L14.92 18.1C15.06 18.19 15.19 18.3 15.31 18.42C15.43 18.54 15.54 18.67 15.64 18.81C15.73 18.95 15.81 19.1 15.88 19.26C15.95 19.41 16 19.58 16.04 19.74C16.08 19.91 16.1 20.08 16.11 20.25C16.11 20.42 16.1 20.58 16.08 20.75C16.05 20.92 16.01 21.09 15.96 21.25C15.9 21.41 15.83 21.56 15.75 21.71C15.66 21.86 15.56 22 15.45 22.13C15.34 22.26 15.22 22.37 15.09 22.48C14.96 22.59 14.82 22.68 14.67 22.76C14.52 22.84 14.36 22.91 14.2 22.96C14.03 23.01 13.87 23.05 13.7 23.07C13.53 23.09 13.36 23.09 13.19 23.08C13.02 23.07 12.85 23.04 12.69 23C12.52 22.96 12.37 22.9 12.21 22.83L5.12 18.74C4.96 18.65 4.81 18.55 4.67 18.44C4.53 18.32 4.4 18.2 4.29 18.06C4.18 17.91 4.08 17.77 3.99 17.61C3.91 17.45 3.84 17.28 3.79 17.11C3.74 16.94 3.7 16.76 3.69 16.58C3.67 16.4 3.67 16.22 3.69 16.04C3.71 15.86 3.75 15.69 3.8 15.51C3.85 15.34 3.92 15.18 4.01 15.02Z" fill="#419488" fill-opacity="1.000000" fill-rule="nonzero"/>
</svg>
