<svg width="20" height="14" viewBox="0 0 20 14" fill="none" xmlns="http://www.w3.org/2000/svg">
<g id="Group 1142813579">
<g id="&#231;&#188;&#150;&#231;&#187;&#132; 2">
<path id="&#232;&#183;&#175;&#229;&#190;&#132;" fill-rule="evenodd" clip-rule="evenodd" d="M18.603 10.1815C18.1922 10.1815 17.859 9.86239 17.859 9.46894C17.859 5.13887 14.194 1.62831 9.67346 1.62831C5.15289 1.62831 1.48788 5.13887 1.48788 9.46894C1.48788 9.86239 1.1547 10.1815 0.743941 10.1815C0.333183 10.1815 0 9.86239 0 9.46894C0 4.35144 4.33082 0.203125 9.67346 0.203125C15.0161 0.203125 19.3469 4.35144 19.3469 9.46894C19.3469 9.86239 19.0137 10.1815 18.603 10.1815Z" fill="#8EA2BF"/>
<path id="&#229;&#189;&#162;&#231;&#138;&#182;" fill-rule="evenodd" clip-rule="evenodd" d="M10.9405 12.941L8.58027 13.7463L8.18512 11.5275L14.138 5.19336L10.9405 12.941ZM9.77589 11.2331C9.33789 11.2331 8.98261 11.5488 8.98261 11.9385C8.98261 12.3276 9.33789 12.6433 9.77589 12.6433C10.2139 12.6433 10.5692 12.3276 10.5692 11.9385C10.5692 11.5488 10.2139 11.2331 9.77589 11.2331Z" fill="#8EA2BF"/>
</g>
</g>
</svg>
