<svg width="16" height="16" viewBox="0 0 16 16" fill="none" xmlns="http://www.w3.org/2000/svg">
<g id="Group 1142813569">
<path id="Vector" d="M8.00001 0C3.58878 0 0 3.58876 0 8.00001C0 12.4112 3.58878 16 8.00001 16C12.4112 16 16 12.4112 16 8.00001C16 3.58878 12.4112 0 8.00001 0ZM8.00001 15.25C4.00237 15.25 0.750006 11.9977 0.750006 8.00001C0.750006 4.00235 4.00234 0.750006 8.00001 0.750006C11.9977 0.750006 15.25 4.00235 15.25 8.00001C15.25 11.9977 11.9977 15.25 8.00001 15.25ZM10.9375 10.4821C11.084 10.6286 11.084 10.866 10.9375 11.0125C10.9028 11.0473 10.8614 11.075 10.8159 11.0938C10.7704 11.1127 10.7216 11.1223 10.6724 11.1223C10.5764 11.1223 10.4804 11.0857 10.4072 11.0125L7.89697 8.50226L5.31348 11.0858C5.27868 11.1206 5.23734 11.1483 5.19183 11.1671C5.14632 11.186 5.09754 11.1956 5.04828 11.1956C4.95233 11.1956 4.85633 11.1589 4.78309 11.0858C4.63665 10.9393 4.63665 10.7019 4.78309 10.5554L7.36659 7.97189L4.96246 5.56772C4.81602 5.42124 4.81602 5.18384 4.96246 5.03736C5.10895 4.89098 5.34634 4.89098 5.49283 5.03736L7.89697 7.4415L10.3365 5.002C10.483 4.85563 10.7204 4.85563 10.8668 5.002C11.0133 5.14849 11.0133 5.38588 10.8668 5.53237L8.42736 7.97189L10.9375 10.4821Z" fill="#FD4A29"/>
</g>
</svg>
