<svg width="19" height="26" viewBox="0 0 19 26" fill="none" xmlns="http://www.w3.org/2000/svg">
<g id="Group 1142813577">
<g id="&#229;&#189;&#162;&#231;&#138;&#182;&#231;&#187;&#147;&#229;&#144;&#136;">
<mask id="path-1-inside-1_148_388" fill="white">
<path fill-rule="evenodd" clip-rule="evenodd" d="M2.43868 0.779297C1.15979 0.779297 0.123047 1.81604 0.123047 3.09493V21.3681C0.123047 23.2864 1.67816 24.8415 3.59649 24.8415H5.77203C6.02376 22.84 7.51794 21.3026 9.32356 21.3026C11.1292 21.3026 12.6234 22.84 12.8751 24.8415H15.0501C16.9684 24.8415 18.5236 23.2864 18.5236 21.3681V3.09493C18.5236 1.81604 17.4868 0.779297 16.2079 0.779297H2.43868Z"/>
</mask>
<path d="M5.77203 24.8415V25.7099H6.53802L6.63361 24.9499L5.77203 24.8415ZM12.8751 24.8415L12.0135 24.9499L12.1091 25.7099H12.8751V24.8415ZM0.991408 3.09493C0.991408 2.29562 1.63937 1.64766 2.43868 1.64766V-0.0890644C0.680206 -0.0890644 -0.745314 1.33646 -0.745314 3.09493H0.991408ZM0.991408 21.3681V3.09493H-0.745314V21.3681H0.991408ZM3.59649 23.9731C2.15774 23.9731 0.991408 22.8068 0.991408 21.3681H-0.745314C-0.745314 23.766 1.19858 25.7099 3.59649 25.7099V23.9731ZM5.77203 23.9731H3.59649V25.7099H5.77203V23.9731ZM6.63361 24.9499C6.84381 23.2785 8.05305 22.1709 9.32356 22.1709V20.4342C6.98283 20.4342 5.20371 22.4015 4.91046 24.7331L6.63361 24.9499ZM9.32356 22.1709C10.5941 22.1709 11.8033 23.2785 12.0135 24.9499L13.7367 24.7331C13.4434 22.4015 11.6643 20.4342 9.32356 20.4342V22.1709ZM15.0501 23.9731H12.8751V25.7099H15.0501V23.9731ZM17.6552 21.3681C17.6552 22.8068 16.4889 23.9731 15.0501 23.9731V25.7099C17.448 25.7099 19.3919 23.766 19.3919 21.3681H17.6552ZM17.6552 3.09493V21.3681H19.3919V3.09493H17.6552ZM16.2079 1.64766C17.0072 1.64766 17.6552 2.29562 17.6552 3.09493H19.3919C19.3919 1.33646 17.9664 -0.0890644 16.2079 -0.0890644V1.64766ZM2.43868 1.64766H16.2079V-0.0890644H2.43868V1.64766Z" fill="#979797" mask="url(#path-1-inside-1_148_388)"/>
</g>
<circle id="&#230;&#164;&#173;&#229;&#156;&#134;&#229;&#189;&#162;" cx="9.32352" cy="10.6884" r="6.64294" stroke="#979797" stroke-width="0.868361"/>
<circle id="&#230;&#164;&#173;&#229;&#156;&#134;&#229;&#189;&#162;_2" cx="9.32335" cy="10.6889" r="3.10438" stroke="#979797" stroke-width="0.868361"/>
<g id="&#231;&#188;&#150;&#231;&#187;&#132;">
<g id="&#229;&#189;&#162;&#231;&#138;&#182;&#231;&#187;&#147;&#229;&#144;&#136;_2">
<mask id="path-5-inside-2_148_388" fill="white">
<path fill-rule="evenodd" clip-rule="evenodd" d="M7.77929 20.998L7.77929 24.2648L10.8677 24.2648L10.8677 20.9981C11.0721 21.1106 11.2658 21.2448 11.4466 21.398V24.2648C11.4466 24.5845 11.1875 24.8437 10.8677 24.8437H7.77929C7.45956 24.8437 7.20038 24.5845 7.20038 24.2648V21.3979C7.38118 21.2447 7.5749 21.1105 7.77929 20.998Z"/>
</mask>
<path d="M7.77929 20.998L8.35819 20.998L8.35819 20.0186L7.50014 20.4909L7.77929 20.998ZM7.77929 24.2648H7.20038L7.20038 24.8437H7.77929L7.77929 24.2648ZM10.8677 24.2648V24.8437H11.4466V24.2648H10.8677ZM10.8677 20.9981L11.1469 20.491L10.2888 20.0186V20.9981L10.8677 20.9981ZM11.4466 21.398H12.0256V21.1297L11.8209 20.9563L11.4466 21.398ZM7.20038 21.3979L6.82613 20.9562L6.62147 21.1296V21.3979H7.20038ZM7.20038 20.998L7.20038 24.2648H8.35819L8.35819 20.998L7.20038 20.998ZM7.77929 24.8437L10.8677 24.8437V23.6859L7.77929 23.6859L7.77929 24.8437ZM11.4466 24.2648V20.9981L10.2888 20.9981L10.2888 24.2648H11.4466ZM10.5886 21.5053C10.758 21.5985 10.92 21.7105 11.0724 21.8396L11.8209 20.9563C11.6117 20.779 11.3862 20.6227 11.1469 20.491L10.5886 21.5053ZM12.0256 24.2648V21.398H10.8677V24.2648H12.0256ZM10.8677 25.4226C11.5072 25.4226 12.0256 24.9042 12.0256 24.2648H10.8677V24.2648V25.4226ZM7.77929 25.4226H10.8677V24.2648H7.77929V25.4226ZM6.62147 24.2648C6.62147 24.9042 7.13984 25.4226 7.77929 25.4226V24.2648H7.77929H6.62147ZM6.62147 21.3979V24.2648H7.77929V21.3979H6.62147ZM7.57463 21.8396C7.727 21.7104 7.88898 21.5985 8.05843 21.5052L7.50014 20.4909C7.26081 20.6226 7.03537 20.7789 6.82613 20.9562L7.57463 21.8396Z" fill="#979797" mask="url(#path-5-inside-2_148_388)"/>
</g>
<path id="&#232;&#183;&#175;&#229;&#190;&#132; 2" d="M8.61584 24.4902L9.31987 25.1979L10.0166 24.4902" stroke="#979797" stroke-width="0.578907" stroke-linecap="round"/>
</g>
<g id="&#231;&#188;&#150;&#231;&#187;&#132; 4">
<path id="&#232;&#183;&#175;&#229;&#190;&#132; 5" d="M9.73688 13.6797C9.73688 13.6797 9.86509 15.7159 7.80027 16.908" stroke="#979797" stroke-width="0.578907"/>
<path id="&#232;&#183;&#175;&#229;&#190;&#132; 5&#229;&#164;&#135;&#228;&#187;&#189;" d="M8.81085 7.33594C8.81085 7.33594 8.68264 5.2997 10.7475 4.10758" stroke="#979797" stroke-width="0.578907"/>
<path id="&#232;&#183;&#175;&#229;&#190;&#132; 5_2" d="M8.81085 7.33594C8.81085 7.33594 8.68264 5.2997 10.7475 4.10758" stroke="#979797" stroke-width="0.578907"/>
</g>
<g id="&#231;&#188;&#150;&#231;&#187;&#132; 4_2">
<path id="&#232;&#183;&#175;&#229;&#190;&#132; 5_3" d="M8.62372 13.6484C8.62372 13.6484 8.04776 15.6057 5.69974 16.0197" stroke="#979797" stroke-width="0.578907"/>
<path id="&#232;&#183;&#175;&#229;&#190;&#132; 5&#229;&#164;&#135;&#228;&#187;&#189;_2" d="M9.92346 7.36914C9.92346 7.36914 10.4994 5.41186 12.8474 4.99784" stroke="#979797" stroke-width="0.578907"/>
<path id="&#232;&#183;&#175;&#229;&#190;&#132; 5_4" d="M9.92346 7.36914C9.92346 7.36914 10.4994 5.41186 12.8474 4.99784" stroke="#979797" stroke-width="0.578907"/>
</g>
<g id="&#231;&#188;&#150;&#231;&#187;&#132; 4_3">
<path id="&#232;&#183;&#175;&#229;&#190;&#132; 5_5" d="M7.58948 13.2383C7.58948 13.2383 6.37883 14.8805 4.0308 14.4665" stroke="#979797" stroke-width="0.578907"/>
<path id="&#232;&#183;&#175;&#229;&#190;&#132; 5&#229;&#164;&#135;&#228;&#187;&#189;_3" d="M10.958 7.78125C10.958 7.78125 12.1687 6.13899 14.5167 6.55301" stroke="#979797" stroke-width="0.578907"/>
<path id="&#232;&#183;&#175;&#229;&#190;&#132; 5_6" d="M10.958 7.78125C10.958 7.78125 12.1687 6.13899 14.5167 6.55301" stroke="#979797" stroke-width="0.578907"/>
</g>
<g id="&#231;&#188;&#150;&#231;&#187;&#132; 4_4">
<path id="&#232;&#183;&#175;&#229;&#190;&#132; 5_7" d="M6.75793 12.4941C6.75793 12.4941 5.05861 13.6233 2.99379 12.4312" stroke="#979797" stroke-width="0.578907"/>
<path id="&#232;&#183;&#175;&#229;&#190;&#132; 5&#229;&#164;&#135;&#228;&#187;&#189;_4" d="M11.7896 8.52148C11.7896 8.52148 13.4889 7.39234 15.5537 8.58446" stroke="#979797" stroke-width="0.578907"/>
<path id="&#232;&#183;&#175;&#229;&#190;&#132; 5_8" d="M11.7896 8.52148C11.7896 8.52148 13.4889 7.39234 15.5537 8.58446" stroke="#979797" stroke-width="0.578907"/>
</g>
<g id="&#231;&#188;&#150;&#231;&#187;&#132; 4_5">
<path id="&#232;&#183;&#175;&#229;&#190;&#132; 5_9" d="M6.23022 11.5137C6.23022 11.5137 4.24719 11.9935 2.71463 10.1671" stroke="#979797" stroke-width="0.578907"/>
<path id="&#232;&#183;&#175;&#229;&#190;&#132; 5&#229;&#164;&#135;&#228;&#187;&#189;_5" d="M12.3175 9.5C12.3175 9.5 14.3005 9.02015 15.8331 10.8466" stroke="#979797" stroke-width="0.578907"/>
<path id="&#232;&#183;&#175;&#229;&#190;&#132; 5_10" d="M12.3175 9.5C12.3175 9.5 14.3005 9.02015 15.8331 10.8466" stroke="#979797" stroke-width="0.578907"/>
</g>
<g id="&#231;&#188;&#150;&#231;&#187;&#132; 4_6">
<path id="&#232;&#183;&#175;&#229;&#190;&#132; 5_11" d="M6.0694 10.4141C6.0694 10.4141 4.04184 10.1867 3.22638 7.94628" stroke="#979797" stroke-width="0.578907"/>
<path id="&#232;&#183;&#175;&#229;&#190;&#132; 5&#229;&#164;&#135;&#228;&#187;&#189;_6" d="M12.4781 10.6035C12.4781 10.6035 14.5056 10.8308 15.3211 13.0713" stroke="#979797" stroke-width="0.578907"/>
<path id="&#232;&#183;&#175;&#229;&#190;&#132; 5_12" d="M12.4781 10.6035C12.4781 10.6035 14.5056 10.8308 15.3211 13.0713" stroke="#979797" stroke-width="0.578907"/>
</g>
<g id="&#231;&#188;&#150;&#231;&#187;&#132; 4_7">
<path id="&#232;&#183;&#175;&#229;&#190;&#132; 5_13" d="M6.29498 9.32227C6.29498 9.32227 4.46745 8.41518 4.46745 6.03093" stroke="#979797" stroke-width="0.578907"/>
<path id="&#232;&#183;&#175;&#229;&#190;&#132; 5&#229;&#164;&#135;&#228;&#187;&#189;_7" d="M12.2523 11.6934C12.2523 11.6934 14.0798 12.6004 14.0798 14.9847" stroke="#979797" stroke-width="0.578907"/>
<path id="&#232;&#183;&#175;&#229;&#190;&#132; 5_14" d="M12.2523 11.6934C12.2523 11.6934 14.0798 12.6004 14.0798 14.9847" stroke="#979797" stroke-width="0.578907"/>
</g>
<g id="&#231;&#188;&#150;&#231;&#187;&#132; 4_8">
<path id="&#232;&#183;&#175;&#229;&#190;&#132; 5_15" d="M6.88019 8.37695C6.88019 8.37695 5.47311 6.89952 6.28857 4.65906" stroke="#979797" stroke-width="0.578907"/>
<path id="&#232;&#183;&#175;&#229;&#190;&#132; 5&#229;&#164;&#135;&#228;&#187;&#189;_8" d="M11.6675 12.6406C11.6675 12.6406 13.0746 14.1181 12.2592 16.3585" stroke="#979797" stroke-width="0.578907"/>
<path id="&#232;&#183;&#175;&#229;&#190;&#132; 5_16" d="M11.6675 12.6406C11.6675 12.6406 13.0746 14.1181 12.2592 16.3585" stroke="#979797" stroke-width="0.578907"/>
</g>
<g id="&#231;&#188;&#150;&#231;&#187;&#132; 4_9">
<path id="&#232;&#183;&#175;&#229;&#190;&#132; 5_17" d="M7.75378 7.6875C7.75378 7.6875 6.93688 5.81792 8.46944 3.99148" stroke="#979797" stroke-width="0.578907"/>
<path id="&#232;&#183;&#175;&#229;&#190;&#132; 5&#229;&#164;&#135;&#228;&#187;&#189;_9" d="M10.7936 13.332C10.7936 13.332 11.6105 15.2016 10.0779 17.0281" stroke="#979797" stroke-width="0.578907"/>
<path id="&#232;&#183;&#175;&#229;&#190;&#132; 5_18" d="M10.7936 13.332C10.7936 13.332 11.6105 15.2016 10.0779 17.0281" stroke="#979797" stroke-width="0.578907"/>
</g>
</g>
</svg>
