<svg xmlns="http://www.w3.org/2000/svg" xmlns:xlink="http://www.w3.org/1999/xlink" fill="none" version="1.1" width="19" height="21.85546875" viewBox="0 0 19 21.85546875"><g><g><g><path d="M0,2.31563C0,1.03674,1.03674,0,2.31563,0L16.6844,0C17.9633,0,19,1.03674,19,2.31563L19,15.2478C19,17.1661,17.4449,18.7212,15.5266,18.7212L13.1676,18.7212Q13.1438,18.5792,13.1054,18.4396Q13.0671,18.2999,13.0146,18.1638Q12.9622,18.0277,12.896,17.8962Q12.8298,17.7647,12.7503,17.6388Q12.6709,17.5129,12.5789,17.3937Q12.4869,17.2744,12.3831,17.1628Q12.2792,17.0511,12.1643,16.948Q12.0495,16.8448,11.9245,16.7509Q11.7995,16.657,11.6654,16.5732Q11.5313,16.4893,11.3891,16.4162Q11.2469,16.343,11.0978,16.2811Q10.9487,16.2193,10.7939,16.1692Q10.639,16.1191,10.4797,16.0812Q10.3203,16.0432,10.1577,16.0178Q9.99509,15.9923,9.83052,15.9796Q9.66594,15.9668,9.50071,15.9668Q9.33548,15.9668,9.17091,15.9796Q9.00633,15.9923,8.84372,16.0178Q8.68111,16.0432,8.52174,16.0812Q8.36238,16.1191,8.20754,16.1692Q8.0527,16.2193,7.9036,16.2811Q7.7545,16.343,7.61233,16.4162Q7.47016,16.4893,7.33605,16.5732Q7.20194,16.657,7.07695,16.7509Q6.95196,16.8448,6.83709,16.948Q6.72221,17.0511,6.61836,17.1628Q6.51451,17.2744,6.42251,17.3937Q6.33051,17.5129,6.25109,17.6388Q6.17167,17.7647,6.10546,17.8962Q6.03925,18.0277,5.98677,18.1638Q5.9343,18.2999,5.89598,18.4396Q5.85765,18.5792,5.83379,18.7212L3.47345,18.7212C1.55511,18.7212,0,17.1661,0,15.2478L0,2.31563ZM5.14699,17.8529Q5.99601,15.0984,9.50071,15.0984Q13.0054,15.0984,13.8544,17.8529L15.5266,17.8529Q16.6056,17.8529,17.3686,17.0899Q18.1316,16.3269,18.1316,15.2478L18.1316,2.31563Q18.1316,0.868361,16.6844,0.868361L2.31563,0.868361Q1.71615,0.868361,1.29226,1.29226Q0.868361,1.71615,0.868361,2.31563L0.868361,15.2478Q0.868361,16.3269,1.63137,17.0899Q2.39439,17.8529,3.47345,17.8529L5.14699,17.8529Z" fill-rule="evenodd" fill="#979797" fill-opacity="1"/></g><g><g><path d="M11.1133271875,15.736779020717286Q11.418697187500001,15.864909660217284,11.6922271875,16.039064660217285L11.6922271875,18.142697660217287Q11.6922271875,18.199717660217285,11.6811071875,18.255637660217285Q11.6699871875,18.311557660217286,11.6481671875,18.364237660217285Q11.6263471875,18.416917660217287,11.5946671875,18.464327660217286Q11.5629871875,18.511737660217285,11.522677187500001,18.552047660217283Q11.4823571875,18.592367660217285,11.4349471875,18.624047660217286Q11.387537187500001,18.655717660217285,11.334857187499999,18.677537660217286Q11.2821871875,18.699357660217284,11.2262671875,18.710487660217286Q11.1703371875,18.721607660217284,11.1133271875,18.721607660217284L7.8865241875,18.721607660217284Q7.8295071875,18.721607660217284,7.7735851875,18.710487660217286Q7.7176631875,18.699357660217284,7.6649861875,18.677537660217286Q7.6123091875,18.655717660217285,7.5649011875,18.624047660217286Q7.5174921875,18.592367660217285,7.4771751875,18.552047660217283Q7.4368581875,18.511737660217285,7.4051806875,18.464327660217286Q7.3735034875,18.416917660217287,7.3516838875,18.364237660217285Q7.3298642875,18.311557660217286,7.3187406875,18.255637660217285Q7.3076171875,18.199717660217285,7.3076171875,18.142697660217287L7.3076171875,16.041312660217287Q7.5810991875,15.866758660217284,7.8865241875,15.738260760217285L7.8865241875,18.142697660217287L8.4654271875,18.142697660217287L10.5344171875,18.142697660217287L11.1133271875,18.142697660217287L11.1133271875,15.736779020717286Z" fill-rule="evenodd" fill="#979797" fill-opacity="1"/></g><g><path d="M8.943321968566895,18.21710730163269C8.815888968566895,18.12058630163269,8.634338968566894,18.14564530163269,8.537816768566895,18.27307850163269C8.441295768566894,18.40051050163269,8.466354768566895,18.58206150163269,8.593787968566895,18.67858350163269C8.593787968566895,18.67858350163269,8.943321968566895,18.21710730163269,8.943321968566895,18.21710730163269C8.943321968566895,18.21710730163269,8.943321968566895,18.21710730163269,8.943321968566895,18.21710730163269ZM9.495524968566894,18.998470501632692C9.495524968566894,18.998470501632692,9.320753968566894,19.22920550163269,9.320753968566894,19.22920550163269C9.320753968566894,19.22920550163269,9.496434968566895,19.36227550163269,9.496434968566895,19.36227550163269C9.496434968566895,19.36227550163269,9.671444968566895,19.22832550163269,9.671444968566895,19.22832550163269C9.671444968566895,19.22832550163269,9.495524968566894,18.998470501632692,9.495524968566894,18.998470501632692C9.495524968566894,18.998470501632692,9.495524968566894,18.998470501632692,9.495524968566894,18.998470501632692ZM10.390884968566894,18.677703501632692C10.517824968566895,18.58054450163269,10.541974968566894,18.398869501632692,10.444814968566895,18.27192250163269C10.347654968566895,18.14497530163269,10.165984968566894,18.12082830163269,10.039034968566895,18.21798730163269C10.039034968566895,18.21798730163269,10.390884968566894,18.677703501632692,10.390884968566894,18.677703501632692C10.390884968566894,18.677703501632692,10.390884968566894,18.677703501632692,10.390884968566894,18.677703501632692ZM8.593787968566895,18.67858350163269C8.593787968566895,18.67858350163269,9.320753968566894,19.22920550163269,9.320753968566894,19.22920550163269C9.320753968566894,19.22920550163269,9.670284968566895,18.76773250163269,9.670284968566895,18.76773250163269C9.670284968566895,18.76773250163269,8.943321968566895,18.21710730163269,8.943321968566895,18.21710730163269C8.943321968566895,18.21710730163269,8.593787968566895,18.67858350163269,8.593787968566895,18.67858350163269C8.593787968566895,18.67858350163269,8.593787968566895,18.67858350163269,8.593787968566895,18.67858350163269ZM9.671444968566895,19.22832550163269C9.671444968566895,19.22832550163269,10.390884968566894,18.677703501632692,10.390884968566894,18.677703501632692C10.390884968566894,18.677703501632692,10.039034968566895,18.21798730163269,10.039034968566895,18.21798730163269C10.039034968566895,18.21798730163269,9.319597968566894,18.768612501632692,9.319597968566894,18.768612501632692C9.319597968566894,18.768612501632692,9.671444968566895,19.22832550163269,9.671444968566895,19.22832550163269C9.671444968566895,19.22832550163269,9.671444968566895,19.22832550163269,9.671444968566895,19.22832550163269Z" fill="#979797" fill-opacity="1"/></g></g></g><g><g><ellipse cx="9.5" cy="8.499999910593033" rx="5.0658193826675415" ry="5.0658193826675415" fill-opacity="0" stroke-opacity="1" stroke="#979797" fill="none" stroke-width="0.868361234664917"/></g><g><ellipse cx="9.5" cy="8.5" rx="2.3158193826675415" ry="2.3158193826675415" fill-opacity="0" stroke-opacity="1" stroke="#979797" fill="none" stroke-width="0.868361234664917"/></g><g><g transform="matrix(0.5,0.8660253882408142,-0.8660253882408142,0.4999999701976776,14.154815810478468,-3.3525538061258757)"><path d="M10.110608158615113,10.841288081893921C9.981919438615112,11.100561081893922,9.981792442615113,11.100498081893921,9.981670442615112,11.100438081893921C9.981637442615112,11.10042108189392,9.981520442615112,11.10036308189392,9.981453442615113,11.100329081893921C9.981318442615112,11.100262081893922,9.981205442615112,11.100206081893921,9.981113442615113,11.10015908189392C9.980928442615113,11.10006708189392,9.980827442915112,11.100015081893922,9.980808442915112,11.100006081893921C9.980770442915112,11.099987081893921,9.981062442615112,11.100134081893922,9.981671442615113,11.100450081893921C9.982891438615113,11.10108008189392,9.985381438615113,11.102382081893921,9.989058438615112,11.10436708189392C9.996415458615113,11.10833908189392,10.008499458615113,11.11503208189392,10.024636958615112,11.124546081893921C10.056945158615113,11.14359308189392,10.105291158615112,11.17381708189392,10.164363158615112,11.215982081893921C10.282782158615113,11.30050708189392,10.442496158615112,11.43172408189392,10.602431158615111,11.61543308189392C10.919745158615113,11.97992308189392,11.241425158615112,12.55400308189392,11.241425158615112,13.39916308189392C11.241425158615112,13.39916308189392,11.820335158615112,13.39916308189392,11.820335158615112,13.39916308189392C11.820335158615112,12.39139308189392,11.431875158615112,11.68653308189392,11.039055158615112,11.235315081893921C10.843925158615113,11.011174081893921,10.648570158615112,10.850348081893921,10.500688158615112,10.74479308189392C10.426610158615112,10.691917081893921,10.363997158615112,10.65259248189392,10.318634158615112,10.62584948189392C10.295936158615111,10.61246848189392,10.277506158615113,10.60220748189392,10.264059158615112,10.594947481893922C10.257333158615113,10.59131748189392,10.251848158615113,10.588434481893922,10.247693158615112,10.586284481893921C10.245616158615112,10.585209481893921,10.243870158615112,10.58431748189392,10.242467158615112,10.583606481893922C10.241765158615113,10.583251481893921,10.241149158615112,10.582941477893922,10.240621158615113,10.58267547789392C10.240356158615112,10.582543477893921,10.240114158615112,10.58242147789392,10.239893158615113,10.58231147789392C10.239783158615113,10.582256477893921,10.239633158615112,10.582182477893921,10.239578158615112,10.58215547793392C10.239435158615112,10.58208347789392,10.239297158615113,10.58201547789392,10.110608158615113,10.841288081893921C10.110608158615113,10.841288081893921,10.110608158615113,10.841288081893921,10.110608158615113,10.841288081893921Z" fill="#979797" fill-opacity="1"/></g><g transform="matrix(-0.5,-0.8660253882408142,0.8660253882408142,-0.4999999701976776,8.100674000429407,16.94876078814059)"><path d="M9.072825847175599,6.395052425155639C8.944137127175598,6.65432542515564,8.944010131175599,6.65426242515564,8.943888131175598,6.654202425155639C8.943855131175598,6.65418542515564,8.943738131175598,6.6541274251556395,8.943671131175599,6.65409342515564C8.943536131175598,6.65402642515564,8.943423131175598,6.65397042515564,8.943331131175599,6.653923425155639C8.943146131175599,6.65383142515564,8.943045131475598,6.65377942515564,8.943026131475598,6.653770425155639C8.942988131475598,6.653751425155639,8.943280131175598,6.6538984251556395,8.943889131175599,6.65421442515564C8.945109127175598,6.654844425155639,8.947599127175598,6.65614642515564,8.951276127175598,6.65813142515564C8.958633147175599,6.66210342515564,8.970717147175598,6.66879642515564,8.986854647175598,6.678310425155639C9.019162847175599,6.69735742515564,9.067508847175597,6.727581425155639,9.126580847175598,6.76974642515564C9.244999847175599,6.854271425155639,9.404713847175598,6.98548842515564,9.564648847175597,7.169197425155639C9.881962847175599,7.533687425155639,10.203642847175598,8.10776742515564,10.203642847175598,8.95292742515564C10.203642847175598,8.95292742515564,10.782552847175598,8.95292742515564,10.782552847175598,8.95292742515564C10.782552847175598,7.94515742515564,10.394092847175598,7.24029742515564,10.001272847175597,6.78907942515564C9.806142847175598,6.564938425155639,9.610787847175597,6.40411242515564,9.462905847175598,6.298557425155639C9.388827847175598,6.24568142515564,9.326214847175597,6.206356825155639,9.280851847175597,6.17961382515564C9.258153847175597,6.16623282515564,9.239723847175599,6.15597182515564,9.226276847175598,6.148711825155639C9.219550847175599,6.14508182515564,9.214065847175599,6.142198825155639,9.209910847175598,6.14004882515564C9.207833847175598,6.13897382515564,9.206087847175597,6.1380818251556395,9.204684847175598,6.13737082515564C9.203982847175599,6.13701582515564,9.203366847175598,6.13670582115564,9.202838847175599,6.13643982115564C9.202573847175598,6.13630782115564,9.202331847175598,6.13618582115564,9.202110847175598,6.136075821155639C9.202000847175599,6.13602082115564,9.201850847175598,6.13594682115564,9.201795847175598,6.13591982119564C9.201652847175598,6.1358478211556395,9.201514847175599,6.13577982115564,9.072825847175599,6.395052425155639C9.072825847175599,6.395052425155639,9.072825847175599,6.395052425155639,9.072825847175599,6.395052425155639Z" fill="#979797" fill-opacity="1"/></g><g transform="matrix(-0.5,-0.8660253882408142,0.8660253882408142,-0.4999999701976776,8.100674000429407,16.94876078814059)"><path d="M9.072825847175599,6.395052425155639C8.944137127175598,6.65432542515564,8.944010131175599,6.65426242515564,8.943888131175598,6.654202425155639C8.943855131175598,6.65418542515564,8.943738131175598,6.6541274251556395,8.943671131175599,6.65409342515564C8.943536131175598,6.65402642515564,8.943423131175598,6.65397042515564,8.943331131175599,6.653923425155639C8.943146131175599,6.65383142515564,8.943045131475598,6.65377942515564,8.943026131475598,6.653770425155639C8.942988131475598,6.653751425155639,8.943280131175598,6.6538984251556395,8.943889131175599,6.65421442515564C8.945109127175598,6.654844425155639,8.947599127175598,6.65614642515564,8.951276127175598,6.65813142515564C8.958633147175599,6.66210342515564,8.970717147175598,6.66879642515564,8.986854647175598,6.678310425155639C9.019162847175599,6.69735742515564,9.067508847175597,6.727581425155639,9.126580847175598,6.76974642515564C9.244999847175599,6.854271425155639,9.404713847175598,6.98548842515564,9.564648847175597,7.169197425155639C9.881962847175599,7.533687425155639,10.203642847175598,8.10776742515564,10.203642847175598,8.95292742515564C10.203642847175598,8.95292742515564,10.782552847175598,8.95292742515564,10.782552847175598,8.95292742515564C10.782552847175598,7.94515742515564,10.394092847175598,7.24029742515564,10.001272847175597,6.78907942515564C9.806142847175598,6.564938425155639,9.610787847175597,6.40411242515564,9.462905847175598,6.298557425155639C9.388827847175598,6.24568142515564,9.326214847175597,6.206356825155639,9.280851847175597,6.17961382515564C9.258153847175597,6.16623282515564,9.239723847175599,6.15597182515564,9.226276847175598,6.148711825155639C9.219550847175599,6.14508182515564,9.214065847175599,6.142198825155639,9.209910847175598,6.14004882515564C9.207833847175598,6.13897382515564,9.206087847175597,6.1380818251556395,9.204684847175598,6.13737082515564C9.203982847175599,6.13701582515564,9.203366847175598,6.13670582115564,9.202838847175599,6.13643982115564C9.202573847175598,6.13630782115564,9.202331847175598,6.13618582115564,9.202110847175598,6.136075821155639C9.202000847175599,6.13602082115564,9.201850847175598,6.13594682115564,9.201795847175598,6.13591982119564C9.201652847175598,6.1358478211556395,9.201514847175599,6.13577982115564,9.072825847175599,6.395052425155639C9.072825847175599,6.395052425155639,9.072825847175599,6.395052425155639,9.072825847175599,6.395052425155639Z" fill="#979797" fill-opacity="1"/></g></g><g transform="matrix(0.9396926164627075,0.3420201539993286,-0.3420201241970062,0.9396926164627075,1.5251699179351874,-3.0612801447293236)"><g transform="matrix(0.4999999701976776,0.8660253882408142,-0.8660253882408142,0.5,14.810600078743349,-5.1702570046715834)"><path d="M12.012677011993409,10.50036214996338C11.883988291993408,10.75963514996338,11.883861295993409,10.759572149963379,11.883739295993408,10.75951214996338C11.883706295993408,10.759495149963378,11.883589295993408,10.759437149963379,11.883522295993409,10.75940314996338C11.883387295993408,10.75933614996338,11.883274295993408,10.759280149963379,11.883182295993409,10.759233149963379C11.882997295993409,10.759141149963378,11.882896296293408,10.75908914996338,11.882877296293408,10.75908014996338C11.882839296293408,10.75906114996338,11.883131295993408,10.75920814996338,11.883740295993409,10.75952414996338C11.884960291993409,10.760154149963379,11.887450291993408,10.76145614996338,11.891127291993408,10.763441149963379C11.898484311993409,10.767413149963378,11.910568311993408,10.774106149963378,11.926705811993408,10.78362014996338C11.959014011993409,10.802667149963378,12.007360011993407,10.832891149963379,12.066432011993408,10.87505614996338C12.184851011993409,10.959581149963379,12.344565011993408,11.090798149963378,12.504500011993407,11.274507149963378C12.821814011993409,11.638997149963378,13.143494011993408,12.213077149963379,13.143494011993408,13.058237149963379C13.143494011993408,13.058237149963379,13.722404011993408,13.058237149963379,13.722404011993408,13.058237149963379C13.722404011993408,12.050467149963378,13.333944011993408,11.345607149963378,12.941124011993407,10.894389149963379C12.745994011993409,10.67024814996338,12.550639011993407,10.50942214996338,12.402757011993408,10.403867149963379C12.328679011993408,10.350991149963379,12.266066011993408,10.311666549963379,12.220703011993407,10.284923549963379C12.198005011993407,10.271542549963378,12.179575011993409,10.261281549963378,12.166128011993408,10.25402154996338C12.159402011993409,10.250391549963378,12.153917011993409,10.24750854996338,12.149762011993408,10.24535854996338C12.147685011993408,10.244283549963379,12.145939011993407,10.243391549963379,12.144536011993408,10.24268054996338C12.143834011993409,10.242325549963379,12.143218011993408,10.24201554596338,12.142690011993409,10.241749545963378C12.142425011993408,10.24161754596338,12.142183011993408,10.241495545963378,12.141962011993408,10.241385545963379C12.141852011993409,10.241330545963379,12.141702011993408,10.24125654596338,12.141647011993408,10.241229546003378C12.141504011993408,10.241157545963379,12.141366011993409,10.241089545963378,12.012677011993409,10.50036214996338C12.012677011993409,10.50036214996338,12.012677011993409,10.50036214996338,12.012677011993409,10.50036214996338Z" fill="#979797" fill-opacity="1"/></g><g transform="matrix(-0.4999999701976776,-0.8660253882408142,0.8660253882408142,-0.5,11.248647081605455,18.085968319863127)"><path d="M10.975096045043946,6.054914466629028C10.846407325043945,6.314187466629028,10.846280329043946,6.314124466629028,10.846158329043945,6.314064466629028C10.846125329043945,6.314047466629028,10.846008329043945,6.313989466629028,10.845941329043946,6.313955466629029C10.845806329043945,6.313888466629028,10.845693329043945,6.313832466629028,10.845601329043946,6.313785466629028C10.845416329043946,6.3136934666290285,10.845315329343945,6.313641466629028,10.845296329343945,6.313632466629028C10.845258329343945,6.313613466629028,10.845550329043945,6.313760466629028,10.846159329043946,6.314076466629029C10.847379325043946,6.314706466629028,10.849869325043946,6.316008466629029,10.853546325043945,6.317993466629028C10.860903345043946,6.321965466629028,10.872987345043946,6.328658466629029,10.889124845043945,6.338172466629028C10.921433045043946,6.3572194666290285,10.969779045043945,6.387443466629028,11.028851045043945,6.429608466629029C11.147270045043946,6.514133466629028,11.306984045043945,6.645350466629028,11.466919045043944,6.829059466629028C11.784233045043946,7.193549466629028,12.105913045043945,7.767629466629028,12.105913045043945,8.612789466629028C12.105913045043945,8.612789466629028,12.684823045043945,8.612789466629028,12.684823045043945,8.612789466629028C12.684823045043945,7.605019466629028,12.296363045043945,6.900159466629028,11.903543045043945,6.448941466629028C11.708413045043946,6.224800466629028,11.513058045043945,6.063974466629029,11.365176045043945,5.958419466629028C11.291098045043945,5.9055434666290285,11.228485045043945,5.866218866629028,11.183122045043945,5.839475866629028C11.160424045043944,5.826094866629028,11.141994045043946,5.815833866629029,11.128547045043945,5.808573866629028C11.121821045043946,5.804943866629029,11.116336045043946,5.802060866629028,11.112181045043945,5.799910866629029C11.110104045043945,5.7988358666290285,11.108358045043945,5.797943866629028,11.106955045043945,5.797232866629028C11.106253045043946,5.796877866629028,11.105637045043945,5.796567862629028,11.105109045043946,5.796301862629028C11.104844045043945,5.796169862629029,11.104602045043945,5.796047862629028,11.104381045043946,5.795937862629028C11.104271045043946,5.795882862629028,11.104121045043945,5.795808862629029,11.104066045043945,5.7957818626690285C11.103923045043945,5.795709862629028,11.103785045043946,5.7956418626290285,10.975096045043946,6.054914466629028C10.975096045043946,6.054914466629028,10.975096045043946,6.054914466629028,10.975096045043946,6.054914466629028Z" fill="#979797" fill-opacity="1"/></g><g transform="matrix(-0.4999999701976776,-0.8660253882408142,0.8660253882408142,-0.5,11.248647081605455,18.085968319863127)"><path d="M10.975096045043946,6.054914466629028C10.846407325043945,6.314187466629028,10.846280329043946,6.314124466629028,10.846158329043945,6.314064466629028C10.846125329043945,6.314047466629028,10.846008329043945,6.313989466629028,10.845941329043946,6.313955466629029C10.845806329043945,6.313888466629028,10.845693329043945,6.313832466629028,10.845601329043946,6.313785466629028C10.845416329043946,6.3136934666290285,10.845315329343945,6.313641466629028,10.845296329343945,6.313632466629028C10.845258329343945,6.313613466629028,10.845550329043945,6.313760466629028,10.846159329043946,6.314076466629029C10.847379325043946,6.314706466629028,10.849869325043946,6.316008466629029,10.853546325043945,6.317993466629028C10.860903345043946,6.321965466629028,10.872987345043946,6.328658466629029,10.889124845043945,6.338172466629028C10.921433045043946,6.3572194666290285,10.969779045043945,6.387443466629028,11.028851045043945,6.429608466629029C11.147270045043946,6.514133466629028,11.306984045043945,6.645350466629028,11.466919045043944,6.829059466629028C11.784233045043946,7.193549466629028,12.105913045043945,7.767629466629028,12.105913045043945,8.612789466629028C12.105913045043945,8.612789466629028,12.684823045043945,8.612789466629028,12.684823045043945,8.612789466629028C12.684823045043945,7.605019466629028,12.296363045043945,6.900159466629028,11.903543045043945,6.448941466629028C11.708413045043946,6.224800466629028,11.513058045043945,6.063974466629029,11.365176045043945,5.958419466629028C11.291098045043945,5.9055434666290285,11.228485045043945,5.866218866629028,11.183122045043945,5.839475866629028C11.160424045043944,5.826094866629028,11.141994045043946,5.815833866629029,11.128547045043945,5.808573866629028C11.121821045043946,5.804943866629029,11.116336045043946,5.802060866629028,11.112181045043945,5.799910866629029C11.110104045043945,5.7988358666290285,11.108358045043945,5.797943866629028,11.106955045043945,5.797232866629028C11.106253045043946,5.796877866629028,11.105637045043945,5.796567862629028,11.105109045043946,5.796301862629028C11.104844045043945,5.796169862629029,11.104602045043945,5.796047862629028,11.104381045043946,5.795937862629028C11.104271045043946,5.795882862629028,11.104121045043945,5.795808862629029,11.104066045043945,5.7957818626690285C11.103923045043945,5.795709862629028,11.103785045043946,5.7956418626290285,10.975096045043946,6.054914466629028C10.975096045043946,6.054914466629028,10.975096045043946,6.054914466629028,10.975096045043946,6.054914466629028Z" fill="#979797" fill-opacity="1"/></g></g><g transform="matrix(0.7660444378852844,0.6427876353263855,-0.6427876353263855,0.7660444378852844,4.662470950371805,-6.56446789362986)"><g transform="matrix(0.5,0.8660253882408142,-0.8660253882408142,0.4999999701976776,16.04941968619223,-6.6556781787259744)"><path d="M13.918499765899659,10.83050095249176C13.789810895899658,11.089773952491761,13.789683897899659,11.08971095249176,13.789561897899658,11.08965095249176C13.789528897899658,11.08963395249176,13.789411897899658,11.08957595249176,13.789344897899658,11.08954195249176C13.789209897899658,11.089474952491761,13.789096897899658,11.08941895249176,13.789004897899659,11.08937195249176C13.788819897899659,11.08927995249176,13.788718897999658,11.089227952491761,13.788699898029659,11.08921895249176C13.788662897999659,11.08919995249176,13.788953897899658,11.089346952491761,13.789562897899659,11.08966295249176C13.790782895899659,11.09029295249176,13.793272895899658,11.09159495249176,13.796949895899658,11.09357995249176C13.804306865899658,11.09755195249176,13.816390865899658,11.10424495249176,13.832528365899659,11.11375895249176C13.864836565899658,11.13280595249176,13.913181765899658,11.16302995249176,13.972254765899658,11.20519495249176C14.090673765899659,11.28971995249176,14.250387765899658,11.42093695249176,14.410322765899657,11.60464595249176C14.727636765899659,11.96913595249176,15.049316765899658,12.54321595249176,15.049316765899658,13.38837595249176C15.049316765899658,13.38837595249176,15.628226765899658,13.38837595249176,15.628226765899658,13.38837595249176C15.628226765899658,12.38060595249176,15.239766765899658,11.67574595249176,14.846946765899657,11.22452795249176C14.651815765899658,11.00038695249176,14.456461765899657,10.83956095249176,14.308579765899658,10.73400595249176C14.234501765899658,10.68112995249176,14.171888765899658,10.64180535249176,14.126525765899657,10.61506235249176C14.103827765899657,10.60168135249176,14.085397765899659,10.59142035249176,14.071950765899658,10.584160352491761C14.065224765899659,10.58053035249176,14.059739765899659,10.577647352491761,14.055584765899658,10.57549735249176C14.053507765899658,10.57442235249176,14.051761765899657,10.57353035249176,14.050358765899658,10.572819352491761C14.049656765899659,10.57246435249176,14.049040765899658,10.572154348491761,14.048512765899659,10.57188834849176C14.048247765899658,10.57175634849176,14.048005765899658,10.57163434849176,14.047784765899658,10.57152434849176C14.047674765899659,10.57146934849176,14.047524765899658,10.57139534849176,14.047469765899658,10.57136834853176C14.047326765899658,10.57129634849176,14.047188765899659,10.57122834849176,13.918499765899659,10.83050095249176C13.918499765899659,10.83050095249176,13.918499765899659,10.83050095249176,13.918499765899659,10.83050095249176Z" fill="#979797" fill-opacity="1"/></g><g transform="matrix(-0.5,-0.8660253882408142,0.8660253882408142,-0.4999999701976776,13.81903268040822,20.22715746860842)"><path d="M12.87839680722046,6.383502833137512C12.749707937220458,6.642775833137512,12.74958093922046,6.642712833137512,12.749458939220458,6.642652833137512C12.749425939220458,6.642635833137512,12.749308939220459,6.642577833137512,12.74924193922046,6.642543833137513C12.749106939220459,6.642476833137512,12.748993939220458,6.642420833137512,12.74890193922046,6.642373833137512C12.74871693922046,6.642281833137512,12.748615939320459,6.642229833137512,12.74859693935046,6.642220833137512C12.74855993932046,6.642201833137512,12.748850939220459,6.642348833137512,12.74945993922046,6.642664833137513C12.75067993722046,6.643294833137512,12.75316993722046,6.644596833137513,12.756846937220459,6.646581833137512C12.764203907220459,6.650553833137512,12.776287907220459,6.6572468331375125,12.79242540722046,6.666760833137512C12.824733607220459,6.685807833137512,12.873078807220459,6.716031833137512,12.932151807220459,6.758196833137513C13.05057080722046,6.842721833137512,13.210284807220459,6.973938833137512,13.370219807220458,7.157647833137512C13.68753380722046,7.522137833137512,14.009213807220458,8.096217833137512,14.009213807220458,8.941377833137512C14.009213807220458,8.941377833137512,14.588123807220459,8.941377833137512,14.588123807220459,8.941377833137512C14.588123807220459,7.933607833137512,14.199663807220459,7.228747833137512,13.806843807220458,6.777529833137512C13.611712807220458,6.553388833137512,13.416358807220458,6.392562833137513,13.268476807220459,6.287007833137512C13.194398807220459,6.234131833137512,13.131785807220458,6.194807233137512,13.086422807220458,6.168064233137512C13.063724807220458,6.154683233137512,13.04529480722046,6.1444222331375125,13.031847807220458,6.137162233137512C13.02512180722046,6.133532233137513,13.01963680722046,6.130649233137512,13.015481807220459,6.1284992331375125C13.013404807220459,6.127424233137512,13.011658807220458,6.126532233137512,13.010255807220458,6.125821233137512C13.00955380722046,6.125466233137512,13.008937807220459,6.125156229137512,13.00840980722046,6.124890229137512C13.008144807220459,6.1247582291375124,13.007902807220459,6.124636229137512,13.00768180722046,6.124526229137512C13.00757180722046,6.124471229137512,13.007421807220458,6.124397229137513,13.007366807220459,6.124370229177512C13.00722380722046,6.124298229137512,13.00708580722046,6.124230229137512,12.87839680722046,6.383502833137512C12.87839680722046,6.383502833137512,12.87839680722046,6.383502833137512,12.87839680722046,6.383502833137512Z" fill="#979797" fill-opacity="1"/></g><g transform="matrix(-0.5,-0.8660253882408142,0.8660253882408142,-0.4999999701976776,13.81903268040822,20.22715746860842)"><path d="M12.87839680722046,6.383502833137512C12.749707937220458,6.642775833137512,12.74958093922046,6.642712833137512,12.749458939220458,6.642652833137512C12.749425939220458,6.642635833137512,12.749308939220459,6.642577833137512,12.74924193922046,6.642543833137513C12.749106939220459,6.642476833137512,12.748993939220458,6.642420833137512,12.74890193922046,6.642373833137512C12.74871693922046,6.642281833137512,12.748615939320459,6.642229833137512,12.74859693935046,6.642220833137512C12.74855993932046,6.642201833137512,12.748850939220459,6.642348833137512,12.74945993922046,6.642664833137513C12.75067993722046,6.643294833137512,12.75316993722046,6.644596833137513,12.756846937220459,6.646581833137512C12.764203907220459,6.650553833137512,12.776287907220459,6.6572468331375125,12.79242540722046,6.666760833137512C12.824733607220459,6.685807833137512,12.873078807220459,6.716031833137512,12.932151807220459,6.758196833137513C13.05057080722046,6.842721833137512,13.210284807220459,6.973938833137512,13.370219807220458,7.157647833137512C13.68753380722046,7.522137833137512,14.009213807220458,8.096217833137512,14.009213807220458,8.941377833137512C14.009213807220458,8.941377833137512,14.588123807220459,8.941377833137512,14.588123807220459,8.941377833137512C14.588123807220459,7.933607833137512,14.199663807220459,7.228747833137512,13.806843807220458,6.777529833137512C13.611712807220458,6.553388833137512,13.416358807220458,6.392562833137513,13.268476807220459,6.287007833137512C13.194398807220459,6.234131833137512,13.131785807220458,6.194807233137512,13.086422807220458,6.168064233137512C13.063724807220458,6.154683233137512,13.04529480722046,6.1444222331375125,13.031847807220458,6.137162233137512C13.02512180722046,6.133532233137513,13.01963680722046,6.130649233137512,13.015481807220459,6.1284992331375125C13.013404807220459,6.127424233137512,13.011658807220458,6.126532233137512,13.010255807220458,6.125821233137512C13.00955380722046,6.125466233137512,13.008937807220459,6.125156229137512,13.00840980722046,6.124890229137512C13.008144807220459,6.1247582291375124,13.007902807220459,6.124636229137512,13.00768180722046,6.124526229137512C13.00757180722046,6.124471229137512,13.007421807220458,6.124397229137513,13.007366807220459,6.124370229177512C13.00722380722046,6.124298229137512,13.00708580722046,6.124230229137512,12.87839680722046,6.383502833137512C12.87839680722046,6.383502833137512,12.87839680722046,6.383502833137512,12.87839680722046,6.383502833137512Z" fill="#979797" fill-opacity="1"/></g></g><g transform="matrix(0.5,0.8660253882408142,-0.8660253882408142,0.4999999701976776,10.04582672966339,-9.237165220099357)"><g transform="matrix(0.4999999701976776,0.8660253882408142,-0.8660253882408142,0.5,17.714967288896872,-7.6263903571450555)"><path d="M15.591934500244141,11.7875511567688C15.46324578024414,12.0468241567688,15.463118784244141,12.046761156768799,15.46299678424414,12.0467011567688C15.46296378424414,12.046684156768798,15.46284678424414,12.046626156768799,15.462779784244141,12.0465921567688C15.46264478424414,12.0465251567688,15.46253178424414,12.046469156768799,15.462439784244141,12.046422156768799C15.462254784244141,12.046330156768798,15.46215378454414,12.0462781567688,15.46213478454414,12.0462691567688C15.46209678454414,12.0462501567688,15.46238878424414,12.0463971567688,15.462997784244141,12.0467131567688C15.464217780244141,12.047343156768799,15.46670778024414,12.0486451567688,15.47038478024414,12.050630156768799C15.477741800244141,12.054602156768798,15.489825800244141,12.061295156768798,15.50596330024414,12.0708091567688C15.538271500244141,12.089856156768798,15.58661750024414,12.120080156768799,15.64568950024414,12.1622451567688C15.764108500244141,12.246770156768799,15.92382250024414,12.377987156768798,16.08375750024414,12.561696156768798C16.40107150024414,12.926186156768798,16.72275150024414,13.500266156768799,16.72275150024414,14.345426156768799C16.72275150024414,14.345426156768799,17.30166150024414,14.345426156768799,17.30166150024414,14.345426156768799C17.30166150024414,13.337656156768798,16.913201500244142,12.632796156768798,16.52038150024414,12.181578156768799C16.32525150024414,11.9574371567688,16.12989650024414,11.7966111567688,15.98201450024414,11.691056156768799C15.90793650024414,11.638180156768799,15.84532350024414,11.598855556768799,15.79996050024414,11.572112556768799C15.77726250024414,11.558731556768798,15.758832500244141,11.548470556768798,15.74538550024414,11.5412105567688C15.738659500244141,11.537580556768798,15.733174500244141,11.5346975567688,15.72901950024414,11.5325475567688C15.72694250024414,11.531472556768799,15.72519650024414,11.530580556768799,15.72379350024414,11.5298695567688C15.723091500244141,11.529514556768799,15.72247550024414,11.5292045527688,15.721947500244141,11.528938552768798C15.72168250024414,11.528806552768799,15.72144050024414,11.528684552768798,15.72121950024414,11.528574552768799C15.721109500244141,11.528519552768799,15.72095950024414,11.5284455527688,15.72090450024414,11.528418552808798C15.72076150024414,11.528346552768799,15.720623500244141,11.528278552768798,15.591934500244141,11.7875511567688C15.591934500244141,11.7875511567688,15.591934500244141,11.7875511567688,15.591934500244141,11.7875511567688Z" fill="#979797" fill-opacity="1"/></g><g transform="matrix(-0.4999999701976776,-0.8660253882408142,0.8660253882408142,-0.5,15.504064621564549,23.1171631990208)"><path d="M14.555185733345033,7.342078677902221C14.426497013345031,7.601351677902222,14.426370017345032,7.601288677902222,14.426248017345031,7.601228677902221C14.426215017345031,7.601211677902222,14.426098017345032,7.6011536779022215,14.426031017345032,7.601119677902222C14.425896017345032,7.601052677902222,14.425783017345031,7.600996677902222,14.425691017345033,7.600949677902221C14.425506017345032,7.600857677902222,14.425405017645032,7.600805677902222,14.425386017645032,7.600796677902221C14.425348017645032,7.600777677902221,14.425640017345032,7.6009246779022215,14.426249017345032,7.601240677902222C14.427469013345032,7.601870677902221,14.429959013345032,7.603172677902222,14.433636013345032,7.605157677902222C14.440993033345032,7.609129677902222,14.453077033345032,7.615822677902222,14.469214533345031,7.625336677902221C14.501522733345032,7.644383677902222,14.549868733345031,7.674607677902221,14.608940733345031,7.716772677902222C14.727359733345033,7.801297677902221,14.887073733345032,7.932514677902222,15.04700873334503,8.116223677902221C15.364322733345032,8.480713677902221,15.686002733345031,9.054793677902222,15.686002733345031,9.899953677902221C15.686002733345031,9.899953677902221,16.26491273334503,9.899953677902221,16.26491273334503,9.899953677902221C16.26491273334503,8.89218367790222,15.876452733345031,8.18732367790222,15.483632733345031,7.736105677902222C15.288502733345032,7.511964677902221,15.093147733345031,7.351138677902222,14.945265733345032,7.245583677902221C14.871187733345032,7.192707677902222,14.808574733345031,7.153383077902221,14.763211733345031,7.126640077902222C14.740513733345031,7.113259077902222,14.722083733345032,7.102998077902222,14.708636733345031,7.095738077902221C14.701910733345033,7.092108077902222,14.696425733345032,7.0892250779022215,14.692270733345032,7.087075077902222C14.690193733345032,7.086000077902222,14.688447733345031,7.0851080779022215,14.687044733345031,7.084397077902222C14.686342733345032,7.084042077902222,14.685726733345032,7.083732073902222,14.685198733345032,7.083466073902222C14.684933733345032,7.083334073902222,14.684691733345032,7.083212073902222,14.684470733345032,7.0831020739022215C14.684360733345033,7.083047073902222,14.684210733345031,7.082973073902222,14.684155733345031,7.082946073942222C14.684012733345032,7.082874073902222,14.683874733345032,7.082806073902222,14.555185733345033,7.342078677902221C14.555185733345033,7.342078677902221,14.555185733345033,7.342078677902221,14.555185733345033,7.342078677902221Z" fill="#979797" fill-opacity="1"/></g><g transform="matrix(-0.4999999701976776,-0.8660253882408142,0.8660253882408142,-0.5,15.504064621564549,23.1171631990208)"><path d="M14.555185733345033,7.342078677902221C14.426497013345031,7.601351677902222,14.426370017345032,7.601288677902222,14.426248017345031,7.601228677902221C14.426215017345031,7.601211677902222,14.426098017345032,7.6011536779022215,14.426031017345032,7.601119677902222C14.425896017345032,7.601052677902222,14.425783017345031,7.600996677902222,14.425691017345033,7.600949677902221C14.425506017345032,7.600857677902222,14.425405017645032,7.600805677902222,14.425386017645032,7.600796677902221C14.425348017645032,7.600777677902221,14.425640017345032,7.6009246779022215,14.426249017345032,7.601240677902222C14.427469013345032,7.601870677902221,14.429959013345032,7.603172677902222,14.433636013345032,7.605157677902222C14.440993033345032,7.609129677902222,14.453077033345032,7.615822677902222,14.469214533345031,7.625336677902221C14.501522733345032,7.644383677902222,14.549868733345031,7.674607677902221,14.608940733345031,7.716772677902222C14.727359733345033,7.801297677902221,14.887073733345032,7.932514677902222,15.04700873334503,8.116223677902221C15.364322733345032,8.480713677902221,15.686002733345031,9.054793677902222,15.686002733345031,9.899953677902221C15.686002733345031,9.899953677902221,16.26491273334503,9.899953677902221,16.26491273334503,9.899953677902221C16.26491273334503,8.89218367790222,15.876452733345031,8.18732367790222,15.483632733345031,7.736105677902222C15.288502733345032,7.511964677902221,15.093147733345031,7.351138677902222,14.945265733345032,7.245583677902221C14.871187733345032,7.192707677902222,14.808574733345031,7.153383077902221,14.763211733345031,7.126640077902222C14.740513733345031,7.113259077902222,14.722083733345032,7.102998077902222,14.708636733345031,7.095738077902221C14.701910733345033,7.092108077902222,14.696425733345032,7.0892250779022215,14.692270733345032,7.087075077902222C14.690193733345032,7.086000077902222,14.688447733345031,7.0851080779022215,14.687044733345031,7.084397077902222C14.686342733345032,7.084042077902222,14.685726733345032,7.083732073902222,14.685198733345032,7.083466073902222C14.684933733345032,7.083334073902222,14.684691733345032,7.083212073902222,14.684470733345032,7.0831020739022215C14.684360733345033,7.083047073902222,14.684210733345031,7.082973073902222,14.684155733345031,7.082946073942222C14.684012733345032,7.082874073902222,14.683874733345032,7.082806073902222,14.555185733345033,7.342078677902221C14.555185733345033,7.342078677902221,14.555185733345033,7.342078677902221,14.555185733345033,7.342078677902221Z" fill="#979797" fill-opacity="1"/></g></g><g transform="matrix(0.1736481785774231,0.9848077297210693,-0.9848077297210693,0.1736481934785843,17.267720702004226,-9.463021473829329)"><g transform="matrix(0.5000000596046448,0.8660253882408142,-0.866025447845459,0.4999999701976776,19.62020999312766,-7.969914058024571)"><path d="M16.84205680897522,13.265778295288086C16.71336808897522,13.525051295288087,16.71324109297522,13.524988295288086,16.71311909297522,13.524928295288086C16.71308609297522,13.524911295288085,16.71296909297522,13.524853295288086,16.71290209297522,13.524819295288086C16.71276709297522,13.524752295288087,16.71265409297522,13.524696295288086,16.71256209297522,13.524649295288086C16.71237709297522,13.524557295288085,16.71227609327522,13.524505295288087,16.71225709327522,13.524496295288087C16.71221909327522,13.524477295288087,16.71251109297522,13.524624295288087,16.71312009297522,13.524940295288086C16.71434008897522,13.525570295288086,16.716830088975218,13.526872295288086,16.72050708897522,13.528857295288086C16.72786410897522,13.532829295288085,16.73994810897522,13.539522295288085,16.75608560897522,13.549036295288087C16.78839380897522,13.568083295288085,16.83673980897522,13.598307295288086,16.89581180897522,13.640472295288086C17.01423080897522,13.724997295288086,17.173944808975218,13.856214295288085,17.33387980897522,14.039923295288085C17.65119380897522,14.404413295288085,17.97287380897522,14.978493295288086,17.97287380897522,15.823653295288086C17.97287380897522,15.823653295288086,18.55178380897522,15.823653295288086,18.55178380897522,15.823653295288086C18.55178380897522,14.815883295288085,18.16332380897522,14.111023295288085,17.77050380897522,13.659805295288086C17.57537380897522,13.435664295288086,17.38001880897522,13.274838295288086,17.23213680897522,13.169283295288086C17.15805880897522,13.116407295288086,17.09544580897522,13.077082695288086,17.05008280897522,13.050339695288086C17.02738480897522,13.036958695288085,17.00895480897522,13.026697695288085,16.99550780897522,13.019437695288087C16.98878180897522,13.015807695288085,16.98329680897522,13.012924695288087,16.97914180897522,13.010774695288086C16.97706480897522,13.009699695288086,16.97531880897522,13.008807695288086,16.97391580897522,13.008096695288087C16.97321380897522,13.007741695288086,16.97259780897522,13.007431691288087,16.97206980897522,13.007165691288085C16.971804808975218,13.007033691288086,16.97156280897522,13.006911691288085,16.971341808975218,13.006801691288086C16.97123180897522,13.006746691288086,16.97108180897522,13.006672691288086,16.97102680897522,13.006645691328085C16.97088380897522,13.006573691288086,16.97074580897522,13.006505691288085,16.84205680897522,13.265778295288086C16.84205680897522,13.265778295288086,16.84205680897522,13.265778295288086,16.84205680897522,13.265778295288086Z" fill="#979797" fill-opacity="1"/></g><g transform="matrix(-0.5000000596046448,-0.8660253882408142,0.866025447845459,-0.4999999701976776,16.09959219242178,26.41411971306475)"><path d="M15.804698524978638,8.818643323669434C15.676009804978637,9.077916323669434,15.675882808978638,9.077853323669434,15.675760808978637,9.077793323669434C15.675727808978637,9.077776323669433,15.675610808978638,9.077718323669433,15.675543808978638,9.077684323669434C15.675408808978638,9.077617323669434,15.675295808978637,9.077561323669434,15.675203808978639,9.077514323669433C15.675018808978638,9.077422323669433,15.674917809278638,9.077370323669435,15.674898809278638,9.077361323669434C15.674860809278638,9.077342323669434,15.675152808978638,9.077489323669434,15.675761808978638,9.077805323669434C15.676981804978638,9.078435323669433,15.679471804978638,9.079737323669434,15.683148804978638,9.081722323669434C15.690505824978638,9.085694323669433,15.702589824978638,9.092387323669433,15.718727324978637,9.101901323669434C15.751035524978638,9.120948323669433,15.799381524978637,9.151172323669433,15.858453524978637,9.193337323669434C15.976872524978639,9.277862323669433,16.136586524978636,9.409079323669433,16.296521524978637,9.592788323669433C16.613835524978636,9.957278323669433,16.935515524978637,10.531358323669433,16.935515524978637,11.376518323669433C16.935515524978637,11.376518323669433,17.514425524978638,11.376518323669433,17.514425524978638,11.376518323669433C17.514425524978638,10.368748323669433,17.12596552497864,9.663888323669433,16.73314552497864,9.212670323669434C16.538015524978636,8.988529323669434,16.342660524978637,8.827703323669434,16.194778524978638,8.722148323669433C16.120700524978638,8.669272323669434,16.05808752497864,8.629947723669433,16.012724524978637,8.603204723669434C15.990026524978637,8.589823723669433,15.971596524978638,8.579562723669433,15.958149524978637,8.572302723669434C15.951423524978638,8.568672723669433,15.945938524978638,8.565789723669434,15.941783524978637,8.563639723669434C15.939706524978638,8.562564723669434,15.937960524978637,8.561672723669433,15.936557524978637,8.560961723669434C15.935855524978638,8.560606723669434,15.935239524978638,8.560296719669434,15.934711524978638,8.560030719669433C15.934446524978638,8.559898719669434,15.934204524978638,8.559776719669433,15.933983524978638,8.559666719669433C15.933873524978639,8.559611719669434,15.933723524978637,8.559537719669434,15.933668524978637,8.559510719709433C15.933525524978638,8.559438719669433,15.933387524978638,8.559370719669433,15.804698524978638,8.818643323669434C15.804698524978638,8.818643323669434,15.804698524978638,8.818643323669434,15.804698524978638,8.818643323669434Z" fill="#979797" fill-opacity="1"/></g><g transform="matrix(-0.5000000596046448,-0.8660253882408142,0.866025447845459,-0.4999999701976776,16.09959219242178,26.41411971306475)"><path d="M15.804698524978638,8.818643323669434C15.676009804978637,9.077916323669434,15.675882808978638,9.077853323669434,15.675760808978637,9.077793323669434C15.675727808978637,9.077776323669433,15.675610808978638,9.077718323669433,15.675543808978638,9.077684323669434C15.675408808978638,9.077617323669434,15.675295808978637,9.077561323669434,15.675203808978639,9.077514323669433C15.675018808978638,9.077422323669433,15.674917809278638,9.077370323669435,15.674898809278638,9.077361323669434C15.674860809278638,9.077342323669434,15.675152808978638,9.077489323669434,15.675761808978638,9.077805323669434C15.676981804978638,9.078435323669433,15.679471804978638,9.079737323669434,15.683148804978638,9.081722323669434C15.690505824978638,9.085694323669433,15.702589824978638,9.092387323669433,15.718727324978637,9.101901323669434C15.751035524978638,9.120948323669433,15.799381524978637,9.151172323669433,15.858453524978637,9.193337323669434C15.976872524978639,9.277862323669433,16.136586524978636,9.409079323669433,16.296521524978637,9.592788323669433C16.613835524978636,9.957278323669433,16.935515524978637,10.531358323669433,16.935515524978637,11.376518323669433C16.935515524978637,11.376518323669433,17.514425524978638,11.376518323669433,17.514425524978638,11.376518323669433C17.514425524978638,10.368748323669433,17.12596552497864,9.663888323669433,16.73314552497864,9.212670323669434C16.538015524978636,8.988529323669434,16.342660524978637,8.827703323669434,16.194778524978638,8.722148323669433C16.120700524978638,8.669272323669434,16.05808752497864,8.629947723669433,16.012724524978637,8.603204723669434C15.990026524978637,8.589823723669433,15.971596524978638,8.579562723669433,15.958149524978637,8.572302723669434C15.951423524978638,8.568672723669433,15.945938524978638,8.565789723669434,15.941783524978637,8.563639723669434C15.939706524978638,8.562564723669434,15.937960524978637,8.561672723669433,15.936557524978637,8.560961723669434C15.935855524978638,8.560606723669434,15.935239524978638,8.560296719669434,15.934711524978638,8.560030719669433C15.934446524978638,8.559898719669434,15.934204524978638,8.559776719669433,15.933983524978638,8.559666719669433C15.933873524978639,8.559611719669434,15.933723524978637,8.559537719669434,15.933668524978637,8.559510719709433C15.933525524978638,8.559438719669433,15.933387524978638,8.559370719669433,15.804698524978638,8.818643323669434C15.804698524978638,8.818643323669434,15.804698524978638,8.818643323669434,15.804698524978638,8.818643323669434Z" fill="#979797" fill-opacity="1"/></g></g><g transform="matrix(-0.1736481785774231,0.9848077297210693,-0.9848077297210693,-0.1736481934785843,24.796694544162733,-6.057602633559242)"><g transform="matrix(0.5,0.866025447845459,-0.866025447845459,0.4999999701976776,21.527377624219298,-7.63917975376944)"><path d="M17.509214935806273,15.082800618896485C17.380526215806274,15.342073618896485,17.380399219806275,15.342010618896484,17.380277219806274,15.341950618896485C17.380244219806276,15.341933618896483,17.380127219806276,15.341875618896484,17.380060219806275,15.341841618896485C17.379925219806275,15.341774618896485,17.379812219806276,15.341718618896484,17.379720219806273,15.341671618896484C17.379535219806275,15.341579618896484,17.379434220106276,15.341527618896485,17.379415220106274,15.341518618896485C17.379377220106274,15.341499618896485,17.379669219806274,15.341646618896485,17.380278219806275,15.341962618896485C17.381498215806275,15.342592618896484,17.383988215806273,15.343894618896485,17.387665215806276,15.345879618896484C17.395022235806273,15.349851618896484,17.407106235806275,15.356544618896484,17.423243735806274,15.366058618896485C17.455551935806273,15.385105618896484,17.503897935806275,15.415329618896484,17.562969935806276,15.457494618896485C17.681388935806275,15.542019618896484,17.841102935806273,15.673236618896484,18.001037935806274,15.856945618896484C18.318351935806273,16.221435618896486,18.640031935806274,16.795515618896484,18.640031935806274,17.640675618896484C18.640031935806274,17.640675618896484,19.218941935806274,17.640675618896484,19.218941935806274,17.640675618896484C19.218941935806274,16.632905618896483,18.830481935806276,15.928045618896483,18.437661935806275,15.476827618896484C18.242531935806273,15.252686618896485,18.047176935806274,15.091860618896485,17.899294935806275,14.986305618896484C17.825216935806274,14.933429618896485,17.762603935806276,14.894105018896484,17.717240935806274,14.867362018896484C17.694542935806275,14.853981018896484,17.676112935806273,14.843720018896484,17.662665935806274,14.836460018896485C17.655939935806273,14.832830018896484,17.650454935806273,14.829947018896485,17.646299935806276,14.827797018896485C17.644222935806276,14.826722018896485,17.642476935806275,14.825830018896484,17.641073935806276,14.825119018896485C17.640371935806275,14.824764018896484,17.639755935806274,14.824454014896485,17.639227935806275,14.824188014896484C17.638962935806273,14.824056014896485,17.638720935806276,14.823934014896484,17.638499935806273,14.823824014896484C17.638389935806273,14.823769014896484,17.638239935806276,14.823695014896485,17.638184935806276,14.823668014936484C17.638041935806275,14.823596014896484,17.637903935806275,14.823528014896484,17.509214935806273,15.082800618896485C17.509214935806273,15.082800618896485,17.509214935806273,15.082800618896485,17.509214935806273,15.082800618896485Z" fill="#979797" fill-opacity="1"/></g><g transform="matrix(-0.5,-0.866025447845459,0.866025447845459,-0.4999999701976776,15.524978760352155,29.71581611243294)"><path d="M16.470509706047057,10.635367385635377C16.341820986047058,10.894640385635377,16.34169399004706,10.894577385635376,16.341571990047058,10.894517385635377C16.34153899004706,10.894500385635375,16.34142199004706,10.894442385635376,16.34135499004706,10.894408385635376C16.34121999004706,10.894341385635377,16.34110699004706,10.894285385635376,16.341014990047057,10.894238385635376C16.34082999004706,10.894146385635375,16.34072899034706,10.894094385635377,16.340709990347058,10.894085385635377C16.340671990347058,10.894066385635377,16.340963990047058,10.894213385635377,16.34157299004706,10.894529385635376C16.34279298604706,10.895159385635376,16.345282986047057,10.896461385635376,16.34895998604706,10.898446385635376C16.356317006047057,10.902418385635375,16.36840100604706,10.909111385635375,16.384538506047058,10.918625385635377C16.416846706047057,10.937672385635375,16.46519270604706,10.967896385635376,16.52426470604706,11.010061385635376C16.64268370604706,11.094586385635376,16.802397706047056,11.225803385635375,16.962332706047057,11.409512385635376C17.279646706047057,11.774002385635375,17.601326706047058,12.348082385635376,17.601326706047058,13.193242385635376C17.601326706047058,13.193242385635376,18.180236706047058,13.193242385635376,18.180236706047058,13.193242385635376C18.180236706047058,12.185472385635375,17.79177670604706,11.480612385635375,17.39895670604706,11.029394385635376C17.203826706047057,10.805253385635377,17.008471706047057,10.644427385635376,16.860589706047058,10.538872385635376C16.786511706047058,10.485996385635376,16.72389870604706,10.446671785635376,16.678535706047057,10.419928785635376C16.65583770604706,10.406547785635375,16.637407706047057,10.396286785635375,16.623960706047058,10.389026785635377C16.617234706047057,10.385396785635375,16.611749706047057,10.382513785635377,16.60759470604706,10.380363785635376C16.60551770604706,10.379288785635376,16.60377170604706,10.378396785635376,16.60236870604706,10.377685785635377C16.60166670604706,10.377330785635376,16.601050706047058,10.377020781635377,16.60052270604706,10.376754781635375C16.600257706047056,10.376622781635376,16.60001570604706,10.376500781635375,16.599794706047057,10.376390781635376C16.599684706047057,10.376335781635376,16.59953470604706,10.376261781635376,16.59947970604706,10.376234781675375C16.59933670604706,10.376162781635376,16.59919870604706,10.376094781635375,16.470509706047057,10.635367385635377C16.470509706047057,10.635367385635377,16.470509706047057,10.635367385635377,16.470509706047057,10.635367385635377Z" fill="#979797" fill-opacity="1"/></g><g transform="matrix(-0.5,-0.866025447845459,0.866025447845459,-0.4999999701976776,15.524978760352155,29.71581611243294)"><path d="M16.470509706047057,10.635367385635377C16.341820986047058,10.894640385635377,16.34169399004706,10.894577385635376,16.341571990047058,10.894517385635377C16.34153899004706,10.894500385635375,16.34142199004706,10.894442385635376,16.34135499004706,10.894408385635376C16.34121999004706,10.894341385635377,16.34110699004706,10.894285385635376,16.341014990047057,10.894238385635376C16.34082999004706,10.894146385635375,16.34072899034706,10.894094385635377,16.340709990347058,10.894085385635377C16.340671990347058,10.894066385635377,16.340963990047058,10.894213385635377,16.34157299004706,10.894529385635376C16.34279298604706,10.895159385635376,16.345282986047057,10.896461385635376,16.34895998604706,10.898446385635376C16.356317006047057,10.902418385635375,16.36840100604706,10.909111385635375,16.384538506047058,10.918625385635377C16.416846706047057,10.937672385635375,16.46519270604706,10.967896385635376,16.52426470604706,11.010061385635376C16.64268370604706,11.094586385635376,16.802397706047056,11.225803385635375,16.962332706047057,11.409512385635376C17.279646706047057,11.774002385635375,17.601326706047058,12.348082385635376,17.601326706047058,13.193242385635376C17.601326706047058,13.193242385635376,18.180236706047058,13.193242385635376,18.180236706047058,13.193242385635376C18.180236706047058,12.185472385635375,17.79177670604706,11.480612385635375,17.39895670604706,11.029394385635376C17.203826706047057,10.805253385635377,17.008471706047057,10.644427385635376,16.860589706047058,10.538872385635376C16.786511706047058,10.485996385635376,16.72389870604706,10.446671785635376,16.678535706047057,10.419928785635376C16.65583770604706,10.406547785635375,16.637407706047057,10.396286785635375,16.623960706047058,10.389026785635377C16.617234706047057,10.385396785635375,16.611749706047057,10.382513785635377,16.60759470604706,10.380363785635376C16.60551770604706,10.379288785635376,16.60377170604706,10.378396785635376,16.60236870604706,10.377685785635377C16.60166670604706,10.377330785635376,16.601050706047058,10.377020781635377,16.60052270604706,10.376754781635375C16.600257706047056,10.376622781635376,16.60001570604706,10.376500781635375,16.599794706047057,10.376390781635376C16.599684706047057,10.376335781635376,16.59953470604706,10.376261781635376,16.59947970604706,10.376234781675375C16.59933670604706,10.376162781635376,16.59919870604706,10.376094781635375,16.470509706047057,10.635367385635377C16.470509706047057,10.635367385635377,16.470509706047057,10.635367385635377,16.470509706047057,10.635367385635377Z" fill="#979797" fill-opacity="1"/></g></g><g transform="matrix(-0.5,0.8660253882408142,-0.8660253882408142,-0.4999999701976776,30.4799974445219,1.0185503301794796)"><g transform="matrix(0.4999999403953552,0.8660253882408142,-0.8660253882408142,0.5,23.202734285774056,-6.679018533577164)"><path d="M17.51536971142578,17.013782254943848C17.38668099142578,17.27305525494385,17.386553995425782,17.272992254943848,17.38643199542578,17.272932254943846C17.386398995425782,17.272915254943847,17.386281995425783,17.272857254943847,17.38621499542578,17.272823254943848C17.38607999542578,17.272756254943847,17.385966995425782,17.272700254943846,17.38587499542578,17.272653254943847C17.385689995425782,17.27256125494385,17.385588995725783,17.27250925494385,17.38556999572578,17.272500254943846C17.38553199572578,17.27248125494385,17.38582399542578,17.272628254943847,17.386432995425782,17.272944254943848C17.38765299142578,17.27357425494385,17.39014299142578,17.274876254943848,17.393819991425783,17.276861254943846C17.40117701142578,17.280833254943847,17.41326101142578,17.28752625494385,17.42939841142578,17.29704025494385C17.46170671142578,17.31608725494385,17.510052711425782,17.34631125494385,17.569124711425783,17.388476254943846C17.687543711425782,17.473002254943847,17.84725771142578,17.60421825494385,18.00719271142578,17.78792725494385C18.32450671142578,18.15241725494385,18.64618671142578,18.726497254943848,18.64618671142578,19.571657254943847C18.64618671142578,19.571657254943847,19.22509671142578,19.571657254943847,19.22509671142578,19.571657254943847C19.22509671142578,18.563887254943847,18.836636711425783,17.859027254943847,18.443816711425782,17.40780925494385C18.24868671142578,17.183669254943847,18.05333171142578,17.022842254943846,17.90544971142578,16.917287254943847C17.83137171142578,16.864411254943846,17.768758711425782,16.82508665494385,17.72339571142578,16.79834365494385C17.70069871142578,16.784962654943847,17.68226771142578,16.774701654943847,17.66882071142578,16.76744165494385C17.66209471142578,16.763811654943847,17.65660971142578,16.760928654943847,17.652454711425783,16.758778654943846C17.650377711425783,16.757703654943846,17.648631711425782,16.75681165494385,17.647228711425782,16.756100654943847C17.646526711425782,16.755745654943848,17.64591071142578,16.75543565094385,17.645382711425782,16.75516965094385C17.64511771142578,16.755037650943848,17.644875711425783,16.754915650943847,17.64465471142578,16.754805650943847C17.64454471142578,16.754750650943848,17.644394711425782,16.754676650943846,17.644339711425783,16.754649650983847C17.64419671142578,16.754577650943848,17.64405871142578,16.75450965094385,17.51536971142578,17.013782254943848C17.51536971142578,17.013782254943848,17.51536971142578,17.013782254943848,17.51536971142578,17.013782254943848Z" fill="#979797" fill-opacity="1"/></g><g transform="matrix(-0.4999999403953552,-0.8660253882408142,0.8660253882408142,-0.5,13.86125505177673,32.62215521200867)"><path d="M16.477636037376403,12.568812839279175C16.348947317376403,12.828085839279176,16.348820321376405,12.828022839279175,16.348698321376403,12.827962839279175C16.348665321376405,12.827945839279174,16.348548321376406,12.827887839279175,16.348481321376404,12.827853839279175C16.348346321376404,12.827786839279176,16.348233321376405,12.827730839279175,16.348141321376403,12.827683839279175C16.347956321376405,12.827591839279174,16.347855321676406,12.827539839279176,16.347836321676404,12.827530839279175C16.347798321676404,12.827511839279175,16.348090321376404,12.827658839279175,16.348699321376404,12.827974839279175C16.349919317376404,12.828604839279174,16.352409317376402,12.829906839279175,16.356086317376406,12.831891839279175C16.363443337376403,12.835863839279174,16.375527337376404,12.842556839279174,16.391664737376402,12.852070839279175C16.423973037376403,12.871117839279174,16.472319037376405,12.901341839279175,16.531391037376405,12.943506839279175C16.649810037376405,13.028032839279176,16.809524037376402,13.159248839279174,16.969459037376403,13.342957839279174C17.286773037376403,13.707447839279174,17.608453037376403,14.281527839279175,17.608453037376403,15.126687839279175C17.608453037376403,15.126687839279175,18.187363037376404,15.126687839279175,18.187363037376404,15.126687839279175C18.187363037376404,14.118917839279174,17.798903037376405,13.414057839279174,17.406083037376405,12.962839839279175C17.210953037376402,12.738699839279175,17.015598037376403,12.577872839279175,16.867716037376404,12.472317839279174C16.793638037376404,12.419441839279175,16.731025037376405,12.380117239279175,16.685662037376403,12.353374239279175C16.662965037376402,12.339993239279174,16.644534037376403,12.329732239279174,16.631087037376403,12.322472239279175C16.624361037376403,12.318842239279174,16.618876037376403,12.315959239279175,16.614721037376405,12.313809239279175C16.612644037376405,12.312734239279175,16.610898037376405,12.311842239279175,16.609495037376405,12.311131239279176C16.608793037376405,12.310776239279175,16.608177037376404,12.310466235279176,16.607649037376405,12.310200235279174C16.607384037376402,12.310068235279175,16.607142037376406,12.309946235279174,16.606921037376402,12.309836235279175C16.606811037376403,12.309781235279175,16.606661037376405,12.309707235279175,16.606606037376405,12.309680235319174C16.606463037376404,12.309608235279175,16.606325037376404,12.309540235279174,16.477636037376403,12.568812839279175C16.477636037376403,12.568812839279175,16.477636037376403,12.568812839279175,16.477636037376403,12.568812839279175Z" fill="#979797" fill-opacity="1"/></g><g transform="matrix(-0.4999999403953552,-0.8660253882408142,0.8660253882408142,-0.5,13.86125505177673,32.62215521200867)"><path d="M16.477636037376403,12.568812839279175C16.348947317376403,12.828085839279176,16.348820321376405,12.828022839279175,16.348698321376403,12.827962839279175C16.348665321376405,12.827945839279174,16.348548321376406,12.827887839279175,16.348481321376404,12.827853839279175C16.348346321376404,12.827786839279176,16.348233321376405,12.827730839279175,16.348141321376403,12.827683839279175C16.347956321376405,12.827591839279174,16.347855321676406,12.827539839279176,16.347836321676404,12.827530839279175C16.347798321676404,12.827511839279175,16.348090321376404,12.827658839279175,16.348699321376404,12.827974839279175C16.349919317376404,12.828604839279174,16.352409317376402,12.829906839279175,16.356086317376406,12.831891839279175C16.363443337376403,12.835863839279174,16.375527337376404,12.842556839279174,16.391664737376402,12.852070839279175C16.423973037376403,12.871117839279174,16.472319037376405,12.901341839279175,16.531391037376405,12.943506839279175C16.649810037376405,13.028032839279176,16.809524037376402,13.159248839279174,16.969459037376403,13.342957839279174C17.286773037376403,13.707447839279174,17.608453037376403,14.281527839279175,17.608453037376403,15.126687839279175C17.608453037376403,15.126687839279175,18.187363037376404,15.126687839279175,18.187363037376404,15.126687839279175C18.187363037376404,14.118917839279174,17.798903037376405,13.414057839279174,17.406083037376405,12.962839839279175C17.210953037376402,12.738699839279175,17.015598037376403,12.577872839279175,16.867716037376404,12.472317839279174C16.793638037376404,12.419441839279175,16.731025037376405,12.380117239279175,16.685662037376403,12.353374239279175C16.662965037376402,12.339993239279174,16.644534037376403,12.329732239279174,16.631087037376403,12.322472239279175C16.624361037376403,12.318842239279174,16.618876037376403,12.315959239279175,16.614721037376405,12.313809239279175C16.612644037376405,12.312734239279175,16.610898037376405,12.311842239279175,16.609495037376405,12.311131239279176C16.608793037376405,12.310776239279175,16.608177037376404,12.310466235279176,16.607649037376405,12.310200235279174C16.607384037376402,12.310068235279175,16.607142037376406,12.309946235279174,16.606921037376402,12.309836235279175C16.606811037376403,12.309781235279175,16.606661037376405,12.309707235279175,16.606606037376405,12.309680235319174C16.606463037376404,12.309608235279175,16.606325037376404,12.309540235279174,16.477636037376403,12.568812839279175C16.477636037376403,12.568812839279175,16.477636037376403,12.568812839279175,16.477636037376403,12.568812839279175Z" fill="#979797" fill-opacity="1"/></g></g><g transform="matrix(-0.7660444378852844,0.6427876353263855,-0.6427876353263855,-0.7660444378852844,32.38713192690051,10.471935352728849)"><g transform="matrix(0.5,0.8660253882408142,-0.8660253286361694,0.5,24.45204768000258,-5.197772143564919)"><path d="M16.85723048260498,18.83634447265625C16.72854176260498,19.09561747265625,16.72841476660498,19.09555447265625,16.72829276660498,19.09549447265625C16.72825976660498,19.09547747265625,16.728142766604982,19.09541947265625,16.72807576660498,19.09538547265625C16.72794076660498,19.09531847265625,16.72782776660498,19.09526247265625,16.72773576660498,19.09521547265625C16.72755076660498,19.09512347265625,16.727449766904982,19.09507147265625,16.72743076690498,19.09506247265625C16.72739276690498,19.09504347265625,16.72768476660498,19.09519047265625,16.72829376660498,19.09550647265625C16.72951376260498,19.09613647265625,16.73200376260498,19.09743847265625,16.735680762604982,19.099423472656248C16.74303778260498,19.10339547265625,16.75512178260498,19.11008847265625,16.77125928260498,19.11960247265625C16.80356748260498,19.13864947265625,16.85191348260498,19.16887347265625,16.910985482604982,19.21103847265625C17.02940448260498,19.29556347265625,17.18911848260498,19.42678047265625,17.34905348260498,19.61048947265625C17.66636748260498,19.97497947265625,17.98804748260498,20.54905947265625,17.98804748260498,21.39421947265625C17.98804748260498,21.39421947265625,18.56695748260498,21.39421947265625,18.56695748260498,21.39421947265625C18.56695748260498,20.38644947265625,18.178497482604982,19.68158947265625,17.78567748260498,19.230371472656252C17.59054748260498,19.00623047265625,17.39519248260498,18.84540447265625,17.24731048260498,18.73984947265625C17.17323248260498,18.68697347265625,17.11061948260498,18.64764887265625,17.06525648260498,18.62090587265625C17.04255848260498,18.60752487265625,17.02412848260498,18.59726387265625,17.01068148260498,18.59000387265625C17.00395548260498,18.58637387265625,16.99847048260498,18.58349087265625,16.994315482604982,18.58134087265625C16.992238482604982,18.58026587265625,16.99049248260498,18.57937387265625,16.98908948260498,18.57866287265625C16.98838748260498,18.57830787265625,16.98777148260498,18.57799786865625,16.98724348260498,18.57773186865625C16.98697848260498,18.57759986865625,16.986736482604982,18.57747786865625,16.98651548260498,18.57736786865625C16.98640548260498,18.57731286865625,16.98625548260498,18.57723886865625,16.986200482604982,18.57721186869625C16.98605748260498,18.57713986865625,16.98591948260498,18.57707186865625,16.85723048260498,18.83634447265625C16.85723048260498,18.83634447265625,16.85723048260498,18.83634447265625,16.85723048260498,18.83634447265625Z" fill="#979797" fill-opacity="1"/></g><g transform="matrix(-0.5,-0.8660253882408142,0.8660253286361694,-0.5,11.291560044020486,34.782242559614765)"><path d="M15.816351113822938,14.390664092788697C15.687662393822936,14.649937092788697,15.687535397822938,14.649874092788696,15.687413397822937,14.649814092788697C15.687380397822936,14.649797092788695,15.687263397822937,14.649739092788696,15.687196397822937,14.649705092788697C15.687061397822937,14.649638092788697,15.686948397822936,14.649582092788696,15.686856397822938,14.649535092788696C15.686671397822938,14.649443092788696,15.686570398122937,14.649391092788697,15.686551398122937,14.649382092788697C15.686513398122937,14.649363092788697,15.686805397822937,14.649510092788697,15.687414397822938,14.649826092788697C15.688634393822937,14.650456092788696,15.691124393822937,14.651758092788697,15.694801393822937,14.653743092788696C15.702158413822938,14.657715092788695,15.714242413822937,14.664408092788696,15.730379913822937,14.673922092788697C15.762688113822938,14.692969092788696,15.811034113822936,14.723193092788696,15.870106113822937,14.765358092788697C15.988525113822938,14.849883092788696,16.148239113822935,14.981100092788695,16.308174113822936,15.164809092788696C16.625488113822936,15.529299092788696,16.947168113822936,16.103379092788696,16.947168113822936,16.948539092788696C16.947168113822936,16.948539092788696,17.526078113822937,16.948539092788696,17.526078113822937,16.948539092788696C17.526078113822937,15.940769092788695,17.13761811382294,15.235909092788695,16.744798113822938,14.784691092788696C16.549668113822936,14.560550092788697,16.354313113822936,14.399724092788697,16.206431113822937,14.294169092788696C16.132353113822937,14.241293092788696,16.069740113822938,14.201968492788696,16.024377113822936,14.175225492788696C16.001679113822938,14.161844492788696,15.983249113822938,14.151583492788696,15.969802113822936,14.144323492788697C15.963076113822938,14.140693492788696,15.957591113822938,14.137810492788697,15.953436113822937,14.135660492788697C15.951359113822937,14.134585492788696,15.949613113822936,14.133693492788696,15.948210113822936,14.132982492788697C15.947508113822938,14.132627492788696,15.946892113822937,14.132317488788697,15.946364113822938,14.132051488788695C15.946099113822937,14.131919488788697,15.945857113822937,14.131797488788695,15.945636113822937,14.131687488788696C15.945526113822938,14.131632488788696,15.945376113822936,14.131558488788697,15.945321113822937,14.131531488828696C15.945178113822937,14.131459488788696,15.945040113822937,14.131391488788696,15.816351113822938,14.390664092788697C15.816351113822938,14.390664092788697,15.816351113822938,14.390664092788697,15.816351113822938,14.390664092788697Z" fill="#979797" fill-opacity="1"/></g><g transform="matrix(-0.5,-0.8660253882408142,0.8660253286361694,-0.5,11.291560044020486,34.782242559614765)"><path d="M15.816351113822938,14.390664092788697C15.687662393822936,14.649937092788697,15.687535397822938,14.649874092788696,15.687413397822937,14.649814092788697C15.687380397822936,14.649797092788695,15.687263397822937,14.649739092788696,15.687196397822937,14.649705092788697C15.687061397822937,14.649638092788697,15.686948397822936,14.649582092788696,15.686856397822938,14.649535092788696C15.686671397822938,14.649443092788696,15.686570398122937,14.649391092788697,15.686551398122937,14.649382092788697C15.686513398122937,14.649363092788697,15.686805397822937,14.649510092788697,15.687414397822938,14.649826092788697C15.688634393822937,14.650456092788696,15.691124393822937,14.651758092788697,15.694801393822937,14.653743092788696C15.702158413822938,14.657715092788695,15.714242413822937,14.664408092788696,15.730379913822937,14.673922092788697C15.762688113822938,14.692969092788696,15.811034113822936,14.723193092788696,15.870106113822937,14.765358092788697C15.988525113822938,14.849883092788696,16.148239113822935,14.981100092788695,16.308174113822936,15.164809092788696C16.625488113822936,15.529299092788696,16.947168113822936,16.103379092788696,16.947168113822936,16.948539092788696C16.947168113822936,16.948539092788696,17.526078113822937,16.948539092788696,17.526078113822937,16.948539092788696C17.526078113822937,15.940769092788695,17.13761811382294,15.235909092788695,16.744798113822938,14.784691092788696C16.549668113822936,14.560550092788697,16.354313113822936,14.399724092788697,16.206431113822937,14.294169092788696C16.132353113822937,14.241293092788696,16.069740113822938,14.201968492788696,16.024377113822936,14.175225492788696C16.001679113822938,14.161844492788696,15.983249113822938,14.151583492788696,15.969802113822936,14.144323492788697C15.963076113822938,14.140693492788696,15.957591113822938,14.137810492788697,15.953436113822937,14.135660492788697C15.951359113822937,14.134585492788696,15.949613113822936,14.133693492788696,15.948210113822936,14.132982492788697C15.947508113822938,14.132627492788696,15.946892113822937,14.132317488788697,15.946364113822938,14.132051488788695C15.946099113822937,14.131919488788697,15.945857113822937,14.131797488788695,15.945636113822937,14.131687488788696C15.945526113822938,14.131632488788696,15.945376113822936,14.131558488788697,15.945321113822937,14.131531488828696C15.945178113822937,14.131459488788696,15.945040113822937,14.131391488788696,15.816351113822938,14.390664092788697C15.816351113822938,14.390664092788697,15.816351113822938,14.390664092788697,15.816351113822938,14.390664092788697Z" fill="#979797" fill-opacity="1"/></g></g><g transform="matrix(-0.9396926164627075,0.3420201539993286,-0.3420201241970062,-0.9396926164627075,29.630190416676243,20.00938936258308)"><g transform="matrix(0.5,0.8660253882408142,-0.8660253286361694,0.5,25.122024736543267,-3.382790474793012)"><path d="M15.620398817565919,20.32405256439209C15.491710097565917,20.58332556439209,15.491583101565919,20.58326256439209,15.491461101565918,20.58320256439209C15.491428101565917,20.58318556439209,15.491311101565918,20.58312756439209,15.491244101565918,20.58309356439209C15.491109101565918,20.58302656439209,15.490996101565917,20.582970564392088,15.490904101565919,20.58292356439209C15.490719101565919,20.58283156439209,15.490618101865918,20.58277956439209,15.490599101865918,20.58277056439209C15.490561101865918,20.58275156439209,15.490853101565918,20.58289856439209,15.491462101565919,20.58321456439209C15.492682097565918,20.58384456439209,15.495172097565918,20.58514656439209,15.498849097565918,20.587131564392088C15.506206117565918,20.59110356439209,15.518290117565918,20.59779656439209,15.534427617565918,20.60731056439209C15.566735817565919,20.62635756439209,15.615081817565917,20.65658156439209,15.674153817565918,20.69874656439209C15.792572817565919,20.78327156439209,15.952286817565918,20.91448856439209,16.112221817565917,21.09819756439209C16.429535817565917,21.46268756439209,16.751215817565917,22.03676756439209,16.751215817565917,22.88192756439209C16.751215817565917,22.88192756439209,17.330125817565918,22.88192756439209,17.330125817565918,22.88192756439209C17.330125817565918,21.87415756439209,16.94166581756592,21.16929756439209,16.54884581756592,20.71807956439209C16.353715817565917,20.49393856439209,16.158360817565917,20.33311256439209,16.010478817565918,20.22755756439209C15.936400817565918,20.17468156439209,15.873787817565917,20.13535696439209,15.828424817565917,20.10861396439209C15.805726817565917,20.09523296439209,15.787296817565919,20.08497196439209,15.773849817565917,20.07771196439209C15.767123817565919,20.07408196439209,15.761638817565919,20.07119896439209,15.757483817565918,20.06904896439209C15.755406817565918,20.06797396439209,15.753660817565917,20.06708196439209,15.752257817565917,20.06637096439209C15.751555817565919,20.06601596439209,15.750939817565918,20.06570596039209,15.750411817565919,20.06543996039209C15.750146817565918,20.06530796039209,15.749904817565918,20.06518596039209,15.749683817565918,20.06507596039209C15.749573817565919,20.06502096039209,15.749423817565917,20.06494696039209,15.749368817565918,20.06491996043209C15.749225817565918,20.06484796039209,15.749087817565918,20.06477996039209,15.620398817565919,20.32405256439209C15.620398817565919,20.32405256439209,15.620398817565919,20.32405256439209,15.620398817565919,20.32405256439209Z" fill="#979797" fill-opacity="1"/></g><g transform="matrix(-0.5,-0.8660253882408142,0.8660253286361694,-0.5,8.150553539376943,35.94288549092966)"><path d="M14.580896554496766,15.87771605659485C14.452207834496765,16.13698905659485,14.452080838496766,16.13692605659485,14.451958838496765,16.136866056594847C14.451925838496765,16.136849056594848,14.451808838496765,16.13679105659485,14.451741838496766,16.13675705659485C14.451606838496765,16.136690056594848,14.451493838496765,16.136634056594847,14.451401838496766,16.13658705659485C14.451216838496766,16.13649505659485,14.451115838796765,16.13644305659485,14.451096838796765,16.136434056594847C14.451058838796765,16.13641505659485,14.451350838496765,16.136562056594848,14.451959838496766,16.13687805659485C14.453179834496765,16.13750805659485,14.455669834496765,16.13881005659485,14.459346834496765,16.140795056594847C14.466703854496766,16.144767056594848,14.478787854496765,16.15146005659485,14.494925354496765,16.16097405659485C14.527233554496766,16.18002105659485,14.575579554496764,16.21024505659485,14.634651554496765,16.252410056594847C14.753070554496766,16.33693505659485,14.912784554496765,16.46815205659485,15.072719554496764,16.65186105659485C15.390033554496766,17.01635105659485,15.711713554496765,17.59043105659485,15.711713554496765,18.43559105659485C15.711713554496765,18.43559105659485,16.290623554496765,18.43559105659485,16.290623554496765,18.43559105659485C16.290623554496765,17.427821056594848,15.902163554496765,16.722961056594848,15.509343554496764,16.27174305659485C15.314213554496765,16.047602056594847,15.118858554496764,15.886776056594849,14.970976554496765,15.781221056594848C14.896898554496765,15.728345056594849,14.834285554496764,15.689020456594848,14.788922554496764,15.662277456594849C14.766224554496764,15.648896456594848,14.747794554496766,15.638635456594848,14.734347554496765,15.63137545659485C14.727621554496766,15.627745456594848,14.722136554496766,15.62486245659485,14.717981554496765,15.622712456594849C14.715904554496765,15.621637456594849,14.714158554496764,15.620745456594848,14.712755554496765,15.62003445659485C14.712053554496766,15.619679456594849,14.711437554496765,15.61936945259485,14.710909554496766,15.619103452594848C14.710644554496765,15.618971452594849,14.710402554496765,15.618849452594848,14.710181554496765,15.618739452594848C14.710071554496766,15.618684452594849,14.709921554496765,15.618610452594849,14.709866554496765,15.618583452634848C14.709723554496765,15.618511452594849,14.709585554496766,15.618443452594848,14.580896554496766,15.87771605659485C14.580896554496766,15.87771605659485,14.580896554496766,15.87771605659485,14.580896554496766,15.87771605659485Z" fill="#979797" fill-opacity="1"/></g><g transform="matrix(-0.5,-0.8660253882408142,0.8660253286361694,-0.5,8.150553539376943,35.94288549092966)"><path d="M14.580896554496766,15.87771605659485C14.452207834496765,16.13698905659485,14.452080838496766,16.13692605659485,14.451958838496765,16.136866056594847C14.451925838496765,16.136849056594848,14.451808838496765,16.13679105659485,14.451741838496766,16.13675705659485C14.451606838496765,16.136690056594848,14.451493838496765,16.136634056594847,14.451401838496766,16.13658705659485C14.451216838496766,16.13649505659485,14.451115838796765,16.13644305659485,14.451096838796765,16.136434056594847C14.451058838796765,16.13641505659485,14.451350838496765,16.136562056594848,14.451959838496766,16.13687805659485C14.453179834496765,16.13750805659485,14.455669834496765,16.13881005659485,14.459346834496765,16.140795056594847C14.466703854496766,16.144767056594848,14.478787854496765,16.15146005659485,14.494925354496765,16.16097405659485C14.527233554496766,16.18002105659485,14.575579554496764,16.21024505659485,14.634651554496765,16.252410056594847C14.753070554496766,16.33693505659485,14.912784554496765,16.46815205659485,15.072719554496764,16.65186105659485C15.390033554496766,17.01635105659485,15.711713554496765,17.59043105659485,15.711713554496765,18.43559105659485C15.711713554496765,18.43559105659485,16.290623554496765,18.43559105659485,16.290623554496765,18.43559105659485C16.290623554496765,17.427821056594848,15.902163554496765,16.722961056594848,15.509343554496764,16.27174305659485C15.314213554496765,16.047602056594847,15.118858554496764,15.886776056594849,14.970976554496765,15.781221056594848C14.896898554496765,15.728345056594849,14.834285554496764,15.689020456594848,14.788922554496764,15.662277456594849C14.766224554496764,15.648896456594848,14.747794554496766,15.638635456594848,14.734347554496765,15.63137545659485C14.727621554496766,15.627745456594848,14.722136554496766,15.62486245659485,14.717981554496765,15.622712456594849C14.715904554496765,15.621637456594849,14.714158554496764,15.620745456594848,14.712755554496765,15.62003445659485C14.712053554496766,15.619679456594849,14.711437554496765,15.61936945259485,14.710909554496766,15.619103452594848C14.710644554496765,15.618971452594849,14.710402554496765,15.618849452594848,14.710181554496765,15.618739452594848C14.710071554496766,15.618684452594849,14.709921554496765,15.618610452594849,14.709866554496765,15.618583452634848C14.709723554496765,15.618511452594849,14.709585554496766,15.618443452594848,14.580896554496766,15.87771605659485C14.580896554496766,15.87771605659485,14.580896554496766,15.87771605659485,14.580896554496766,15.87771605659485Z" fill="#979797" fill-opacity="1"/></g></g></g></g></svg>