<svg width="20" height="19" viewBox="0 0 20 19" fill="none" xmlns="http://www.w3.org/2000/svg">
<g id="Group 1142813762">
<g id="Group 1142813574">
<g id="&#231;&#188;&#150;&#231;&#187;&#132; 3&#229;&#164;&#135;&#228;&#187;&#189;" clip-path="url(#clip0_148_1479)">
<path id="&#232;&#183;&#175;&#229;&#190;&#132; 12" d="M0 1.08809H19.3469" stroke="#8EA2BF" stroke-width="0.868361" stroke-linecap="round" stroke-linejoin="round" stroke-dasharray="1.74"/>
<path id="&#232;&#183;&#175;&#229;&#190;&#132; 12&#229;&#164;&#135;&#228;&#187;&#189;" d="M0 17.7328H19.3469" stroke="#8EA2BF" stroke-width="0.868361" stroke-linecap="round" stroke-linejoin="round" stroke-dasharray="1.74"/>
<path id="Z" d="M1.74636 12.0247L6.36604 6.05033L6.35447 5.98086H1.97792V5.05461H7.55859V6.05033L2.86944 12.0825V12.152H7.82489V13.0898H1.74636V12.0247Z" fill="#8EA2BF"/>
<path id="&#228;&#184;&#137;&#232;&#167;&#146;&#229;&#189;&#162;&#229;&#164;&#135;&#228;&#187;&#189; 2" fill-rule="evenodd" clip-rule="evenodd" d="M14.0304 17.021C13.8009 17.3612 13.3001 17.3612 13.0706 17.021L11.7411 15.0502C11.4817 14.6657 11.7572 14.1476 12.221 14.1476H14.88C15.3438 14.1476 15.6193 14.6657 15.3599 15.0502L14.0304 17.021Z" fill="#8EA2BF"/>
<path id="&#232;&#183;&#175;&#229;&#190;&#132; 13&#229;&#164;&#135;&#228;&#187;&#189;" d="M13.5256 16.709L13.5672 11.5879" stroke="#8EA2BF" stroke-width="0.868361" stroke-linecap="round"/>
<path id="&#228;&#184;&#137;&#232;&#167;&#146;&#229;&#189;&#162;&#229;&#164;&#135;&#228;&#187;&#189; 2_2" fill-rule="evenodd" clip-rule="evenodd" d="M13.0706 1.54343C13.3001 1.20323 13.8009 1.20323 14.0304 1.54343L15.3599 3.51424C15.6193 3.89874 15.3438 4.4169 14.88 4.4169L12.221 4.4169C11.7572 4.4169 11.4817 3.89874 11.7411 3.51424L13.0706 1.54343Z" fill="#8EA2BF"/>
<path id="&#232;&#183;&#175;&#229;&#190;&#132; 13&#229;&#164;&#135;&#228;&#187;&#189;_2" d="M13.5755 1.85742L13.5339 6.97851" stroke="#8EA2BF" stroke-width="0.868361" stroke-linecap="round"/>
</g>
</g>
</g>
<defs>
<clipPath id="clip0_148_1479">
<rect width="19.3469" height="17.4122" fill="white" transform="translate(0 0.832031)"/>
</clipPath>
</defs>
</svg>
