<svg width="20" height="28" viewBox="0 0 20 28" fill="none" xmlns="http://www.w3.org/2000/svg">
<g id="Group 1142813830">
<rect id="Rectangle 2897" width="19.659" height="28" fill="white"/>
<g id="Group 1142813581">
<g id="&#231;&#188;&#150;&#231;&#187;&#132;">
<path id="&#229;&#189;&#162;&#231;&#138;&#182;" fill-rule="evenodd" clip-rule="evenodd" d="M10.4919 23.3469C5.24044 23.3469 0.983398 19.016 0.983398 13.6735C0.983398 8.33089 5.24044 4 10.4919 4C15.7434 4 20.0004 8.33089 20.0004 13.6735C20.0004 19.016 15.7434 23.3469 10.4919 23.3469ZM10.4919 5.07422C5.824 5.07422 2.04 8.92385 2.04 13.6727C2.04 18.4216 5.824 22.2712 10.4919 22.2712C15.1598 22.2712 18.9438 18.4216 18.9438 13.6727C18.9438 8.92385 15.1598 5.07422 10.4919 5.07422Z" fill="#8EA2BF"/>
<path id="&#232;&#183;&#175;&#229;&#190;&#132;" fill-rule="evenodd" clip-rule="evenodd" d="M16.8304 14.2113C16.5388 14.2113 16.3023 13.9707 16.3023 13.674C16.3023 10.4091 13.7005 7.7621 10.4913 7.7621C7.2821 7.7621 4.68028 10.4091 4.68028 13.674C4.68028 13.9707 4.44375 14.2113 4.15215 14.2113C3.86055 14.2113 3.62402 13.9707 3.62402 13.674C3.62402 9.81536 6.69851 6.6875 10.4913 6.6875C14.2841 6.6875 17.3586 9.81536 17.3586 13.674C17.3586 13.9707 17.122 14.2113 16.8304 14.2113Z" fill="#8EA2BF"/>
<path id="&#229;&#189;&#162;&#231;&#138;&#182;_2" fill-rule="evenodd" clip-rule="evenodd" d="M11.3916 16.289L9.71607 16.8962L9.43555 15.2233L13.6616 10.4473L11.3916 16.289ZM10.5649 15.0039C10.254 15.0039 10.0018 15.2419 10.0018 15.5358C10.0018 15.8292 10.254 16.0672 10.5649 16.0672C10.8759 16.0672 11.1281 15.8292 11.1281 15.5358C11.1281 15.2419 10.8759 15.0039 10.5649 15.0039Z" fill="#8EA2BF"/>
</g>
</g>
</g>
</svg>
