<svg width="16" height="16" viewBox="0 0 16 16" fill="none" xmlns="http://www.w3.org/2000/svg">
<g id="Group 1142813574">
<path id="Vector" d="M8 0C3.5817 0 0 3.5817 0 8C0 12.4183 3.5817 16 8 16C12.4183 16 16 12.4183 16 8C16 3.5817 12.4183 0 8 0ZM8 15.2727C3.98341 15.2727 0.727273 12.0166 0.727273 8C0.727273 3.98341 3.98341 0.727273 8 0.727273C12.0166 0.727273 15.2727 3.98341 15.2727 8C15.2727 12.0166 12.0166 15.2727 8 15.2727ZM6.72727 11.6356C6.48622 11.6354 6.2551 11.5396 6.08465 11.3691C5.9142 11.1987 5.81836 10.9675 5.81818 10.7265V5.27386C5.81819 5.10853 5.86328 4.94632 5.94862 4.8047C6.03395 4.66309 6.15629 4.54743 6.30246 4.47017C6.44864 4.39291 6.61312 4.35697 6.7782 4.36623C6.94327 4.3755 7.1027 4.4296 7.23932 4.52273L11.2386 7.24886C11.361 7.33227 11.4611 7.4443 11.5303 7.5752C11.5995 7.70611 11.6356 7.85193 11.6356 8C11.6356 8.14807 11.5995 8.29389 11.5303 8.4248C11.4611 8.5557 11.361 8.66773 11.2386 8.75114L7.23932 11.4773C7.08844 11.5803 6.90999 11.6355 6.72727 11.6356ZM6.72864 5.09125C6.69845 5.09151 6.66875 5.09899 6.64205 5.11307C6.61258 5.12823 6.58793 5.15131 6.57086 5.17972C6.5538 5.20812 6.545 5.24073 6.54545 5.27386V10.7261C6.54545 10.7592 6.55446 10.7916 6.57151 10.8199C6.58856 10.8483 6.61301 10.8714 6.64223 10.8869C6.67145 10.9023 6.70432 10.9095 6.73733 10.9077C6.77033 10.9059 6.80222 10.8951 6.82955 10.8765L10.8295 8.15023C10.854 8.13355 10.874 8.11114 10.8879 8.08496C10.9017 8.05878 10.9089 8.02961 10.9089 8C10.9089 7.97039 10.9017 7.94122 10.8879 7.91504C10.874 7.88886 10.854 7.86645 10.8295 7.84977L6.82955 5.12364C6.80015 5.10264 6.76499 5.09121 6.72886 5.09091L6.72864 5.09125Z" fill="#F9B61C"/>
</g>
</svg>
