<svg width="30" height="30" viewBox="0 0 30 30" fill="none" xmlns="http://www.w3.org/2000/svg">
<g id="&#232;&#191;&#135;&#230;&#187;&#164;">
<g id="&#231;&#188;&#150;&#231;&#187;&#132; 11">
<rect id="&#231;&#159;&#169;&#229;&#189;&#162;" x="0.75" y="0.75" width="28.5" height="28.5" stroke="#999999" stroke-width="1.5"/>
<circle id="&#230;&#164;&#173;&#229;&#156;&#134;&#229;&#189;&#162;" cx="3.33333" cy="3.33333" r="0.5" fill="#999999" stroke="#999999" stroke-width="0.666667"/>
<circle id="&#230;&#164;&#173;&#229;&#156;&#134;&#229;&#189;&#162;&#229;&#164;&#135;&#228;&#187;&#189; 13" cx="3.33333" cy="26.6673" r="0.5" fill="#999999" stroke="#999999" stroke-width="0.666667"/>
<circle id="&#230;&#164;&#173;&#229;&#156;&#134;&#229;&#189;&#162;&#229;&#164;&#135;&#228;&#187;&#189; 12" cx="26.6663" cy="3.33333" r="0.5" fill="#999999" stroke="#999999" stroke-width="0.666667"/>
<circle id="&#230;&#164;&#173;&#229;&#156;&#134;&#229;&#189;&#162;&#229;&#164;&#135;&#228;&#187;&#189; 14" cx="26.6663" cy="26.6673" r="0.5" fill="#999999" stroke="#999999" stroke-width="0.666667"/>
<g id="&#231;&#188;&#150;&#231;&#187;&#132; 12&#229;&#164;&#135;&#228;&#187;&#189;">
<circle id="&#230;&#164;&#173;&#229;&#156;&#134;&#229;&#189;&#162;_2" cx="15.1673" cy="15.2493" r="2.58333" stroke="#999999" stroke-width="1.5"/>
<path id="&#232;&#183;&#175;&#229;&#190;&#132; 10" d="M16.7093 12.9992L17.9702 4.16602C17.9702 4.16602 12.3633 4.68282 12.3633 7.04968C12.3633 9.41654 13.5091 12.9992 13.5091 12.9992" stroke="#999999" stroke-width="1.5"/>
<path id="&#232;&#183;&#175;&#229;&#190;&#132; 10_2" d="M13.6247 17.4989L12.3638 26.332C12.3638 26.332 17.9707 25.8152 17.9707 23.4484C17.9707 21.0815 16.8249 17.4989 16.8249 17.4989" stroke="#999999" stroke-width="1.5"/>
<path id="&#232;&#183;&#175;&#229;&#190;&#132; 10_3" d="M17.8865 15.4597L26.1667 12.135C26.1667 12.135 22.9157 7.5377 20.866 8.72113C18.8162 9.90456 16.2864 12.6882 16.2864 12.6882" stroke="#999999" stroke-width="1.5"/>
<path id="&#232;&#183;&#175;&#229;&#190;&#132; 10_4" d="M12.4474 15.0384L4.16725 18.363C4.16725 18.363 7.41827 22.9603 9.46803 21.7769C11.5178 20.5935 14.0476 17.8099 14.0476 17.8099" stroke="#999999" stroke-width="1.5"/>
<path id="&#232;&#183;&#175;&#229;&#190;&#132; 10_5" d="M16.3442 17.7105L23.3635 23.219C23.3635 23.219 25.7194 18.1049 23.6697 16.9214C21.6199 15.738 17.9443 14.939 17.9443 14.939" stroke="#999999" stroke-width="1.5"/>
<path id="&#232;&#183;&#175;&#229;&#190;&#132; 10_6" d="M13.9898 12.7895L6.97044 7.281C6.97044 7.281 4.61456 12.3951 6.66432 13.5786C8.71408 14.762 12.3896 15.561 12.3896 15.561" stroke="#999999" stroke-width="1.5"/>
</g>
</g>
</g>
</svg>
