<svg width="20" height="20" viewBox="0 0 20 20" fill="none" xmlns="http://www.w3.org/2000/svg">
<g id="Group 1142813860">
<path id="&#232;&#183;&#175;&#229;&#190;&#132; 12" d="M1 1.25583H20" stroke="#8EA2BF" stroke-width="0.868361" stroke-linecap="round" stroke-linejoin="round" stroke-dasharray="1.74"/>
<path id="Z" d="M2.7272 12.9329L7.34688 6.95853L7.3353 6.88906H2.95876V5.96281H8.53943V6.95853L3.85028 12.9907V13.0602H8.80573V13.998H2.7272V12.9329Z" fill="#8EA2BF"/>
<path id="&#228;&#184;&#137;&#232;&#167;&#146;&#229;&#189;&#162;&#229;&#164;&#135;&#228;&#187;&#189; 2" fill-rule="evenodd" clip-rule="evenodd" d="M14.7899 18.3927C14.5609 18.7376 14.0543 18.7376 13.8253 18.3927L12.5295 16.441C12.2741 16.0562 12.55 15.5419 13.0118 15.5419H15.6034C16.0653 15.5419 16.3412 16.0562 16.0857 16.441L14.7899 18.3927Z" fill="#8EA2BF"/>
<path id="&#232;&#183;&#175;&#229;&#190;&#132; 13&#229;&#164;&#135;&#228;&#187;&#189;" d="M14.2835 18.0946L14.3244 12.9844" stroke="#8EA2BF" stroke-width="0.868361" stroke-linecap="round"/>
<path id="&#228;&#184;&#137;&#232;&#167;&#146;&#229;&#189;&#162;&#229;&#164;&#135;&#228;&#187;&#189; 2_2" fill-rule="evenodd" clip-rule="evenodd" d="M13.8253 1.72644C14.0543 1.38149 14.5609 1.38149 14.7899 1.72644L16.0857 3.67815C16.3412 4.06294 16.0653 4.57726 15.6034 4.57726L13.0118 4.57726C12.55 4.57726 12.2741 4.06294 12.5295 3.67815L13.8253 1.72644Z" fill="#8EA2BF"/>
<path id="&#232;&#183;&#175;&#229;&#190;&#132; 13&#229;&#164;&#135;&#228;&#187;&#189;_2" d="M14.3322 2.02148L14.2913 7.13171" stroke="#8EA2BF" stroke-width="0.868361" stroke-linecap="round"/>
<path id="&#232;&#183;&#175;&#229;&#190;&#132; 12&#229;&#164;&#135;&#228;&#187;&#189;" d="M1 19.4896H20" stroke="#8EA2BF" stroke-width="0.868361" stroke-linecap="round" stroke-linejoin="round" stroke-dasharray="1.74"/>
</g>
</svg>
