<svg width="35" height="32" viewBox="0 0 35 32" fill="none" xmlns="http://www.w3.org/2000/svg">
<g id="&#232;&#174;&#190;&#229;&#164;&#135;&#228;&#191;&#161;&#230;&#129;&#175;">
<path id="&#232;&#183;&#175;&#229;&#190;&#132;" d="M27.5366 8.04572V12.3791V4C27.5366 2.34314 26.1934 1 24.5366 1H4C2.34315 1 1 2.34315 1 4V28C1 29.6569 2.11383 31 3.4878 31H25.0488" stroke="#333333" stroke-width="2" stroke-linecap="round" stroke-linejoin="round"/>
<path id="&#231;&#155;&#180;&#231;&#186;&#191;" d="M3.90247 7.25065H24.6342" stroke="#333333" stroke-width="2" stroke-linecap="round"/>
<rect id="&#231;&#159;&#169;&#229;&#189;&#162;" x="12.2805" y="5.66602" width="3.97561" height="4.83333" rx="0.5" fill="#333333" stroke="#333333"/>
<path id="&#231;&#159;&#169;&#229;&#189;&#162;&#229;&#164;&#135;&#228;&#187;&#189;" d="M13.1269 10.1082H15.4097L14.2683 11.2552L13.1269 10.1082Z" fill="#333333" stroke="#333333"/>
<path id="&#231;&#155;&#180;&#231;&#186;&#191;&#229;&#164;&#135;&#228;&#187;&#189;" d="M6.39026 27.2507H19.6586" stroke="#333333" stroke-width="2" stroke-linecap="round"/>
<path id="&#232;&#183;&#175;&#229;&#190;&#132;_2" fill-rule="evenodd" clip-rule="evenodd" d="M16.7246 19.9583C17.51 20.8024 18.4146 22.4858 18.4146 24.2641C18.4146 25.4287 18.2545 25.297 17.9735 25.5508H14.2681H10.5631C10.2821 25.297 10.1219 25.4287 10.1219 24.2641C10.1219 22.4858 11.0266 20.8024 11.8116 19.9583C12.597 19.1145 12.8255 18.6254 12.8255 17.8508C12.8255 17.1849 12.408 16.5612 11.8116 16.1766V15.5508H14.2681H16.7246V16.1766C16.1285 16.5612 15.7108 17.1849 15.7108 17.8508C15.7108 18.6254 15.9395 19.1145 16.7246 19.9583Z" fill="#333333"/>
<g id="&#231;&#188;&#150;&#231;&#187;&#132; 2">
<path id="&#229;&#189;&#162;&#231;&#138;&#182;" d="M27.5366 28.334C23.9716 28.334 21.0732 25.4284 21.0732 21.834C21.0732 18.2395 23.9716 15.334 27.5366 15.334C31.1016 15.334 34 18.2395 34 21.834C34 25.4284 31.1016 28.334 27.5366 28.334Z" stroke="#333333" stroke-width="2"/>
<path id="&#232;&#183;&#175;&#229;&#190;&#132;_3" fill-rule="evenodd" clip-rule="evenodd" d="M27.5366 26.0013C27.0786 26.0013 26.7073 25.5995 26.7073 25.1039V21.0654C26.7073 20.5698 27.0786 20.168 27.5366 20.168C27.9946 20.168 28.3659 20.5698 28.3659 21.0654V25.1039C28.3659 25.5995 27.9946 26.0013 27.5366 26.0013Z" fill="#333333"/>
<path id="&#232;&#183;&#175;&#229;&#190;&#132;_4" fill-rule="evenodd" clip-rule="evenodd" d="M27.5366 19.3346C27.0786 19.3346 26.7073 18.9615 26.7073 18.5013C26.7073 18.0411 27.0786 17.668 27.5366 17.668C27.9946 17.668 28.3659 18.0411 28.3659 18.5013C28.3659 18.9615 27.9946 19.3346 27.5366 19.3346Z" fill="#333333"/>
</g>
</g>
</svg>
