<svg width="19" height="19" viewBox="0 0 19 19" fill="none" xmlns="http://www.w3.org/2000/svg">
<g id="Group 1142813861">
<path id="&#232;&#183;&#175;&#229;&#190;&#132;" fill-rule="evenodd" clip-rule="evenodd" d="M18.2694 10.2139C17.866 10.2139 17.5388 9.88725 17.5388 9.48451C17.5388 5.05224 13.9395 1.45882 9.5 1.45882C5.06049 1.45882 1.4612 5.05224 1.4612 9.48451C1.4612 9.88725 1.13399 10.2139 0.730601 10.2139C0.327208 10.2139 0 9.88725 0 9.48451C0 4.24622 4.25316 0 9.5 0C14.7468 0 19 4.24622 19 9.48451C19 9.88725 18.6728 10.2139 18.2694 10.2139Z" fill="#8EA2BF"/>
<path id="&#229;&#189;&#162;&#231;&#138;&#182;" fill-rule="evenodd" clip-rule="evenodd" d="M10.744 18.1746L8.42615 18.9989L8.03809 16.7278L13.8842 10.2441L10.744 18.1746ZM9.60053 16.4267C9.17038 16.4267 8.82147 16.7498 8.82147 17.1487C8.82147 17.5471 9.17038 17.8702 9.60053 17.8702C10.0307 17.8702 10.3796 17.5471 10.3796 17.1487C10.3796 16.7498 10.0307 16.4267 9.60053 16.4267Z" fill="#8EA2BF"/>
</g>
</svg>
