<svg width="20" height="19" viewBox="0 0 20 19" fill="none" xmlns="http://www.w3.org/2000/svg">
<g id="Group 1142813830">
<g id="Group 1142813581">
<g id="&#231;&#188;&#150;&#231;&#187;&#132;">
<path id="&#229;&#189;&#162;&#231;&#138;&#182;" fill-rule="evenodd" clip-rule="evenodd" d="M10.4824 19C5.23565 19 0.982422 14.7468 0.982422 9.5C0.982422 4.25323 5.23565 0 10.4824 0C15.7292 0 19.9824 4.25323 19.9824 9.5C19.9824 14.7468 15.7292 19 10.4824 19ZM10.4824 1.0559C5.81869 1.0559 2.03809 4.83651 2.03809 9.50021C2.03809 14.1639 5.81869 17.9445 10.4824 17.9445C15.1461 17.9445 18.9267 14.1639 18.9267 9.50021C18.9267 4.83651 15.1461 1.0559 10.4824 1.0559Z" fill="#8EA2BF"/>
<path id="&#232;&#183;&#175;&#229;&#190;&#132;" fill-rule="evenodd" clip-rule="evenodd" d="M16.8157 10.0295C16.5243 10.0295 16.288 9.79319 16.288 9.50185C16.288 6.29548 13.6885 3.69595 10.4822 3.69595C7.27589 3.69595 4.67641 6.29548 4.67641 9.50185C4.67641 9.79319 4.44009 10.0295 4.14875 10.0295C3.85741 10.0295 3.62109 9.79319 3.62109 9.50185C3.62109 5.7124 6.69282 2.64062 10.4822 2.64062C14.2716 2.64062 17.3433 5.7124 17.3433 9.50185C17.3433 9.79319 17.107 10.0295 16.8157 10.0295Z" fill="#8EA2BF"/>
<path id="&#229;&#189;&#162;&#231;&#138;&#182;_2" fill-rule="evenodd" clip-rule="evenodd" d="M11.3811 12.069L9.70703 12.6654L9.42676 11.0224L13.649 6.33203L11.3811 12.069ZM10.5558 10.8071C10.2452 10.8071 9.99316 11.0409 9.99316 11.3295C9.99316 11.6177 10.2452 11.8514 10.5558 11.8514C10.8665 11.8514 11.1185 11.6177 11.1185 11.3295C11.1185 11.0409 10.8665 10.8071 10.5558 10.8071Z" fill="#8EA2BF"/>
</g>
</g>
</g>
</svg>
