<svg width="18" height="18" viewBox="0 0 18 18" fill="none" xmlns="http://www.w3.org/2000/svg">
<g id="&#232;&#133;&#148;&#228;&#189;&#147;&#230;&#184;&#169;&#229;&#186;&#166;">
<g id="Group 1142813563">
<g id="Group 1142813562">
<path id="&#229;&#189;&#162;&#231;&#138;&#182;&#231;&#187;&#147;&#229;&#144;&#136;" d="M7.0862 8.88569L7.37219 9.29583L7.5862 9.1466V8.88569H7.0862ZM9.98259 8.88611H9.48259V9.14692L9.69648 9.29616L9.98259 8.88611ZM7.5862 4.30137C7.5862 3.85878 7.94498 3.5 8.38756 3.5V2.5C7.3927 2.5 6.5862 3.3065 6.5862 4.30137H7.5862ZM7.5862 8.88569V4.30137H6.5862V8.88569H7.5862ZM6.49976 10.966C6.49976 10.275 6.8438 9.66428 7.37219 9.29583L6.80021 8.47556C6.01513 9.02301 5.49976 9.93427 5.49976 10.966H6.49976ZM8.5341 13.0003C7.41056 13.0003 6.49976 12.0895 6.49976 10.966H5.49976C5.49976 12.6418 6.85828 14.0003 8.5341 14.0003V13.0003ZM10.5684 10.966C10.5684 12.0895 9.65764 13.0003 8.5341 13.0003V14.0003C10.2099 14.0003 11.5684 12.6418 11.5684 10.966H10.5684ZM9.69648 9.29616C10.2246 9.66465 10.5684 10.2752 10.5684 10.966H11.5684C11.5684 9.93458 11.0534 9.02355 10.2687 8.47605L9.69648 9.29616ZM9.48259 4.30136V8.88611H10.4826V4.30136H9.48259ZM8.68123 3.5C9.12381 3.5 9.48259 3.85878 9.48259 4.30136H10.4826C10.4826 3.3065 9.67609 2.5 8.68123 2.5V3.5ZM8.38756 3.5H8.68123V2.5H8.38756V3.5Z" fill="#999999"/>
<path id="&#229;&#189;&#162;&#231;&#138;&#182;&#231;&#187;&#147;&#229;&#144;&#136;_2" fill-rule="evenodd" clip-rule="evenodd" d="M8.53391 7.70508C8.33395 7.70508 8.17186 7.86717 8.17186 8.06713V9.9392C7.75 10.0883 7.44775 10.4906 7.44775 10.9635C7.44775 11.5634 7.93404 12.0497 8.5339 12.0497C9.13376 12.0497 9.62005 11.5634 9.62005 10.9635C9.62005 10.4906 9.31781 10.0883 8.89596 9.9392V8.06713C8.89596 7.86717 8.73386 7.70508 8.53391 7.70508Z" fill="#999999"/>
<path id="&#232;&#183;&#175;&#229;&#190;&#132; 6" d="M11.0684 3.72399H12.0895" stroke="#999999" stroke-linecap="round" stroke-linejoin="round"/>
<path id="&#232;&#183;&#175;&#229;&#190;&#132; 6&#229;&#164;&#135;&#228;&#187;&#189;" d="M11.0684 4.80993H11.4304" stroke="#999999" stroke-linecap="round" stroke-linejoin="round"/>
<path id="&#232;&#183;&#175;&#229;&#190;&#132; 6&#229;&#164;&#135;&#228;&#187;&#189; 2" d="M11.0684 5.89587H12.0895" stroke="#999999" stroke-linecap="round" stroke-linejoin="round"/>
<path id="&#232;&#183;&#175;&#229;&#190;&#132; 6&#229;&#164;&#135;&#228;&#187;&#189; 3" d="M11.0684 6.98181H11.4304" stroke="#999999" stroke-linecap="round" stroke-linejoin="round"/>
<path id="&#232;&#183;&#175;&#229;&#190;&#132; 6&#229;&#164;&#135;&#228;&#187;&#189; 4" d="M11.0684 8.06774H12.0895" stroke="#999999" stroke-linecap="round" stroke-linejoin="round"/>
</g>
<rect id="Rectangle 116" x="0.5" y="0.5" width="17" height="17" rx="0.66129" stroke="#999999"/>
<path id="Vector 18" d="M0.749634 15.8145C1.1007 15.2112 2.29431 14.3665 4.26027 15.8145C4.49431 16.1765 5.31346 16.6832 6.71772 15.8145C8.47304 14.7286 9.52623 14.7284 10.9305 15.8145C12.3347 16.9007 13.739 16.5385 14.4411 15.8145C15.0028 15.2353 16.5475 15.8145 17.2496 16.1765" stroke="#999999" stroke-linecap="round"/>
</g>
</g>
</svg>
