<svg width="33" height="32" viewBox="0 0 33 32" fill="none" xmlns="http://www.w3.org/2000/svg">
<g id="Group 1142813674">
<path id="&#232;&#183;&#175;&#229;&#190;&#132;" d="M17.4431 30.1429H4.42857C2.53502 30.1429 1 28.6078 1 26.7143L1 4.42857C1 2.53502 2.53502 1 4.42857 1H19L25.8571 7.85714V12.7104" stroke="#999999" stroke-width="2" stroke-linecap="round"/>
<path id="&#232;&#183;&#175;&#229;&#190;&#132;_2" d="M25.8571 7.85714H22C20.3431 7.85714 19 6.514 19 4.85714V1" stroke="#999999" stroke-width="2"/>
<path id="&#231;&#155;&#180;&#231;&#186;&#191;&#229;&#164;&#135;&#228;&#187;&#189;" d="M7 13.0008H19.8571" stroke="#999999" stroke-width="2" stroke-linecap="round"/>
<path id="&#231;&#155;&#180;&#231;&#186;&#191;&#229;&#164;&#135;&#228;&#187;&#189; 2" d="M7 7.85631H12.1429" stroke="#999999" stroke-width="2" stroke-linecap="round"/>
<path id="&#231;&#155;&#180;&#231;&#186;&#191;&#229;&#164;&#135;&#228;&#187;&#189; 3" d="M7 18.1434H14.7143" stroke="#999999" stroke-width="2" stroke-linecap="round"/>
<path id="&#231;&#155;&#180;&#231;&#186;&#191;&#229;&#164;&#135;&#228;&#187;&#189; 4" d="M7 23.286H12.1429" stroke="#999999" stroke-width="2" stroke-linecap="round"/>
<g id="&#231;&#188;&#150;&#231;&#187;&#132; 3">
<path id="&#229;&#189;&#162;&#231;&#138;&#182;" d="M25.0004 30.0008C21.2922 30.0008 18.2861 26.9947 18.2861 23.2866C18.2861 19.5784 21.2922 16.5723 25.0004 16.5723C28.7086 16.5723 31.7147 19.5784 31.7147 23.2866C31.7147 26.9947 28.7086 30.0008 25.0004 30.0008Z" stroke="#999999" stroke-width="2"/>
<path id="&#232;&#183;&#175;&#229;&#190;&#132;_3" fill-rule="evenodd" clip-rule="evenodd" d="M25.0007 27.5723C24.5273 27.5723 24.1436 27.159 24.1436 26.6492V22.4953C24.1436 21.9856 24.5273 21.5723 25.0007 21.5723C25.4741 21.5723 25.8578 21.9856 25.8578 22.4953V26.6492C25.8578 27.159 25.4741 27.5723 25.0007 27.5723Z" fill="#999999"/>
<path id="&#232;&#183;&#175;&#229;&#190;&#132;_4" fill-rule="evenodd" clip-rule="evenodd" d="M25.0007 20.7143C24.5273 20.7143 24.1436 20.3305 24.1436 19.8571C24.1436 19.3838 24.5273 19 25.0007 19C25.4741 19 25.8578 19.3838 25.8578 19.8571C25.8578 20.3305 25.4741 20.7143 25.0007 20.7143Z" fill="#999999"/>
</g>
</g>
</svg>
