<svg width="23" height="30" viewBox="0 0 23 30" fill="none" xmlns="http://www.w3.org/2000/svg">
<g id="&#231;&#129;&#175;&#230;&#142;&#167;&#229;&#136;&#182;">
<path id="&#229;&#189;&#162;&#231;&#138;&#182;" fill-rule="evenodd" clip-rule="evenodd" d="M6.36328 26.7267V24.5449H16.3633V26.7267H6.36328ZM15.3633 28.2754C15.3633 29.2275 14.2872 29.9992 12.9594 29.9992H9.76712C8.4394 29.9992 7.36328 29.2275 7.36328 28.2754V27.8174H15.3633V28.2754Z" fill="#999999"/>
<path id="&#232;&#183;&#175;&#229;&#190;&#132;" d="M18.3296 18.9912L18.1917 19.1165L18.1082 19.2832L16.428 22.6364H6.29936L4.61987 19.2833L4.53634 19.1165L4.3983 18.9911C2.31175 17.0949 1 14.3765 1 11.3468C1 5.63371 5.63874 1 11.3636 1C17.0885 1 21.7273 5.63371 21.7273 11.3468C21.7273 14.3765 20.4155 17.095 18.3296 18.9912Z" stroke="#999999" stroke-width="2"/>
<path id="&#232;&#183;&#175;&#229;&#190;&#132;_2" d="M12.7275 4.54492C15.3994 5.26601 17.3677 7.37315 18.1821 9.99947" stroke="#999999" stroke-width="1.5" stroke-linecap="round"/>
</g>
</svg>
