<svg width="20" height="20" viewBox="0 0 20 20" fill="none" xmlns="http://www.w3.org/2000/svg">
<g id="&#229;&#150;&#183;&#229;&#164;&#180;&#230;&#184;&#169;&#229;&#186;&#166;">
<path id="&#229;&#189;&#162;&#231;&#138;&#182;&#231;&#187;&#147;&#229;&#144;&#136;" d="M12.0531 12.5524L12.3406 12.9615L12.5531 12.8121V12.5524H12.0531ZM16.0732 12.5515H15.5732V12.8114L15.7859 12.9607L16.0732 12.5515ZM12.5531 6.33623C12.5531 5.50225 13.2292 4.82617 14.0632 4.82617V3.82617C12.6769 3.82617 11.5531 4.94996 11.5531 6.33623H12.5531ZM12.5531 12.5524V6.33623H11.5531V12.5524H12.5531ZM11.0462 15.459C11.0462 14.4244 11.5579 13.5114 12.3406 12.9615L11.7656 12.1433C10.7264 12.8735 10.0462 14.0868 10.0462 15.459H11.0462ZM14.0638 18.5009C12.4005 18.5009 11.0462 17.1422 11.0462 15.459H10.0462C10.0462 17.688 11.8417 19.5009 14.0638 19.5009V18.5009ZM17.0814 15.459C17.0814 17.1422 15.7271 18.5009 14.0638 18.5009V19.5009C16.2859 19.5009 18.0814 17.688 18.0814 15.459H17.0814ZM15.7859 12.9607C16.5692 13.5106 17.0814 14.424 17.0814 15.459H18.0814C18.0814 14.0862 17.4006 12.8724 16.3605 12.1422L15.7859 12.9607ZM15.5732 6.33623V12.5515H16.5732V6.33623H15.5732ZM14.0632 4.82617C14.8971 4.82617 15.5732 5.50225 15.5732 6.33623H16.5732C16.5732 4.94996 15.4494 3.82617 14.0632 3.82617V4.82617Z" fill="#999999"/>
<path id="&#229;&#189;&#162;&#231;&#138;&#182;&#231;&#187;&#147;&#229;&#144;&#136;_2" fill-rule="evenodd" clip-rule="evenodd" d="M14.0645 6.85547C13.787 6.85547 13.562 7.08045 13.562 7.35798V14.0251C12.977 14.2338 12.558 14.7958 12.558 15.4563C12.558 16.2946 13.233 16.9742 14.0656 16.9742C14.8982 16.9742 15.5731 16.2946 15.5731 15.4563C15.5731 14.795 15.1531 14.2324 14.567 14.0243V7.35798C14.567 7.08045 14.342 6.85547 14.0645 6.85547Z" fill="#999999"/>
<path id="&#232;&#183;&#175;&#229;&#190;&#132; 6" d="M17.5826 5.33698H19" stroke="#999999" stroke-linecap="round" stroke-linejoin="round"/>
<path id="&#232;&#183;&#175;&#229;&#190;&#132; 6&#229;&#164;&#135;&#228;&#187;&#189;" d="M17.5826 6.85456H18.0852" stroke="#999999" stroke-linecap="round" stroke-linejoin="round"/>
<path id="&#232;&#183;&#175;&#229;&#190;&#132; 6&#229;&#164;&#135;&#228;&#187;&#189; 2" d="M17.5826 8.37409H19" stroke="#999999" stroke-linecap="round" stroke-linejoin="round"/>
<path id="&#232;&#183;&#175;&#229;&#190;&#132; 6&#229;&#164;&#135;&#228;&#187;&#189; 3" d="M17.5826 9.88971H18.0852" stroke="#999999" stroke-linecap="round" stroke-linejoin="round"/>
<path id="&#232;&#183;&#175;&#229;&#190;&#132; 6&#229;&#164;&#135;&#228;&#187;&#189; 4" d="M17.5826 11.4092H19" stroke="#999999" stroke-linecap="round" stroke-linejoin="round"/>
<path id="&#232;&#183;&#175;&#229;&#190;&#132; 7" d="M1 1.25299H13.0604" stroke="#999999" stroke-width="1.5" stroke-linecap="round" stroke-linejoin="round"/>
<path id="&#229;&#189;&#162;&#231;&#138;&#182;&#231;&#187;&#147;&#229;&#144;&#136;_3" fill-rule="evenodd" clip-rule="evenodd" d="M10.6186 1H3.58344V6.56585H6.16046L7.02919 7.94043L7.89792 6.56585H10.6186V1Z" fill="#999999"/>
</g>
</svg>
