<svg width="19" height="19" viewBox="0 0 19 19" fill="none" xmlns="http://www.w3.org/2000/svg">
<g id="Group 1142813853">
<g id="Group 1142813580">
<g id="&#231;&#188;&#150;&#231;&#187;&#132;">
<path id="&#229;&#189;&#162;&#231;&#138;&#182;" fill-rule="evenodd" clip-rule="evenodd" d="M13.2916 18.2083H18.2083C18.4268 18.2083 18.6042 18.3857 18.6042 18.6042C18.6042 18.8227 18.4268 19 18.2083 19H9.89583C9.86786 19 9.84305 18.9894 9.81667 18.9842C9.71058 18.9873 9.60714 19 9.5 19C4.25336 19 0 14.7466 0 9.5C0 4.25336 4.25336 0 9.5 0C14.7466 0 19 4.25336 19 9.5C19 13.3982 16.6498 16.7437 13.2916 18.2083ZM12.7276 13.8171L14.1969 15.2864C14.5447 15.6342 15.1089 15.6342 15.4567 15.2864C15.8045 14.9386 15.8045 14.3749 15.4567 14.0271L13.9874 12.5578C13.6396 12.21 13.0754 12.21 12.7276 12.5578C12.3798 12.9056 12.3798 13.4693 12.7276 13.8171ZM8.6094 16.8232C8.6094 17.3151 9.0084 17.7141 9.50029 17.7141C9.99218 17.7141 10.3907 17.3151 10.3907 16.8232V14.7453C10.3907 14.2529 9.99218 13.8545 9.50029 13.8545C9.0084 13.8545 8.6094 14.2529 8.6094 14.7453V16.8232ZM3.77002 15.2141C4.11783 15.5619 4.68202 15.5619 5.02983 15.2141L6.49916 13.7447C6.84697 13.3969 6.84697 12.8327 6.49916 12.4849C6.15136 12.1371 5.58769 12.1371 5.23988 12.4849L3.77002 13.9548C3.42222 14.3026 3.42222 14.8663 3.77002 15.2141ZM2.3755 8.60845C1.88361 8.60845 1.48461 9.00745 1.48461 9.49933C1.48461 9.99122 1.88361 10.3902 2.3755 10.3902H4.45336C4.94525 10.3902 5.34425 9.99122 5.34425 9.49933C5.34425 9.00745 4.94525 8.60845 4.45336 8.60845H2.3755ZM6.63727 5.20963L5.16793 3.74029C4.82013 3.39249 4.25593 3.39249 3.90813 3.74029C3.56032 4.0881 3.56032 4.65176 3.90813 4.99957L5.37799 6.4689C5.72579 6.81671 6.28946 6.81671 6.63727 6.4689C6.98507 6.1211 6.98507 5.55743 6.63727 5.20963ZM10.3897 2.26948C10.3897 1.77759 9.99069 1.37912 9.49881 1.37912C9.00692 1.37912 8.60845 1.77759 8.60845 2.26948V4.34787C8.60845 4.83975 9.00692 5.23823 9.49881 5.23823C9.99069 5.23823 10.3897 4.83975 10.3897 4.34787V2.26948ZM9.50024 6.33357C7.75119 6.33357 6.33357 7.75119 6.33357 9.50024C6.33357 11.2493 7.75119 12.6669 9.50024 12.6669C11.2493 12.6669 12.6669 11.2493 12.6669 9.50024C12.6669 7.75119 11.2493 6.33357 9.50024 6.33357ZM15.3167 3.66549C14.9689 3.31768 14.4047 3.31768 14.0569 3.66549L12.5875 5.13535C12.2397 5.48315 12.2397 6.04682 12.5875 6.39463C12.9353 6.74243 13.4995 6.74243 13.8473 6.39463L15.3167 4.92529C15.6645 4.57749 15.6645 4.01382 15.3167 3.66549ZM16.9239 8.60845H14.846C14.3542 8.60845 13.9552 9.00692 13.9552 9.49881C13.9552 9.99069 14.3542 10.3897 14.846 10.3897H16.9239C17.4158 10.3897 17.8143 9.99069 17.8143 9.49881C17.8143 9.00692 17.4158 8.60845 16.9239 8.60845Z" fill="#8EA2BF"/>
</g>
</g>
</g>
</svg>
