<svg width="16" height="16" viewBox="0 0 16 16" fill="none" xmlns="http://www.w3.org/2000/svg">
<path d="M8.00051 0C3.5821 0 0 3.58175 0 8C0 12.4182 3.5821 16 8.00051 16C12.4193 16 16.0012 12.4183 16.0012 8C16.0012 3.58174 12.4193 0 8.00051 0ZM8.00092 15.1983C4.03359 15.1983 0.805853 11.9575 0.805853 7.99373C0.805853 4.03006 4.03359 0.805618 8.00092 0.805618C11.9683 0.805618 15.196 4.03006 15.196 7.99373C15.196 11.9575 11.9683 15.1983 8.00092 15.1983ZM11.6023 7.60247H5.07091L7.44893 5.05242C7.60493 4.89623 7.60493 4.6432 7.44893 4.48698C7.29253 4.33077 7.03945 4.33077 6.88345 4.48698L3.62157 8.01094L6.83327 11.5595C6.91155 11.6376 7.01385 11.6771 7.11601 11.6771C7.21831 11.6771 7.32065 11.6376 7.39875 11.5595C7.55499 11.4037 7.55499 11.1507 7.39875 10.994L5.04535 8.40228H11.6024C11.8232 8.40228 12.0023 8.22339 12.0023 8.00234C12.0023 7.78169 11.8232 7.60247 11.6023 7.60247Z" fill="#95C5FF"/>
</svg>
