<svg width="20" height="28" viewBox="0 0 20 28" fill="none" xmlns="http://www.w3.org/2000/svg">
<g id="Group 1142813829">
<rect id="Rectangle 2899" width="19.659" height="28" fill="white"/>
<g id="Group 1142813579">
<g id="&#231;&#188;&#150;&#231;&#187;&#132; 2">
<path id="&#232;&#183;&#175;&#229;&#190;&#132;" fill-rule="evenodd" clip-rule="evenodd" d="M19.2692 16.9784C18.8654 16.9784 18.5379 16.6593 18.5379 16.2658C18.5379 11.9357 14.9354 8.42518 10.4919 8.42518C6.04843 8.42518 2.44591 11.9357 2.44591 16.2658C2.44591 16.6593 2.11841 16.9784 1.71465 16.9784C1.3109 16.9784 0.983398 16.6593 0.983398 16.2658C0.983398 11.1483 5.24037 7 10.4919 7C15.7435 7 20.0004 11.1483 20.0004 16.2658C20.0004 16.6593 19.6729 16.9784 19.2692 16.9784Z" fill="#8EA2BF"/>
<path id="&#229;&#189;&#162;&#231;&#138;&#182;" fill-rule="evenodd" clip-rule="evenodd" d="M11.7377 19.7378L9.41771 20.5432L9.0293 18.3244L14.8807 11.9902L11.7377 19.7378ZM10.593 18.0293C10.1624 18.0293 9.81319 18.345 9.81319 18.7347C9.81319 19.1239 10.1624 19.4395 10.593 19.4395C11.0235 19.4395 11.3727 19.1239 11.3727 18.7347C11.3727 18.345 11.0235 18.0293 10.593 18.0293Z" fill="#8EA2BF"/>
</g>
</g>
</g>
</svg>
