<svg width="20" height="21" viewBox="0 0 20 21" fill="none" xmlns="http://www.w3.org/2000/svg">
<g id="Group 1142813581">
<g id="&#231;&#188;&#150;&#231;&#187;&#132;">
<path id="&#229;&#189;&#162;&#231;&#138;&#182;" fill-rule="evenodd" clip-rule="evenodd" d="M9.67346 20.2161C4.33089 20.2161 0 15.8852 0 10.5426C0 5.20003 4.33089 0.869141 9.67346 0.869141C15.016 0.869141 19.3469 5.20003 19.3469 10.5426C19.3469 15.8852 15.016 20.2161 9.67346 20.2161ZM9.67342 1.94358C4.92455 1.94358 1.07492 5.79322 1.07492 10.5421C1.07492 15.2909 4.92455 19.1406 9.67342 19.1406C14.4223 19.1406 18.2719 15.2909 18.2719 10.5421C18.2719 5.79322 14.4223 1.94358 9.67342 1.94358Z" fill="#8EA2BF"/>
<path id="&#232;&#183;&#175;&#229;&#190;&#132;" fill-rule="evenodd" clip-rule="evenodd" d="M16.1224 11.0804C15.8257 11.0804 15.5851 10.8398 15.5851 10.5431C15.5851 7.27823 12.9381 4.63124 9.67328 4.63124C6.40842 4.63124 3.76147 7.27823 3.76147 10.5431C3.76147 10.8398 3.52084 11.0804 3.22418 11.0804C2.92752 11.0804 2.68689 10.8398 2.68689 10.5431C2.68689 6.6845 5.8147 3.55664 9.67328 3.55664C13.5319 3.55664 16.6597 6.6845 16.6597 10.5431C16.6597 10.8398 16.419 11.0804 16.1224 11.0804Z" fill="#8EA2BF"/>
<path id="&#229;&#189;&#162;&#231;&#138;&#182;_2" fill-rule="evenodd" clip-rule="evenodd" d="M10.5885 13.1582L8.8839 13.7654L8.59851 12.0924L12.8978 7.31641L10.5885 13.1582ZM9.74748 11.8726C9.43115 11.8726 9.17455 12.1106 9.17455 12.4044C9.17455 12.6979 9.43115 12.9359 9.74748 12.9359C10.0638 12.9359 10.3204 12.6979 10.3204 12.4044C10.3204 12.1106 10.0638 11.8726 9.74748 11.8726Z" fill="#8EA2BF"/>
</g>
</g>
</svg>
