<svg width="21" height="28" viewBox="0 0 21 28" fill="none" xmlns="http://www.w3.org/2000/svg">
<g id="Group 1142813843">
<rect id="Rectangle 2894" x="1" width="20" height="28" fill="white"/>
<g id="Group 1142813576">
<rect id="&#231;&#159;&#169;&#229;&#189;&#162;" x="1" y="7" width="19.3498" height="14.2254" rx="2.31563" stroke="#8EA2BF" stroke-width="0.984143"/>
<path id="&#229;&#164;&#154;&#232;&#190;&#185;&#229;&#189;&#162;&#229;&#164;&#135;&#228;&#187;&#189;" fill-rule="evenodd" clip-rule="evenodd" d="M1 8.72081L2.46118 7.09753L3.0752 7V8.72081L1.23597 9.7533L1 8.72081Z" stroke="#8EA2BF" stroke-width="0.578907"/>
<path id="&#229;&#164;&#154;&#232;&#190;&#185;&#229;&#189;&#162;&#229;&#164;&#135;&#228;&#187;&#189; 13" fill-rule="evenodd" clip-rule="evenodd" d="M1.23633 12.0469L3.07555 13.0794V15.1443L1.23633 16.1768V12.0469Z" stroke="#8EA2BF" stroke-width="0.578907"/>
<path id="&#229;&#164;&#154;&#232;&#190;&#185;&#229;&#189;&#162;&#229;&#164;&#135;&#228;&#187;&#189; 25" fill-rule="evenodd" clip-rule="evenodd" d="M1.23597 18.4727L3.0752 19.5051V21.226H2.47709L1 19.5051L1.23597 18.4727Z" stroke="#8EA2BF" stroke-width="0.578907"/>
<path id="&#229;&#164;&#154;&#232;&#190;&#185;&#229;&#189;&#162;&#229;&#164;&#135;&#228;&#187;&#189; 3" fill-rule="evenodd" clip-rule="evenodd" d="M8.7872 7L10.6264 7V8.72081L8.7872 9.7533L6.94797 8.72081L6.89941 7H8.7872Z" stroke="#8EA2BF" stroke-width="0.578907"/>
<path id="&#229;&#164;&#154;&#232;&#190;&#185;&#229;&#189;&#162;&#229;&#164;&#135;&#228;&#187;&#189; 8" fill-rule="evenodd" clip-rule="evenodd" d="M6.89915 8.83398L8.73837 9.86647V11.9315L6.89915 12.9639L5.05992 11.9315V9.86647L6.89915 8.83398Z" stroke="#8EA2BF" stroke-width="0.578907"/>
<path id="&#229;&#164;&#154;&#232;&#190;&#185;&#229;&#189;&#162;&#229;&#164;&#135;&#228;&#187;&#189; 14" fill-rule="evenodd" clip-rule="evenodd" d="M8.78684 12.0469L10.6261 13.0794V15.1443L8.78684 16.1768L6.94762 15.1443V13.0794L8.78684 12.0469Z" stroke="#8EA2BF" stroke-width="0.578907"/>
<path id="&#229;&#164;&#154;&#232;&#190;&#185;&#229;&#189;&#162;&#229;&#164;&#135;&#228;&#187;&#189; 20" fill-rule="evenodd" clip-rule="evenodd" d="M6.89915 15.2598L8.73837 16.2923V18.3572L6.89915 19.3897L5.05992 18.3572V16.2923L6.89915 15.2598Z" stroke="#8EA2BF" stroke-width="0.578907"/>
<path id="&#229;&#164;&#154;&#232;&#190;&#185;&#229;&#189;&#162;&#229;&#164;&#135;&#228;&#187;&#189; 26" fill-rule="evenodd" clip-rule="evenodd" d="M8.78692 18.4727L10.6261 19.5051V21.226H8.78692H6.85059L6.9477 19.5051L8.78692 18.4727Z" stroke="#8EA2BF" stroke-width="0.578907"/>
<path id="&#229;&#164;&#154;&#232;&#190;&#185;&#229;&#189;&#162;&#229;&#164;&#135;&#228;&#187;&#189; 5" fill-rule="evenodd" clip-rule="evenodd" d="M16.338 7H18.1772V8.72081L16.338 9.7533L14.4988 8.72081L14.4502 7L16.338 7Z" stroke="#8EA2BF" stroke-width="0.578907"/>
<path id="&#229;&#164;&#154;&#232;&#190;&#185;&#229;&#189;&#162;&#229;&#164;&#135;&#228;&#187;&#189; 9" fill-rule="evenodd" clip-rule="evenodd" d="M14.4509 8.83398L16.2901 9.86647V11.9315L14.4509 12.9639L12.6117 11.9315V9.86647L14.4509 8.83398Z" stroke="#8EA2BF" stroke-width="0.578907"/>
<path id="&#229;&#164;&#154;&#232;&#190;&#185;&#229;&#189;&#162;&#229;&#164;&#135;&#228;&#187;&#189; 15" fill-rule="evenodd" clip-rule="evenodd" d="M16.3386 12.0469L18.1778 13.0794V15.1443L16.3386 16.1768L14.4994 15.1443V13.0794L16.3386 12.0469Z" stroke="#8EA2BF" stroke-width="0.578907"/>
<path id="&#229;&#164;&#154;&#232;&#190;&#185;&#229;&#189;&#162;&#229;&#164;&#135;&#228;&#187;&#189; 21" fill-rule="evenodd" clip-rule="evenodd" d="M14.4509 15.2598L16.2901 16.2923V18.3572L14.4509 19.3897L12.6117 18.3572V16.2923L14.4509 15.2598Z" stroke="#8EA2BF" stroke-width="0.578907"/>
<path id="&#229;&#164;&#154;&#232;&#190;&#185;&#229;&#189;&#162;&#229;&#164;&#135;&#228;&#187;&#189; 27" fill-rule="evenodd" clip-rule="evenodd" d="M16.3382 18.4727L18.1775 19.5051V21.226H16.3382H14.499V19.5051L16.3382 18.4727Z" stroke="#8EA2BF" stroke-width="0.578907"/>
<path id="&#229;&#164;&#154;&#232;&#190;&#185;&#229;&#189;&#162;&#229;&#164;&#135;&#228;&#187;&#189; 6" d="M20.1136 9.7533L18.2744 8.72081V7L18.4618 7" stroke="#8EA2BF" stroke-width="0.578907"/>
<path id="&#229;&#164;&#154;&#232;&#190;&#185;&#229;&#189;&#162;&#229;&#164;&#135;&#228;&#187;&#189; 10" fill-rule="evenodd" clip-rule="evenodd" d="M18.2263 8.83398L20.0655 9.86647V11.9315L18.2263 12.9639L16.3871 11.9315V9.86647L18.2263 8.83398Z" stroke="#8EA2BF" stroke-width="0.578907"/>
<path id="&#229;&#164;&#154;&#232;&#190;&#185;&#229;&#189;&#162;&#229;&#164;&#135;&#228;&#187;&#189; 16" fill-rule="evenodd" clip-rule="evenodd" d="M20.1136 12.0469V16.1768L18.2744 15.1443V13.0794L20.1136 12.0469Z" stroke="#8EA2BF" stroke-width="0.578907"/>
<path id="&#229;&#164;&#154;&#232;&#190;&#185;&#229;&#189;&#162;&#229;&#164;&#135;&#228;&#187;&#189; 22" fill-rule="evenodd" clip-rule="evenodd" d="M18.2263 15.2598L20.0655 16.2923V18.3572L18.2263 19.3897L16.3871 18.3572V16.2923L18.2263 15.2598Z" stroke="#8EA2BF" stroke-width="0.578907"/>
<path id="&#229;&#164;&#154;&#232;&#190;&#185;&#229;&#189;&#162;&#229;&#164;&#135;&#228;&#187;&#189; 28" fill-rule="evenodd" clip-rule="evenodd" d="M20.1141 18.4727L20.35 19.3904L18.8756 21.094H18.1777L18.2748 19.5051L20.1141 18.4727Z" stroke="#8EA2BF" stroke-width="0.578907"/>
<path id="&#229;&#164;&#154;&#232;&#190;&#185;&#229;&#189;&#162;&#229;&#164;&#135;&#228;&#187;&#189; 2" fill-rule="evenodd" clip-rule="evenodd" d="M5.24707 7L6.85033 7V8.72081L5.0111 9.7533L3.17188 8.72081L3.17188 7H5.24707Z" stroke="#8EA2BF" stroke-width="0.578907"/>
<path id="&#229;&#164;&#154;&#232;&#190;&#185;&#229;&#189;&#162;&#229;&#164;&#135;&#228;&#187;&#189; 11" fill-rule="evenodd" clip-rule="evenodd" d="M3.12375 8.83398L4.96298 9.86647V11.9315L3.12375 12.9639L1.28453 11.9315V9.86647L3.12375 8.83398Z" stroke="#8EA2BF" stroke-width="0.578907"/>
<path id="&#229;&#164;&#154;&#232;&#190;&#185;&#229;&#189;&#162;&#229;&#164;&#135;&#228;&#187;&#189; 17" fill-rule="evenodd" clip-rule="evenodd" d="M5.01145 12.0469L6.85068 13.0794V15.1443L5.01145 16.1768L3.17222 15.1443V13.0794L5.01145 12.0469Z" stroke="#8EA2BF" stroke-width="0.578907"/>
<path id="&#229;&#164;&#154;&#232;&#190;&#185;&#229;&#189;&#162;&#229;&#164;&#135;&#228;&#187;&#189; 23" fill-rule="evenodd" clip-rule="evenodd" d="M3.12375 15.2598L4.96298 16.2923V18.3572L3.12375 19.3897L1.28453 18.3572V16.2923L3.12375 15.2598Z" stroke="#8EA2BF" stroke-width="0.578907"/>
<path id="&#229;&#164;&#154;&#232;&#190;&#185;&#229;&#189;&#162;&#229;&#164;&#135;&#228;&#187;&#189; 29" fill-rule="evenodd" clip-rule="evenodd" d="M5.0111 18.4727L6.85033 19.5051V21.3023L5.0111 21.226H3.17188L3.17188 19.5051L5.0111 18.4727Z" stroke="#8EA2BF" stroke-width="0.578907"/>
<path id="&#229;&#164;&#154;&#232;&#190;&#185;&#229;&#189;&#162;&#229;&#164;&#135;&#228;&#187;&#189; 4" fill-rule="evenodd" clip-rule="evenodd" d="M12.4563 7H14.4021V8.72081L12.5629 9.7533L10.7236 8.72081L10.7236 7L12.4563 7Z" stroke="#8EA2BF" stroke-width="0.578907"/>
<path id="&#229;&#164;&#154;&#232;&#190;&#185;&#229;&#189;&#162;&#229;&#164;&#135;&#228;&#187;&#189; 12" fill-rule="evenodd" clip-rule="evenodd" d="M10.6745 8.83398L12.5138 9.86647V11.9315L10.6745 12.9639L8.83531 11.9315V9.86647L10.6745 8.83398Z" stroke="#8EA2BF" stroke-width="0.578907"/>
<path id="&#229;&#164;&#154;&#232;&#190;&#185;&#229;&#189;&#162;&#229;&#164;&#135;&#228;&#187;&#189; 18" fill-rule="evenodd" clip-rule="evenodd" d="M12.5632 12.0469L14.4024 13.0794V15.1443L12.5632 16.1768L10.724 15.1443V13.0794L12.5632 12.0469Z" stroke="#8EA2BF" stroke-width="0.578907"/>
<path id="&#229;&#164;&#154;&#232;&#190;&#185;&#229;&#189;&#162;&#229;&#164;&#135;&#228;&#187;&#189; 24" fill-rule="evenodd" clip-rule="evenodd" d="M10.6745 15.2598L12.5138 16.2923V18.3572L10.6745 19.3897L8.83531 18.3572V16.2923L10.6745 15.2598Z" stroke="#8EA2BF" stroke-width="0.578907"/>
<path id="&#229;&#164;&#154;&#232;&#190;&#185;&#229;&#189;&#162;&#229;&#164;&#135;&#228;&#187;&#189; 30" fill-rule="evenodd" clip-rule="evenodd" d="M12.5626 18.4727L14.4018 19.5051V21.226L12.5626 21.3023L10.6748 21.226L10.7234 19.5051L12.5626 18.4727Z" stroke="#8EA2BF" stroke-width="0.578907"/>
</g>
</g>
</svg>
