<svg width="180" height="58" viewBox="0 0 180 58" fill="none" xmlns="http://www.w3.org/2000/svg">
<g id="Group 1142813786">
<rect id="Rectangle 2663" width="180" height="48" fill="#D9EAFF"/>
<g id="&#231;&#129;&#175;&#230;&#142;&#167;&#229;&#136;&#182;">
<path id="&#229;&#189;&#162;&#231;&#138;&#182;" fill-rule="evenodd" clip-rule="evenodd" d="M85.3636 35.7267V33.5449H95.3636V35.7267H85.3636ZM94.3636 37.2754C94.3636 38.2275 93.2875 38.9992 91.9598 38.9992H88.7675C87.4398 38.9992 86.3636 38.2275 86.3636 37.2754V36.8174H94.3636V37.2754Z" fill="#328DFB"/>
<path id="&#232;&#183;&#175;&#229;&#190;&#132;" d="M97.3296 27.9912L97.1917 28.1165L97.1082 28.2832L95.428 31.6364H85.2994L83.6199 28.2833L83.5363 28.1165L83.3983 27.9911C81.3117 26.0949 80 23.3765 80 20.3468C80 14.6337 84.6387 10 90.3636 10C96.0885 10 100.727 14.6337 100.727 20.3468C100.727 23.3765 99.4155 26.095 97.3296 27.9912Z" stroke="#328DFB" stroke-width="2"/>
<path id="&#232;&#183;&#175;&#229;&#190;&#132;_2" d="M91.7273 13.5449C94.3992 14.266 96.3675 16.3731 97.1818 18.9995" stroke="#328DFB" stroke-width="1.5" stroke-linecap="round"/>
</g>
<path id="Polygon 4" d="M91.7321 55C90.9623 56.3333 89.0377 56.3333 88.2679 55L83.0718 46C82.302 44.6667 83.2642 43 84.8038 43L95.1962 43C96.7358 43 97.698 44.6667 96.9282 46L91.7321 55Z" fill="#D9EAFF"/>
</g>
</svg>
