<svg width="20" height="28" viewBox="0 0 20 28" fill="none" xmlns="http://www.w3.org/2000/svg">
<g id="Group 1142813845">
<rect id="Rectangle 2896" width="20" height="28" fill="white"/>
<g id="Group 1142813763">
<g id="&#229;&#189;&#162;&#231;&#138;&#182;&#231;&#187;&#147;&#229;&#144;&#136;">
<mask id="path-2-inside-1_727_223" fill="white">
<path fill-rule="evenodd" clip-rule="evenodd" d="M9.582 10.492C10.7184 10.9699 11.5073 11.2942 11.5073 11.2942H16.6943V23.9619C16.6943 24.2816 16.4351 24.5408 16.1154 24.5408H3.22441C2.90469 24.5408 2.6455 24.2816 2.6455 23.9619V11.0709C2.6455 10.7512 2.90468 10.492 3.22441 10.492H9.582ZM17.2732 10.6826C17.9409 9.47124 19.3469 6.78697 19.3469 5.66178V4.41211H0.00194382C0.00194382 4.41211 -0.143047 5.91136 2.07143 7.11846C3.28565 7.78032 6.00518 8.97179 8.21423 9.9131H3.22441C2.58496 9.9131 2.06659 10.4315 2.06659 11.0709V23.9619C2.06659 24.6014 2.58496 25.1197 3.22441 25.1197H16.1154C16.7548 25.1197 17.2732 24.6014 17.2732 23.9619V10.6826Z"/>
</mask>
<path d="M11.5073 11.2942L11.1772 12.0974C11.2819 12.1404 11.3941 12.1626 11.5073 12.1626V11.2942ZM9.582 10.492L9.91861 9.69154C9.81204 9.64673 9.6976 9.62365 9.582 9.62365V10.492ZM16.6943 11.2942H17.5627C17.5627 10.8146 17.1739 10.4259 16.6943 10.4259V11.2942ZM17.2732 10.6826L16.5127 10.2634C16.442 10.3918 16.4049 10.536 16.4049 10.6826H17.2732ZM19.3469 4.41211H20.2153C20.2153 3.93253 19.8265 3.54375 19.3469 3.54375V4.41211ZM0.00194382 4.41211V3.54375C-0.445262 3.54375 -0.819337 3.88339 -0.862385 4.32852L0.00194382 4.41211ZM2.07143 7.11846L1.65583 7.8809L1.65583 7.8809L2.07143 7.11846ZM8.21423 9.9131V10.7815C8.62685 10.7815 8.98249 10.4911 9.06503 10.0868C9.14758 9.68254 8.93423 9.276 8.55463 9.11424L8.21423 9.9131ZM11.5073 11.2942C11.8375 10.4911 11.8375 10.4911 11.8375 10.4911C11.8375 10.4911 11.8375 10.4911 11.8375 10.4911C11.8375 10.4911 11.8374 10.491 11.8374 10.491C11.8373 10.491 11.8372 10.4909 11.837 10.4909C11.8366 10.4907 11.8361 10.4905 11.8354 10.4902C11.8339 10.4896 11.8316 10.4887 11.8287 10.4874C11.8227 10.485 11.8138 10.4813 11.802 10.4764C11.7784 10.4667 11.7434 10.4523 11.6977 10.4334C11.6064 10.3958 11.4728 10.3405 11.3037 10.2703C10.9654 10.1299 10.4853 9.92986 9.91861 9.69154L9.24539 11.2925C9.81502 11.532 10.2976 11.7331 10.6379 11.8743C10.8081 11.945 10.9427 12.0006 11.0349 12.0387C11.081 12.0577 11.1164 12.0724 11.1404 12.0822C11.1525 12.0872 11.1616 12.0909 11.1677 12.0935C11.1708 12.0947 11.1732 12.0957 11.1747 12.0964C11.1755 12.0967 11.1761 12.0969 11.1765 12.0971C11.1767 12.0972 11.1769 12.0972 11.177 12.0973C11.177 12.0973 11.1771 12.0973 11.1771 12.0973C11.1771 12.0973 11.1771 12.0973 11.1772 12.0974C11.1772 12.0974 11.1772 12.0974 11.5073 11.2942ZM16.6943 10.4259H11.5073V12.1626H16.6943V10.4259ZM17.5627 23.9619V11.2942H15.8259V23.9619H17.5627ZM16.1154 25.4092C16.9147 25.4092 17.5627 24.7612 17.5627 23.9619H15.8259C15.8259 23.802 15.9555 23.6725 16.1154 23.6725V25.4092ZM3.22441 25.4092H16.1154V23.6725H3.22441V25.4092ZM1.77714 23.9619C1.77714 24.7612 2.4251 25.4092 3.22441 25.4092V23.6725C3.38427 23.6725 3.51386 23.802 3.51386 23.9619H1.77714ZM1.77714 11.0709V23.9619H3.51386V11.0709H1.77714ZM3.22441 9.62365C2.4251 9.62365 1.77714 10.2716 1.77714 11.0709H3.51386C3.51386 11.2308 3.38427 11.3604 3.22441 11.3604V9.62365ZM9.582 9.62365H3.22441V11.3604H9.582V9.62365ZM18.4786 5.66178C18.4786 5.79805 18.4285 6.06761 18.2926 6.47722C18.1634 6.86675 17.9799 7.3156 17.7691 7.78247C17.3479 8.71508 16.842 9.666 16.5127 10.2634L18.0337 11.1018C18.3721 10.4878 18.9031 9.49095 19.3519 8.49728C19.576 8.00101 19.7857 7.49211 19.941 7.02402C20.0896 6.57602 20.2153 6.0881 20.2153 5.66178H18.4786ZM18.4786 4.41211V5.66178H20.2153V4.41211H18.4786ZM0.00194382 5.28047H19.3469V3.54375H0.00194382V5.28047ZM2.48704 6.35601C1.52873 5.83364 1.1512 5.29073 0.995873 4.95129C0.915359 4.77534 0.885777 4.63501 0.874808 4.55177C0.869291 4.50991 0.868458 4.48223 0.86837 4.47167C0.868326 4.4664 0.868468 4.4655 0.868291 4.46935C0.868202 4.47127 0.868032 4.47439 0.867718 4.47877C0.86756 4.48095 0.867367 4.48345 0.867129 4.48627C0.86701 4.48768 0.866879 4.48917 0.866737 4.49074C0.866666 4.49153 0.866592 4.49233 0.866514 4.49316C0.866476 4.49357 0.866415 4.49421 0.866396 4.49441C0.866335 4.49505 0.866273 4.4957 0.00194382 4.41211C-0.862385 4.32852 -0.862448 4.32918 -0.862512 4.32984C-0.862533 4.33007 -0.862597 4.33074 -0.86264 4.3312C-0.862726 4.33211 -0.862812 4.33306 -0.8629 4.33402C-0.863075 4.33596 -0.863254 4.338 -0.863434 4.34013C-0.863795 4.3444 -0.864163 4.34907 -0.864527 4.35413C-0.865255 4.36425 -0.865968 4.37594 -0.866579 4.38914C-0.867799 4.41553 -0.868609 4.44802 -0.868292 4.48611C-0.867659 4.56225 -0.862519 4.66113 -0.847027 4.77868C-0.81598 5.01428 -0.743405 5.3242 -0.583357 5.67395C-0.257562 6.38591 0.399652 7.19617 1.65583 7.8809L2.48704 6.35601ZM8.55463 9.11424C6.33224 8.16724 3.65646 6.99346 2.48704 6.35601L1.65583 7.8809C2.91484 8.56718 5.67813 9.77634 7.87382 10.712L8.55463 9.11424ZM8.21423 9.04474H3.22441V10.7815H8.21423V9.04474ZM3.22441 9.04474C2.10538 9.04474 1.19823 9.95189 1.19823 11.0709H2.93495C2.93495 10.9111 3.06455 10.7815 3.22441 10.7815V9.04474ZM1.19823 11.0709V23.9619H2.93495V11.0709H1.19823ZM1.19823 23.9619C1.19823 25.0809 2.10538 25.9881 3.22441 25.9881V24.2514C3.06455 24.2514 2.93495 24.1218 2.93495 23.9619H1.19823ZM3.22441 25.9881H16.1154V24.2514H3.22441V25.9881ZM16.1154 25.9881C17.2344 25.9881 18.1416 25.0809 18.1416 23.9619H16.4049C16.4049 24.1218 16.2753 24.2514 16.1154 24.2514V25.9881ZM18.1416 23.9619V10.6826H16.4049V23.9619H18.1416Z" fill="#979797" mask="url(#path-2-inside-1_727_223)"/>
</g>
<g id="&#232;&#183;&#175;&#229;&#190;&#132;">
<mask id="path-4-inside-2_727_223" fill="white">
<path fill-rule="evenodd" clip-rule="evenodd" d="M0.511719 4.58166V3H18.8299V4.68668"/>
</mask>
<path d="M0.511719 3V2.13164C0.0321361 2.13164 -0.356642 2.52042 -0.356642 3H0.511719ZM18.8299 3H19.6983C19.6983 2.52042 19.3095 2.13164 18.8299 2.13164V3ZM1.38008 4.58166V3H-0.356642V4.58166H1.38008ZM0.511719 3.86836H18.8299V2.13164H0.511719V3.86836ZM17.9616 3V4.68668H19.6983V3H17.9616Z" fill="#979797" mask="url(#path-4-inside-2_727_223)"/>
</g>
<circle id="&#230;&#164;&#173;&#229;&#156;&#134;&#229;&#189;&#162;" cx="9.67031" cy="17.516" r="5.24023" stroke="#979797" stroke-width="0.578907"/>
<circle id="&#230;&#164;&#173;&#229;&#156;&#134;&#229;&#189;&#162;_2" cx="9.66992" cy="17.5146" r="3.1666" stroke="#979797" stroke-width="0.578907"/>
<rect id="&#231;&#159;&#169;&#229;&#189;&#162;" x="9.26895" y="12.9652" width="0.803513" height="1.49472" fill="#D8D8D8" stroke="#979797" stroke-width="0.578907"/>
<rect id="&#231;&#159;&#169;&#229;&#189;&#162;&#229;&#164;&#135;&#228;&#187;&#189;" x="7.54939" y="19.75" width="0.803513" height="1.49472" transform="rotate(36 7.54939 19.75)" fill="#D8D8D8" stroke="#979797" stroke-width="0.578907"/>
<rect id="&#231;&#159;&#169;&#229;&#189;&#162;_2" x="13.8718" y="15.728" width="0.803513" height="1.49472" transform="rotate(72 13.8718 15.728)" fill="#D8D8D8" stroke="#979797" stroke-width="0.578907"/>
<rect id="&#231;&#159;&#169;&#229;&#189;&#162;&#229;&#164;&#135;&#228;&#187;&#189;_2" x="6.88917" y="16.1878" width="0.803513" height="1.49472" transform="rotate(108 6.88917 16.1878)" fill="#D8D8D8" stroke="#979797" stroke-width="0.578907"/>
<rect id="&#231;&#159;&#169;&#229;&#189;&#162;_3" x="12.6689" y="20.9594" width="0.803513" height="1.49472" transform="rotate(144 12.6689 20.9594)" fill="#D8D8D8" stroke="#979797" stroke-width="0.578907"/>
</g>
</g>
</svg>
