<svg width="24" height="19" viewBox="0 0 24 19" fill="none" xmlns="http://www.w3.org/2000/svg">
<g id="Group 1142813576">
<rect id="&#231;&#159;&#169;&#229;&#189;&#162;" x="1" y="1.30273" width="22.2488" height="16.3567" rx="2.31563" stroke="#8EA2BF" stroke-width="0.984143"/>
<path id="&#229;&#164;&#154;&#232;&#190;&#185;&#229;&#189;&#162;&#229;&#164;&#135;&#228;&#187;&#189;" fill-rule="evenodd" clip-rule="evenodd" d="M1 3.28136L2.6801 1.41487L3.38611 1.30273V3.28136L1.27133 4.46854L1 3.28136Z" stroke="#8EA2BF" stroke-width="0.578907"/>
<path id="&#229;&#164;&#154;&#232;&#190;&#185;&#229;&#189;&#162;&#229;&#164;&#135;&#228;&#187;&#189; 13" fill-rule="evenodd" clip-rule="evenodd" d="M1.27142 7.10547L3.3862 8.29265V10.667L1.27142 11.8542V7.10547Z" stroke="#8EA2BF" stroke-width="0.578907"/>
<path id="&#229;&#164;&#154;&#232;&#190;&#185;&#229;&#189;&#162;&#229;&#164;&#135;&#228;&#187;&#189; 25" fill-rule="evenodd" clip-rule="evenodd" d="M1.27127 14.4941L3.38605 15.6813V17.6599H2.69833L0.999939 15.6813L1.27127 14.4941Z" stroke="#8EA2BF" stroke-width="0.578907"/>
<path id="&#229;&#164;&#154;&#232;&#190;&#185;&#229;&#189;&#162;&#229;&#164;&#135;&#228;&#187;&#189; 3" fill-rule="evenodd" clip-rule="evenodd" d="M9.95357 1.30273L12.0684 1.30273V3.28136L9.95357 4.46854L7.83879 3.28136L7.78296 1.30273H9.95357Z" stroke="#8EA2BF" stroke-width="0.578907"/>
<path id="&#229;&#164;&#154;&#232;&#190;&#185;&#229;&#189;&#162;&#229;&#164;&#135;&#228;&#187;&#189; 8" fill-rule="evenodd" clip-rule="evenodd" d="M7.78313 3.41211L9.89791 4.59929V6.97364L7.78313 8.16082L5.66834 6.97364V4.59929L7.78313 3.41211Z" stroke="#8EA2BF" stroke-width="0.578907"/>
<path id="&#229;&#164;&#154;&#232;&#190;&#185;&#229;&#189;&#162;&#229;&#164;&#135;&#228;&#187;&#189; 14" fill-rule="evenodd" clip-rule="evenodd" d="M9.95366 7.10547L12.0684 8.29265V10.667L9.95366 11.8542L7.83888 10.667V8.29265L9.95366 7.10547Z" stroke="#8EA2BF" stroke-width="0.578907"/>
<path id="&#229;&#164;&#154;&#232;&#190;&#185;&#229;&#189;&#162;&#229;&#164;&#135;&#228;&#187;&#189; 20" fill-rule="evenodd" clip-rule="evenodd" d="M7.78313 10.8008L9.89791 11.988V14.3623L7.78313 15.5495L5.66834 14.3623V11.988L7.78313 10.8008Z" stroke="#8EA2BF" stroke-width="0.578907"/>
<path id="&#229;&#164;&#154;&#232;&#190;&#185;&#229;&#189;&#162;&#229;&#164;&#135;&#228;&#187;&#189; 26" fill-rule="evenodd" clip-rule="evenodd" d="M9.95386 14.4941L12.0686 15.6813V17.6599H9.95386H7.72742L7.83908 15.6813L9.95386 14.4941Z" stroke="#8EA2BF" stroke-width="0.578907"/>
<path id="&#229;&#164;&#154;&#232;&#190;&#185;&#229;&#189;&#162;&#229;&#164;&#135;&#228;&#187;&#189; 5" fill-rule="evenodd" clip-rule="evenodd" d="M18.6362 1.30273H20.751V3.28136L18.6362 4.46854L16.5214 3.28136L16.4656 1.30273L18.6362 1.30273Z" stroke="#8EA2BF" stroke-width="0.578907"/>
<path id="&#229;&#164;&#154;&#232;&#190;&#185;&#229;&#189;&#162;&#229;&#164;&#135;&#228;&#187;&#189; 9" fill-rule="evenodd" clip-rule="evenodd" d="M16.4656 3.41211L18.5804 4.59929V6.97364L16.4656 8.16082L14.3508 6.97364V4.59929L16.4656 3.41211Z" stroke="#8EA2BF" stroke-width="0.578907"/>
<path id="&#229;&#164;&#154;&#232;&#190;&#185;&#229;&#189;&#162;&#229;&#164;&#135;&#228;&#187;&#189; 15" fill-rule="evenodd" clip-rule="evenodd" d="M18.6363 7.10547L20.7511 8.29265V10.667L18.6363 11.8542L16.5215 10.667V8.29265L18.6363 7.10547Z" stroke="#8EA2BF" stroke-width="0.578907"/>
<path id="&#229;&#164;&#154;&#232;&#190;&#185;&#229;&#189;&#162;&#229;&#164;&#135;&#228;&#187;&#189; 21" fill-rule="evenodd" clip-rule="evenodd" d="M16.4656 10.8008L18.5804 11.988V14.3623L16.4656 15.5495L14.3508 14.3623V11.988L16.4656 10.8008Z" stroke="#8EA2BF" stroke-width="0.578907"/>
<path id="&#229;&#164;&#154;&#232;&#190;&#185;&#229;&#189;&#162;&#229;&#164;&#135;&#228;&#187;&#189; 27" fill-rule="evenodd" clip-rule="evenodd" d="M18.6363 14.4941L20.7511 15.6813V17.6599H18.6363H16.5215V15.6813L18.6363 14.4941Z" stroke="#8EA2BF" stroke-width="0.578907"/>
<path id="&#229;&#164;&#154;&#232;&#190;&#185;&#229;&#189;&#162;&#229;&#164;&#135;&#228;&#187;&#189; 6" d="M22.9776 4.46854L20.8628 3.28136V1.30273L21.0783 1.30273" stroke="#8EA2BF" stroke-width="0.578907"/>
<path id="&#229;&#164;&#154;&#232;&#190;&#185;&#229;&#189;&#162;&#229;&#164;&#135;&#228;&#187;&#189; 10" fill-rule="evenodd" clip-rule="evenodd" d="M20.807 3.41211L22.9218 4.59929V6.97364L20.807 8.16082L18.6922 6.97364V4.59929L20.807 3.41211Z" stroke="#8EA2BF" stroke-width="0.578907"/>
<path id="&#229;&#164;&#154;&#232;&#190;&#185;&#229;&#189;&#162;&#229;&#164;&#135;&#228;&#187;&#189; 16" fill-rule="evenodd" clip-rule="evenodd" d="M22.9776 7.10547V11.8542L20.8628 10.667V8.29265L22.9776 7.10547Z" stroke="#8EA2BF" stroke-width="0.578907"/>
<path id="&#229;&#164;&#154;&#232;&#190;&#185;&#229;&#189;&#162;&#229;&#164;&#135;&#228;&#187;&#189; 22" fill-rule="evenodd" clip-rule="evenodd" d="M20.807 10.8008L22.9218 11.988V14.3623L20.807 15.5495L18.6922 14.3623V11.988L20.807 10.8008Z" stroke="#8EA2BF" stroke-width="0.578907"/>
<path id="&#229;&#164;&#154;&#232;&#190;&#185;&#229;&#189;&#162;&#229;&#164;&#135;&#228;&#187;&#189; 28" fill-rule="evenodd" clip-rule="evenodd" d="M22.9776 14.4941L23.2489 15.5494L21.5535 17.5082H20.7512L20.8628 15.6813L22.9776 14.4941Z" stroke="#8EA2BF" stroke-width="0.578907"/>
<path id="&#229;&#164;&#154;&#232;&#190;&#185;&#229;&#189;&#162;&#229;&#164;&#135;&#228;&#187;&#189; 2" fill-rule="evenodd" clip-rule="evenodd" d="M5.88367 1.30273L7.72712 1.30273V3.28136L5.61234 4.46854L3.49756 3.28136L3.49756 1.30273H5.88367Z" stroke="#8EA2BF" stroke-width="0.578907"/>
<path id="&#229;&#164;&#154;&#232;&#190;&#185;&#229;&#189;&#162;&#229;&#164;&#135;&#228;&#187;&#189; 11" fill-rule="evenodd" clip-rule="evenodd" d="M3.44188 3.41211L5.55666 4.59929V6.97364L3.44188 8.16082L1.3271 6.97364V4.59929L3.44188 3.41211Z" stroke="#8EA2BF" stroke-width="0.578907"/>
<path id="&#229;&#164;&#154;&#232;&#190;&#185;&#229;&#189;&#162;&#229;&#164;&#135;&#228;&#187;&#189; 17" fill-rule="evenodd" clip-rule="evenodd" d="M5.61253 7.10547L7.72731 8.29265V10.667L5.61253 11.8542L3.49775 10.667V8.29265L5.61253 7.10547Z" stroke="#8EA2BF" stroke-width="0.578907"/>
<path id="&#229;&#164;&#154;&#232;&#190;&#185;&#229;&#189;&#162;&#229;&#164;&#135;&#228;&#187;&#189; 23" fill-rule="evenodd" clip-rule="evenodd" d="M3.44188 10.8008L5.55666 11.988V14.3623L3.44188 15.5495L1.3271 14.3623V11.988L3.44188 10.8008Z" stroke="#8EA2BF" stroke-width="0.578907"/>
<path id="&#229;&#164;&#154;&#232;&#190;&#185;&#229;&#189;&#162;&#229;&#164;&#135;&#228;&#187;&#189; 29" fill-rule="evenodd" clip-rule="evenodd" d="M5.61234 14.4941L7.72712 15.6813V17.7477L5.61234 17.6599H3.49756L3.49756 15.6813L5.61234 14.4941Z" stroke="#8EA2BF" stroke-width="0.578907"/>
<path id="&#229;&#164;&#154;&#232;&#190;&#185;&#229;&#189;&#162;&#229;&#164;&#135;&#228;&#187;&#189; 4" fill-rule="evenodd" clip-rule="evenodd" d="M14.1725 1.30273H16.4097V3.28136L14.295 4.46854L12.1802 3.28136L12.1802 1.30273L14.1725 1.30273Z" stroke="#8EA2BF" stroke-width="0.578907"/>
<path id="&#229;&#164;&#154;&#232;&#190;&#185;&#229;&#189;&#162;&#229;&#164;&#135;&#228;&#187;&#189; 12" fill-rule="evenodd" clip-rule="evenodd" d="M12.1243 3.41211L14.239 4.59929V6.97364L12.1243 8.16082L10.0095 6.97364V4.59929L12.1243 3.41211Z" stroke="#8EA2BF" stroke-width="0.578907"/>
<path id="&#229;&#164;&#154;&#232;&#190;&#185;&#229;&#189;&#162;&#229;&#164;&#135;&#228;&#187;&#189; 18" fill-rule="evenodd" clip-rule="evenodd" d="M14.2951 7.10547L16.4099 8.29265V10.667L14.2951 11.8542L12.1804 10.667V8.29265L14.2951 7.10547Z" stroke="#8EA2BF" stroke-width="0.578907"/>
<path id="&#229;&#164;&#154;&#232;&#190;&#185;&#229;&#189;&#162;&#229;&#164;&#135;&#228;&#187;&#189; 24" fill-rule="evenodd" clip-rule="evenodd" d="M12.1243 10.8008L14.239 11.988V14.3623L12.1243 15.5495L10.0095 14.3623V11.988L12.1243 10.8008Z" stroke="#8EA2BF" stroke-width="0.578907"/>
<path id="&#229;&#164;&#154;&#232;&#190;&#185;&#229;&#189;&#162;&#229;&#164;&#135;&#228;&#187;&#189; 30" fill-rule="evenodd" clip-rule="evenodd" d="M14.2951 14.4941L16.4099 15.6813V17.6599L14.2951 17.7477L12.1245 17.6599L12.1803 15.6813L14.2951 14.4941Z" stroke="#8EA2BF" stroke-width="0.578907"/>
</g>
</svg>
