<svg xmlns="http://www.w3.org/2000/svg" xmlns:xlink="http://www.w3.org/1999/xlink" fill="none" version="1.1" width="20.3909912109375" height="20.07421875" viewBox="0 0 20.3909912109375 20.07421875"><g><g><g><path d="M12.039196311492919,10.041433923950196C12.039196311492919,11.056623923950195,11.21441631149292,11.881153923950194,10.195076311492919,11.881153923950194C10.195076311492919,11.881153923950194,10.195076311492919,12.845433923950196,10.195076311492919,12.845433923950196C11.74525631149292,12.845433923950196,13.003486311492921,11.590903923950195,13.003486311492921,10.041433923950196C13.003486311492921,10.041433923950196,12.039196311492919,10.041433923950196,12.039196311492919,10.041433923950196C12.039196311492919,10.041433923950196,12.039196311492919,10.041433923950196,12.039196311492919,10.041433923950196ZM10.195076311492919,11.881153923950194C9.17573631149292,11.881153923950194,8.35096231149292,11.056623923950195,8.35096231149292,10.041433923950196C8.35096231149292,10.041433923950196,7.38667631149292,10.041433923950196,7.38667631149292,10.041433923950196C7.38667631149292,11.590903923950195,8.64490631149292,12.845433923950196,10.195076311492919,12.845433923950196C10.195076311492919,12.845433923950196,10.195076311492919,11.881153923950194,10.195076311492919,11.881153923950194C10.195076311492919,11.881153923950194,10.195076311492919,11.881153923950194,10.195076311492919,11.881153923950194ZM8.35096231149292,10.041433923950196C8.35096231149292,9.026253923950195,9.17573631149292,8.201729923950195,10.195076311492919,8.201729923950195C10.195076311492919,8.201729923950195,10.195076311492919,7.237443923950195,10.195076311492919,7.237443923950195C8.64490631149292,7.237443923950195,7.38667631149292,8.491973923950194,7.38667631149292,10.041433923950196C7.38667631149292,10.041433923950196,8.35096231149292,10.041433923950196,8.35096231149292,10.041433923950196C8.35096231149292,10.041433923950196,8.35096231149292,10.041433923950196,8.35096231149292,10.041433923950196ZM10.195076311492919,8.201729923950195C11.21441631149292,8.201729923950195,12.039196311492919,9.026253923950195,12.039196311492919,10.041433923950196C12.039196311492919,10.041433923950196,13.003486311492921,10.041433923950196,13.003486311492921,10.041433923950196C13.003486311492921,8.491973923950194,11.74525631149292,7.237443923950195,10.195076311492919,7.237443923950195C10.195076311492919,7.237443923950195,10.195076311492919,8.201729923950195,10.195076311492919,8.201729923950195C10.195076311492919,8.201729923950195,10.195076311492919,8.201729923950195,10.195076311492919,8.201729923950195Z" fill="#AAAAAA" fill-opacity="1"/></g><g></g><g><path d="M12.600494681396484,0.535993C12.600494681396484,0.535993,13.077804681396485,0.604116,13.077804681396485,0.604116C13.077804681396485,0.604116,13.164024681396484,0,13.164024681396484,0C13.164024681396484,0,12.556344681396485,0.055876,12.556344681396485,0.055876C12.556344681396485,0.055876,12.600494681396484,0.535993,12.600494681396484,0.535993C12.600494681396484,0.535993,12.600494681396484,0.535993,12.600494681396484,0.535993ZM11.996984681396484,8.17693C11.996984681396484,8.17693,13.077804681396485,0.604116,13.077804681396485,0.604116C13.077804681396485,0.604116,12.123194681396484,0.46787,12.123194681396484,0.46787C12.123194681396484,0.46787,11.042374681396485,8.04069,11.042374681396485,8.04069C11.042374681396485,8.04069,11.996984681396484,8.17693,11.996984681396484,8.17693C11.996984681396484,8.17693,11.996984681396484,8.17693,11.996984681396484,8.17693ZM12.600494681396484,0.535993C12.556344681396485,0.055876,12.556234681396484,0.055886,12.556094681396484,0.055899C12.556024681396483,0.055905,12.555874681396485,0.055919,12.555734681396483,0.055932C12.555454681396483,0.055958,12.555104681396484,0.055991,12.554684681396484,0.05603C12.553834681396484,0.05611,12.552694681396485,0.056217,12.551264681396486,0.056353C12.548414681396483,0.056625,12.544414681396486,0.057011,12.539294681396484,0.057516C12.529074681396484,0.058526,12.514404681396485,0.06001,12.495574681396484,0.062005C12.457934681396484,0.065995,12.403654681396485,0.07203,12.335104681396484,0.080396C12.198074681396484,0.097118,12.003574681396485,0.123208,11.770644681396483,0.160978C11.306494681396483,0.236239,10.681814681396485,0.359137,10.052304681396485,0.549596C9.429244681396485,0.738098,8.768224681396484,1.00246,8.253348681396485,1.3751C7.737855681396485,1.74818,7.301204681396484,2.28324,7.301204681396484,3.00787C7.301204681396484,3.00787,8.265490681396484,3.00787,8.265490681396484,3.00787C8.265490681396484,2.71803,8.430984681396485,2.43687,8.818704681396484,2.15626C9.207034681396484,1.87521,9.750304681396484,1.64841,10.331544681396483,1.47257C10.906304681396485,1.29867,11.485924681396485,1.18403,11.924984681396484,1.11283C12.143664681396483,1.07737,12.325504681396485,1.05301,12.451914681396484,1.03758C12.515084681396484,1.02987,12.564294681396484,1.02441,12.597214681396483,1.02092C12.613674681396486,1.01918,12.626054681396484,1.01793,12.634054681396485,1.01714C12.638054681396484,1.01674,12.640964681396484,1.01646,12.642744681396485,1.01629C12.643634681396485,1.01621,12.644234681396483,1.01615,12.644554681396485,1.01612C12.644714681396485,1.0161,12.644804681396485,1.0161,12.644814681396484,1.01609C12.644824681396484,1.01609,12.644784681396484,1.0161,12.644784681396484,1.0161C12.644724681396484,1.0161,12.644644681396485,1.01611,12.600494681396484,0.535993C12.600494681396484,0.535993,12.600494681396484,0.535993,12.600494681396484,0.535993ZM7.301204681396484,3.00787C7.301204681396484,4.08271,7.560097681396484,5.40447,7.808584681396485,6.43247C7.934120681396484,6.95183,8.059562681396484,7.40636,8.153668681396484,7.73125C8.200754681396484,7.89381,8.240081681396484,8.0242,8.267766681396484,8.11437C8.281611681396484,8.15946,8.292551681396484,8.19451,8.300102681396485,8.21851C8.303874681396485,8.23051,8.306804681396484,8.23975,8.308834681396485,8.24611C8.309844681396484,8.24929,8.310624681396485,8.25174,8.311174681396484,8.25346C8.311454681396484,8.25432,8.311664681396485,8.255,8.311824681396484,8.25549C8.311904681396484,8.25573,8.311964681396484,8.25593,8.312014681396484,8.25608C8.312034681396485,8.25616,8.312064681396485,8.25624,8.312074681396485,8.25627C8.312094681396484,8.25634,8.312114681396483,8.25639,8.771114681396485,8.10881C9.230114681396484,7.96122,9.230124681396484,7.96125,9.230124681396484,7.96127C9.230124681396484,7.96126,9.230124681396484,7.96127,9.230124681396484,7.96125C9.230104681396485,7.96122,9.230084681396484,7.96114,9.230044681396485,7.96101C9.229954681396485,7.96075,9.229814681396483,7.96031,9.229614681396484,7.95969C9.229214681396485,7.95844,9.228584681396484,7.95646,9.227724681396484,7.95376C9.226014681396485,7.94837,9.223394681396485,7.94011,9.219934681396484,7.92912C9.213014681396483,7.90713,9.202734681396484,7.8742,9.189574681396484,7.83132C9.163234681396485,7.74556,9.125394681396484,7.62011,9.079874681396484,7.46297C8.988774681396485,7.14845,8.867284681396484,6.70818,8.745874681396485,6.20591C8.500484681396484,5.19069,8.265490681396484,3.96198,8.265490681396484,3.00787C8.265490681396484,3.00787,7.301204681396484,3.00787,7.301204681396484,3.00787C7.301204681396484,3.00787,7.301204681396484,3.00787,7.301204681396484,3.00787Z" fill="#AAAAAA" fill-opacity="1"/></g><g></g><g><path d="M7.783347499420166,19.538502509155272C7.783347499420166,19.538502509155272,7.306041499420166,19.47038250915527,7.306041499420166,19.47038250915527C7.306041499420166,19.47038250915527,7.219820499420166,20.074492509155274,7.219820499420166,20.074492509155274C7.219820499420166,20.074492509155274,7.827494499420166,20.01862250915527,7.827494499420166,20.01862250915527C7.827494499420166,20.01862250915527,7.783347499420166,19.538502509155272,7.783347499420166,19.538502509155272C7.783347499420166,19.538502509155272,7.783347499420166,19.538502509155272,7.783347499420166,19.538502509155272ZM8.386860499420166,11.897557609155273C8.386860499420166,11.897557609155273,7.306041499420166,19.47038250915527,7.306041499420166,19.47038250915527C7.306041499420166,19.47038250915527,8.260650499420166,19.606622509155272,8.260650499420166,19.606622509155272C8.260650499420166,19.606622509155272,9.341470499420165,12.033802509155274,9.341470499420165,12.033802509155274C9.341470499420165,12.033802509155274,8.386860499420166,11.897557609155273,8.386860499420166,11.897557609155273C8.386860499420166,11.897557609155273,8.386860499420166,11.897557609155273,8.386860499420166,11.897557609155273ZM7.783347499420166,19.538502509155272C7.827494499420166,20.01862250915527,7.827611499420166,20.018612509155275,7.827745499420166,20.018592509155273C7.827815499420166,20.018592509155273,7.827968499420166,20.018572509155273,7.828107499420166,20.018562509155274C7.8283854994201665,20.01853250915527,7.828737499420166,20.018502509155276,7.829161499420166,20.018462509155274C7.830009499420166,20.018382509155273,7.831149499420166,20.018272509155274,7.832576499420166,20.018142509155275C7.835430499420166,20.017872509155275,7.839432499420166,20.017482509155272,7.844544499420166,20.016982509155273C7.854768499420166,20.015972509155276,7.869440499420166,20.014482509155272,7.888264499420166,20.012492509155273C7.925904499420166,20.00850250915527,7.980186499420166,20.002462509155272,8.048739499420165,19.994102509155276C8.185765499420166,19.977372509155273,8.380270499420167,19.951282509155273,8.613200499420167,19.913512509155275C9.077350499420167,19.838252509155275,9.702030499420166,19.715352509155274,10.331550499420166,19.524902509155275C10.954600499420167,19.336392509155274,11.615620499420167,19.072032509155274,12.130500499420165,18.699392509155274C12.645990499420165,18.326312509155272,13.082640499420165,17.791242509155275,13.082640499420165,17.066622509155273C13.082640499420165,17.066622509155273,12.118360499420167,17.066622509155273,12.118360499420167,17.066622509155273C12.118360499420167,17.35646250915527,11.952860499420165,17.637622509155275,11.565140499420167,17.918232509155274C11.176810499420165,18.199282509155275,10.633540499420166,18.426082509155272,10.052310499420166,18.601932509155272C9.477540499420165,18.775822509155272,8.897920499420167,18.890472509155273,8.458860499420165,18.961662509155275C8.240180499420166,18.997122509155275,8.058340499420167,19.021482509155273,7.931929499420166,19.036912509155272C7.868763499420166,19.044622509155275,7.819551499420166,19.050082509155274,7.786628499420166,19.053572509155273C7.770170499420166,19.055322509155275,7.757792499420166,19.056572509155274,7.749787499420166,19.057362509155276C7.745786499420166,19.05775250915527,7.742878499420166,19.058032509155275,7.741101499420166,19.058202509155272C7.740212499420166,19.058292509155272,7.739606499420166,19.058342509155274,7.739288499420166,19.058372509155273C7.739129499420166,19.058392509155272,7.739042499420166,19.058402509155272,7.739027499420166,19.058402509155272C7.739019499420166,19.058402509155272,7.739063499420166,19.058392509155272,7.739059499420166,19.058392509155272C7.739120499420166,19.058392509155272,7.739200499420166,19.058382509155273,7.783347499420166,19.538502509155272C7.783347499420166,19.538502509155272,7.783347499420166,19.538502509155272,7.783347499420166,19.538502509155272ZM13.082640499420165,17.066622509155273C13.082640499420165,15.991782509155273,12.823750499420166,14.670022509155274,12.575260499420166,13.642012509155274C12.449730499420166,13.122662509155273,12.324290499420165,12.668130509155274,12.230180499420166,12.343240509155274C12.183090499420166,12.180681509155274,12.143770499420166,12.050284509155274,12.116080499420166,11.960120509155274C12.102240499420166,11.915031009155273,12.091300499420166,11.879981409155274,12.083750499420166,11.855979309155273C12.079970499420167,11.843977309155273,12.077040499420166,11.834736309155273,12.075020499420166,11.828380309155273C12.074010499420165,11.825202289155273,12.073220499420167,11.822746289155273,12.072670499420166,11.821026289155274C12.072400499420166,11.820166289155273,12.072180499420167,11.819491289155273,12.072030499420165,11.819001285155274C12.071950499420165,11.818757285155273,12.071880499420166,11.818559285155274,12.071830499420166,11.818407285155274C12.071810499420167,11.818332285155273,12.071790499420166,11.818253285455274,12.071770499420166,11.818215285445273C12.071750499420165,11.818149285455274,12.071730499420166,11.818094285155274,11.612740499420166,11.965680509155273C11.153740499420167,12.113266509155274,11.153730499420167,12.113235509155274,11.153720499420166,12.113215509155273C11.153720499420166,12.113224509155273,11.153720499420166,12.113216509155274,11.153730499420167,12.113234509155273C11.153740499420167,12.113269509155273,11.153760499420166,12.113351509155274,11.153800499420166,12.113480509155274C11.153890499420166,12.113736509155274,11.154030499420166,12.114178509155273,11.154230499420166,12.114803509155273C11.154630499420167,12.116052509155274,11.155260499420166,12.118032509155274,11.156120499420165,12.120729509155273C11.157830499420166,12.126122509155273,11.160450499420167,12.134378509155274,11.163910499420165,12.145371509155273C11.170830499420166,12.167360509155273,11.181110499420166,12.200292509155274,11.194270499420167,12.243165509155274C11.220610499420166,12.328926509155274,11.258450499420167,12.454379509155274,11.303970499420167,12.611522509155273C11.395070499420166,12.926032509155274,11.516570499420165,13.366312509155273,11.637970499420167,13.868572509155273C11.883370499420167,14.883802509155274,12.118360499420167,16.112512509155273,12.118360499420167,17.066622509155273C12.118360499420167,17.066622509155273,13.082640499420165,17.066622509155273,13.082640499420165,17.066622509155273C13.082640499420165,17.066622509155273,13.082640499420165,17.066622509155273,13.082640499420165,17.066622509155273Z" fill="#AAAAAA" fill-opacity="1"/></g><g></g><g><path d="M19.64369480682373,7.366312613220215C19.64369480682373,7.366312613220215,19.823004806823732,7.813872613220215,19.823004806823732,7.813872613220215C19.823004806823732,7.813872613220215,20.39102480682373,7.586292613220214,20.39102480682373,7.586292613220214C20.39102480682373,7.586292613220214,20.03688480682373,7.087272613220215,20.03688480682373,7.087272613220215C20.03688480682373,7.087272613220215,19.64369480682373,7.366312613220215,19.64369480682373,7.366312613220215C19.64369480682373,7.366312613220215,19.64369480682373,7.366312613220215,19.64369480682373,7.366312613220215ZM12.708224806823731,10.664392613220215C12.708224806823731,10.664392613220215,19.823004806823732,7.813872613220215,19.823004806823732,7.813872613220215C19.823004806823732,7.813872613220215,19.46437480682373,6.9187526132202155,19.46437480682373,6.9187526132202155C19.46437480682373,6.9187526132202155,12.349594806823731,9.769282613220215,12.349594806823731,9.769282613220215C12.349594806823731,9.769282613220215,12.708224806823731,10.664392613220215,12.708224806823731,10.664392613220215C12.708224806823731,10.664392613220215,12.708224806823731,10.664392613220215,12.708224806823731,10.664392613220215ZM19.64369480682373,7.366312613220215C20.03688480682373,7.087272613220215,20.03681480682373,7.0871826132202145,20.03673480682373,7.087072613220215C20.036694806823732,7.087012613220215,20.036604806823732,7.086892613220215,20.036524806823728,7.086772613220215C20.03636480682373,7.086542613220215,20.03615480682373,7.086262613220215,20.03591480682373,7.085912613220215C20.03541480682373,7.0852126132202145,20.03475480682373,7.084282613220215,20.03391480682373,7.083122613220215C20.03225480682373,7.080782613220215,20.02990480682373,7.077522613220214,20.02690480682373,7.073352613220215C20.02090480682373,7.065012613220215,20.01226480682373,7.053062613220215,20.00109480682373,7.037792613220215C19.978764806823733,7.007232613220214,19.946324806823732,6.963312613220214,19.90470480682373,6.9082226132202145C19.821504806823732,6.798092613220215,19.70137480682373,6.642962613220215,19.55185480682373,6.460442613220215C19.25390480682373,6.096732613220215,18.834154806823733,5.618062613220215,18.35335480682373,5.168972613220215C17.87747480682373,4.7244846132202145,17.31681480682373,4.285206613220215,16.73557480682373,4.026430613220215C16.15365480682373,3.767354813220215,15.47143480682373,3.657666613220215,14.84352480682373,4.019434613220215C14.84352480682373,4.019434613220215,15.324914806823731,4.854962613220215,15.324914806823731,4.854962613220215C15.57739480682373,4.709498613220215,15.905324806823732,4.712330613220215,16.343374806823732,4.9073526132202145C16.78210480682373,5.102682613220215,17.25127480682373,5.459092613220215,17.69514480682373,5.873682613220215C18.13412480682373,6.283692613220214,18.52409480682373,6.727512613220215,18.80591480682373,7.071522613220215C18.94627480682373,7.242862613220215,19.05855480682373,7.387892613220215,19.13529480682373,7.489472613220215C19.17363480682373,7.540232613220215,19.20303480682373,7.580042613220215,19.22256480682373,7.606762613220215C19.23232480682373,7.6201226132202144,19.23961480682373,7.630192613220215,19.24430480682373,7.636712613220215C19.24665480682373,7.639982613220215,19.24835480682373,7.642352613220215,19.24939480682373,7.643802613220215C19.249914806823732,7.644532613220215,19.25026480682373,7.645022613220215,19.25044480682373,7.645282613220215C19.250544806823733,7.6454126132202145,19.25059480682373,7.645482613220215,19.25060480682373,7.645492613220215C19.25060480682373,7.645502613220215,19.250574806823728,7.645462613220214,19.25058480682373,7.645472613220215C19.250544806823733,7.645422613220215,19.25049480682373,7.645352613220215,19.64369480682373,7.366312613220215C19.64369480682373,7.366312613220215,19.64369480682373,7.366312613220215,19.64369480682373,7.366312613220215ZM14.84352480682373,4.019434613220215C13.91070480682373,4.556870613220215,12.89390480682373,5.442492613220215,12.126814806823731,6.172182613220215C11.73927680682373,6.5408226132202145,11.40794880682373,6.8769726132202145,11.17335780682373,7.121102613220215C11.05597980682373,7.243252613220214,10.96260780682373,7.342592613220215,10.89829180682373,7.411702613220215C10.86612890682373,7.446262613220215,10.84121690682373,7.473282613220215,10.82418690682373,7.491842613220214C10.81567090682373,7.501122613220215,10.80912490682373,7.508282613220215,10.80462587682373,7.513222613220215C10.80237687682373,7.515682613220215,10.800638876823731,7.517592613220215,10.79942287682373,7.518932613220215C10.79881487682373,7.519602613220215,10.79833788182373,7.520132613220214,10.79799188182373,7.520512613220214C10.79781888182373,7.520702613220215,10.79767888182373,7.520852613220215,10.79757188182373,7.520972613220215C10.79751888142373,7.521032613220215,10.79746288142373,7.521092613220215,10.79743588138373,7.521122613220214C10.79738888142373,7.521172613220215,10.79735088142373,7.521212613220214,11.15462180682373,7.844972613220214C11.511892806823731,8.168732613220214,11.51187080682373,8.168752613220214,11.511856806823731,8.168772613220215C11.51186280682373,8.168762613220215,11.51185780682373,8.168772613220215,11.51186980682373,8.168752613220214C11.511894806823731,8.168732613220214,11.51195280682373,8.168662613220214,11.51204380682373,8.168562613220214C11.512224806823731,8.168362613220214,11.51253680682373,8.168022613220215,11.51297780682373,8.167532613220214C11.51385980682373,8.166562613220215,11.515260806823731,8.165012613220215,11.51716780682373,8.162932613220214C11.52098380682373,8.158752613220216,11.52683080682373,8.152352613220215,11.53462980682373,8.143852613220215C11.55022880682373,8.126852613220215,11.573630806823731,8.101462613220214,11.60420980682373,8.068612613220214C11.66537880682373,8.002872613220216,11.75519980682373,7.907312613220215,11.86865480682373,7.789232613220215C12.095744806823731,7.552922613220215,12.41666480682373,7.227342613220214,12.79142480682373,6.870852613220215C13.54893480682373,6.150282613220215,14.496924806823731,5.332012613220215,15.324914806823731,4.854962613220215C15.324914806823731,4.854962613220215,14.84352480682373,4.019434613220215,14.84352480682373,4.019434613220215C14.84352480682373,4.019434613220215,14.84352480682373,4.019434613220215,14.84352480682373,4.019434613220215Z" fill="#AAAAAA" fill-opacity="1"/></g><g></g><g><path d="M0.746503,12.702922458190919C0.746503,12.702922458190919,0.567034,12.255432458190917,0.567034,12.255432458190917C0.567034,12.255432458190917,0,12.482842458190918,0,12.482842458190918C0,12.482842458190918,0.352975,12.981492458190917,0.352975,12.981492458190917C0.352975,12.981492458190917,0.746503,12.702922458190919,0.746503,12.702922458190919C0.746503,12.702922458190919,0.746503,12.702922458190919,0.746503,12.702922458190919ZM7.67466,9.404902458190918C7.67466,9.404902458190918,0.567034,12.255432458190917,0.567034,12.255432458190917C0.567034,12.255432458190917,0.925972,13.150422458190917,0.925972,13.150422458190917C0.925972,13.150422458190917,8.03359,10.299894458190918,8.03359,10.299894458190918C8.03359,10.299894458190918,7.67466,9.404902458190918,7.67466,9.404902458190918C7.67466,9.404902458190918,7.67466,9.404902458190918,7.67466,9.404902458190918ZM0.746503,12.702922458190919C0.352975,12.981492458190917,0.353043,12.981582458190918,0.353121,12.981692458190917C0.353162,12.981752458190918,0.353251,12.981882458190917,0.353332,12.981992458190918C0.353493,12.982222458190918,0.353698,12.982512458190918,0.353944,12.982852458190917C0.354438,12.983552458190918,0.355101,12.984482458190918,0.355933,12.985652458190918C0.357596,12.987982458190917,0.359932,12.991252458190917,0.362926,12.995422458190918C0.368914,13.003762458190918,0.377536,13.015702458190917,0.388676,13.030992458190918C0.410953,13.061542458190917,0.44332,13.105472458190917,0.484843,13.160572458190918C0.567838,13.270702458190918,0.687685,13.425842458190917,0.836874,13.608382458190917C1.13415,13.972102458190918,1.553,14.450812458190917,2.03291,14.899942458190917C2.50791,15.344462458190918,3.0677,15.783852458190918,3.64837,16.04271245819092C4.22983,16.30192245819092,4.91162,16.41155245819092,5.53951,16.049802458190918C5.53951,16.049802458190918,5.05812,15.21427245819092,5.05812,15.21427245819092C4.80561,15.359752458190918,4.47816,15.356862458190918,4.04099,15.161972458190917C3.60302,14.966732458190918,3.13478,14.610432458190918,2.6918,14.195872458190918C2.25374,13.785912458190918,1.86466,13.342132458190918,1.58351,12.998142458190918C1.44348,12.826812458190918,1.33148,12.681792458190918,1.25494,12.580222458190917C1.21669,12.529472458190918,1.18736,12.489662458190917,1.16789,12.462942458190918C1.15815,12.449592458190917,1.15089,12.439512458190919,1.1462,12.432992458190919C1.14386,12.429732458190918,1.14217,12.427362458190919,1.14113,12.425912458190918C1.14062,12.425182458190918,1.14026,12.424692458190918,1.14008,12.424432458190918C1.13999,12.424302458190919,1.13994,12.424232458190918,1.13993,12.424222458190918C1.13993,12.424212458190919,1.13995,12.424252458190917,1.13995,12.424242458190918C1.13998,12.424292458190918,1.14003,12.424362458190918,0.746503,12.702922458190919C0.746503,12.702922458190919,0.746503,12.702922458190919,0.746503,12.702922458190919ZM5.53951,16.049802458190918C6.47203,15.512532458190918,7.48867,14.628952458190918,8.25579,13.901042458190918C8.64331,13.533322458190918,8.97462,13.198092458190917,9.20921,12.954652458190917C9.32658,12.832842458190918,9.41995,12.733802458190919,9.48426,12.664882458190919C9.51642,12.630422458190917,9.54134,12.603482458190918,9.55836,12.584982458190918C9.56688,12.575732458190918,9.57343,12.568592458190917,9.57792,12.563672458190918C9.58017,12.561212458190917,9.58191,12.559312458190918,9.58313,12.557972458190918C9.58373,12.557312458190918,9.58421,12.556782458190918,9.58456,12.556402458190918C9.58473,12.556212458190918,9.58487,12.556062458190919,9.58498,12.555942458190918C9.58503,12.555882458190919,9.58508,12.555822458190917,9.58511,12.555792458190918C9.58516,12.555742458190918,9.5852,12.555702458190918,9.22841,12.231412458190917C8.87162,11.907122458190917,8.87164,11.907102458190918,8.87166,11.907082458190917C8.87165,11.907092458190919,8.87165,11.907082458190917,8.87164,11.907092458190919C8.87162,11.907122458190917,8.87156,11.907192458190918,8.87147,11.907292458190918C8.87129,11.907482458190918,8.87097,11.907832458190917,8.87053,11.908312458190919C8.86965,11.909282458190917,8.86825,11.910812458190918,8.86634,11.912902458190917C8.86253,11.917072458190917,8.85668,11.923452458190917,8.84888,11.931932458190918C8.83328,11.948882458190917,8.80988,11.974192458190918,8.7793,12.006962458190918C8.71812,12.072502458190918,8.6283,12.167802458190918,8.51484,12.285542458190918C8.28775,12.521212458190918,7.96682,12.845922458190918,7.59204,13.201552458190918C6.83455,13.920332458190918,5.8864,14.737062458190918,5.05812,15.21427245819092C5.05812,15.21427245819092,5.53951,16.049802458190918,5.53951,16.049802458190918C5.53951,16.049802458190918,5.53951,16.049802458190918,5.53951,16.049802458190918Z" fill="#AAAAAA" fill-opacity="1"/></g><g></g><g><path d="M17.229996078186034,16.86775863067627C17.229996078186034,16.86775863067627,16.932626078186036,17.24727863067627,16.932626078186036,17.24727863067627C16.932626078186036,17.24727863067627,17.412256078186033,17.623098630676267,17.412256078186033,17.623098630676267C17.412256078186033,17.623098630676267,17.667716078186036,17.06989863067627,17.667716078186036,17.06989863067627C17.667716078186036,17.06989863067627,17.229996078186034,16.86775863067627,17.229996078186034,16.86775863067627C17.229996078186034,16.86775863067627,17.229996078186034,16.86775863067627,17.229996078186034,16.86775863067627ZM10.905816078186035,12.52497863067627C10.905816078186035,12.52497863067627,16.932626078186036,17.24727863067627,16.932626078186036,17.24727863067627C16.932626078186036,17.24727863067627,17.527366078186034,16.48824863067627,17.527366078186034,16.48824863067627C17.527366078186034,16.48824863067627,11.500556078186035,11.76594863067627,11.500556078186035,11.76594863067627C11.500556078186035,11.76594863067627,10.905816078186035,12.52497863067627,10.905816078186035,12.52497863067627C10.905816078186035,12.52497863067627,10.905816078186035,12.52497863067627,10.905816078186035,12.52497863067627ZM17.229996078186034,16.86775863067627C17.667716078186036,17.06989863067627,17.667766078186034,17.06978863067627,17.667826078186035,17.06966863067627C17.667856078186034,17.06960863067627,17.667916078186035,17.06946863067627,17.667976078186037,17.06933863067627C17.668096078186036,17.06908863067627,17.668236078186034,17.06876863067627,17.668416078186034,17.06837863067627C17.668776078186035,17.06759863067627,17.669256078186034,17.06655863067627,17.669846078186033,17.06525863067627C17.671046078186034,17.062658630676268,17.672706078186035,17.05899863067627,17.674826078186037,17.05432863067627C17.679066078186036,17.04497863067627,17.685126078186034,17.03153863067627,17.692816078186034,17.01426863067627C17.708186078186035,16.97971863067627,17.730106078186036,16.929758630676268,17.757156078186036,16.86628863067627C17.811206078186036,16.73942863067627,17.885886078186036,16.55818863067627,17.969656078186034,16.33786863067627C18.136576078186035,15.898868630676269,18.342476078186035,15.29721863067627,18.492166078186035,14.65755863067627C18.640326078186035,14.02448863067627,18.741656078186036,13.32049863067627,18.675836078186034,12.68868863067627C18.609896078186036,12.055818630676269,18.363756078186036,11.41095863067627,17.735526078186034,11.04900863067627C17.735526078186034,11.04900863067627,17.254136078186036,11.88453863067627,17.254136078186036,11.88453863067627C17.506296078186036,12.029818630676269,17.667256078186035,12.313698630676269,17.716736078186035,12.78861863067627C17.766326078186033,13.26460863067627,17.691406078186034,13.84746863067627,17.553256078186035,14.437828630676268C17.416636078186034,15.021608630676269,17.226186078186036,15.579988630676269,17.068326078186036,15.995158630676269C16.989696078186036,16.20193863067627,16.919886078186035,16.37131863067627,16.870036078186036,16.48830863067627C16.845126078186034,16.54676863067627,16.825246078186034,16.59203863067627,16.811816078186034,16.62223863067627C16.805096078186036,16.63733863067627,16.799986078186034,16.64865863067627,16.796666078186036,16.65596863067627C16.795016078186034,16.65962863067627,16.793806078186037,16.66227863067627,16.793056078186034,16.66389863067627C16.792686078186037,16.66470863067627,16.792436078186036,16.66525863067627,16.792306078186037,16.66554863067627C16.792236078186036,16.665698630676268,16.792206078186034,16.66576863067627,16.792196078186034,16.665788630676268C16.792196078186034,16.665788630676268,16.792206078186034,16.66574863067627,16.792206078186034,16.66575863067627C16.792236078186036,16.665698630676268,16.792266078186035,16.66562863067627,17.229996078186034,16.86775863067627C17.229996078186034,16.86775863067627,17.229996078186034,16.86775863067627,17.229996078186034,16.86775863067627ZM17.735526078186034,11.04900863067627C16.803226078186036,10.51187863067627,15.528016078186035,10.073940630676269,14.512496078186036,9.77381763067627C13.999506078186036,9.62220963067627,13.542806078186036,9.50292563067627,13.214166078186036,9.42148663067627C13.049726078186035,9.38073983067627,12.917056078186036,9.349392830676269,12.825076078186035,9.32814383067627C12.779076078186035,9.31751683067627,12.743236078186035,9.309410830676269,12.718656078186035,9.30391080067627C12.706376078186036,9.30116080067627,12.696906078186036,9.29906180067627,12.690386078186036,9.29762480067627C12.687126078186035,9.29690680067627,12.684606078186036,9.29635380067627,12.682846078186035,9.29596779967627C12.681966078186035,9.29577479967627,12.681266078186034,9.29562379967627,12.680766078186036,9.29551379967627C12.680516078186034,9.29545979967627,12.680316078186035,9.29541479967627,12.680156078186036,9.295381799676269C12.680086078186035,9.29536479967627,12.680006078186036,9.29534679966627,12.679966078186036,9.29533879966127C12.679896078186035,9.29532379967627,12.679836078186035,9.29531179967627,12.577466078186035,9.76646163067627C12.475106078186036,10.23761163067627,12.475066078186035,10.23760463067627,12.475046078186034,10.237600630676269C12.475056078186036,10.23760263067627,12.475046078186034,10.237600630676269,12.475066078186035,10.23760463067627C12.475106078186036,10.237612630676269,12.475196078186036,10.237631630676269,12.475326078186034,10.23765963067627C12.475586078186035,10.23771763067627,12.476046078186036,10.237816630676269,12.476686078186034,10.23795763067627C12.477966078186036,10.23823863067627,12.480006078186035,10.23868463067627,12.482776078186035,10.239295630676269C12.488306078186035,10.240515630676269,12.496776078186034,10.24239163067627,12.508036078186034,10.24491263067627C12.530566078186036,10.24995463067627,12.564256078186036,10.25757363067627,12.608016078186035,10.26768163067627C12.695536078186034,10.28790163067627,12.823226078186035,10.31805863067627,12.982226078186034,10.35746863067627C13.300456078186034,10.43631863067627,13.742946078186035,10.55189863067627,14.239196078186035,10.69856863067627C15.242166078186035,10.99497863067627,16.425626078186035,11.40719863067627,17.254136078186036,11.88453863067627C17.254136078186036,11.88453863067627,17.735526078186034,11.04900863067627,17.735526078186034,11.04900863067627C17.735526078186034,11.04900863067627,17.735526078186034,11.04900863067627,17.735526078186034,11.04900863067627Z" fill="#AAAAAA" fill-opacity="1"/></g><g></g><g><path d="M3.1506917234039307,3.203961710342407C3.1506917234039307,3.203961710342407,3.4480717234039306,2.8244447103424073,3.4480717234039306,2.8244447103424073C3.4480717234039306,2.8244447103424073,2.9684317234039304,2.4486277103424072,2.9684317234039304,2.4486277103424072C2.9684317234039304,2.4486277103424072,2.7129717234039306,3.0018257103424073,2.7129717234039306,3.0018257103424073C2.7129717234039306,3.0018257103424073,3.1506917234039307,3.203961710342407,3.1506917234039307,3.203961710342407C3.1506917234039307,3.203961710342407,3.1506917234039307,3.203961710342407,3.1506917234039307,3.203961710342407ZM9.47487172340393,7.546737710342407C9.47487172340393,7.546737710342407,3.4480717234039306,2.8244447103424073,3.4480717234039306,2.8244447103424073C3.4480717234039306,2.8244447103424073,2.8533217234039308,3.5834777103424074,2.8533217234039308,3.5834777103424074C2.8533217234039308,3.5834777103424074,8.880131723403931,8.305767710342408,8.880131723403931,8.305767710342408C8.880131723403931,8.305767710342408,9.47487172340393,7.546737710342407,9.47487172340393,7.546737710342407C9.47487172340393,7.546737710342407,9.47487172340393,7.546737710342407,9.47487172340393,7.546737710342407ZM3.1506917234039307,3.203961710342407C2.7129717234039306,3.0018257103424073,2.7129217234039307,3.001932710342407,2.7128617234039307,3.0020557103424075C2.712831723403931,3.0021187103424074,2.7127717234039306,3.002259710342407,2.7127117234039306,3.0023857103424074C2.7125917234039307,3.0026397103424074,2.7124517234039307,3.002960710342407,2.712271723403931,3.0033477103424073C2.7119117234039307,3.004121710342407,2.7114417234039307,3.0051627103424075,2.710841723403931,3.006465710342407C2.7096517234039306,3.0090707103424075,2.7079817234039307,3.012725710342407,2.7058617234039306,3.0174007103424074C2.701621723403931,3.0267497103424073,2.6955617234039306,3.0401827103424073,2.687871723403931,3.0574597103424073C2.6725037234039304,3.092008710342407,2.6505797234039306,3.141969710342407,2.6235377234039308,3.2054367103424073C2.5694857234039308,3.3322957103424073,2.4948087234039305,3.5135377103424075,2.4110387234039306,3.733847710342407C2.2441177234039307,4.172847710342407,2.0382117234039305,4.774507710342407,1.8885187234039307,5.414167710342407C1.7403674234039306,6.047237710342407,1.6390294234039307,6.751217710342408,1.7048554234039306,7.383027710342407C1.7707934234039306,8.015897710342408,2.016930723403931,8.660757710342407,2.645167723403931,9.022717710342407C2.645167723403931,9.022717710342407,3.1265517234039306,8.187187710342407,3.1265517234039306,8.187187710342407C2.8743917234039307,8.041897710342408,2.7134317234039305,7.758017710342407,2.663950723403931,7.283097710342407C2.6143587234039307,6.807117710342407,2.689281723403931,6.224257710342407,2.827441723403931,5.633887710342407C2.964051723403931,5.050107710342408,3.1545017234039308,4.491727710342407,3.3123717234039307,4.076567710342407C3.3909917234039306,3.869787710342407,3.4608117234039306,3.7004077103424073,3.5106617234039303,3.583417710342407C3.535561723403931,3.5249577103424072,3.5554417234039306,3.4796877103424073,3.5688817234039307,3.4494877103424075C3.5756017234039303,3.434386710342407,3.580701723403931,3.423063710342407,3.5840217234039304,3.4157517103424073C3.5856817234039307,3.412095710342407,3.5868917234039306,3.409443710342407,3.5876317234039306,3.4078247103424073C3.5880017234039308,3.4070147103424073,3.5882517234039306,3.406463710342407,3.5883917234039306,3.406174710342407C3.5884517234039306,3.4060297103424073,3.588491723403931,3.4059507103424074,3.5885017234039305,3.4059377103424073C3.5885017234039305,3.4059317103424074,3.5884817234039303,3.405971710342407,3.5884817234039303,3.405967710342407C3.5884617234039307,3.4060247103424075,3.588421723403931,3.406097710342407,3.1506917234039307,3.203961710342407C3.1506917234039307,3.203961710342407,3.1506917234039307,3.203961710342407,3.1506917234039307,3.203961710342407ZM2.645167723403931,9.022717710342407C3.577461723403931,9.559847710342407,4.852681723403931,9.997777710342408,5.868191723403931,10.297907710342407C6.38118172340393,10.449517710342407,6.837881723403931,10.568797710342407,7.1665317234039305,10.650237710342408C7.330961723403931,10.690987710342407,7.4636417234039305,10.722327710342407,7.555621723403931,10.743577710342407C7.60162172340393,10.754207710342408,7.637461723403931,10.762317710342407,7.66203172340393,10.767817710342408C7.6743217234039305,10.770567710342407,7.683791723403931,10.772657710342408,7.69030172340393,10.774097710342406C7.69356172340393,10.774817710342408,7.696081723403931,10.775367710342406,7.6978517234039305,10.775757710342408C7.698731723403931,10.775947710342408,7.699421723403931,10.776097710342407,7.69992172340393,10.776207710342407C7.700171723403931,10.776267710342408,7.700381723403931,10.776307710342408,7.70053172340393,10.776337710342407C7.700611723403931,10.776357710342408,7.7006917234039305,10.776377710342407,7.700731723403931,10.776387710342407C7.700801723403931,10.776397710342406,7.700851723403931,10.776407710342408,7.80322172340393,10.305257710342406C7.905591723403931,9.834107710342408,7.9056217234039305,9.834117710342408,7.905641723403931,9.834127710342408C7.905631723403931,9.834117710342408,7.905641723403931,9.834127710342408,7.9056217234039305,9.834117710342408C7.90558172340393,9.834107710342408,7.905501723403931,9.834087710342407,7.90537172340393,9.834067710342406C7.905101723403931,9.834007710342407,7.904651723403931,9.833907710342407,7.904011723403931,9.833767710342407C7.902721723403931,9.833487710342407,7.900691723403931,9.833037710342406,7.897921723403931,9.832427710342408C7.892381723403931,9.831207710342408,7.883911723403931,9.829327710342408,7.872651723403931,9.826807710342408C7.850121723403931,9.821767710342407,7.81643172340393,9.814147710342407,7.772681723403931,9.804037710342406C7.685151723403931,9.783817710342408,7.557471723403931,9.753657710342408,7.398461723403931,9.714257710342407C7.080231723403931,9.635397710342406,6.637741723403931,9.519817710342407,6.141491723403931,9.373157710342408C5.138521723403931,9.076747710342406,3.9550617234039307,8.664517710342407,3.1265517234039306,8.187187710342407C3.1265517234039306,8.187187710342407,2.645167723403931,9.022717710342407,2.645167723403931,9.022717710342407C2.645167723403931,9.022717710342407,2.645167723403931,9.022717710342407,2.645167723403931,9.022717710342407Z" fill="#AAAAAA" fill-opacity="1"/></g></g><g><path d="M12.89453475128174,12.535992622375488C12.89453475128174,12.535992622375488,19.643474751281737,12.535992622375488,19.643474751281737,12.535992622375488C19.643474751281737,12.535992622375488,19.643474751281737,19.53599262237549,19.643474751281737,19.53599262237549C19.643474751281737,19.53599262237549,9.697674751281738,19.53599262237549,9.697674751281738,19.53599262237549C9.697674751281738,19.53599262237549,9.697674751281738,15.160992622375488,9.697674751281738,15.160992622375488C9.697674751281738,13.708492622375488,11.125604751281738,12.535992622375488,12.89453475128174,12.535992622375488C12.89453475128174,12.535992622375488,12.89453475128174,12.535992622375488,12.89453475128174,12.535992622375488Z" fill-rule="evenodd" fill="#FFFFFF" fill-opacity="1"/></g><g><g><path d="M18.46197631378174,14.944304122375488C18.46197631378174,14.944304122375488,17.40177631378174,15.148905122375488,17.40177631378174,15.148905122375488C17.40177631378174,15.148905122375488,17.40177631378174,14.491705122375489,17.40177631378174,14.491705122375489C17.40177631378174,14.491705122375489,18.68517631378174,14.231305122375488,18.68517631378174,14.231305122375488C18.68517631378174,14.231305122375488,19.255576313781738,14.231305122375488,19.255576313781738,14.231305122375488C19.255576313781738,14.231305122375488,19.255576313781738,18.53410512237549,19.255576313781738,18.53410512237549C19.255576313781738,18.53410512237549,18.46197631378174,18.53410512237549,18.46197631378174,18.53410512237549C18.46197631378174,18.53410512237549,18.46197631378174,14.944304122375488,18.46197631378174,14.944304122375488C18.46197631378174,14.944304122375488,18.46197631378174,14.944304122375488,18.46197631378174,14.944304122375488Z" fill="#AAAAAA" fill-opacity="1"/></g><g><path d="M15.789643501281738,14.047711372375488C15.789643501281738,14.047711372375488,16.38484350128174,14.047711372375488,16.38484350128174,14.047711372375488C16.38484350128174,14.047711372375488,14.710843501281738,18.72251137237549,14.710843501281738,18.72251137237549C14.710843501281738,18.72251137237549,14.115643501281738,18.72251137237549,14.115643501281738,18.72251137237549C14.115643501281738,18.72251137237549,15.789643501281738,14.047711372375488,15.789643501281738,14.047711372375488C15.789643501281738,14.047711372375488,15.789643501281738,14.047711372375488,15.789643501281738,14.047711372375488Z" fill="#AAAAAA" fill-opacity="1"/></g><g><path d="M12.698091938781738,18.53410512237549C12.698091938781738,18.53410512237549,11.625491938781739,16.909705122375488,11.625491938781739,16.909705122375488C11.625491938781739,16.909705122375488,11.594491938781738,16.909705122375488,11.594491938781738,16.909705122375488C11.594491938781738,16.909705122375488,11.067491938781739,16.909705122375488,11.067491938781739,16.909705122375488C11.067491938781739,16.909705122375488,11.067491938781739,18.53410512237549,11.067491938781739,18.53410512237549C11.067491938781739,18.53410512237549,10.255291938781738,18.53410512237549,10.255291938781738,18.53410512237549C10.255291938781738,18.53410512237549,10.255291938781738,14.231305122375488,10.255291938781738,14.231305122375488C10.255291938781738,14.231305122375488,11.594491938781738,14.231305122375488,11.594491938781738,14.231305122375488C11.883821938781738,14.231305122375488,12.133891938781739,14.256104722375488,12.344691938781738,14.305704622375488C12.555491938781739,14.351171122375488,12.72702193878174,14.427638122375487,12.859291938781737,14.535105122375489C12.99156193878174,14.638438122375488,13.08869193878174,14.774838122375488,13.150691938781739,14.944304122375488C13.216821938781738,15.11377112237549,13.249891938781738,15.320435122375489,13.249891938781738,15.564305122375488C13.249891938781738,15.928035122375489,13.18169193878174,16.209105122375487,13.045291938781737,16.40750512237549C12.913021938781739,16.60177512237549,12.704291938781738,16.738175122375488,12.419091938781738,16.816705122375488C12.419091938781738,16.816705122375488,13.652891938781739,18.53410512237549,13.652891938781739,18.53410512237549C13.652891938781739,18.53410512237549,12.698091938781738,18.53410512237549,12.698091938781738,18.53410512237549C12.698091938781738,18.53410512237549,12.698091938781738,18.53410512237549,12.698091938781738,18.53410512237549ZM11.482891938781739,16.289705122375487C11.656491938781738,16.289705122375487,11.80322193878174,16.281435122375488,11.923091938781738,16.264905122375488C12.042961938781739,16.24423512237549,12.140091938781739,16.209105122375487,12.214491938781737,16.15950512237549C12.293021938781738,16.105775122375487,12.348821938781738,16.03137512237549,12.381891938781738,15.936305122375488C12.419091938781738,15.841235122375489,12.437691938781738,15.717235122375488,12.437691938781738,15.564305122375488C12.437691938781738,15.423775122375488,12.419091938781738,15.310105122375488,12.381891938781738,15.22330512237549C12.348821938781738,15.136505122375489,12.293021938781738,15.068305122375488,12.214491938781737,15.018705122375488C12.140091938781739,14.969105122375488,12.042961938781739,14.93603812237549,11.923091938781738,14.919505122375488C11.80322193878174,14.898838122375489,11.656491938781738,14.888505122375488,11.482891938781739,14.888505122375488C11.482891938781739,14.888505122375488,11.067491938781739,14.888505122375488,11.067491938781739,14.888505122375488C11.067491938781739,14.888505122375488,11.067491938781739,16.289705122375487,11.067491938781739,16.289705122375487C11.067491938781739,16.289705122375487,11.482891938781739,16.289705122375487,11.482891938781739,16.289705122375487C11.482891938781739,16.289705122375487,11.482891938781739,16.289705122375487,11.482891938781739,16.289705122375487Z" fill="#AAAAAA" fill-opacity="1"/></g></g></g></svg>