<svg width="20" height="28" viewBox="0 0 20 28" fill="none" xmlns="http://www.w3.org/2000/svg">
<g id="Group 1142813846">
<g id="Group 1142813831">
<rect id="Rectangle 2898" width="19.659" height="28" fill="white"/>
<g id="Group 1142813762">
<g id="Group 1142813574">
<g id="&#231;&#188;&#150;&#231;&#187;&#132; 3&#229;&#164;&#135;&#228;&#187;&#189;" clip-path="url(#clip0_727_237)">
<path id="&#232;&#183;&#175;&#229;&#190;&#132; 12" d="M0.983398 5.25606H20.0004" stroke="#8EA2BF" stroke-width="0.868361" stroke-linecap="round" stroke-linejoin="round" stroke-dasharray="1.74"/>
<path id="&#232;&#183;&#175;&#229;&#190;&#132; 12&#229;&#164;&#135;&#228;&#187;&#189;" d="M0.983398 21.9008H20.0004" stroke="#8EA2BF" stroke-width="0.868361" stroke-linecap="round" stroke-linejoin="round" stroke-dasharray="1.74"/>
<path id="Z" d="M2.71157 16.1926L7.33125 10.2183L7.31968 10.1488H2.94313V9.22258H8.5238V10.2183L3.83465 16.2505V16.32H8.7901V17.2578H2.71157V16.1926Z" fill="#8EA2BF"/>
<path id="&#228;&#184;&#137;&#232;&#167;&#146;&#229;&#189;&#162;&#229;&#164;&#135;&#228;&#187;&#189; 2" fill-rule="evenodd" clip-rule="evenodd" d="M14.785 21.1728C14.5561 21.5181 14.0491 21.5181 13.8201 21.1728L12.5214 19.2144C12.2663 18.8295 12.5422 18.3155 13.0039 18.3155H15.6012C16.0629 18.3155 16.3388 18.8295 16.0837 19.2144L14.785 21.1728Z" fill="#8EA2BF"/>
<path id="&#232;&#183;&#175;&#229;&#190;&#132; 13&#229;&#164;&#135;&#228;&#187;&#189;" d="M14.2788 20.8769L14.3197 15.7559" stroke="#8EA2BF" stroke-width="0.868361" stroke-linecap="round"/>
<path id="&#228;&#184;&#137;&#232;&#167;&#146;&#229;&#189;&#162;&#229;&#164;&#135;&#228;&#187;&#189; 2_2" fill-rule="evenodd" clip-rule="evenodd" d="M13.8204 5.7276C14.0494 5.38229 14.5564 5.38229 14.7854 5.7276L16.084 7.68603C16.3392 8.07084 16.0633 8.58487 15.6016 8.58487H13.0043C12.5426 8.58487 12.2666 8.07084 12.5218 7.68603L13.8204 5.7276Z" fill="#8EA2BF"/>
<path id="&#232;&#183;&#175;&#229;&#190;&#132; 13&#229;&#164;&#135;&#228;&#187;&#189;_2" d="M14.3275 6.02539L14.2867 11.1465" stroke="#8EA2BF" stroke-width="0.868361" stroke-linecap="round"/>
</g>
</g>
</g>
</g>
</g>
<defs>
<clipPath id="clip0_727_237">
<rect width="19.017" height="17.4122" fill="white" transform="translate(0.983398 5)"/>
</clipPath>
</defs>
</svg>
