<svg xmlns="http://www.w3.org/2000/svg" xmlns:xlink="http://www.w3.org/1999/xlink" fill="none" version="1.1" width="19" height="19" viewBox="0 0 19 19"><g><g><g><path d="M17.01109999999818,6.525492358741761C17.68359999999818,5.45266235874176,18.99999999999818,3.2322023587417603,18.99999999999818,2.28850235874176L18.99999999999818,1.2150818107417602L0.0018997199981810105,1.2150818107417602C0.0018997199981810105,1.2150818107417602,-0.002395980001818989,1.2539304587417603,0.0018997199981810105,1.3235653587417602C0.01081999999818101,1.4681673587417603,0.056787699998181014,1.7455243587417604,0.255199999998181,2.0834433587417602C0.511359999998181,2.51971235874176,1.021619999998181,3.0569323587417605,2.034299999998181,3.53973235874176C2.822859999998181,3.91568235874176,4.257859999998181,4.4905623587417605,5.766859999998181,5.07068235874176C6.273629999998181,5.26550235874176,6.788739999998181,5.46092235874176,7.290509999998181,5.64959235874176C7.552949999998181,5.74827235874176,7.811749999998181,5.8451023587417605,8.06378999999818,5.9390423587417605L3.187109999998181,5.9390423587417605C2.547669999998181,5.9390423587417605,2.029299999998181,6.4574123587417604,2.029299999998181,7.09685235874176L2.029299999998181,17.84313235874176C2.029299999998181,18.48253235874176,2.547669999998181,19.00093235874176,3.187109999998181,19.00093235874176L15.805399999998182,19.00093235874176C16.44489999999818,19.00093235874176,16.96319999999818,18.48253235874176,16.96319999999818,17.84313235874176L16.96319999999818,6.60157235874176C16.97879999999818,6.57690235874176,16.994699999998183,6.551532358741761,17.01109999999818,6.525492358741761ZM16.165699999998182,6.25818235874176Q16.19249999999818,6.19592235874176,16.22859999999818,6.138572358741761Q18.13159999999818,3.11902235874176,18.13159999999818,2.28850235874176L18.13159999999818,2.0834433587417602L1.297179999998181,2.0834433587417602Q1.682289999998181,2.40991235874176,2.407999999998181,2.75589235874176Q3.834669999998181,3.43607235874176,8.367059999998181,5.125362358741761Q8.45632999999818,5.158632358741761,8.536259999998181,5.21047235874176Q8.61619999999818,5.26230235874176,8.682989999998181,5.33023235874176Q8.74977999999818,5.3981723587417605,8.80025999999818,5.4789723587417605Q8.850729999998181,5.5597723587417605,8.882489999998182,5.64959235874176L9.629199999998182,5.64959235874176Q9.78233999999818,5.64959235874176,9.926239999998181,5.70197235874176L11.454099999998181,6.25818235874176L16.165699999998182,6.25818235874176ZM16.09489999999818,7.1265423587417605L11.300999999998181,7.1265423587417605C11.300999999998181,7.1265423587417605,10.626299999998182,6.8839323587417605,9.629199999998182,6.51795235874176L3.187109999998181,6.51795235874176Q2.608199999998181,6.51795235874176,2.608199999998181,7.09685235874176L2.608199999998181,17.84313235874176Q2.608199999998181,18.42203235874176,3.187109999998181,18.42203235874176L15.805399999998182,18.42203235874176Q16.38429999999818,18.42203235874176,16.38429999999818,17.84313235874176L16.38429999999818,7.1265423587417605L16.09489999999818,7.1265423587417605Z" fill-rule="evenodd" fill="#979797" fill-opacity="1"/></g><g><path d="M18.4927296875,0L18.4927296875,1.44879L17.6243296875,1.44444L17.6243296875,0.868361L1.3712906875000002,0.868361L1.3712906875000002,1.35858L0.5029296875,1.35858L0.5029296875,0L18.4927296875,0Z" fill-rule="evenodd" fill="#979797" fill-opacity="1"/></g></g><g><g><ellipse cx="10" cy="13" rx="4.710546255111694" ry="4.710546255111694" fill-opacity="0" stroke-opacity="1" stroke="#979797" fill="none" stroke-width="0.5789074897766113"/></g><g><ellipse cx="10" cy="13.000000834465027" rx="2.8355462551116943" ry="2.8355462551116943" fill-opacity="0" stroke-opacity="1" stroke="#979797" fill="none" stroke-width="0.5789074897766113"/></g><g><rect x="9.375" y="8.623224675655365" width="1.25" height="1.875" rx="0" fill="#D8D8D8" fill-opacity="1"/><rect x="9.664453744888306" y="8.91267842054367" width="0.6710925102233887" height="1.2960925102233887" rx="0" fill-opacity="0" stroke-opacity="1" stroke="#979797" fill="none" stroke-width="0.5789074897766113"/></g><g transform="matrix(0.8090169429779053,0.5877852439880371,-0.5877852439880371,0.8090170621871948,10.1464213446327,-1.9178092397231126)"><rect x="8.0244140625" y="14.654832363128662" width="1.25" height="1.875" rx="0" fill="#D8D8D8" fill-opacity="1"/><rect x="8.313867807388306" y="14.944286108016968" width="0.6710925102233887" height="1.2960925102233887" rx="0" fill-opacity="0" stroke-opacity="1" stroke="#979797" fill="none" stroke-width="0.5789074897766113"/></g><g transform="matrix(0.30901700258255005,0.9510565400123596,-0.9510565400123596,0.30901703238487244,20.16377788726713,-5.64510251765126)"><rect x="13.966796875" y="11.053978681564331" width="1.25" height="1.875" rx="0" fill="#D8D8D8" fill-opacity="1"/><rect x="14.256250619888306" y="11.343432426452637" width="0.6710925102233887" height="1.2960925102233887" rx="0" fill-opacity="0" stroke-opacity="1" stroke="#979797" fill="none" stroke-width="0.5789074897766113"/></g><g transform="matrix(-0.30901700258255005,0.9510565400123596,-0.9510565400123596,-0.30901703238487244,21.292305506894976,7.792311888424287)"><rect x="7.8154296875" y="11.631038427352905" width="1.25" height="1.875" rx="0" fill="#D8D8D8" fill-opacity="1"/><rect x="8.104883432388306" y="11.920492172241211" width="0.6710925102233887" height="1.2960925102233887" rx="0" fill-opacity="0" stroke-opacity="1" stroke="#979797" fill="none" stroke-width="0.5789074897766113"/></g><g transform="matrix(-0.8090169429779053,0.5877852439880371,-0.5877852439880371,-0.8090170621871948,33.16195721012673,21.567364534640205)"><rect x="13.0771484375" y="16.171168327331543" width="1.25" height="1.875" rx="0" fill="#D8D8D8" fill-opacity="1"/><rect x="13.366602182388306" y="16.46062207221985" width="0.6710925102233887" height="1.2960925102233887" rx="0" fill-opacity="0" stroke-opacity="1" stroke="#979797" fill="none" stroke-width="0.5789074897766113"/></g></g></g></svg>