<svg width="31" height="31" viewBox="0 0 31 31" fill="none" xmlns="http://www.w3.org/2000/svg">
<g id="&#231;&#129;&#175;&#230;&#179;&#161;">
<path id="&#229;&#189;&#162;&#231;&#138;&#182;" fill-rule="evenodd" clip-rule="evenodd" d="M10.9999 28.2309V26.3848H19.4614V28.2309H10.9999ZM18.6151 29.5418C18.6151 30.3475 17.7046 31.0005 16.5811 31.0005H13.8799C12.7565 31.0005 11.8459 30.3475 11.8459 29.5418V29.1543H18.6151V29.5418Z" fill="#328DFB"/>
<path id="&#232;&#183;&#175;&#229;&#190;&#132;" d="M21.0215 21.5709L20.8836 21.6962L20.8002 21.8628L19.421 24.6152H11.0406L9.66203 21.863L9.5785 21.6962L9.44046 21.5708C7.70531 19.9939 6.61536 17.7344 6.61536 15.2163C6.61536 10.4674 10.4714 6.61523 15.2307 6.61523C19.9901 6.61523 23.8461 10.4674 23.8461 15.2163C23.8461 17.7344 22.7562 19.994 21.0215 21.5709Z" stroke="#328DFB" stroke-width="2"/>
<path id="&#232;&#183;&#175;&#229;&#190;&#132;_2" d="M16.3848 9.46289C18.6456 10.073 20.3111 11.856 21.0002 14.0783" stroke="#328DFB" stroke-width="1.5" stroke-linecap="round"/>
<path id="&#232;&#183;&#175;&#229;&#190;&#132; 15" d="M15.2308 1V3.30769" stroke="#328DFB" stroke-width="2" stroke-linecap="round"/>
<path id="&#232;&#183;&#175;&#229;&#190;&#132; 15&#229;&#164;&#135;&#228;&#187;&#189;" d="M4.46167 5.61523L6.12932 6.727" stroke="#328DFB" stroke-width="2" stroke-linecap="round"/>
<path id="&#232;&#183;&#175;&#229;&#190;&#132; 15&#229;&#164;&#135;&#228;&#187;&#189; 2" d="M1 15.9998H3.30769" stroke="#328DFB" stroke-width="2" stroke-linecap="round"/>
<path id="&#232;&#183;&#175;&#229;&#190;&#132; 15&#229;&#164;&#135;&#228;&#187;&#189; 3" d="M27.1541 15.9998H29.4617" stroke="#328DFB" stroke-width="2" stroke-linecap="round"/>
<path id="&#232;&#183;&#175;&#229;&#190;&#132; 15&#229;&#164;&#135;&#228;&#187;&#189;_2" d="M25.9999 5.61523L24.3322 6.727" stroke="#328DFB" stroke-width="2" stroke-linecap="round"/>
</g>
</svg>
