<svg width="19" height="20" viewBox="0 0 19 20" fill="none" xmlns="http://www.w3.org/2000/svg">
<g id="Group 1142813859">
<g id="Group 1142813855">
<g id="&#229;&#189;&#162;&#231;&#138;&#182;&#231;&#187;&#147;&#229;&#144;&#136;">
<mask id="path-1-inside-1_762_425" fill="white">
<path fill-rule="evenodd" clip-rule="evenodd" d="M2.31563 0C1.03674 0 0 1.03674 0 2.31563V15.2478C0 17.1661 1.55511 18.7212 3.47344 18.7212H5.83344C6.09326 17.1639 7.63618 15.9676 9.50071 15.9676C11.3652 15.9676 12.9082 17.1639 13.168 18.7212H15.5266C17.4449 18.7212 19 17.1661 19 15.2478V2.31563C19 1.03674 17.9633 0 16.6844 0H2.31563Z"/>
</mask>
<path d="M5.83344 18.7212V19.5896H6.56892L6.68996 18.8642L5.83344 18.7212ZM13.168 18.7212L12.3115 18.8642L12.4325 19.5896H13.168V18.7212ZM0.868361 2.31563C0.868361 1.51633 1.51633 0.868361 2.31563 0.868361V-0.868361C0.557161 -0.868361 -0.868361 0.557159 -0.868361 2.31563H0.868361ZM0.868361 15.2478V2.31563H-0.868361V15.2478H0.868361ZM3.47344 17.8529C2.0347 17.8529 0.868361 16.6866 0.868361 15.2478H-0.868361C-0.868361 17.6457 1.07553 19.5896 3.47344 19.5896V17.8529ZM5.83344 17.8529H3.47344V19.5896H5.83344V17.8529ZM6.68996 18.8642C6.86688 17.8038 7.976 16.836 9.50071 16.836V15.0993C7.29636 15.0993 5.31965 16.5241 4.97692 18.5783L6.68996 18.8642ZM9.50071 16.836C11.0254 16.836 12.1345 17.8038 12.3115 18.8642L14.0245 18.5783C13.6818 16.5241 11.7051 15.0993 9.50071 15.0993V16.836ZM15.5266 17.8529H13.168V19.5896H15.5266V17.8529ZM18.1316 15.2478C18.1316 16.6866 16.9653 17.8529 15.5266 17.8529V19.5896C17.9245 19.5896 19.8684 17.6457 19.8684 15.2478H18.1316ZM18.1316 2.31563V15.2478H19.8684V2.31563H18.1316ZM16.6844 0.868361C17.4837 0.868361 18.1316 1.51633 18.1316 2.31563H19.8684C19.8684 0.55716 18.4428 -0.868361 16.6844 -0.868361V0.868361ZM2.31563 0.868361H16.6844V-0.868361H2.31563V0.868361Z" fill="#979797" mask="url(#path-1-inside-1_762_425)"/>
</g>
<g id="&#231;&#188;&#150;&#231;&#187;&#132;">
<g id="&#229;&#189;&#162;&#231;&#138;&#182;&#231;&#187;&#147;&#229;&#144;&#136;_2">
<mask id="path-3-inside-2_762_425" fill="white">
<path fill-rule="evenodd" clip-rule="evenodd" d="M7.88652 15.737V18.1428L11.1133 18.1428L11.1133 15.7363C11.3174 15.8222 11.5111 15.9238 11.6922 16.0394V18.1428C11.6922 18.4625 11.433 18.7217 11.1133 18.7217H7.88652C7.5668 18.7217 7.30762 18.4625 7.30762 18.1428V16.0404C7.48874 15.9247 7.68241 15.8229 7.88652 15.737Z"/>
</mask>
<path d="M7.88652 15.737H8.46543V14.8651L7.66187 15.2035L7.88652 15.737ZM7.88652 18.1428H7.30762V18.7217H7.88652L7.88652 18.1428ZM11.1133 18.1428V18.7217H11.6922V18.1428H11.1133ZM11.1133 15.7363L11.3377 15.2027L10.5344 14.8648V15.7363L11.1133 15.7363ZM11.6922 16.0394H12.2711V15.7221L12.0036 15.5514L11.6922 16.0394ZM7.30762 16.0404L6.99596 15.5525L6.72871 15.7233V16.0404H7.30762ZM7.30762 15.737V18.1428H8.46543V15.737H7.30762ZM7.88652 18.7217L11.1133 18.7217V17.5639L7.88652 17.5639L7.88652 18.7217ZM11.6922 18.1428L11.6922 15.7363L10.5344 15.7363L10.5344 18.1428H11.6922ZM10.8889 16.27C11.0632 16.3432 11.2277 16.4297 11.3808 16.5274L12.0036 15.5514C11.7945 15.4179 11.5717 15.3011 11.3377 15.2027L10.8889 16.27ZM12.2711 18.1428V16.0394H11.1133V18.1428H12.2711ZM11.1133 19.3006C11.7528 19.3006 12.2711 18.7823 12.2711 18.1428H11.1133V18.1428V19.3006ZM7.88652 19.3006H11.1133V18.1428H7.88652V19.3006ZM6.72871 18.1428C6.72871 18.7823 7.24708 19.3006 7.88652 19.3006V18.1428H7.88652H6.72871ZM6.72871 16.0404V18.1428H7.88652V16.0404H6.72871ZM7.61928 16.5282C7.77239 16.4304 7.93692 16.3439 8.11118 16.2705L7.66187 15.2035C7.4279 15.302 7.20508 15.4189 6.99596 15.5525L7.61928 16.5282Z" fill="#979797" mask="url(#path-3-inside-2_762_425)"/>
</g>
<path id="&#232;&#183;&#175;&#229;&#190;&#132; 2" d="M8.76855 18.4473L9.49552 18.9979L10.215 18.4473" stroke="#979797" stroke-width="0.578907" stroke-linecap="round"/>
</g>
</g>
<g id="Group 1142813854">
<circle id="&#230;&#164;&#173;&#229;&#156;&#134;&#229;&#189;&#162;" cx="9.5" cy="8.5" r="5.06582" stroke="#979797" stroke-width="0.868361"/>
<circle id="&#230;&#164;&#173;&#229;&#156;&#134;&#229;&#189;&#162;_2" cx="9.5" cy="8.5" r="2.31582" stroke="#979797" stroke-width="0.868361"/>
<g id="&#231;&#188;&#150;&#231;&#187;&#132; 4">
<path id="&#232;&#183;&#175;&#229;&#190;&#132; 5" d="M9.82129 10.8242C9.82129 10.8242 9.92093 12.4067 8.31625 13.3331" stroke="#979797" stroke-width="0.578907"/>
<path id="&#232;&#183;&#175;&#229;&#190;&#132; 5&#229;&#164;&#135;&#228;&#187;&#189;" d="M9.10254 5.89453C9.10254 5.89453 9.0029 4.31207 10.6076 3.38561" stroke="#979797" stroke-width="0.578907"/>
<path id="&#232;&#183;&#175;&#229;&#190;&#132; 5_2" d="M9.10254 5.89453C9.10254 5.89453 9.0029 4.31207 10.6076 3.38561" stroke="#979797" stroke-width="0.578907"/>
</g>
<g id="&#231;&#188;&#150;&#231;&#187;&#132; 4_2">
<path id="&#232;&#183;&#175;&#229;&#190;&#132; 5_3" d="M8.95605 10.8008C8.95605 10.8008 8.50845 12.3219 6.68368 12.6436" stroke="#979797" stroke-width="0.578907"/>
<path id="&#232;&#183;&#175;&#229;&#190;&#132; 5&#229;&#164;&#135;&#228;&#187;&#189;_2" d="M9.9668 5.92188C9.9668 5.92188 10.4144 4.40077 12.2392 4.07901" stroke="#979797" stroke-width="0.578907"/>
<path id="&#232;&#183;&#175;&#229;&#190;&#132; 5_4" d="M9.9668 5.92188C9.9668 5.92188 10.4144 4.40077 12.2392 4.07901" stroke="#979797" stroke-width="0.578907"/>
</g>
<g id="&#231;&#188;&#150;&#231;&#187;&#132; 4_3">
<path id="&#232;&#183;&#175;&#229;&#190;&#132; 5_5" d="M8.15234 10.4805C8.15234 10.4805 7.21148 11.7568 5.38671 11.435" stroke="#979797" stroke-width="0.578907"/>
<path id="&#232;&#183;&#175;&#229;&#190;&#132; 5&#229;&#164;&#135;&#228;&#187;&#189;_3" d="M10.7695 6.24023C10.7695 6.24023 11.7104 4.96395 13.5352 5.28571" stroke="#979797" stroke-width="0.578907"/>
<path id="&#232;&#183;&#175;&#229;&#190;&#132; 5_6" d="M10.7695 6.24023C10.7695 6.24023 11.7104 4.96395 13.5352 5.28571" stroke="#979797" stroke-width="0.578907"/>
</g>
<g id="&#231;&#188;&#150;&#231;&#187;&#132; 4_4">
<path id="&#232;&#183;&#175;&#229;&#190;&#132; 5_7" d="M7.50391 9.90039C7.50391 9.90039 6.18327 10.7779 4.57859 9.85145" stroke="#979797" stroke-width="0.578907"/>
<path id="&#232;&#183;&#175;&#229;&#190;&#132; 5&#229;&#164;&#135;&#228;&#187;&#189;_4" d="M11.4141 6.81445C11.4141 6.81445 12.7347 5.93693 14.3394 6.86339" stroke="#979797" stroke-width="0.578907"/>
<path id="&#232;&#183;&#175;&#229;&#190;&#132; 5_8" d="M11.4141 6.81445C11.4141 6.81445 12.7347 5.93693 14.3394 6.86339" stroke="#979797" stroke-width="0.578907"/>
</g>
<g id="&#231;&#188;&#150;&#231;&#187;&#132; 4_5">
<path id="&#232;&#183;&#175;&#229;&#190;&#132; 5_9" d="M7.09473 9.13867C7.09473 9.13867 5.55361 9.51159 4.36257 8.09217" stroke="#979797" stroke-width="0.578907"/>
<path id="&#232;&#183;&#175;&#229;&#190;&#132; 5&#229;&#164;&#135;&#228;&#187;&#189;_5" d="M11.8262 7.57617C11.8262 7.57617 13.3673 7.20326 14.5583 8.62268" stroke="#979797" stroke-width="0.578907"/>
<path id="&#232;&#183;&#175;&#229;&#190;&#132; 5_10" d="M11.8262 7.57617C11.8262 7.57617 13.3673 7.20326 14.5583 8.62268" stroke="#979797" stroke-width="0.578907"/>
</g>
<g id="&#231;&#188;&#150;&#231;&#187;&#132; 4_6">
<path id="&#232;&#183;&#175;&#229;&#190;&#132; 5_11" d="M6.96973 8.2832C6.96973 8.2832 5.394 8.10653 4.76027 6.36536" stroke="#979797" stroke-width="0.578907"/>
<path id="&#232;&#183;&#175;&#229;&#190;&#132; 5&#229;&#164;&#135;&#228;&#187;&#189;_6" d="M11.9512 8.43164C11.9512 8.43164 13.5269 8.60831 14.1606 10.3495" stroke="#979797" stroke-width="0.578907"/>
<path id="&#232;&#183;&#175;&#229;&#190;&#132; 5_12" d="M11.9512 8.43164C11.9512 8.43164 13.5269 8.60831 14.1606 10.3495" stroke="#979797" stroke-width="0.578907"/>
</g>
<g id="&#231;&#188;&#150;&#231;&#187;&#132; 4_7">
<path id="&#232;&#183;&#175;&#229;&#190;&#132; 5_13" d="M7.14746 7.4375C7.14746 7.4375 5.72719 6.73256 5.72719 4.87963" stroke="#979797" stroke-width="0.578907"/>
<path id="&#232;&#183;&#175;&#229;&#190;&#132; 5&#229;&#164;&#135;&#228;&#187;&#189;_7" d="M11.7754 9.2793C11.7754 9.2793 13.1957 9.98424 13.1957 11.8372" stroke="#979797" stroke-width="0.578907"/>
<path id="&#232;&#183;&#175;&#229;&#190;&#132; 5_14" d="M11.7754 9.2793C11.7754 9.2793 13.1957 9.98424 13.1957 11.8372" stroke="#979797" stroke-width="0.578907"/>
</g>
<g id="&#231;&#188;&#150;&#231;&#187;&#132; 4_8">
<path id="&#232;&#183;&#175;&#229;&#190;&#132; 5_15" d="M7.59863 6.70703C7.59863 6.70703 6.50512 5.55884 7.13886 3.81766" stroke="#979797" stroke-width="0.578907"/>
<path id="&#232;&#183;&#175;&#229;&#190;&#132; 5&#229;&#164;&#135;&#228;&#187;&#189;_8" d="M11.3203 10.0176C11.3203 10.0176 12.4138 11.1658 11.7801 12.9069" stroke="#979797" stroke-width="0.578907"/>
<path id="&#232;&#183;&#175;&#229;&#190;&#132; 5_16" d="M11.3203 10.0176C11.3203 10.0176 12.4138 11.1658 11.7801 12.9069" stroke="#979797" stroke-width="0.578907"/>
</g>
<g id="&#231;&#188;&#150;&#231;&#187;&#132; 4_9">
<path id="&#232;&#183;&#175;&#229;&#190;&#132; 5_17" d="M8.27832 6.17188C8.27832 6.17188 7.64346 4.71892 8.83449 3.2995" stroke="#979797" stroke-width="0.578907"/>
<path id="&#232;&#183;&#175;&#229;&#190;&#132; 5&#229;&#164;&#135;&#228;&#187;&#189;_9" d="M10.6416 10.5586C10.6416 10.5586 11.2765 12.0115 10.0854 13.431" stroke="#979797" stroke-width="0.578907"/>
<path id="&#232;&#183;&#175;&#229;&#190;&#132; 5_18" d="M10.6416 10.5586C10.6416 10.5586 11.2765 12.0115 10.0854 13.431" stroke="#979797" stroke-width="0.578907"/>
</g>
</g>
</g>
</svg>
