<svg width="20" height="23" viewBox="0 0 20 23" fill="none" xmlns="http://www.w3.org/2000/svg">
<g id="Group 1142813763">
<g id="&#229;&#189;&#162;&#231;&#138;&#182;&#231;&#187;&#147;&#229;&#144;&#136;">
<mask id="path-1-inside-1_148_1498" fill="white">
<path fill-rule="evenodd" clip-rule="evenodd" d="M9.582 7.90607C10.7184 8.38393 11.5073 8.70828 11.5073 8.70828H16.6943V21.376C16.6943 21.6957 16.4351 21.9549 16.1154 21.9549H3.22441C2.90469 21.9549 2.6455 21.6957 2.6455 21.376V8.48498C2.6455 8.16526 2.90468 7.90607 3.22441 7.90607H9.582ZM17.2732 8.09666C17.9409 6.8853 19.3469 4.20103 19.3469 3.07584V1.82617H0.00194382C0.00194382 1.82617 -0.143047 3.32542 2.07143 4.53252C3.28565 5.19438 6.00519 6.38585 8.21422 7.32716H3.22441C2.58496 7.32716 2.06659 7.84553 2.06659 8.48498V21.376C2.06659 22.0154 2.58496 22.5338 3.22441 22.5338H16.1154C16.7548 22.5338 17.2732 22.0154 17.2732 21.376V8.09666Z"/>
</mask>
<path d="M11.5073 8.70828L11.1772 9.51142C11.2819 9.55448 11.3941 9.57664 11.5073 9.57664V8.70828ZM9.582 7.90607L9.91861 7.10561C9.81204 7.06079 9.6976 7.03771 9.582 7.03771V7.90607ZM16.6943 8.70828H17.5627C17.5627 8.22869 17.1739 7.83992 16.6943 7.83992V8.70828ZM17.2732 8.09666L16.5127 7.67747C16.442 7.80586 16.4049 7.95007 16.4049 8.09666H17.2732ZM19.3469 1.82617H20.2153C20.2153 1.34659 19.8265 0.957811 19.3469 0.957811V1.82617ZM0.00194382 1.82617V0.957811C-0.445262 0.957811 -0.819337 1.29745 -0.862385 1.74258L0.00194382 1.82617ZM2.07143 4.53252L1.65583 5.29496H1.65583L2.07143 4.53252ZM8.21422 7.32716V8.19553C8.62685 8.19553 8.98249 7.90516 9.06503 7.50088C9.14758 7.0966 8.93423 6.69006 8.55463 6.52831L8.21422 7.32716ZM11.5073 8.70828C11.8375 7.90513 11.8375 7.90513 11.8375 7.90513C11.8375 7.90513 11.8375 7.90513 11.8375 7.90512C11.8375 7.90512 11.8374 7.9051 11.8374 7.90509C11.8373 7.90505 11.8372 7.905 11.837 7.90492C11.8366 7.90478 11.8361 7.90455 11.8354 7.90425C11.8339 7.90364 11.8316 7.90272 11.8287 7.90149C11.8227 7.89904 11.8138 7.89537 11.802 7.89051C11.7784 7.88079 11.7434 7.86635 11.6977 7.8475C11.6064 7.80981 11.4728 7.75454 11.3037 7.68435C10.9654 7.54395 10.4853 7.34393 9.91861 7.10561L9.24539 8.70654C9.81502 8.94608 10.2976 9.14716 10.6379 9.2884C10.8081 9.35903 10.9427 9.4147 11.0349 9.45276C11.081 9.47179 11.1164 9.48642 11.1404 9.4963C11.1525 9.50125 11.1616 9.50501 11.1677 9.50754C11.1708 9.50881 11.1732 9.50977 11.1747 9.51042C11.1755 9.51074 11.1761 9.51099 11.1765 9.51116C11.1767 9.51124 11.1769 9.5113 11.177 9.51135C11.177 9.51137 11.1771 9.51139 11.1771 9.5114C11.1771 9.51141 11.1771 9.51141 11.1772 9.51142C11.1772 9.51142 11.1772 9.51142 11.5073 8.70828ZM16.6943 7.83992H11.5073V9.57664H16.6943V7.83992ZM17.5627 21.376V8.70828H15.8259V21.376H17.5627ZM16.1154 22.8232C16.9147 22.8232 17.5627 22.1753 17.5627 21.376H15.8259C15.8259 21.2161 15.9555 21.0865 16.1154 21.0865V22.8232ZM3.22441 22.8232H16.1154V21.0865H3.22441V22.8232ZM1.77714 21.376C1.77714 22.1753 2.4251 22.8232 3.22441 22.8232V21.0865C3.38427 21.0865 3.51386 21.2161 3.51386 21.376H1.77714ZM1.77714 8.48498V21.376H3.51386V8.48498H1.77714ZM3.22441 7.03771C2.4251 7.03771 1.77714 7.68567 1.77714 8.48498H3.51386C3.51386 8.64484 3.38427 8.77443 3.22441 8.77443V7.03771ZM9.582 7.03771H3.22441V8.77443H9.582V7.03771ZM18.4786 3.07584C18.4786 3.21211 18.4285 3.48167 18.2926 3.89128C18.1634 4.28081 17.9799 4.72967 17.7691 5.19653C17.3479 6.12914 16.842 7.08007 16.5127 7.67747L18.0337 8.51586C18.3721 7.9019 18.9031 6.90501 19.3519 5.91134C19.576 5.41507 19.7857 4.90617 19.941 4.43809C20.0896 3.99008 20.2153 3.50216 20.2153 3.07584H18.4786ZM18.4786 1.82617V3.07584H20.2153V1.82617H18.4786ZM0.00194382 2.69453H19.3469V0.957811H0.00194382V2.69453ZM2.48704 3.77007C1.52873 3.24771 1.1512 2.70479 0.995873 2.36535C0.915359 2.18941 0.885777 2.04907 0.874808 1.96584C0.869291 1.92397 0.868458 1.89629 0.86837 1.88573C0.868326 1.88047 0.868468 1.87957 0.868291 1.88341C0.868202 1.88533 0.868032 1.88846 0.867718 1.89283C0.86756 1.89501 0.867367 1.89751 0.867129 1.90033C0.86701 1.90174 0.866879 1.90323 0.866737 1.9048C0.866666 1.90559 0.866592 1.9064 0.866514 1.90722C0.866476 1.90763 0.866415 1.90827 0.866396 1.90848C0.866335 1.90912 0.866273 1.90976 0.00194382 1.82617C-0.862385 1.74258 -0.862448 1.74324 -0.862512 1.7439C-0.862533 1.74413 -0.862597 1.7448 -0.86264 1.74526C-0.862726 1.74618 -0.862812 1.74712 -0.8629 1.74809C-0.863075 1.75002 -0.863254 1.75206 -0.863434 1.75419C-0.863795 1.75846 -0.864163 1.76313 -0.864527 1.76819C-0.865255 1.77831 -0.865968 1.79 -0.866579 1.8032C-0.867799 1.82959 -0.868609 1.86208 -0.868292 1.90017C-0.867659 1.97631 -0.862519 2.07519 -0.847027 2.19274C-0.81598 2.42834 -0.743405 2.73826 -0.583357 3.08801C-0.257562 3.79997 0.399652 4.61023 1.65583 5.29496L2.48704 3.77007ZM8.55463 6.52831C6.33224 5.5813 3.65646 4.40752 2.48704 3.77007L1.65583 5.29496C2.91484 5.98125 5.67813 7.1904 7.87382 8.12602L8.55463 6.52831ZM8.21422 6.4588H3.22441V8.19553H8.21422V6.4588ZM3.22441 6.4588C2.10538 6.4588 1.19823 7.36595 1.19823 8.48498H2.93495C2.93495 8.32512 3.06455 8.19553 3.22441 8.19553V6.4588ZM1.19823 8.48498V21.376H2.93495V8.48498H1.19823ZM1.19823 21.376C1.19823 22.495 2.10538 23.4021 3.22441 23.4021V21.6654C3.06455 21.6654 2.93495 21.5358 2.93495 21.376H1.19823ZM3.22441 23.4021H16.1154V21.6654H3.22441V23.4021ZM16.1154 23.4021C17.2344 23.4021 18.1416 22.495 18.1416 21.376H16.4049C16.4049 21.5358 16.2753 21.6654 16.1154 21.6654V23.4021ZM18.1416 21.376V8.09666H16.4049V21.376H18.1416Z" fill="#979797" mask="url(#path-1-inside-1_148_1498)"/>
</g>
<g id="&#232;&#183;&#175;&#229;&#190;&#132;">
<mask id="path-3-inside-2_148_1498" fill="white">
<path fill-rule="evenodd" clip-rule="evenodd" d="M0.512146 1.99572V0.414062H18.8304V2.10075"/>
</mask>
<path d="M0.512146 0.414062V-0.454299C0.0325633 -0.454299 -0.356215 -0.0655202 -0.356215 0.414063L0.512146 0.414062ZM18.8304 0.414062H19.6987C19.6987 -0.0655202 19.31 -0.454299 18.8304 -0.454299V0.414062ZM1.38051 1.99572V0.414062H-0.356215V1.99572H1.38051ZM0.512146 1.28242H18.8304V-0.454299H0.512146V1.28242ZM17.962 0.414062V2.10075H19.6987V0.414062H17.962Z" fill="#979797" mask="url(#path-3-inside-2_148_1498)"/>
</g>
<circle id="&#230;&#164;&#173;&#229;&#156;&#134;&#229;&#189;&#162;" cx="9.67018" cy="14.9301" r="5.24023" stroke="#979797" stroke-width="0.578907"/>
<circle id="&#230;&#164;&#173;&#229;&#156;&#134;&#229;&#189;&#162;_2" cx="9.67004" cy="14.9287" r="3.1666" stroke="#979797" stroke-width="0.578907"/>
<rect id="&#231;&#159;&#169;&#229;&#189;&#162;" x="9.26846" y="10.3793" width="0.803513" height="1.49472" fill="#D8D8D8" stroke="#979797" stroke-width="0.578907"/>
<rect id="&#231;&#159;&#169;&#229;&#189;&#162;&#229;&#164;&#135;&#228;&#187;&#189;" x="7.54963" y="17.1641" width="0.803513" height="1.49472" transform="rotate(36 7.54963 17.1641)" fill="#D8D8D8" stroke="#979797" stroke-width="0.578907"/>
<rect id="&#231;&#159;&#169;&#229;&#189;&#162;_2" x="13.8722" y="13.1421" width="0.803513" height="1.49472" transform="rotate(72 13.8722 13.1421)" fill="#D8D8D8" stroke="#979797" stroke-width="0.578907"/>
<rect id="&#231;&#159;&#169;&#229;&#189;&#162;&#229;&#164;&#135;&#228;&#187;&#189;_2" x="6.88917" y="13.6019" width="0.803513" height="1.49472" transform="rotate(108 6.88917 13.6019)" fill="#D8D8D8" stroke="#979797" stroke-width="0.578907"/>
<rect id="&#231;&#159;&#169;&#229;&#189;&#162;_3" x="12.6688" y="18.3735" width="0.803513" height="1.49472" transform="rotate(144 12.6688 18.3735)" fill="#D8D8D8" stroke="#979797" stroke-width="0.578907"/>
</g>
</svg>
