<svg xmlns="http://www.w3.org/2000/svg" xmlns:xlink="http://www.w3.org/1999/xlink" fill="none" version="1.1" width="18" height="18" viewBox="0 0 18 18"><defs><clipPath id="master_svg0_25_06476"><rect x="0" y="0" width="18" height="18" rx="0"/></clipPath></defs><g clip-path="url(#master_svg0_25_06476)"><g><path d="M15.064102109375,11.0287875C15.568402109375,11.3868875,15.962702109375,11.8436875,16.247102109375,12.3990875C16.531302109374998,12.9541875,16.673402109375,13.5448375,16.673402109375,14.1709375C16.673402109375,15.2277375,16.307002109375,16.1301375,15.574202109375001,16.8776375C14.840502109374999,17.626237500000002,13.954702109374999,18.0005375,12.916602109374999,18.0005375C11.878602109375,18.0005375,10.992802109374999,17.626237500000002,10.259102109375,16.8776375C9.526312109375,16.1301375,9.159912109375,15.2277375,9.159912109375,14.1709375C9.159912109375,13.5451375,9.301912109375,12.9546875,9.585912109375,12.3996875C9.870091109375,11.8443875,10.264202109375,11.3876875,10.768202109375,11.0294875L11.036702109375,11.4172875L10.569102109375,11.4172875L10.569102109375,5.5266375C10.569102109375,4.8699075,10.798302109375,4.3093675000000005,11.256602109375,3.8449975C11.714902109375,3.3806275,12.268102109375,3.1484375,12.916202109375,3.1484375C13.564302109375,3.1484375,14.117502109375,3.3806275,14.575802109375001,3.8449975C15.034102109374999,4.3093675000000005,15.263302109375001,4.8699075,15.263302109375001,5.5266375L15.263302109375001,11.4166875L14.795702109375,11.4166875L15.064102109375,11.0287875ZM14.328202109374999,11.6631875L14.328202109374999,5.5266375C14.328202109374999,5.1315475,14.190402109375,4.7943175,13.914602109375,4.5149574999999995C13.638902109375,4.2355875,13.306102109375,4.0959075,12.916202109375,4.0959075C12.526302109374999,4.0959075,12.193502109375,4.2355875,11.917802109375,4.5149574999999995C11.642102109375,4.7943175,11.504202109375,5.1315475,11.504202109375,5.5266375L11.504202109375,11.6636875L11.305102109375,11.8051875C10.498402109375,12.3784875,10.095002109375,13.1671375,10.095002109375,14.1709375C10.095002109375,14.9675375,10.370802109375,15.6471375,10.922602109375,16.210137500000002C11.473402109375,16.7721375,12.138102109375,17.0531375,12.916602109374999,17.0531375C13.695202109375,17.0531375,14.359902109375,16.7721375,14.910702109375,16.210137500000002C15.462402109374999,15.6471375,15.738302109374999,14.9675375,15.738302109374999,14.1709375C15.738302109374999,13.1667375,15.334702109375,12.3778875,14.527402109375,11.8045875L14.328202109374999,11.6631875Z" fill="#999999" fill-opacity="1"/></g><g><path d="M13.387533203125,12.809408125000001C13.455933203125,12.834008125,13.522033203125,12.863808125,13.585933203125,12.898808125C13.649733203124999,12.933808124999999,13.710633203125,12.973608125,13.768433203125,13.018208125000001C13.826233203125,13.062808125,13.880433203125,13.111608125,13.930833203125001,13.164708125C13.981333203125,13.217808125000001,14.027533203125,13.274608125,14.069333203125,13.334908125C14.111233203125,13.395308125,14.148333203125,13.458608125,14.180633203125,13.524808125C14.212933203125,13.591008125,14.240133203125,13.659408124999999,14.262033203125,13.729808125C14.284033203125,13.800308125,14.300533203125,13.872108125,14.311733203125,13.945208125C14.322833203125,14.018308125,14.328333203125,14.091808125,14.328333203125,14.165808125C14.328333203125,14.212908125,14.326133203125,14.259908125,14.321633203125,14.306708125C14.317033203125,14.353608125,14.310333203125,14.400108125,14.301333203125001,14.446308125C14.292233203125,14.492508125,14.281033203125,14.538208125,14.267633203125,14.583308125C14.254233203125,14.628308125,14.238733203125,14.672608125,14.221033203125,14.716108125C14.203433203125,14.759708125,14.183733203125,14.802208125,14.161933203124999,14.843708125C14.140133203125,14.885308125,14.116433203125,14.925608125,14.090833203125,14.964808125C14.065133203125,15.004008125,14.037733203125,15.041708125,14.008433203125,15.078208125C13.979133203125,15.114608125,13.948133203125,15.149408125,13.915533203125,15.182708125C13.882833203125,15.216008125,13.848733203125,15.247608125,13.813033203125,15.277508125C13.777333203125,15.307408125,13.740233203125,15.335408125,13.701833203125,15.361608125C13.663533203125,15.387808125,13.623933203125,15.411908125,13.583233203125,15.434208125C13.542533203125,15.456408125,13.500833203125,15.476508125,13.458133203125,15.494508125C13.415533203125,15.512508125,13.372133203125,15.528408125,13.327933203125,15.542108125C13.283733203125,15.555708125,13.239033203125,15.567108125,13.193733203125,15.576408125C13.148433203125,15.585508125,13.102833203125,15.592408125,13.056933203125,15.597008125C13.010933203125,15.601608125,12.964933203125,15.603908125,12.918733203125,15.603908125C12.872533203125,15.603908125,12.826533203124999,15.601608125,12.780533203125,15.597008125C12.734633203125,15.592408125,12.689033203125,15.585508125,12.643733203125,15.576408125C12.598433203125,15.567108125,12.553733203125,15.555708125,12.509533203125,15.542108125C12.465333203125,15.528408125,12.421933203125,15.512508125,12.379233203125,15.494508125C12.336634203125,15.476508125,12.294933203125,15.456408125,12.254233203125,15.434208125C12.213533203125,15.411908125,12.173933203125,15.387808125,12.135533203125,15.361608125C12.097133203125,15.335408125,12.060133203125,15.307408125,12.024433203125,15.277508125C11.988733203125,15.247608125,11.954634203125,15.216008125,11.921933203125,15.182708125C11.889334203125,15.149408125,11.858333203125,15.114608125,11.829034203125,15.078208125C11.799733203125,15.041708125,11.772333203125,15.004008125,11.746633203125,14.964808125C11.721033203125,14.925608125,11.697233203125,14.885308125,11.675533203125,14.843708125C11.653733203125,14.802208125,11.634033203125,14.759708125,11.616333203125,14.716108125C11.598733003125,14.672608125,11.583133703125,14.628308125,11.569733603125,14.583308125C11.556333503125,14.538208125,11.545133603125,14.492508125,11.536133803125,14.446308125C11.527133003125,14.400108125,11.520333303125,14.353608125,11.515833853125,14.306708125C11.511333463125,14.259908125,11.509033203125,14.212908125,11.509033203125,14.165808125C11.509033203125,14.091908125,11.514633183125,14.018508125,11.525733003125,13.945508125C11.536833803125,13.872508125,11.553333303125,13.800808125,11.575233503125,13.730408125C11.597133603125,13.660008125000001,11.624233203125,13.591708125,11.656433203125,13.525608125C11.688633203125,13.459408125,11.725633203125,13.396208125000001,11.767433203125,13.335908125C11.809233203125,13.275508125,11.855233203125,13.218808124999999,11.905633203125,13.165808125C11.955933203125,13.112708125000001,12.009933203125,13.063808125000001,12.067633203125,13.019208124999999C12.125433203125,12.974608125,12.186133203125,12.934808125,12.249833203125,12.899808125C12.313534203125,12.864708125,12.379534203125,12.834908125,12.447833203125,12.810208124999999L12.447833203125,6.493688125C12.447833203125,6.462428125,12.450833203125,6.431468125,12.456834203125,6.400808125C12.462833203125,6.370148125,12.471733203125,6.340368125,12.483533203125,6.311488125C12.495334203125,6.282608125,12.509833203125,6.255168125,12.526933203125001,6.229178125C12.544133203125,6.203178125,12.563633203125,6.179128125,12.585433203125,6.157028125C12.607233203125,6.134918125,12.630933203125,6.115178125,12.656633203125,6.097817925C12.682233203125,6.080447725,12.709333203125,6.065777825,12.737833203125,6.053817725C12.766333203125,6.041857725,12.795733203125,6.032817825,12.826033203125,6.026718135C12.856233203125,6.020627975,12.886833203125,6.017578125,12.917633203125,6.017578125C12.948533203125,6.017578125,12.979033203125,6.020627975,13.009333203125,6.026718135C13.039633203125,6.032817825,13.068933203125,6.041857725,13.097533203125,6.053817725C13.126033203125,6.065777825,13.153033203125,6.080447725,13.178733203125,6.097817925C13.204333203125,6.115178125,13.228133203125001,6.134918125,13.249933203125,6.157028125C13.271733203125,6.179128125,13.291233203125,6.203178125,13.308333203125,6.229178125C13.325533203125,6.255168125,13.339933203125,6.282608125,13.351833203125,6.311488125C13.363633203125,6.340368125,13.372533203125,6.370148125,13.378533203125,6.400808125C13.384533203125,6.431468125,13.387533203125,6.462428125,13.387533203125,6.493688125L13.387533203125,12.809408125000001Z" fill-rule="evenodd" fill="#999999" fill-opacity="1"/></g><g><path d="M15.739501953125,4.581151875C15.739501953125,4.842781875,15.948801953125,5.0548818749999995,16.207002953125,5.0548818749999995L17.532401953125,5.0548818749999995C17.790601953124998,5.0548818749999995,17.999901953125,4.842781875,17.999901953125,4.581151875C17.999901953125,4.319511875,17.790601953124998,4.107421875,17.532401953125,4.107421875L16.207002953125,4.107421875C15.948801953125,4.107421875,15.739501953125,4.319511875,15.739501953125,4.581151875Z" fill="#999999" fill-opacity="1"/></g><g><path d="M15.739501953125,6.018651875C15.739501953125,6.280291875,15.948801953125,6.492391875,16.207002953125,6.492391875L16.676902953125,6.492391875C16.935101953125,6.492391875,17.144501953125,6.280291875,17.144501953125,6.018651875C17.144501953125,5.757021875,16.935101953125,5.544921875,16.676902953125,5.544921875L16.207002953125,5.544921875C15.948801953125,5.544921875,15.739501953125,5.757021875,15.739501953125,6.018651875Z" fill="#999999" fill-opacity="1"/></g><g><path d="M15.739501953125,7.458105C15.739501953125,7.719745,15.948801953125,7.9318349999999995,16.207002953125,7.9318349999999995L17.532401953125,7.9318349999999995C17.790601953124998,7.9318349999999995,17.999901953125,7.719745,17.999901953125,7.458105C17.999901953125,7.196475,17.790601953124998,6.984375,17.532401953125,6.984375L16.207002953125,6.984375C15.948801953125,6.984375,15.739501953125,7.196475,15.739501953125,7.458105Z" fill="#999999" fill-opacity="1"/></g><g><path d="M15.739501953125,8.893651875C15.739501953125,9.155291875,15.948801953125,9.367391875,16.207002953125,9.367391875L16.676902953125,9.367391875C16.935101953125,9.367391875,17.144501953125,9.155291875,17.144501953125,8.893651875C17.144501953125,8.632021875,16.935101953125,8.419921875,16.676902953125,8.419921875L16.207002953125,8.419921875C15.948801953125,8.419921875,15.739501953125,8.632021875,15.739501953125,8.893651875Z" fill="#999999" fill-opacity="1"/></g><g><path d="M15.739501953125,10.333096C15.739501953125,10.594695,15.948801953125,10.806795,16.207002953125,10.806795L17.532401953125,10.806795C17.790601953124998,10.806795,17.999901953125,10.594695,17.999901953125,10.333096C17.999901953125,10.071495,17.790601953124998,9.859375,17.532401953125,9.859375L16.207002953125,9.859375C15.948801953125,9.859375,15.739501953125,10.071495,15.739501953125,10.333096Z" fill="#999999" fill-opacity="1"/></g><g><path d="M0,0.710599C0,1.10305,0.313982,1.4212,0.701299,1.4212L11.9786,1.4212C12.3659,1.4212,12.6799,1.10305,12.6799,0.710599C12.6799,0.318146,12.3659,0,11.9786,0L0.701299,0C0.313982,0,0,0.318146,0,0.710599Z" fill="#999999" fill-opacity="1"/></g><g><path d="M9.69538439453125,0.470703125L3.11700439453125,0.470703125L3.11700439453125,5.744163125L5.52617439453125,5.744163125L6.33907439453125,7.047453125L7.15197439453125,5.744163125L9.69538439453125,5.744163125L9.69538439453125,0.470703125Z" fill-rule="evenodd" fill="#999999" fill-opacity="1"/></g><g><path d="M2.47631,15.98960625L2.47631,16.68330625L0,16.68330625L0,12.49730625L0.779799,12.49730625L0.779799,15.98960625L2.47631,15.98960625ZM4.61927,12.31640625L5.19072,12.31640625L3.58351,16.86420625L3.01205,16.86420625L4.61927,12.31640625ZM5.90505,15.971506250000001C6.29395,15.65790625,6.61441,15.388506249999999,6.86641,15.16330625C7.1184,14.93810625,7.31682,14.74010625,7.46167,14.56920625C7.60652,14.398306250000001,7.70771,14.24550625,7.76526,14.11080625C7.8228,13.97610625,7.85157,13.84440625,7.85157,13.71570625C7.85157,13.59110625,7.83173,13.48650625,7.79205,13.40210625C7.75236,13.31760625,7.69779,13.25130525,7.62834,13.20300625C7.55889,13.15480625,7.47655,13.12060625,7.38131,13.10050625C7.28606,13.08040625,7.18487,13.07030625,7.07772,13.07030625C6.9428,13.07030625,6.79994,13.08040625,6.64913,13.10050625C6.49833,13.12060625,6.33761,13.15680625,6.16697,13.20910625L6.16697,12.56970625C6.31777,12.52550625,6.48146,12.49230625,6.65805,12.47020625C6.83465,12.44810625,7.01819,12.43700625,7.20868,12.43700625C7.64521,12.43700625,7.98848,12.53350625,8.23849,12.72650625C8.4885,12.91960625,8.61351,13.21910525,8.61351,13.62530625C8.61351,13.80220625,8.59168,13.96810625,8.54803,14.12290625C8.50438,14.27770625,8.426,14.43650625,8.3129,14.59940625C8.1998,14.76220625,8.04404,14.93910625,7.84561,15.13010625C7.64719,15.32110625,7.39123,15.54330625,7.07772,15.79660625L6.82176,16.001706249999998L6.82176,16.05000625L8.73852,16.05000625L8.73852,16.68330625L5.90505,16.68330625L5.90505,15.971506250000001Z" fill="#999999" fill-opacity="1"/></g></g></svg>