<svg width="26" height="26" viewBox="0 0 26 26" fill="none" xmlns="http://www.w3.org/2000/svg">
<g id="&#231;&#188;&#150;&#231;&#187;&#132;">
<rect id="&#231;&#159;&#169;&#229;&#189;&#162;&#229;&#164;&#135;&#228;&#187;&#189; 3" x="0.0959473" y="0.0390625" width="25.4776" height="25.4776" rx="12.7388" fill="#116FDF"/>
<path id="&#231;&#159;&#169;&#229;&#189;&#162;" fill-rule="evenodd" clip-rule="evenodd" d="M5.32581 12.7783C5.32581 12.1575 5.82904 11.6543 6.44982 11.6543L19.1886 11.6543C19.8094 11.6543 20.3126 12.1575 20.3126 12.7783C20.3126 13.3991 19.8094 13.9023 19.1886 13.9023L6.44982 13.9023C5.82904 13.9023 5.32581 13.3991 5.32581 12.7783Z" fill="white"/>
<path id="&#231;&#159;&#169;&#229;&#189;&#162;_2" fill-rule="evenodd" clip-rule="evenodd" d="M12.819 5.2832C13.4398 5.2832 13.943 5.78644 13.943 6.40722L13.943 19.146C13.943 19.7668 13.4398 20.27 12.819 20.27C12.1982 20.27 11.695 19.7668 11.695 19.146L11.695 6.40721C11.695 5.78644 12.1982 5.2832 12.819 5.2832Z" fill="white"/>
</g>
</svg>
