<svg width="19" height="19" viewBox="0 0 19 19" fill="none" xmlns="http://www.w3.org/2000/svg">
<g id="Group 1142813858">
<g id="Group 1142813856">
<g id="&#229;&#189;&#162;&#231;&#138;&#182;&#231;&#187;&#147;&#229;&#144;&#136;">
<mask id="path-1-inside-1_762_424" fill="white">
<path fill-rule="evenodd" clip-rule="evenodd" d="M9.62934 6.51776C10.6263 6.88372 11.301 7.1263 11.301 7.1263H16.3843V17.8429C16.3843 18.1627 16.1252 18.4218 15.8054 18.4218H3.18711C2.86739 18.4218 2.60821 18.1627 2.60821 17.8429V7.09667C2.60821 6.77695 2.86739 6.51776 3.18711 6.51776H9.62934ZM16.9632 6.60133C17.6189 5.561 19 3.25487 19 2.28826V1.21484H0.00190896C0.00190896 1.21484 -0.140482 2.50264 2.03429 3.53949C3.22618 4.10774 5.89503 5.13048 8.06392 5.93886H3.18711C2.54767 5.93886 2.0293 6.45723 2.0293 7.09667V17.8429C2.0293 18.4824 2.54767 19.0007 3.18711 19.0007H15.8054C16.4449 19.0007 16.9632 18.4824 16.9632 17.8429V6.60133Z"/>
</mask>
<path d="M11.301 7.1263L11.0072 7.94345C11.1014 7.97733 11.2008 7.99466 11.301 7.99466V7.1263ZM9.62934 6.51776L9.92856 5.70258C9.83272 5.66741 9.73143 5.6494 9.62934 5.6494V6.51776ZM16.3843 7.1263H17.2527C17.2527 6.64672 16.8639 6.25794 16.3843 6.25794V7.1263ZM16.9632 6.60133L16.2286 6.13833C16.1412 6.27696 16.0949 6.43747 16.0949 6.60133H16.9632ZM19 1.21484H19.8684C19.8684 0.735261 19.4796 0.346483 19 0.346483V1.21484ZM0.00190896 1.21484V0.346483C-0.440741 0.346483 -0.812545 0.679442 -0.861192 1.11941L0.00190896 1.21484ZM2.03429 3.53949L2.40799 2.75566L2.03429 3.53949ZM8.06392 5.93886V6.80722C8.48407 6.80722 8.84395 6.50642 8.9185 6.09294C8.99305 5.67945 8.76088 5.27191 8.36719 5.12517L8.06392 5.93886ZM11.301 7.1263C11.5948 6.30916 11.5948 6.30916 11.5948 6.30916C11.5948 6.30915 11.5948 6.30915 11.5948 6.30915C11.5948 6.30914 11.5948 6.30914 11.5947 6.30912C11.5946 6.3091 11.5945 6.30906 11.5944 6.309C11.5941 6.30889 11.5936 6.30872 11.593 6.30849C11.5917 6.30804 11.5898 6.30735 11.5872 6.30643C11.5821 6.3046 11.5745 6.30185 11.5644 6.2982C11.5442 6.29092 11.5141 6.28008 11.4749 6.26592C11.3964 6.2376 11.2814 6.19599 11.1351 6.14295C10.8427 6.03687 10.4259 5.88512 9.92856 5.70258L9.33012 7.33294C9.8298 7.51636 10.2488 7.66887 10.5429 7.77558C10.69 7.82893 10.8059 7.87084 10.8851 7.89944C10.9247 7.91374 10.9552 7.92471 10.9757 7.93212C10.986 7.93583 10.9938 7.93864 10.9991 7.94054C11.0017 7.94149 11.0037 7.94221 11.0051 7.94269C11.0058 7.94294 11.0063 7.94312 11.0066 7.94325C11.0068 7.94331 11.0069 7.94336 11.007 7.94339C11.0071 7.94341 11.0071 7.94342 11.0071 7.94343C11.0072 7.94343 11.0072 7.94344 11.0072 7.94344C11.0072 7.94344 11.0072 7.94345 11.301 7.1263ZM16.3843 6.25794H11.301V7.99466H16.3843V6.25794ZM17.2527 17.8429V7.1263H15.516V17.8429H17.2527ZM15.8054 19.2902C16.6047 19.2902 17.2527 18.6422 17.2527 17.8429H15.516C15.516 17.6831 15.6456 17.5535 15.8054 17.5535V19.2902ZM3.18711 19.2902H15.8054V17.5535H3.18711V19.2902ZM1.73984 17.8429C1.73984 18.6422 2.38781 19.2902 3.18711 19.2902V17.5535C3.34697 17.5535 3.47657 17.6831 3.47657 17.8429H1.73984ZM1.73984 7.09667V17.8429H3.47657V7.09667H1.73984ZM3.18711 5.6494C2.38781 5.6494 1.73984 6.29737 1.73984 7.09667H3.47657C3.47657 7.25653 3.34697 7.38613 3.18711 7.38613V5.6494ZM9.62934 5.6494H3.18711V7.38613H9.62934V5.6494ZM18.1316 2.28826C18.1316 2.36441 18.0945 2.56657 17.962 2.91572C17.8385 3.24135 17.6616 3.62043 17.4559 4.01874C17.0453 4.81394 16.5512 5.62654 16.2286 6.13833L17.6979 7.06432C18.031 6.53578 18.5552 5.67515 18.9991 4.81555C19.2206 4.38647 19.4299 3.94275 19.5859 3.53162C19.7329 3.14399 19.8684 2.69541 19.8684 2.28826H18.1316ZM18.1316 1.21484V2.28826H19.8684V1.21484H18.1316ZM0.00190896 2.0832H19V0.346483H0.00190896V2.0832ZM2.40799 2.75566C1.45841 2.30293 1.106 1.84196 0.971978 1.5858C0.902293 1.4526 0.879818 1.35271 0.87231 1.30289C0.86847 1.2774 0.868357 1.26366 0.86836 1.26395C0.868362 1.2641 0.868392 1.26781 0.867991 1.2754C0.867791 1.27919 0.867481 1.28397 0.867005 1.28976C0.866766 1.29266 0.866486 1.29582 0.866156 1.29923C0.865991 1.30094 0.865814 1.30272 0.865623 1.30456C0.865528 1.30548 0.865429 1.30641 0.865327 1.30737C0.865276 1.30784 0.865197 1.30857 0.865171 1.30881C0.865091 1.30954 0.86501 1.31028 0.00190896 1.21484C-0.861192 1.11941 -0.861274 1.12016 -0.861357 1.12091C-0.861385 1.12117 -0.861466 1.12192 -0.861522 1.12244C-0.861632 1.12347 -0.861743 1.12453 -0.861855 1.1256C-0.862078 1.12775 -0.862303 1.13 -0.862528 1.13233C-0.862978 1.13699 -0.863429 1.14201 -0.863871 1.14738C-0.864754 1.15811 -0.865597 1.17024 -0.86631 1.18372C-0.867735 1.21068 -0.868639 1.24307 -0.868284 1.28046C-0.867573 1.35523 -0.86182 1.45019 -0.845028 1.56164C-0.811273 1.78567 -0.733422 2.07253 -0.566858 2.3909C-0.228386 3.03784 0.435397 3.7392 1.66058 4.32332L2.40799 2.75566ZM8.36719 5.12517C6.18563 4.31208 3.55768 3.30378 2.40799 2.75566L1.66058 4.32332C2.89469 4.9117 5.60443 5.94889 7.76065 6.75254L8.36719 5.12517ZM8.06392 5.07049H3.18711V6.80722H8.06392V5.07049ZM3.18711 5.07049C2.06809 5.07049 1.16094 5.97764 1.16094 7.09667H2.89766C2.89766 6.93681 3.02725 6.80722 3.18711 6.80722V5.07049ZM1.16094 7.09667V17.8429H2.89766V7.09667H1.16094ZM1.16094 17.8429C1.16094 18.962 2.06808 19.8691 3.18711 19.8691V18.1324C3.02725 18.1324 2.89766 18.0028 2.89766 17.8429H1.16094ZM3.18711 19.8691H15.8054V18.1324H3.18711V19.8691ZM15.8054 19.8691C16.9245 19.8691 17.8316 18.962 17.8316 17.8429H16.0949C16.0949 18.0028 15.9653 18.1324 15.8054 18.1324V19.8691ZM17.8316 17.8429V6.60133H16.0949V17.8429H17.8316Z" fill="#979797" mask="url(#path-1-inside-1_762_424)"/>
</g>
<g id="&#232;&#183;&#175;&#229;&#190;&#132;">
<mask id="path-3-inside-2_762_424" fill="white">
<path fill-rule="evenodd" clip-rule="evenodd" d="M0.50293 1.35858V0H18.4927V1.44879"/>
</mask>
<path d="M0.50293 0V-0.868361C0.023347 -0.868361 -0.365432 -0.479583 -0.365432 0L0.50293 0ZM18.4927 0H19.361C19.361 -0.479583 18.9723 -0.868361 18.4927 -0.868361V0ZM1.37129 1.35858V0H-0.365432V1.35858H1.37129ZM0.50293 0.868361H18.4927V-0.868361H0.50293V0.868361ZM17.6243 0V1.44879H19.361V0H17.6243Z" fill="#979797" mask="url(#path-3-inside-2_762_424)"/>
</g>
</g>
<g id="Group 1142813857">
<circle id="&#230;&#164;&#173;&#229;&#156;&#134;&#229;&#189;&#162;" cx="10" cy="13" r="4.71055" stroke="#979797" stroke-width="0.578907"/>
<circle id="&#230;&#164;&#173;&#229;&#156;&#134;&#229;&#189;&#162;_2" cx="10" cy="13" r="2.83555" stroke="#979797" stroke-width="0.578907"/>
<rect id="&#231;&#159;&#169;&#229;&#189;&#162;" x="9.66445" y="8.9125" width="0.671093" height="1.29609" fill="#D8D8D8" stroke="#979797" stroke-width="0.578907"/>
<rect id="&#231;&#159;&#169;&#229;&#189;&#162;&#229;&#164;&#135;&#228;&#187;&#189;" x="8.08845" y="15.0586" width="0.671093" height="1.29609" transform="rotate(36 8.08845 15.0586)" fill="#D8D8D8" stroke="#979797" stroke-width="0.578907"/>
<rect id="&#231;&#159;&#169;&#229;&#189;&#162;_2" x="13.781" y="11.4194" width="0.671093" height="1.29609" transform="rotate(72 13.781 11.4194)" fill="#D8D8D8" stroke="#979797" stroke-width="0.578907"/>
<rect id="&#231;&#159;&#169;&#229;&#189;&#162;&#229;&#164;&#135;&#228;&#187;&#189;_2" x="7.4507" y="11.8167" width="0.671093" height="1.29609" transform="rotate(108 7.4507 11.8167)" fill="#D8D8D8" stroke="#979797" stroke-width="0.578907"/>
<rect id="&#231;&#159;&#169;&#229;&#189;&#162;_3" x="12.6728" y="16.1078" width="0.671093" height="1.29609" transform="rotate(144 12.6728 16.1078)" fill="#D8D8D8" stroke="#979797" stroke-width="0.578907"/>
</g>
</g>
</svg>
