<svg width="20" height="20" viewBox="0 0 20 20" fill="none" xmlns="http://www.w3.org/2000/svg">
<g id="&#229;&#185;&#179;&#229;&#143;&#176;&#230;&#184;&#169;&#229;&#186;&#166;">
<path id="&#229;&#189;&#162;&#231;&#138;&#182;&#231;&#187;&#147;&#229;&#144;&#136;" d="M8.0001 9.24157L8.2888 9.6498L8.5001 9.50037V9.24157H8.0001ZM12.0001 9.24188H11.5001V9.50062L11.7113 9.65006L12.0001 9.24188ZM8.5001 3C8.5001 2.17157 9.17167 1.5 10.0001 1.5V0.5C8.61938 0.5 7.5001 1.61929 7.5001 3H8.5001ZM8.5001 9.24157V3H7.5001V9.24157H8.5001ZM6.99988 12.1548C6.99988 11.1159 7.51029 10.2004 8.2888 9.6498L7.71139 8.83335C6.67617 9.56548 5.99988 10.7813 5.99988 12.1548H6.99988ZM9.99988 15.2041C8.34959 15.2041 6.99988 13.8455 6.99988 12.1548H5.99988C5.99988 14.3846 7.78417 16.2041 9.99988 16.2041V15.2041ZM12.9999 12.1548C12.9999 13.8455 11.6502 15.2041 9.99988 15.2041V16.2041C12.2156 16.2041 13.9999 14.3846 13.9999 12.1548H12.9999ZM11.7113 9.65006C12.4896 10.2007 12.9999 11.1161 12.9999 12.1548H13.9999C13.9999 10.7815 13.3238 9.56587 12.2889 8.8337L11.7113 9.65006ZM11.5001 3V9.24188H12.5001V3H11.5001ZM10.0001 1.5C10.8285 1.5 11.5001 2.17157 11.5001 3H12.5001C12.5001 1.61929 11.3808 0.5 10.0001 0.5V1.5Z" fill="#999999"/>
<path id="&#229;&#189;&#162;&#231;&#138;&#182;&#231;&#187;&#147;&#229;&#144;&#136;_2" fill-rule="evenodd" clip-rule="evenodd" d="M9.99997 7.5918C9.72382 7.5918 9.49997 7.81565 9.49997 8.0918V10.7211C8.91748 10.93 8.50018 11.4934 8.50018 12.1556C8.50018 12.9957 9.17176 13.6767 10.0002 13.6767C10.8286 13.6767 11.5002 12.9957 11.5002 12.1556C11.5002 11.4932 11.0827 10.9297 10.5 10.7209V8.0918C10.5 7.81565 10.2761 7.5918 9.99997 7.5918Z" fill="#999999"/>
<path id="&#232;&#183;&#175;&#229;&#190;&#132; 6" d="M13.5005 2.01329H14.9108" stroke="#999999" stroke-linecap="round" stroke-linejoin="round"/>
<path id="&#232;&#183;&#175;&#229;&#190;&#132; 6&#229;&#164;&#135;&#228;&#187;&#189;" d="M13.5005 3.53477H14.0005" stroke="#999999" stroke-linecap="round" stroke-linejoin="round"/>
<path id="&#232;&#183;&#175;&#229;&#190;&#132; 6&#229;&#164;&#135;&#228;&#187;&#189; 2" d="M13.5005 5.05625H14.9108" stroke="#999999" stroke-linecap="round" stroke-linejoin="round"/>
<path id="&#232;&#183;&#175;&#229;&#190;&#132; 6&#229;&#164;&#135;&#228;&#187;&#189; 3" d="M13.5005 6.57774H14.0005" stroke="#999999" stroke-linecap="round" stroke-linejoin="round"/>
<path id="&#232;&#183;&#175;&#229;&#190;&#132; 6&#229;&#164;&#135;&#228;&#187;&#189; 4" d="M13.5005 8.09922H14.9108" stroke="#999999" stroke-linecap="round" stroke-linejoin="round"/>
<path id="&#232;&#183;&#175;&#229;&#190;&#132; 8" d="M5.05744 13.1699H3.4L1 17.2262H19L16.6 13.1699H14.9103" stroke="#999999" stroke-linecap="round" stroke-linejoin="round"/>
<path id="&#232;&#183;&#175;&#229;&#190;&#132; 9" d="M1 18.7457H19" stroke="#999999" stroke-linecap="round" stroke-linejoin="round"/>
</g>
</svg>
