<svg width="16" height="16" viewBox="0 0 16 16" fill="none" xmlns="http://www.w3.org/2000/svg">
<path d="M6.07991 7.50709H1.37971C1.01379 7.50709 0.662852 7.3608 0.404107 7.10041C0.145362 6.84002 0 6.48685 0 6.1186L0 1.38849C0 1.02024 0.145362 0.66707 0.404107 0.406678C0.662852 0.146287 1.01379 0 1.37971 0L6.07991 0C6.44583 0 6.79676 0.146287 7.05551 0.406678C7.31425 0.66707 7.45962 1.02024 7.45962 1.38849V6.1186C7.45962 6.48685 7.31425 6.84002 7.05551 7.10041C6.79676 7.3608 6.44583 7.50709 6.07991 7.50709ZM1.37971 0.925658C1.25773 0.925658 1.14076 0.97442 1.05451 1.06122C0.968258 1.14801 0.919805 1.26574 0.919805 1.38849V6.1186C0.919805 6.24135 0.968258 6.35907 1.05451 6.44587C1.14076 6.53267 1.25773 6.58143 1.37971 6.58143H6.07991C6.20188 6.58143 6.31886 6.53267 6.40511 6.44587C6.49136 6.35907 6.53981 6.24135 6.53981 6.1186V1.38849C6.53981 1.26574 6.49136 1.14801 6.40511 1.06122C6.31886 0.97442 6.20188 0.925658 6.07991 0.925658H1.37971ZM14.6203 7.50709H9.92009C9.73891 7.50709 9.5595 7.47117 9.3921 7.40139C9.22471 7.33162 9.07261 7.22934 8.94449 7.10041C8.81637 6.97148 8.71475 6.81841 8.64541 6.64995C8.57607 6.48149 8.54039 6.30094 8.54039 6.1186V1.38849C8.54039 1.20615 8.57607 1.0256 8.64541 0.857136C8.71475 0.688677 8.81637 0.535611 8.94449 0.406678C9.07261 0.277746 9.22471 0.17547 9.3921 0.105692C9.5595 0.0359143 9.73891 -2.0519e-09 9.92009 0L14.6203 0C14.9862 0 15.3371 0.146287 15.5959 0.406678C15.8546 0.66707 16 1.02024 16 1.38849V6.1186C16 6.48685 15.8546 6.84002 15.5959 7.10041C15.3371 7.3608 14.9862 7.50709 14.6203 7.50709ZM9.92009 0.925658C9.79812 0.925658 9.68114 0.97442 9.59489 1.06122C9.50864 1.14801 9.46019 1.26574 9.46019 1.38849V6.1186C9.46019 6.24135 9.50864 6.35907 9.59489 6.44587C9.68114 6.53267 9.79812 6.58143 9.92009 6.58143H14.6203C14.7423 6.58143 14.8592 6.53267 14.9455 6.44587C15.0317 6.35907 15.0802 6.24135 15.0802 6.1186V1.38849C15.0802 1.26574 15.0317 1.14801 14.9455 1.06122C14.8592 0.97442 14.7423 0.925658 14.6203 0.925658H9.92009ZM14.6203 15.9352H9.92009C9.73891 15.9352 9.5595 15.8993 9.3921 15.8295C9.22471 15.7597 9.07261 15.6575 8.94449 15.5285C8.81637 15.3996 8.71475 15.2465 8.64541 15.0781C8.57607 14.9096 8.54039 14.7291 8.54039 14.5467V9.8166C8.54039 9.63426 8.57607 9.45371 8.64541 9.28525C8.71475 9.11679 8.81637 8.96373 8.94449 8.83479C9.07261 8.70586 9.22471 8.60359 9.3921 8.53381C9.5595 8.46403 9.73891 8.42812 9.92009 8.42812H14.6203C14.9862 8.42812 15.3371 8.5744 15.5959 8.83479C15.8546 9.09519 16 9.44835 16 9.8166V14.5467C16 14.915 15.8546 15.2681 15.5959 15.5285C15.3371 15.7889 14.9862 15.9352 14.6203 15.9352ZM9.92009 9.35378C9.79812 9.35378 9.68114 9.40254 9.59489 9.48933C9.50864 9.57613 9.46019 9.69385 9.46019 9.8166V14.5467C9.46019 14.6695 9.50864 14.7872 9.59489 14.874C9.68114 14.9608 9.79812 15.0095 9.92009 15.0095H14.6203C14.7423 15.0095 14.8592 14.9608 14.9455 14.874C15.0317 14.7872 15.0802 14.6695 15.0802 14.5467V9.8166C15.0802 9.69385 15.0317 9.57613 14.9455 9.48933C14.8592 9.40254 14.7423 9.35378 14.6203 9.35378H9.92009ZM6.07991 16H1.37971C1.01379 16 0.662852 15.8537 0.404107 15.5933C0.145362 15.3329 0 14.9798 0 14.6115L0 9.8814C0 9.51315 0.145362 9.15998 0.404107 8.89959C0.662852 8.6392 1.01379 8.49291 1.37971 8.49291H6.07991C6.44583 8.49291 6.79676 8.6392 7.05551 8.89959C7.31425 9.15998 7.45962 9.51315 7.45962 9.8814V14.6115C7.45962 14.9798 7.31425 15.3329 7.05551 15.5933C6.79676 15.8537 6.44583 16 6.07991 16ZM1.37971 9.41857C1.25773 9.41857 1.14076 9.46733 1.05451 9.55413C0.968258 9.64093 0.919805 9.75865 0.919805 9.8814V14.6115C0.919805 14.7343 0.968258 14.852 1.05451 14.9388C1.14076 15.0256 1.25773 15.0743 1.37971 15.0743H6.07991C6.20188 15.0743 6.31886 15.0256 6.40511 14.9388C6.49136 14.852 6.53981 14.7343 6.53981 14.6115V9.8814C6.53981 9.75865 6.49136 9.64093 6.40511 9.55413C6.31886 9.46733 6.20188 9.41857 6.07991 9.41857H1.37971Z" fill="#328DFB"/>
</svg>
