<svg width="20" height="20" viewBox="0 0 20 20" fill="none" xmlns="http://www.w3.org/2000/svg">
<g id="&#231;&#188;&#150;&#231;&#187;&#132;">
<path id="&#229;&#189;&#162;&#231;&#138;&#182;" fill-rule="evenodd" clip-rule="evenodd" d="M13.5342 18.5408H18.5408C18.7633 18.5408 18.9439 18.7214 18.9439 18.9439C18.9439 19.1663 18.7633 19.3469 18.5408 19.3469H10.0765C10.048 19.3469 10.0228 19.3362 9.99591 19.3308C9.88789 19.334 9.78255 19.3469 9.67346 19.3469C4.33102 19.3469 0 15.0159 0 9.67346C0 4.33102 4.33102 0 9.67346 0C15.0159 0 19.3469 4.33102 19.3469 9.67346C19.3469 13.6428 16.9538 17.0495 13.5342 18.5408ZM12.9598 14.0691L14.4559 15.5652C14.8101 15.9194 15.3846 15.9194 15.7388 15.5652C16.0929 15.2111 16.0929 14.6371 15.7388 14.283L14.2426 12.7868C13.8884 12.4326 13.3139 12.4326 12.9598 12.7868C12.6056 13.141 12.6056 13.7149 12.9598 14.0691ZM8.76634 17.1307C8.76634 17.6316 9.17262 18.0379 9.67349 18.0379C10.1744 18.0379 10.5801 17.6316 10.5801 17.1307V15.0149C10.5801 14.5135 10.1744 14.1078 9.67349 14.1078C9.17262 14.1078 8.76634 14.5135 8.76634 15.0149V17.1307ZM3.83932 15.4921C4.19347 15.8462 4.76797 15.8462 5.12213 15.4921L6.61829 13.9959C6.97244 13.6418 6.97244 13.0673 6.61829 12.7131C6.26413 12.359 5.69017 12.359 5.33602 12.7131L3.83932 14.2098C3.48516 14.564 3.48516 15.1379 3.83932 15.4921ZM2.41852 8.76657C1.91765 8.76657 1.51136 9.17286 1.51136 9.67373C1.51136 10.1746 1.91765 10.5809 2.41852 10.5809H4.53432C5.03519 10.5809 5.44147 10.1746 5.44147 9.67373C5.44147 9.17286 5.03519 8.76657 4.53432 8.76657H2.41852ZM6.75845 5.30525L5.26229 3.80909C4.90814 3.45493 4.33364 3.45493 3.97948 3.80909C3.62533 4.16324 3.62533 4.7372 3.97948 5.09136L5.47618 6.58752C5.83034 6.94168 6.4043 6.94168 6.75845 6.58752C7.11261 6.23336 7.11261 5.65941 6.75845 5.30525ZM10.5792 2.31135C10.5792 1.81048 10.1729 1.40473 9.67201 1.40473C9.17114 1.40473 8.76539 1.81048 8.76539 2.31135V4.42769C8.76539 4.92856 9.17114 5.3343 9.67201 5.3343C10.1729 5.3343 10.5792 4.92856 10.5792 4.42769V2.31135ZM9.67354 6.44882C7.89255 6.44882 6.44905 7.89231 6.44905 9.6733C6.44905 11.4543 7.89255 12.8978 9.67354 12.8978C11.4545 12.8978 12.898 11.4543 12.898 9.6733C12.898 7.89231 11.4545 6.44882 9.67354 6.44882ZM15.5962 3.73257C15.2421 3.37841 14.6676 3.37841 14.3134 3.73257L12.8173 5.22927C12.4631 5.58342 12.4631 6.15738 12.8173 6.51154C13.1714 6.8657 13.7459 6.8657 14.1001 6.51154L15.5962 5.01538C15.9504 4.66122 15.9504 4.08726 15.5962 3.73257ZM17.2327 8.76468H15.1169C14.6161 8.76468 14.2098 9.17043 14.2098 9.6713C14.2098 10.1722 14.6161 10.5785 15.1169 10.5785H17.2327C17.7336 10.5785 18.1394 10.1722 18.1394 9.6713C18.1394 9.17043 17.7336 8.76468 17.2327 8.76468Z" fill="#8EA2BF"/>
</g>
</svg>
