<svg width="26" height="26" viewBox="0 0 26 26" fill="none" xmlns="http://www.w3.org/2000/svg">
<g id="&#231;&#188;&#150;&#231;&#187;&#132;">
<rect id="&#231;&#159;&#169;&#229;&#189;&#162;&#229;&#164;&#135;&#228;&#187;&#189; 3" x="0.51123" y="0.0722656" width="25.4776" height="25.4776" rx="12.7388" fill="#328DFB"/>
<path id="&#231;&#159;&#169;&#229;&#189;&#162;" fill-rule="evenodd" clip-rule="evenodd" d="M5.74097 12.8115C5.74097 12.1907 6.2442 11.6875 6.86498 11.6875L19.6038 11.6875C20.2246 11.6875 20.7278 12.1907 20.7278 12.8115C20.7278 13.4323 20.2246 13.9355 19.6038 13.9355L6.86498 13.9355C6.2442 13.9355 5.74097 13.4323 5.74097 12.8115Z" fill="white"/>
<path id="&#231;&#159;&#169;&#229;&#189;&#162;_2" fill-rule="evenodd" clip-rule="evenodd" d="M13.2346 5.31641C13.8554 5.31641 14.3586 5.81964 14.3586 6.44042L14.3586 19.1792C14.3586 19.8 13.8554 20.3032 13.2346 20.3032C12.6139 20.3032 12.1106 19.8 12.1106 19.1792L12.1106 6.44042C12.1106 5.81964 12.6139 5.31641 13.2346 5.31641Z" fill="white"/>
</g>
</svg>
