<svg xmlns="http://www.w3.org/2000/svg" xmlns:xlink="http://www.w3.org/1999/xlink" fill="none" version="1.1" width="18" height="18" viewBox="0 0 18 18"><defs><clipPath id="master_svg0_25_06487"><rect x="0" y="0" width="18" height="18" rx="0"/></clipPath></defs><g clip-path="url(#master_svg0_25_06487)"><g><path d="M15.090798515625,11.0287875C15.590598515625,11.3868875,15.981298515625,11.8436875,16.263098515625,12.3990875C16.544698515625,12.9541875,16.685498515625,13.5448375,16.685498515625,14.1709375C16.685498515625,15.2277375,16.322398515625,16.1301375,15.596298515625,16.8776375C14.869298515625001,17.626237500000002,13.991498515625,18.0005375,12.962998515625,18.0005375C11.934398515625,18.0005375,11.056598515625,17.626237500000002,10.329598515625,16.8776375C9.603528515625,16.1301375,9.240478515625,15.2277375,9.240478515625,14.1709375C9.240478515625,13.5451375,9.381177515625,12.9546875,9.662588515625,12.3996875C9.944177515625,11.8443875,10.334698515625,11.3876875,10.834098515625,11.0294875L11.100098515625,11.4172875L10.636898515624999,11.4172875L10.636898515624999,5.5266375C10.636898515624999,4.8699075,10.863898515625,4.3093675000000005,11.317998515625,3.8449975C11.772198515625,3.3806275,12.320298515625,3.1484375,12.962498515625,3.1484375C13.604798515625,3.1484375,14.152898515625001,3.3806275,14.607098515625001,3.8449975C15.061198515625,4.3093675000000005,15.288198515625,4.8699075,15.288198515625,5.5266375L15.288198515625,11.4166875L14.824998515625001,11.4166875L15.090798515625,11.0287875ZM14.361698515625001,11.6631875L14.361698515625001,5.5266375C14.361698515625001,5.1315475,14.225098515625,4.7943175,13.951898515625,4.5149574999999995C13.678698515625001,4.2355875,13.348898515624999,4.0959075,12.962498515625,4.0959075C12.576198515625,4.0959075,12.246398515625,4.2355875,11.973198515625,4.5149574999999995C11.699998515625,4.7943175,11.563398515625,5.1315475,11.563398515625,5.5266375L11.563398515625,11.6636875L11.366098515625,11.8051875C10.566698515625,12.3784875,10.166997515625,13.1671375,10.166997515625,14.1709375C10.166997515625,14.9675375,10.440398515625,15.6471375,10.987098515625,16.210137500000002C11.532898515625,16.7721375,12.191498515625,17.0531375,12.962998515625,17.0531375C13.734398515625,17.0531375,14.393098515624999,16.7721375,14.938898515624999,16.210137500000002C15.485598515625,15.6471375,15.758898515624999,14.9675375,15.758898515624999,14.1709375C15.758898515624999,13.1667375,15.358998515625,12.3778875,14.559098515625,11.8045875L14.361698515625001,11.6631875Z" fill="#999999" fill-opacity="1"/></g><g><path d="M13.42972041015625,12.809408125000001C13.49752041015625,12.834008125,13.56302041015625,12.863808125,13.62632041015625,12.898808125C13.68952041015625,12.933808124999999,13.74982041015625,12.973608125,13.80712041015625,13.018208125000001C13.86452041015625,13.062808125,13.91812041015625,13.111608125,13.96812041015625,13.164708125C14.01812041015625,13.217808125000001,14.06382041015625,13.274608125,14.10532041015625,13.334908125C14.14682041015625,13.395308125,14.18362041015625,13.458608125,14.21562041015625,13.524808125C14.24762041015625,13.591008125,14.27452041015625,13.659408124999999,14.29632041015625,13.729808125C14.318020410156251,13.800308125,14.33442041015625,13.872108125,14.34552041015625,13.945208125C14.35652041015625,14.018308125,14.36202041015625,14.091808125,14.36202041015625,14.165808125C14.36202041015625,14.212908125,14.35972041015625,14.259908125,14.35532041015625,14.306708125C14.350820410156249,14.353608125,14.34412041015625,14.400108125,14.33512041015625,14.446308125C14.32622041015625,14.492508125,14.31512041015625,14.538208125,14.30182041015625,14.583308125C14.28862041015625,14.628308125,14.27322041015625,14.672608125,14.25572041015625,14.716108125C14.23812041015625,14.759708125,14.21862041015625,14.802208125,14.19702041015625,14.843708125C14.175520410156249,14.885308125,14.15202041015625,14.925608125,14.12662041015625,14.964808125C14.10122041015625,15.004008125,14.07392041015625,15.041708125,14.04492041015625,15.078208125C14.01592041015625,15.114608125,13.98522041015625,15.149408125,13.95292041015625,15.182708125C13.92052041015625,15.216008125,13.88672041015625,15.247608125,13.85132041015625,15.277508125C13.81592041015625,15.307408125,13.779220410156249,15.335408125,13.74122041015625,15.361608125C13.70322041015625,15.387808125,13.664020410156251,15.411908125,13.62362041015625,15.434208125C13.58332041015625,15.456408125,13.54202041015625,15.476508125,13.49972041015625,15.494508125C13.45742041015625,15.512508125,13.41442041015625,15.528408125,13.37062041015625,15.542108125C13.32692041015625,15.555708125,13.28252041015625,15.567108125,13.23772041015625,15.576408125C13.19282041015625,15.585508125,13.14762041015625,15.592408125,13.10212041015625,15.597008125C13.056620410156249,15.601608125,13.010920410156249,15.603908125,12.96522041015625,15.603908125C12.919420410156249,15.603908125,12.87382041015625,15.601608125,12.82832041015625,15.597008125C12.78272041015625,15.592408125,12.73752041015625,15.585508125,12.69272041015625,15.576408125C12.64782041015625,15.567108125,12.60352041015625,15.555708125,12.55972041015625,15.542108125C12.51591941015625,15.528408125,12.47292041015625,15.512508125,12.43062041015625,15.494508125C12.38842041015625,15.476508125,12.34712041015625,15.456408125,12.30671941015625,15.434208125C12.26642041015625,15.411908125,12.22721941015625,15.387808125,12.18912041015625,15.361608125C12.151120410156249,15.335408125,12.11442041015625,15.307408125,12.07902041015625,15.277508125C12.04372041015625,15.247608125,12.00982041015625,15.216008125,11.97752041015625,15.182708125C11.94511941015625,15.149408125,11.91442041015625,15.114608125,11.88541941015625,15.078208125C11.85641941015625,15.041708125,11.82921941015625,15.004008125,11.80381941015625,14.964808125C11.77832041015625,14.925608125,11.75492041015625,14.885308125,11.73332041015625,14.843708125C11.71172041015625,14.802208125,11.69221941015625,14.759708125,11.67471941015625,14.716108125C11.65721991015625,14.672608125,11.64182001015625,14.628308125,11.62852001015625,14.583308125C11.61522011015625,14.538208125,11.60412021015625,14.492508125,11.59521961015625,14.446308125C11.58631991015625,14.400108125,11.57962041015625,14.353608125,11.57511997015625,14.306708125C11.57061958015625,14.259908125,11.56842041015625,14.212908125,11.56842041015625,14.165808125C11.56842041015625,14.091908125,11.57392025015625,14.018508125,11.58481981015625,13.945508125C11.59582041015625,13.872508125,11.61221981015625,13.800808125,11.63391971015625,13.730408125C11.65561961015625,13.660008125000001,11.68241941015625,13.591708125,11.71442041015625,13.525608125C11.74631941015625,13.459408125,11.78302041015625,13.396208125000001,11.82442041015625,13.335908125C11.86582041015625,13.275508125,11.91141941015625,13.218808124999999,11.961320410156251,13.165808125C12.01122041015625,13.112708125000001,12.06472041015625,13.063808125000001,12.12191941015625,13.019208124999999C12.17912041015625,12.974608125,12.23921941015625,12.934808125,12.30241941015625,12.899808125C12.36552041015625,12.864708125,12.43091941015625,12.834908125,12.49852041015625,12.810208124999999L12.49852041015625,6.493688125C12.49852041015625,6.462428125,12.50152041015625,6.431468125,12.50751941015625,6.400808125C12.51342041015625,6.370148125,12.52232041015625,6.340368125,12.53402041015625,6.311488125C12.54572041015625,6.282608125,12.56002041015625,6.255168125,12.57702041015625,6.229178125C12.59402041015625,6.203178125,12.61332041015625,6.179128125,12.63492041015625,6.157028125C12.65652041015625,6.134918125,12.68002041015625,6.115178125,12.70542041015625,6.097817925C12.73092041015625,6.080447725,12.75772041015625,6.065777825,12.78592041015625,6.053817725C12.81422041015625,6.041857725,12.84332041015625,6.032817825,12.87332041015625,6.026718135C12.90332041015625,6.020627975,12.93362041015625,6.017578125,12.96412041015625,6.017578125C12.99472041015625,6.017578125,13.02502041015625,6.020627975,13.05502041015625,6.026718135C13.08492041015625,6.032817825,13.11412041015625,6.041857725,13.14232041015625,6.053817725C13.17062041015625,6.065777825,13.19742041015625,6.080447725,13.22282041015625,6.097817925C13.24822041015625,6.115178125,13.27172041015625,6.134918125,13.29342041015625,6.157028125C13.31502041015625,6.179128125,13.33432041015625,6.203178125,13.35132041015625,6.229178125C13.36822041015625,6.255168125,13.38262041015625,6.282608125,13.39432041015625,6.311488125C13.40602041015625,6.340368125,13.41482041015625,6.370148125,13.42082041015625,6.400808125C13.42672041015625,6.431468125,13.42972041015625,6.462428125,13.42972041015625,6.493688125L13.42972041015625,12.809408125000001Z" fill-rule="evenodd" fill="#999999" fill-opacity="1"/></g><g><path d="M15.76031494140625,4.581151875C15.76031494140625,4.842781875,15.96771494140625,5.0548818749999995,16.22351494140625,5.0548818749999995L17.53681494140625,5.0548818749999995C17.79261494140625,5.0548818749999995,18.00011494140625,4.842781875,18.00011494140625,4.581151875C18.00011494140625,4.319511875,17.79261494140625,4.107421875,17.53681494140625,4.107421875L16.22351494140625,4.107421875C15.96771494140625,4.107421875,15.76031494140625,4.319511875,15.76031494140625,4.581151875Z" fill="#999999" fill-opacity="1"/></g><g><path d="M15.76031494140625,6.018651875C15.76031494140625,6.280291875,15.96771494140625,6.492391875,16.22351494140625,6.492391875L16.68911594140625,6.492391875C16.94501494140625,6.492391875,17.15241494140625,6.280291875,17.15241494140625,6.018651875C17.15241494140625,5.757021875,16.94501494140625,5.544921875,16.68911594140625,5.544921875L16.22351494140625,5.544921875C15.96771494140625,5.544921875,15.76031494140625,5.757021875,15.76031494140625,6.018651875Z" fill="#999999" fill-opacity="1"/></g><g><path d="M15.76031494140625,7.458105C15.76031494140625,7.719745,15.96771494140625,7.9318349999999995,16.22351494140625,7.9318349999999995L17.53681494140625,7.9318349999999995C17.79261494140625,7.9318349999999995,18.00011494140625,7.719745,18.00011494140625,7.458105C18.00011494140625,7.196475,17.79261494140625,6.984375,17.53681494140625,6.984375L16.22351494140625,6.984375C15.96771494140625,6.984375,15.76031494140625,7.196475,15.76031494140625,7.458105Z" fill="#999999" fill-opacity="1"/></g><g><path d="M15.76031494140625,8.893651875C15.76031494140625,9.155291875,15.96771494140625,9.367391875,16.22351494140625,9.367391875L16.68911594140625,9.367391875C16.94501494140625,9.367391875,17.15241494140625,9.155291875,17.15241494140625,8.893651875C17.15241494140625,8.632021875,16.94501494140625,8.419921875,16.68911594140625,8.419921875L16.22351494140625,8.419921875C15.96771494140625,8.419921875,15.76031494140625,8.632021875,15.76031494140625,8.893651875Z" fill="#999999" fill-opacity="1"/></g><g><path d="M15.76031494140625,10.333096C15.76031494140625,10.594695,15.96771494140625,10.806795,16.22351494140625,10.806795L17.53681494140625,10.806795C17.79261494140625,10.806795,18.00011494140625,10.594695,18.00011494140625,10.333096C18.00011494140625,10.071495,17.79261494140625,9.859375,17.53681494140625,9.859375L16.22351494140625,9.859375C15.96771494140625,9.859375,15.76031494140625,10.071495,15.76031494140625,10.333096Z" fill="#999999" fill-opacity="1"/></g><g><path d="M0.1640625,0.710599C0.1640625,1.10305,0.4751835,1.4212,0.8589725,1.4212L12.0334625,1.4212C12.4172625,1.4212,12.7283625,1.10305,12.7283625,0.710599C12.7283625,0.318146,12.4172625,0,12.0334625,0L0.8589725,0C0.4751835,0,0.1640625,0.318146,0.1640625,0.710599Z" fill="#999999" fill-opacity="1"/></g><g><path d="M9.771125546875,0.470703125L3.252685546875,0.470703125L3.252685546875,5.744163125L5.639895546875,5.744163125L6.445385546875,7.047453125L7.250885546875001,5.744163125L9.771125546875,5.744163125L9.771125546875,0.470703125Z" fill-rule="evenodd" fill="#999999" fill-opacity="1"/></g><g><path d="M2.32398,16.357134375L1.30356,14.776834375L1.27406,14.776834375L0.772694,14.776834375L0.772694,16.357134375L0,16.357134375L0,12.171234375L1.27406,12.171234375C1.54932,12.171234375,1.78723,12.194334375,1.98777,12.240533375C2.18832,12.286833375,2.35151,12.361233375,2.47734,12.463733375C2.60317,12.566233375,2.69657,12.699934375,2.75752,12.864834375000001C2.81847,13.029734375,2.84894,13.230734375,2.84894,13.468034375C2.84894,13.821834375,2.78504,14.094234375,2.65724,14.285234375C2.52944,14.476234375,2.32988,14.609934375,2.05855,14.686334375L3.23234,16.357134375L2.32398,16.357134375ZM1.16789,14.173734375C1.33305,14.173734375,1.47264,14.164634375,1.58668,14.146534375C1.70071,14.128434375,1.7941,14.094234375,1.86685,14.044034374999999C1.9396,13.993734374999999,1.99269,13.922334375,2.02611,13.829834375C2.05954,13.737434375,2.07625,13.616734375,2.07625,13.468034375C2.07625,13.331234375,2.05954,13.220734375,2.02611,13.136234375C1.99269,13.051834375,1.9396,12.985433375,1.86685,12.937234375C1.7941,12.888934375,1.70071,12.855733375,1.58668,12.837734375C1.47264,12.819633375,1.33305,12.810533375,1.16789,12.810533375L0.772694,12.810533375L0.772694,14.173734375L1.16789,14.173734375ZM5.2673,11.990234375L5.83355,11.990234375L4.24097,16.538034375L3.67473,16.538034375L5.2673,11.990234375ZM7.80953,12.864834375000001L6.80089,13.063834375L6.80089,12.424533375L8.02186,12.171234375L8.56452,12.171234375L8.56452,16.357134375L7.80953,16.357134375L7.80953,12.864834375000001Z" fill="#999999" fill-opacity="1"/></g></g></svg>