<svg width="21" height="21" viewBox="0 0 21 21" fill="none" xmlns="http://www.w3.org/2000/svg">
<g id="Group 1142813843">
<g id="Group 1142813576">
<rect id="&#231;&#159;&#169;&#229;&#189;&#162;" x="1" y="1" width="18.9998" height="18.8981" rx="2.31563" stroke="#8EA2BF" stroke-width="0.984143"/>
<path id="&#229;&#164;&#154;&#232;&#190;&#185;&#229;&#189;&#162;&#229;&#164;&#135;&#228;&#187;&#189;" fill-rule="evenodd" clip-rule="evenodd" d="M1 3.28606L2.43475 1.12956L3.03766 1V3.28606L1.2317 4.6577L1 3.28606Z" stroke="#8EA2BF" stroke-width="0.578907"/>
<path id="&#229;&#164;&#154;&#232;&#190;&#185;&#229;&#189;&#162;&#229;&#164;&#135;&#228;&#187;&#189; 13" fill-rule="evenodd" clip-rule="evenodd" d="M1.23242 7.70312L3.03838 9.07476V11.818L1.23242 13.1897V7.70312Z" stroke="#8EA2BF" stroke-width="0.578907"/>
<path id="&#229;&#164;&#154;&#232;&#190;&#185;&#229;&#189;&#162;&#229;&#164;&#135;&#228;&#187;&#189; 25" fill-rule="evenodd" clip-rule="evenodd" d="M1.2317 16.2422L3.03766 17.6138V19.8999H2.45037L1 17.6138L1.2317 16.2422Z" stroke="#8EA2BF" stroke-width="0.578907"/>
<path id="&#229;&#164;&#154;&#232;&#190;&#185;&#229;&#189;&#162;&#229;&#164;&#135;&#228;&#187;&#189; 3" fill-rule="evenodd" clip-rule="evenodd" d="M8.6466 1L10.4526 1V3.28606L8.6466 4.6577L6.84065 3.28606L6.79297 1H8.6466Z" stroke="#8EA2BF" stroke-width="0.578907"/>
<path id="&#229;&#164;&#154;&#232;&#190;&#185;&#229;&#189;&#162;&#229;&#164;&#135;&#228;&#187;&#189; 8" fill-rule="evenodd" clip-rule="evenodd" d="M6.79237 3.43555L8.59833 4.80718V7.55045L6.79237 8.92209L4.98641 7.55045V4.80718L6.79237 3.43555Z" stroke="#8EA2BF" stroke-width="0.578907"/>
<path id="&#229;&#164;&#154;&#232;&#190;&#185;&#229;&#189;&#162;&#229;&#164;&#135;&#228;&#187;&#189; 14" fill-rule="evenodd" clip-rule="evenodd" d="M8.64589 7.70312L10.4518 9.07476V11.818L8.64589 13.1897L6.83993 11.818V9.07476L8.64589 7.70312Z" stroke="#8EA2BF" stroke-width="0.578907"/>
<path id="&#229;&#164;&#154;&#232;&#190;&#185;&#229;&#189;&#162;&#229;&#164;&#135;&#228;&#187;&#189; 20" fill-rule="evenodd" clip-rule="evenodd" d="M6.79237 11.9746L8.59833 13.3462V16.0895L6.79237 17.4612L4.98641 16.0895V13.3462L6.79237 11.9746Z" stroke="#8EA2BF" stroke-width="0.578907"/>
<path id="&#229;&#164;&#154;&#232;&#190;&#185;&#229;&#189;&#162;&#229;&#164;&#135;&#228;&#187;&#189; 26" fill-rule="evenodd" clip-rule="evenodd" d="M8.64643 16.2422L10.4524 17.6138V19.8999H8.64643H6.74512L6.84047 17.6138L8.64643 16.2422Z" stroke="#8EA2BF" stroke-width="0.578907"/>
<path id="&#229;&#164;&#154;&#232;&#190;&#185;&#229;&#189;&#162;&#229;&#164;&#135;&#228;&#187;&#189; 5" fill-rule="evenodd" clip-rule="evenodd" d="M16.0607 1H17.8666V3.28606L16.0607 4.6577L14.2547 3.28606L14.207 1L16.0607 1Z" stroke="#8EA2BF" stroke-width="0.578907"/>
<path id="&#229;&#164;&#154;&#232;&#190;&#185;&#229;&#189;&#162;&#229;&#164;&#135;&#228;&#187;&#189; 9" fill-rule="evenodd" clip-rule="evenodd" d="M14.2074 3.43555L16.0134 4.80718V7.55045L14.2074 8.92209L12.4015 7.55045V4.80718L14.2074 3.43555Z" stroke="#8EA2BF" stroke-width="0.578907"/>
<path id="&#229;&#164;&#154;&#232;&#190;&#185;&#229;&#189;&#162;&#229;&#164;&#135;&#228;&#187;&#189; 15" fill-rule="evenodd" clip-rule="evenodd" d="M16.0609 7.70312L17.8669 9.07476V11.818L16.0609 13.1897L14.255 11.818V9.07476L16.0609 7.70312Z" stroke="#8EA2BF" stroke-width="0.578907"/>
<path id="&#229;&#164;&#154;&#232;&#190;&#185;&#229;&#189;&#162;&#229;&#164;&#135;&#228;&#187;&#189; 21" fill-rule="evenodd" clip-rule="evenodd" d="M14.2074 11.9746L16.0134 13.3462V16.0895L14.2074 17.4612L12.4015 16.0895V13.3462L14.2074 11.9746Z" stroke="#8EA2BF" stroke-width="0.578907"/>
<path id="&#229;&#164;&#154;&#232;&#190;&#185;&#229;&#189;&#162;&#229;&#164;&#135;&#228;&#187;&#189; 27" fill-rule="evenodd" clip-rule="evenodd" d="M16.0608 16.2422L17.8668 17.6138V19.8999H16.0608H14.2549V17.6138L16.0608 16.2422Z" stroke="#8EA2BF" stroke-width="0.578907"/>
<path id="&#229;&#164;&#154;&#232;&#190;&#185;&#229;&#189;&#162;&#229;&#164;&#135;&#228;&#187;&#189; 6" d="M19.7679 4.6577L17.9619 3.28606V1L18.1459 1" stroke="#8EA2BF" stroke-width="0.578907"/>
<path id="&#229;&#164;&#154;&#232;&#190;&#185;&#229;&#189;&#162;&#229;&#164;&#135;&#228;&#187;&#189; 10" fill-rule="evenodd" clip-rule="evenodd" d="M17.9144 3.43555L19.7204 4.80718V7.55045L17.9144 8.92209L16.1085 7.55045V4.80718L17.9144 3.43555Z" stroke="#8EA2BF" stroke-width="0.578907"/>
<path id="&#229;&#164;&#154;&#232;&#190;&#185;&#229;&#189;&#162;&#229;&#164;&#135;&#228;&#187;&#189; 16" fill-rule="evenodd" clip-rule="evenodd" d="M19.7679 7.70312V13.1897L17.9619 11.818V9.07476L19.7679 7.70312Z" stroke="#8EA2BF" stroke-width="0.578907"/>
<path id="&#229;&#164;&#154;&#232;&#190;&#185;&#229;&#189;&#162;&#229;&#164;&#135;&#228;&#187;&#189; 22" fill-rule="evenodd" clip-rule="evenodd" d="M17.9144 11.9746L19.7204 13.3462V16.0895L17.9144 17.4612L16.1085 16.0895V13.3462L17.9144 11.9746Z" stroke="#8EA2BF" stroke-width="0.578907"/>
<path id="&#229;&#164;&#154;&#232;&#190;&#185;&#229;&#189;&#162;&#229;&#164;&#135;&#228;&#187;&#189; 28" fill-rule="evenodd" clip-rule="evenodd" d="M19.7685 16.2422L20.0002 17.4614L18.5524 19.7246H17.8672L17.9625 17.6138L19.7685 16.2422Z" stroke="#8EA2BF" stroke-width="0.578907"/>
<path id="&#229;&#164;&#154;&#232;&#190;&#185;&#229;&#189;&#162;&#229;&#164;&#135;&#228;&#187;&#189; 2" fill-rule="evenodd" clip-rule="evenodd" d="M5.17047 1L6.74473 1V3.28606L4.93877 4.6577L3.13281 3.28606L3.13281 1H5.17047Z" stroke="#8EA2BF" stroke-width="0.578907"/>
<path id="&#229;&#164;&#154;&#232;&#190;&#185;&#229;&#189;&#162;&#229;&#164;&#135;&#228;&#187;&#189; 11" fill-rule="evenodd" clip-rule="evenodd" d="M3.08534 3.43555L4.8913 4.80718V7.55045L3.08534 8.92209L1.27938 7.55045V4.80718L3.08534 3.43555Z" stroke="#8EA2BF" stroke-width="0.578907"/>
<path id="&#229;&#164;&#154;&#232;&#190;&#185;&#229;&#189;&#162;&#229;&#164;&#135;&#228;&#187;&#189; 17" fill-rule="evenodd" clip-rule="evenodd" d="M4.93886 7.70312L6.74481 9.07476V11.818L4.93886 13.1897L3.1329 11.818V9.07476L4.93886 7.70312Z" stroke="#8EA2BF" stroke-width="0.578907"/>
<path id="&#229;&#164;&#154;&#232;&#190;&#185;&#229;&#189;&#162;&#229;&#164;&#135;&#228;&#187;&#189; 23" fill-rule="evenodd" clip-rule="evenodd" d="M3.08534 11.9746L4.8913 13.3462V16.0895L3.08534 17.4612L1.27938 16.0895V13.3462L3.08534 11.9746Z" stroke="#8EA2BF" stroke-width="0.578907"/>
<path id="&#229;&#164;&#154;&#232;&#190;&#185;&#229;&#189;&#162;&#229;&#164;&#135;&#228;&#187;&#189; 29" fill-rule="evenodd" clip-rule="evenodd" d="M4.93877 16.2422L6.74473 17.6138V20.0013L4.93877 19.8999H3.13281L3.13281 17.6138L4.93877 16.2422Z" stroke="#8EA2BF" stroke-width="0.578907"/>
<path id="&#229;&#164;&#154;&#232;&#190;&#185;&#229;&#189;&#162;&#229;&#164;&#135;&#228;&#187;&#189; 4" fill-rule="evenodd" clip-rule="evenodd" d="M12.2492 1H14.1598V3.28606L12.3538 4.6577L10.5479 3.28606L10.5479 1L12.2492 1Z" stroke="#8EA2BF" stroke-width="0.578907"/>
<path id="&#229;&#164;&#154;&#232;&#190;&#185;&#229;&#189;&#162;&#229;&#164;&#135;&#228;&#187;&#189; 12" fill-rule="evenodd" clip-rule="evenodd" d="M10.4994 3.43555L12.3054 4.80718V7.55045L10.4994 8.92209L8.69345 7.55045V4.80718L10.4994 3.43555Z" stroke="#8EA2BF" stroke-width="0.578907"/>
<path id="&#229;&#164;&#154;&#232;&#190;&#185;&#229;&#189;&#162;&#229;&#164;&#135;&#228;&#187;&#189; 18" fill-rule="evenodd" clip-rule="evenodd" d="M12.3539 7.70312L14.1599 9.07476V11.818L12.3539 13.1897L10.5479 11.818V9.07476L12.3539 7.70312Z" stroke="#8EA2BF" stroke-width="0.578907"/>
<path id="&#229;&#164;&#154;&#232;&#190;&#185;&#229;&#189;&#162;&#229;&#164;&#135;&#228;&#187;&#189; 24" fill-rule="evenodd" clip-rule="evenodd" d="M10.4994 11.9746L12.3054 13.3462V16.0895L10.4994 17.4612L8.69345 16.0895V13.3462L10.4994 11.9746Z" stroke="#8EA2BF" stroke-width="0.578907"/>
<path id="&#229;&#164;&#154;&#232;&#190;&#185;&#229;&#189;&#162;&#229;&#164;&#135;&#228;&#187;&#189; 30" fill-rule="evenodd" clip-rule="evenodd" d="M12.3536 16.2422L14.1596 17.6138V19.8999L12.3536 20.0013L10.5 19.8999L10.5477 17.6138L12.3536 16.2422Z" stroke="#8EA2BF" stroke-width="0.578907"/>
</g>
</g>
</svg>
