<svg width="16" height="16" viewBox="0 0 16 16" fill="none" xmlns="http://www.w3.org/2000/svg">
<path d="M15.3706 4.88531C14.9668 3.93175 14.3905 3.07678 13.6569 2.34313C12.9232 1.60948 12.0664 1.03128 11.1147 0.629384C10.1289 0.212322 9.08057 0 8 0C6.91943 0 5.87299 0.210426 4.88531 0.629384C3.93175 1.03318 3.07678 1.60948 2.34313 2.34313C1.60948 3.07678 1.03128 3.93365 0.629384 4.88531C0.212322 5.87109 0 6.91943 0 8C0 9.08057 0.212322 10.127 0.629384 11.1147C1.03318 12.0682 1.60948 12.9232 2.34313 13.6569C3.07678 14.3905 3.93365 14.9687 4.88531 15.3706C5.87109 15.7877 6.91943 16 8 16C9.08057 16 10.127 15.7877 11.1147 15.3706C12.0682 14.9668 12.9232 14.3905 13.6569 13.6569C14.3905 12.9232 14.9687 12.0663 15.3706 11.1147C15.7877 10.1289 16 9.08057 16 8C16 6.91943 15.7896 5.87299 15.3706 4.88531ZM8 15.1659C4.04929 15.1659 0.834123 11.9507 0.834123 8C0.834123 4.04929 4.04929 0.834123 8 0.834123C11.9507 0.834123 15.1659 4.04929 15.1659 8C15.1659 11.9507 11.9507 15.1659 8 15.1659ZM6.6673 5.58294C6.43602 5.58294 6.25024 5.76872 6.25024 6V10.6066C6.25024 10.8379 6.43602 11.0237 6.6673 11.0237C6.89858 11.0237 7.08436 10.8379 7.08436 10.6066V6C7.08436 5.76872 6.89858 5.58294 6.6673 5.58294ZM9.07488 5.58294C8.8436 5.58294 8.65782 5.76872 8.65782 6V10.6066C8.65782 10.8379 8.8436 11.0237 9.07488 11.0237C9.30616 11.0237 9.49194 10.8379 9.49194 10.6066V6C9.49194 5.76872 9.30616 5.58294 9.07488 5.58294Z" fill="#999999"/>
</svg>
