<svg width="20" height="28" viewBox="0 0 20 28" fill="none" xmlns="http://www.w3.org/2000/svg">
<g id="Group 1142813841">
<rect id="Rectangle 2893" width="20" height="28" fill="white"/>
<g id="Group 1142813577">
<g id="&#229;&#189;&#162;&#231;&#138;&#182;&#231;&#187;&#147;&#229;&#144;&#136;">
<mask id="path-2-inside-1_727_108" fill="white">
<path fill-rule="evenodd" clip-rule="evenodd" d="M2.31563 1C1.03674 1 0 2.03674 0 3.31563V22.8304C0 24.7487 1.55512 26.3038 3.47345 26.3038H5.94048C6.20526 24.1992 7.77651 22.5825 9.67525 22.5825C11.574 22.5825 13.1452 24.1992 13.41 26.3038H15.8766C17.7949 26.3038 19.35 24.7487 19.35 22.8304V3.31563C19.35 2.03674 18.3133 1 17.0344 1H2.31563Z"/>
</mask>
<path d="M5.94048 26.3038V27.1722H6.70644L6.80205 26.4122L5.94048 26.3038ZM13.41 26.3038L12.5485 26.4122L12.6441 27.1722H13.41V26.3038ZM0.868361 3.31563C0.868361 2.51633 1.51633 1.86836 2.31563 1.86836V0.131639C0.557159 0.131639 -0.868361 1.55716 -0.868361 3.31563H0.868361ZM0.868361 22.8304V3.31563H-0.868361V22.8304H0.868361ZM3.47345 25.4355C2.0347 25.4355 0.868361 24.2691 0.868361 22.8304H-0.868361C-0.868361 25.2283 1.07554 27.1722 3.47345 27.1722V25.4355ZM5.94048 25.4355H3.47345V27.1722H5.94048V25.4355ZM6.80205 26.4122C7.0253 24.6377 8.3116 23.4508 9.67525 23.4508V21.7141C7.24142 21.7141 5.38522 23.7607 5.07891 26.1955L6.80205 26.4122ZM9.67525 23.4508C11.0389 23.4508 12.3252 24.6377 12.5485 26.4122L14.2716 26.1955C13.9653 23.7607 12.1091 21.7141 9.67525 21.7141V23.4508ZM15.8766 25.4355H13.41V27.1722H15.8766V25.4355ZM18.4816 22.8304C18.4816 24.2691 17.3153 25.4355 15.8766 25.4355V27.1722C18.2745 27.1722 20.2184 25.2283 20.2184 22.8304H18.4816ZM18.4816 3.31563V22.8304H20.2184V3.31563H18.4816ZM17.0344 1.86836C17.8337 1.86836 18.4816 2.51633 18.4816 3.31563H20.2184C20.2184 1.55716 18.7928 0.131639 17.0344 0.131639V1.86836ZM2.31563 1.86836H17.0344V0.131639H2.31563V1.86836Z" fill="#979797" mask="url(#path-2-inside-1_727_108)"/>
</g>
<circle id="&#230;&#164;&#173;&#229;&#156;&#134;&#229;&#189;&#162;" cx="9.6757" cy="11.4208" r="7.00813" stroke="#979797" stroke-width="0.868361"/>
<circle id="&#230;&#164;&#173;&#229;&#156;&#134;&#229;&#189;&#162;_2" cx="9.67525" cy="11.4204" r="3.28697" stroke="#979797" stroke-width="0.868361"/>
<g id="&#231;&#188;&#150;&#231;&#187;&#132;">
<g id="&#229;&#189;&#162;&#231;&#138;&#182;&#231;&#187;&#147;&#229;&#144;&#136;_2">
<mask id="path-6-inside-2_727_108" fill="white">
<path fill-rule="evenodd" clip-rule="evenodd" d="M8.02129 22.2793V25.729H11.3289V22.2793C11.5328 22.3942 11.7265 22.5296 11.9078 22.6832V25.729C11.9078 26.0487 11.6486 26.3079 11.3289 26.3079H8.02129C7.70157 26.3079 7.44238 26.0487 7.44238 25.729V22.6831C7.62369 22.5295 7.81733 22.3941 8.02129 22.2793Z"/>
</mask>
<path d="M8.02129 22.2793H8.6002V21.2891L7.7373 21.7748L8.02129 22.2793ZM8.02129 25.729H7.44238V26.3079H8.02129V25.729ZM11.3289 25.729V26.3079H11.9078V25.729H11.3289ZM11.3289 22.2793L11.6129 21.7749L10.75 21.2891V22.2793H11.3289ZM11.9078 22.6832H12.4867V22.415L12.282 22.2415L11.9078 22.6832ZM7.44238 22.6831L7.06813 22.2415L6.86348 22.4149V22.6831H7.44238ZM7.44238 22.2793V25.729H8.6002V22.2793H7.44238ZM8.02129 26.3079H11.3289V25.1501H8.02129V26.3079ZM11.9078 25.729V22.2793H10.75V25.729H11.9078ZM11.0449 22.7838C11.2158 22.88 11.3793 22.9942 11.5335 23.1249L12.282 22.2415C12.0736 22.0649 11.8499 21.9083 11.6129 21.7749L11.0449 22.7838ZM12.4867 25.729V22.6832H11.3289V25.729H12.4867ZM11.3289 26.8868C11.9683 26.8868 12.4867 26.3684 12.4867 25.729H11.3289V25.729V26.8868ZM8.02129 26.8868H11.3289V25.729H8.02129V26.8868ZM6.86348 25.729C6.86348 26.3684 7.38185 26.8868 8.02129 26.8868V25.729L8.02129 25.729H6.86348ZM6.86348 22.6831V25.729H8.02129V22.6831H6.86348ZM7.81663 23.1248C7.97083 22.9942 8.13437 22.88 8.30528 22.7838L7.7373 21.7748C7.5003 21.9083 7.27655 22.0649 7.06813 22.2415L7.81663 23.1248Z" fill="#979797" mask="url(#path-6-inside-2_727_108)"/>
</g>
<path id="&#232;&#183;&#175;&#229;&#190;&#132; 2" d="M8.93066 25.9355L9.67102 26.6798L10.4037 25.9355" stroke="#979797" stroke-width="0.578907" stroke-linecap="round"/>
</g>
<g id="&#231;&#188;&#150;&#231;&#187;&#132; 4">
<path id="&#232;&#183;&#175;&#229;&#190;&#132; 5" d="M10.1094 14.5664C10.1094 14.5664 10.2442 16.7077 8.07283 17.9613" stroke="#979797" stroke-width="0.578907"/>
<path id="&#232;&#183;&#175;&#229;&#190;&#132; 5&#229;&#164;&#135;&#228;&#187;&#189;" d="M9.13574 7.89453C9.13574 7.89453 9.00092 5.75323 11.1723 4.49959" stroke="#979797" stroke-width="0.578907"/>
<path id="&#232;&#183;&#175;&#229;&#190;&#132; 5_2" d="M9.13574 7.89453C9.13574 7.89453 9.00092 5.75323 11.1723 4.49959" stroke="#979797" stroke-width="0.578907"/>
</g>
<g id="&#231;&#188;&#150;&#231;&#187;&#132; 4_2">
<path id="&#232;&#183;&#175;&#229;&#190;&#132; 5_3" d="M8.93945 14.5332C8.93945 14.5332 8.33378 16.5915 5.86459 17.0269" stroke="#979797" stroke-width="0.578907"/>
<path id="&#232;&#183;&#175;&#229;&#190;&#132; 5&#229;&#164;&#135;&#228;&#187;&#189;_2" d="M10.3066 7.92969C10.3066 7.92969 10.9123 5.87141 13.3815 5.43602" stroke="#979797" stroke-width="0.578907"/>
<path id="&#232;&#183;&#175;&#229;&#190;&#132; 5_4" d="M10.3066 7.92969C10.3066 7.92969 10.9123 5.87141 13.3815 5.43602" stroke="#979797" stroke-width="0.578907"/>
</g>
<g id="&#231;&#188;&#150;&#231;&#187;&#132; 4_3">
<path id="&#232;&#183;&#175;&#229;&#190;&#132; 5_5" d="M7.85156 14.1016C7.85156 14.1016 6.57844 15.8286 4.10925 15.3932" stroke="#979797" stroke-width="0.578907"/>
<path id="&#232;&#183;&#175;&#229;&#190;&#132; 5&#229;&#164;&#135;&#228;&#187;&#189;_3" d="M11.3945 8.36328C11.3945 8.36328 12.6677 6.63628 15.1368 7.07167" stroke="#979797" stroke-width="0.578907"/>
<path id="&#232;&#183;&#175;&#229;&#190;&#132; 5_6" d="M11.3945 8.36328C11.3945 8.36328 12.6677 6.63628 15.1368 7.07167" stroke="#979797" stroke-width="0.578907"/>
</g>
<g id="&#231;&#188;&#150;&#231;&#187;&#132; 4_4">
<path id="&#232;&#183;&#175;&#229;&#190;&#132; 5_7" d="M6.97754 13.3184C6.97754 13.3184 5.19053 14.5058 3.01916 13.2521" stroke="#979797" stroke-width="0.578907"/>
<path id="&#232;&#183;&#175;&#229;&#190;&#132; 5&#229;&#164;&#135;&#228;&#187;&#189;_4" d="M12.2686 9.14063C12.2686 9.14063 14.0556 7.95321 16.2269 9.20685" stroke="#979797" stroke-width="0.578907"/>
<path id="&#232;&#183;&#175;&#229;&#190;&#132; 5_8" d="M12.2686 9.14063C12.2686 9.14063 14.0556 7.95321 16.2269 9.20685" stroke="#979797" stroke-width="0.578907"/>
</g>
<g id="&#231;&#188;&#150;&#231;&#187;&#132; 4_5">
<path id="&#232;&#183;&#175;&#229;&#190;&#132; 5_9" d="M6.42188 12.2871C6.42188 12.2871 4.33651 12.7917 2.72487 10.871" stroke="#979797" stroke-width="0.578907"/>
<path id="&#232;&#183;&#175;&#229;&#190;&#132; 5&#229;&#164;&#135;&#228;&#187;&#189;_5" d="M12.8232 10.1699C12.8232 10.1699 14.9086 9.66531 16.5202 11.586" stroke="#979797" stroke-width="0.578907"/>
<path id="&#232;&#183;&#175;&#229;&#190;&#132; 5_10" d="M12.8232 10.1699C12.8232 10.1699 14.9086 9.66531 16.5202 11.586" stroke="#979797" stroke-width="0.578907"/>
</g>
<g id="&#231;&#188;&#150;&#231;&#187;&#132; 4_6">
<path id="&#232;&#183;&#175;&#229;&#190;&#132; 5_11" d="M6.25293 11.1309C6.25293 11.1309 4.12074 10.8918 3.26321 8.53573" stroke="#979797" stroke-width="0.578907"/>
<path id="&#232;&#183;&#175;&#229;&#190;&#132; 5&#229;&#164;&#135;&#228;&#187;&#189;_6" d="M12.9932 11.3301C12.9932 11.3301 15.1253 11.5691 15.9829 13.9252" stroke="#979797" stroke-width="0.578907"/>
<path id="&#232;&#183;&#175;&#229;&#190;&#132; 5_12" d="M12.9932 11.3301C12.9932 11.3301 15.1253 11.5691 15.9829 13.9252" stroke="#979797" stroke-width="0.578907"/>
</g>
<g id="&#231;&#188;&#150;&#231;&#187;&#132; 4_7">
<path id="&#232;&#183;&#175;&#229;&#190;&#132; 5_13" d="M6.49023 9.98438C6.49023 9.98438 4.5684 9.03048 4.5684 6.52321" stroke="#979797" stroke-width="0.578907"/>
<path id="&#232;&#183;&#175;&#229;&#190;&#132; 5&#229;&#164;&#135;&#228;&#187;&#189;_7" d="M12.7549 12.4785C12.7549 12.4785 14.6767 13.4324 14.6767 15.9397" stroke="#979797" stroke-width="0.578907"/>
<path id="&#232;&#183;&#175;&#229;&#190;&#132; 5_14" d="M12.7549 12.4785C12.7549 12.4785 14.6767 13.4324 14.6767 15.9397" stroke="#979797" stroke-width="0.578907"/>
</g>
<g id="&#231;&#188;&#150;&#231;&#187;&#132; 4_8">
<path id="&#232;&#183;&#175;&#229;&#190;&#132; 5_15" d="M7.10547 8.99023C7.10547 8.99023 5.62578 7.43656 6.48332 5.08049" stroke="#979797" stroke-width="0.578907"/>
<path id="&#232;&#183;&#175;&#229;&#190;&#132; 5&#229;&#164;&#135;&#228;&#187;&#189;_8" d="M12.1406 13.4727C12.1406 13.4727 13.6203 15.0263 12.7628 17.3824" stroke="#979797" stroke-width="0.578907"/>
<path id="&#232;&#183;&#175;&#229;&#190;&#132; 5_16" d="M12.1406 13.4727C12.1406 13.4727 13.6203 15.0263 12.7628 17.3824" stroke="#979797" stroke-width="0.578907"/>
</g>
<g id="&#231;&#188;&#150;&#231;&#187;&#132; 4_9">
<path id="&#232;&#183;&#175;&#229;&#190;&#132; 5_17" d="M8.02441 8.26563C8.02441 8.26563 7.16535 6.29957 8.777 4.37888" stroke="#979797" stroke-width="0.578907"/>
<path id="&#232;&#183;&#175;&#229;&#190;&#132; 5&#229;&#164;&#135;&#228;&#187;&#189;_9" d="M11.2217 14.2012C11.2217 14.2012 12.0807 16.1672 10.4691 18.0879" stroke="#979797" stroke-width="0.578907"/>
<path id="&#232;&#183;&#175;&#229;&#190;&#132; 5_18" d="M11.2217 14.2012C11.2217 14.2012 12.0807 16.1672 10.4691 18.0879" stroke="#979797" stroke-width="0.578907"/>
</g>
</g>
</g>
</svg>
