<svg width="23" height="23" viewBox="0 0 23 23" fill="none" xmlns="http://www.w3.org/2000/svg">
<path d="M18.1679 14.469L15.0154 14.4707C13.8434 14.4713 12.8234 13.8311 12.2806 12.8822L14.9087 12.8839C14.9451 12.8865 14.9793 12.8948 15.016 12.8948L18.1684 12.8931C19.039 12.8922 19.7449 12.1863 19.7458 11.3157C19.7464 10.4454 19.041 9.74006 18.1705 9.74036L15.0177 9.74237C15.0177 9.74237 15.0177 9.74237 15.0174 9.74266L15.0174 9.74035L12.2944 9.73834C12.8406 8.79978 13.8552 8.16674 15.0189 8.16585L18.1713 8.16413C19.9124 8.16354 21.3229 9.57396 21.322 11.3148C21.3212 13.0557 19.9087 14.4681 18.1679 14.469ZM7.54885 12.1306L7.54884 12.1272C7.34231 12.1283 7.13492 12.0506 6.97716 11.8929C6.6645 11.5802 6.66421 11.0739 6.9763 10.7618C7.13981 10.5983 7.35665 10.5226 7.57123 10.5306L15.0547 10.5355C15.269 10.5283 15.4859 10.6041 15.6496 10.7678C15.9623 11.0805 15.9626 11.5868 15.6505 11.8989C15.4962 12.0532 15.2937 12.1307 15.0912 12.1324L15.0911 12.1358L7.54885 12.1306ZM7.61139 9.73318L4.45893 9.73492C3.58867 9.73548 2.88242 10.4417 2.88189 11.312C2.88129 12.1822 3.58666 12.8876 4.45725 12.8873L7.60963 12.8856C7.63203 12.885 7.6524 12.8796 7.67476 12.879L10.3387 12.8805C9.79314 13.8242 8.77622 14.4607 7.60881 14.4618L4.45636 14.4635C2.71489 14.4644 1.30447 13.054 1.30564 11.3128C1.30676 9.57171 2.71865 8.15983 4.46008 8.1584L7.61251 8.15669C8.78112 8.15612 9.79797 8.79262 10.3418 9.7369L7.63172 9.73519C7.62458 9.73491 7.61826 9.73318 7.61139 9.73318Z" fill="#328DFB"/>
</svg>
