<svg width="16" height="16" viewBox="0 0 16 16" fill="none" xmlns="http://www.w3.org/2000/svg">
<path d="M4.41017 11.9733C4.32762 11.9733 4.24507 11.9419 4.18194 11.8791C4.05532 11.7531 4.05486 11.5482 4.1809 11.4216L11.4752 4.09429C11.6013 3.96765 11.8061 3.96723 11.9327 4.09325C12.0593 4.21928 12.0598 4.42412 11.9337 4.55073L4.63942 11.878C4.5762 11.9416 4.49317 11.9733 4.41017 11.9733Z" fill="#FB4747"/>
<path d="M11.7123 11.9796C11.6293 11.9796 11.5463 11.9478 11.4831 11.8844L4.17336 4.54394C4.04731 4.41734 4.04773 4.21253 4.17433 4.08645C4.30091 3.96038 4.50574 3.96082 4.63182 4.08742L11.9415 11.4278C12.0676 11.5545 12.0672 11.7593 11.9406 11.8853C11.8775 11.9482 11.7949 11.9796 11.7123 11.9796Z" fill="#FB4747"/>
<path d="M7.99996 16C6.9201 16 5.87239 15.7884 4.8859 15.3712C3.93324 14.9682 3.07771 14.3914 2.34313 13.6568C1.60854 12.9222 1.03175 12.0667 0.62882 11.114C0.21158 10.1275 0 9.07981 0 7.99996C0 6.92012 0.211562 5.8724 0.62882 4.88593C1.03177 3.93326 1.60854 3.07774 2.34313 2.34315C3.07772 1.60856 3.93324 1.03177 4.8859 0.62882C5.87239 0.211562 6.9201 0 7.99996 0C9.07981 0 10.1275 0.211562 11.114 0.628802C12.0667 1.03175 12.9222 1.60854 13.6568 2.34313C14.3914 3.07772 14.9682 3.93326 15.3712 4.88592C15.7884 5.87239 16 6.9201 16 7.99994C16 9.07979 15.7884 10.1275 15.3712 11.114C14.9682 12.0667 14.3914 12.9222 13.6568 13.6568C12.9222 14.3914 12.0667 14.9682 11.114 15.3712C10.1275 15.7884 9.07981 16 7.99996 16ZM7.99996 0.646968C7.00716 0.646968 6.04423 0.841334 5.13792 1.22467C4.26238 1.59501 3.47599 2.12523 2.8006 2.80062C2.12521 3.47601 1.59499 4.2624 1.22467 5.13795C0.841334 6.04427 0.646968 7.00718 0.646968 7.99997C0.646968 8.99277 0.841334 9.95571 1.22467 10.862C1.59499 11.7376 2.12521 12.524 2.8006 13.1994C3.47599 13.8748 4.26236 14.405 5.13793 14.7753C6.04423 15.1586 7.00716 15.353 7.99996 15.353C8.99275 15.353 9.95568 15.1586 10.862 14.7753C11.7376 14.405 12.524 13.8748 13.1994 13.1994C13.8748 12.524 14.405 11.7376 14.7753 10.862C15.1586 9.9557 15.353 8.99277 15.353 7.99997C15.353 7.0072 15.1586 6.04427 14.7753 5.13797C14.405 4.26242 13.8748 3.47602 13.1994 2.80063C12.524 2.12524 11.7376 1.59501 10.862 1.22469C9.95568 0.841334 8.99275 0.646968 7.99996 0.646968Z" fill="#FB4747"/>
</svg>
