<svg width="16" height="16" viewBox="0 0 16 16" fill="none" xmlns="http://www.w3.org/2000/svg">
<path d="M4.71549 14.1251L14.159 4.6823C14.2337 4.6077 14.2929 4.51912 14.3333 4.42161C14.3737 4.3241 14.3945 4.21959 14.3945 4.11404C14.3945 4.00849 14.3737 3.90397 14.3333 3.80647C14.2929 3.70896 14.2337 3.62038 14.159 3.54578L12.4549 1.84173C12.3803 1.76705 12.2918 1.70781 12.1943 1.6674C12.0968 1.62698 11.9922 1.60617 11.8867 1.60617C11.7811 1.60617 11.6766 1.62698 11.5791 1.6674C11.4816 1.70781 11.393 1.76705 11.3184 1.84173L1.87637 11.2845L1.67321 14.3282L4.71621 14.1251H4.71549ZM0.00313606 15.2276L0.314015 10.5753L10.1819 0.705932C10.4057 0.482127 10.6713 0.304592 10.9637 0.183467C11.2561 0.0623425 11.5695 0 11.886 0C12.2024 0 12.5158 0.0623425 12.8082 0.183467C13.1006 0.304592 13.3662 0.482127 13.59 0.705932L15.2941 2.40999C15.5179 2.63375 15.6954 2.89941 15.8165 3.19179C15.9377 3.48418 16 3.79756 16 4.11404C16 4.43052 15.9377 4.7439 15.8165 5.03628C15.6954 5.32867 15.5179 5.59433 15.2941 5.81809L5.42473 15.6882L0.772382 15.9983C0.669353 16.0054 0.566007 15.9903 0.469303 15.954C0.372598 15.9178 0.284778 15.8613 0.211755 15.7882C0.138731 15.7152 0.0821995 15.6274 0.0459647 15.5307C0.00972982 15.434 -0.00536706 15.3306 0.00169022 15.2276H0.00313606ZM10.1826 2.97824L9.04684 4.11332L11.8867 6.95461L13.0225 5.81809L10.1826 2.97824Z" fill="#636363"/>
</svg>
