<svg width="16" height="16" viewBox="0 0 16 16" fill="none" xmlns="http://www.w3.org/2000/svg">
<path d="M8 0C3.55556 0 0 3.61111 0 8C0 12.3889 3.61111 16 8 16C12.3889 16 16 12.3889 16 8C16 3.61111 12.4444 0 8 0ZM8 15.2222C4.05556 15.2222 0.833333 12 0.833333 8.05556C0.833333 4.11111 4.05556 0.888889 8 0.888889C11.9444 0.888889 15.1667 4.11111 15.1667 8.05556C15.1667 12 12 15.2222 8 15.2222Z" fill="black"/>
<path d="M13.1667 8.33344H8.33332V3.44455C8.33332 3.22233 8.16665 3.05566 7.94443 3.05566C7.72221 3.05566 7.55554 3.22233 7.55554 3.44455V8.77789C7.55554 9.00011 7.72221 9.16678 7.94443 9.16678H7.99999H13.1667C13.3889 9.16678 13.5555 9.00011 13.5555 8.77789C13.5555 8.50011 13.3889 8.33344 13.1667 8.33344Z" fill="black"/>
</svg>
