<svg width="14" height="14" viewBox="0 0 14 14" fill="none" xmlns="http://www.w3.org/2000/svg">
<path d="M6.80564 7C6.80564 3.00913 5.34338 -1.18724e-06 3.40316 -1.10243e-06C1.46294 -1.01762e-06 -4.80426e-07 3.00913 -3.0598e-07 7C-1.31533e-07 10.9909 1.46294 14 3.40316 14C5.34338 14 6.80564 10.9909 6.80564 7ZM0.858977 7C0.858977 3.32038 2.19992 0.756478 3.40316 0.756478C4.60639 0.756478 5.947 3.32038 5.947 7C5.947 10.6799 4.60606 13.2438 3.40316 13.2438C2.19958 13.2435 0.858978 10.6796 0.858977 7ZM10.411 7C10.411 3.02002 8.9571 0.0191389 7.02958 0.019139C6.52054 0.019139 6.04727 0.235571 5.62179 0.617196C5.61912 0.619846 5.61544 0.622203 5.6131 0.624264C5.61043 0.627208 5.60642 0.628975 5.60374 0.631625L5.60608 0.633391C5.54224 0.694934 5.50113 0.775029 5.50113 0.864546C5.50113 1.05536 5.67661 1.20995 5.89285 1.20995C6.00783 1.20995 6.10843 1.1649 6.17929 1.0957L6.1813 1.09688C6.44367 0.866901 6.76487 0.736748 7.02991 0.736748C8.24418 0.736748 9.59615 3.30889 9.59615 6.99971C9.59615 10.6905 8.24418 13.2627 7.02991 13.2627C6.72777 13.2627 6.46874 13.1879 6.17394 12.894C6.1706 12.8905 6.16692 12.8869 6.16325 12.8834C6.16091 12.881 6.1589 12.8796 6.15623 12.8772L6.15456 12.8787C6.08537 12.8221 5.99379 12.7859 5.89185 12.7859C5.6756 12.7859 5.50013 12.9402 5.50013 13.131C5.50013 13.2264 5.54392 13.3124 5.61511 13.3749L5.61243 13.3769C6.03992 13.7635 6.5172 13.9812 7.02958 13.9812C8.9571 13.9812 10.411 10.9797 10.411 7ZM9.20176 0.62073C9.19841 0.623086 9.19507 0.62544 9.19273 0.627502L9.19474 0.629858C9.1309 0.690812 9.08979 0.771494 9.08979 0.861012C9.08979 1.05183 9.26459 1.20642 9.48084 1.20642C9.59582 1.20642 9.69675 1.16137 9.76795 1.09187L9.76928 1.09364C10.0323 0.863368 10.3535 0.733214 10.6179 0.733214C11.8322 0.733214 13.1841 3.30536 13.1841 6.99617C13.1841 10.687 11.8322 13.2591 10.6179 13.2591C10.3164 13.2591 10.0571 13.184 9.7626 12.8908C9.75859 12.8869 9.75558 12.8837 9.75157 12.8802C9.74956 12.8778 9.74689 12.876 9.74488 12.874L9.74388 12.8751C9.67403 12.8189 9.58278 12.7824 9.48017 12.7824C9.26426 12.7824 9.08912 12.937 9.08912 13.1272C9.08912 13.2223 9.1329 13.3086 9.2041 13.3713L9.20142 13.3731C9.62824 13.7597 10.1055 13.977 10.6179 13.977C12.5458 13.977 14 10.9759 14 6.99617C14 3.0162 12.5454 0.0153116 10.6179 0.0153117C10.1095 0.0153118 9.63559 0.231742 9.21111 0.613073C9.20777 0.615723 9.2051 0.61808 9.20176 0.62073Z" fill="#272636"/>
</svg>
