<svg width="22.000000" height="22.000000" viewBox="0 0 22 22" fill="none" xmlns="http://www.w3.org/2000/svg" xmlns:xlink="http://www.w3.org/1999/xlink">
	<desc>
			Created with Pixso.
	</desc>
	<defs/>
	<circle id="椭圆 59" cx="11.000000" cy="11.000000" r="11.000000" fill="#FFFFFF" fill-opacity="1.000000"/>
	<path id="path" d="M11 0C4.92 0 0 4.92 0 11C0 17.07 4.92 22 11 22C17.07 22 22 17.07 22 11C22 4.92 17.07 0 11 0ZM16.37 11.21C15.81 11.54 9.27 15.35 8.95 15.54C8.54 15.78 8.13 15.48 8.13 15.07L8.13 6.39C8.13 5.95 8.58 5.73 8.93 5.93C9.41 6.2 15.97 10.03 16.37 10.27C16.73 10.49 16.73 11 16.37 11.21Z" fill="#747474" fill-opacity="1.000000" fill-rule="nonzero"/>
</svg>
