<svg width="24.000000" height="24.000000" viewBox="0 0 24 24" fill="none" xmlns="http://www.w3.org/2000/svg" xmlns:xlink="http://www.w3.org/1999/xlink">
	<desc>
			Created with Pixso.
	</desc>
	<defs/>
	<path id="加载" d="M18.33 21.12C18.59 21.56 18.44 22.13 18 22.38C17.94 22.41 17.89 22.43 17.83 22.45C17.78 22.47 17.72 22.49 17.66 22.49C17.6 22.5 17.54 22.5 17.48 22.5C17.42 22.5 17.36 22.49 17.3 22.47C17.25 22.46 17.19 22.43 17.14 22.41C17.08 22.38 17.03 22.35 16.98 22.31C16.94 22.27 16.89 22.23 16.85 22.19C16.81 22.14 16.78 22.09 16.75 22.04C16.48 21.61 16.64 21.05 17.07 20.79C17.12 20.76 17.18 20.74 17.24 20.72C17.29 20.7 17.35 20.68 17.41 20.68C17.47 20.67 17.53 20.67 17.59 20.67C17.65 20.67 17.71 20.68 17.77 20.7C17.83 20.71 17.88 20.74 17.94 20.76C17.99 20.79 18.04 20.82 18.09 20.86C18.14 20.89 18.18 20.93 18.23 20.98C18.27 21.02 18.3 21.07 18.33 21.12ZM12.92 23.08C12.92 23.58 12.51 24 11.99 24C11.93 24 11.87 23.99 11.81 23.98C11.75 23.96 11.7 23.95 11.64 23.92C11.59 23.9 11.53 23.87 11.48 23.84C11.43 23.81 11.39 23.77 11.34 23.73C11.3 23.68 11.26 23.64 11.23 23.59C11.2 23.54 11.17 23.48 11.14 23.43C11.12 23.37 11.1 23.32 11.09 23.26C11.08 23.2 11.07 23.14 11.07 23.08L11.07 22.44C11.07 22.38 11.08 22.32 11.09 22.26C11.1 22.2 11.12 22.14 11.14 22.09C11.17 22.03 11.2 21.98 11.23 21.93C11.26 21.88 11.3 21.83 11.34 21.79C11.39 21.75 11.43 21.71 11.48 21.67C11.53 21.64 11.58 21.61 11.64 21.59C11.7 21.57 11.75 21.55 11.81 21.54C11.87 21.52 11.93 21.52 11.99 21.52C12.5 21.52 12.92 21.92 12.92 22.44L12.92 23.08ZM7.26 22.04C7.23 22.1 7.2 22.14 7.16 22.19C7.12 22.24 7.07 22.28 7.03 22.31C6.98 22.35 6.93 22.38 6.87 22.41C6.82 22.44 6.77 22.46 6.71 22.48C6.65 22.49 6.59 22.5 6.53 22.51C6.47 22.51 6.41 22.51 6.35 22.5C6.29 22.5 6.23 22.48 6.18 22.46C6.12 22.44 6.06 22.42 6.01 22.39L6 22.38C5.95 22.35 5.9 22.32 5.85 22.28C5.8 22.24 5.76 22.2 5.72 22.15C5.69 22.1 5.66 22.05 5.63 22C5.6 21.94 5.58 21.88 5.56 21.83C5.55 21.77 5.54 21.71 5.53 21.65C5.53 21.59 5.53 21.53 5.54 21.47C5.55 21.41 5.56 21.35 5.58 21.29C5.6 21.23 5.63 21.18 5.66 21.12L6.34 19.93C6.37 19.88 6.41 19.83 6.45 19.79C6.49 19.74 6.53 19.7 6.58 19.66C6.63 19.62 6.68 19.59 6.74 19.57C6.79 19.54 6.85 19.52 6.91 19.5C6.97 19.49 7.03 19.48 7.09 19.47C7.15 19.47 7.21 19.47 7.27 19.48C7.33 19.49 7.39 19.5 7.45 19.52C7.51 19.54 7.56 19.56 7.61 19.59C8.05 19.85 8.2 20.42 7.94 20.85L7.26 22.04ZM2.87 18.33C2.42 18.58 1.85 18.43 1.61 17.99C1.34 17.56 1.49 16.99 1.93 16.74L3.77 15.67C4.21 15.43 4.78 15.57 5.03 16.01C5.28 16.45 5.13 17.02 4.69 17.27L2.87 18.33ZM0.91 12.91C0.85 12.91 0.79 12.91 0.73 12.9C0.67 12.89 0.62 12.87 0.56 12.85C0.51 12.82 0.45 12.8 0.4 12.76C0.35 12.73 0.31 12.69 0.26 12.65C0.22 12.61 0.18 12.56 0.15 12.51C0.12 12.46 0.09 12.41 0.07 12.35C0.04 12.3 0.03 12.24 0.01 12.18C0 12.12 0 12.06 0 12L0 12C-0.01 11.94 0 11.88 0.01 11.82C0.02 11.76 0.04 11.7 0.06 11.65C0.08 11.59 0.11 11.54 0.15 11.49C0.18 11.44 0.22 11.39 0.26 11.35C0.3 11.31 0.35 11.27 0.4 11.23C0.45 11.2 0.5 11.17 0.55 11.15C0.61 11.12 0.67 11.11 0.73 11.09C0.78 11.08 0.84 11.08 0.9 11.08L3.77 11.08C3.83 11.08 3.89 11.08 3.95 11.09C4.01 11.1 4.07 11.12 4.12 11.14C4.18 11.17 4.23 11.19 4.28 11.23C4.33 11.26 4.38 11.3 4.42 11.34C4.46 11.38 4.5 11.43 4.53 11.48C4.57 11.53 4.59 11.58 4.62 11.64C4.64 11.69 4.66 11.75 4.67 11.81C4.68 11.87 4.69 11.93 4.69 11.99L4.69 11.99C4.69 12.05 4.68 12.11 4.67 12.17C4.66 12.23 4.64 12.29 4.62 12.34C4.6 12.4 4.57 12.45 4.54 12.5C4.5 12.55 4.47 12.6 4.43 12.64C4.38 12.68 4.34 12.72 4.29 12.76C4.24 12.79 4.18 12.82 4.13 12.84C4.07 12.87 4.02 12.88 3.96 12.9C3.9 12.91 3.84 12.91 3.78 12.91L0.91 12.91ZM1.94 7.25C1.49 7 1.34 6.44 1.61 6C1.85 5.55 2.42 5.4 2.87 5.66L5.97 7.46C6.41 7.71 6.56 8.27 6.31 8.7C6.28 8.76 6.25 8.8 6.21 8.85C6.17 8.9 6.12 8.94 6.08 8.97C6.03 9.01 5.98 9.04 5.92 9.07C5.87 9.1 5.81 9.12 5.75 9.13C5.7 9.15 5.64 9.16 5.58 9.16C5.52 9.17 5.46 9.16 5.4 9.16C5.34 9.15 5.28 9.14 5.22 9.12C5.16 9.1 5.11 9.07 5.06 9.04L1.94 7.25ZM5.66 2.86L7.82 6.61C8.09 7.05 8.65 7.21 9.09 6.95C9.53 6.7 9.67 6.13 9.41 5.69L7.24 1.94C7 1.51 6.43 1.35 6 1.61C5.95 1.64 5.9 1.67 5.85 1.71C5.81 1.75 5.77 1.79 5.73 1.84C5.69 1.89 5.66 1.94 5.63 1.99C5.61 2.05 5.59 2.1 5.57 2.16C5.55 2.22 5.54 2.28 5.54 2.34C5.53 2.4 5.54 2.46 5.54 2.52C5.55 2.58 5.56 2.63 5.58 2.69C5.6 2.75 5.63 2.8 5.66 2.85L5.66 2.86ZM11.07 0.92C11.07 0.42 11.49 0 11.99 0C12.5 0 12.92 0.41 12.92 0.92L12.92 5.24C12.92 5.75 12.51 6.17 11.99 6.17C11.93 6.17 11.87 6.17 11.81 6.16C11.75 6.14 11.7 6.13 11.64 6.1C11.58 6.08 11.53 6.05 11.48 6.02C11.43 5.98 11.38 5.94 11.34 5.9C11.3 5.86 11.26 5.81 11.23 5.76C11.19 5.71 11.17 5.66 11.14 5.6C11.12 5.55 11.1 5.49 11.09 5.43C11.08 5.37 11.07 5.31 11.07 5.25L11.07 0.92ZM16.74 1.94C16.77 1.89 16.8 1.84 16.84 1.79C16.88 1.75 16.93 1.71 16.98 1.67C17.02 1.63 17.07 1.6 17.13 1.58C17.18 1.55 17.24 1.53 17.3 1.51C17.36 1.5 17.42 1.49 17.48 1.48C17.54 1.48 17.6 1.48 17.66 1.49C17.72 1.5 17.78 1.51 17.83 1.53C17.89 1.55 17.95 1.57 18 1.6C18.05 1.63 18.1 1.66 18.14 1.7C18.19 1.74 18.23 1.78 18.27 1.83C18.31 1.88 18.34 1.93 18.37 1.98C18.39 2.03 18.41 2.09 18.43 2.15C18.45 2.2 18.46 2.26 18.46 2.32C18.47 2.38 18.47 2.44 18.46 2.5C18.45 2.56 18.44 2.62 18.42 2.67C18.4 2.73 18.38 2.79 18.35 2.84L18.34 2.86L16.17 6.61C15.92 7.05 15.35 7.21 14.91 6.95C14.47 6.7 14.33 6.13 14.58 5.69L16.74 1.94ZM21.15 5.66L17.38 7.82C16.94 8.07 16.79 8.64 17.04 9.08C17.07 9.13 17.11 9.18 17.15 9.23C17.19 9.27 17.23 9.31 17.28 9.35C17.33 9.38 17.38 9.41 17.44 9.44C17.49 9.46 17.55 9.49 17.6 9.5C17.66 9.52 17.72 9.53 17.78 9.53C17.84 9.54 17.9 9.53 17.96 9.53C18.02 9.52 18.08 9.51 18.14 9.49C18.19 9.47 18.25 9.45 18.3 9.42L22.06 7.25C22.12 7.22 22.16 7.18 22.21 7.15C22.25 7.11 22.29 7.06 22.33 7.02C22.37 6.97 22.4 6.92 22.42 6.86C22.45 6.81 22.47 6.75 22.49 6.7C22.5 6.64 22.51 6.58 22.52 6.52C22.52 6.46 22.52 6.4 22.51 6.34C22.5 6.28 22.49 6.23 22.47 6.17C22.45 6.11 22.43 6.06 22.4 6.01L22.39 6C22.14 5.55 21.58 5.39 21.15 5.66ZM23.08 11.08C23.14 11.07 23.2 11.08 23.26 11.09C23.32 11.1 23.38 11.12 23.43 11.14C23.49 11.17 23.54 11.19 23.59 11.23C23.64 11.26 23.69 11.3 23.73 11.34C23.77 11.39 23.81 11.43 23.85 11.48C23.88 11.54 23.91 11.59 23.93 11.64C23.95 11.7 23.97 11.76 23.98 11.82C23.99 11.88 24 11.94 23.99 12C24 12.06 23.99 12.12 23.98 12.18C23.97 12.24 23.95 12.29 23.93 12.35C23.91 12.4 23.88 12.46 23.84 12.51C23.81 12.56 23.77 12.6 23.73 12.64C23.69 12.69 23.64 12.73 23.59 12.76C23.55 12.79 23.49 12.82 23.44 12.84C23.38 12.87 23.33 12.88 23.27 12.9C23.21 12.91 23.15 12.91 23.09 12.91L18.75 12.91C18.69 12.91 18.63 12.91 18.57 12.9C18.51 12.88 18.45 12.87 18.39 12.84C18.34 12.82 18.29 12.79 18.24 12.76C18.19 12.72 18.14 12.68 18.1 12.64C18.05 12.6 18.02 12.55 17.98 12.5C17.95 12.45 17.92 12.4 17.9 12.34C17.87 12.29 17.86 12.23 17.84 12.17C17.83 12.11 17.83 12.05 17.83 11.99C17.83 11.49 18.25 11.08 18.75 11.08L23.08 11.08Z" fill="#AEAEAE" fill-opacity="1.000000" fill-rule="nonzero"/>
</svg>
