<svg width="23" height="23" viewBox="0 0 23 23" fill="none" xmlns="http://www.w3.org/2000/svg">
<path d="M18.1681 14.469L15.0157 14.4707C13.8436 14.4713 12.8236 13.8311 12.2809 12.8822L14.9089 12.8839C14.9454 12.8865 14.9795 12.8948 15.0163 12.8948L18.1687 12.8931C19.0393 12.8922 19.7452 12.1863 19.7461 11.3157C19.7466 10.4454 19.0413 9.74006 18.1707 9.74036L15.018 9.74237L15.0177 9.74035L12.2947 9.73834C12.8408 8.79978 13.8554 8.16674 15.0191 8.16585L18.1715 8.16413C19.9127 8.16354 21.3231 9.57396 21.3223 11.3148C21.3214 13.0557 19.909 14.4681 18.1681 14.469ZM7.54909 12.1306L7.54908 12.1272C7.34256 12.1283 7.13517 12.0506 6.97741 11.8929C6.66474 11.5802 6.66445 11.0739 6.97655 10.7618C7.14005 10.5983 7.35689 10.5226 7.57147 10.5306L15.055 10.5355C15.2693 10.5283 15.4861 10.6041 15.6499 10.7678C15.9626 11.0805 15.9629 11.5868 15.6508 11.8989C15.4964 12.0532 15.2939 12.1307 15.0914 12.1324L15.0914 12.1358L7.54909 12.1306ZM7.61163 9.73318L4.45918 9.73492C3.58892 9.73548 2.88267 10.4417 2.88214 11.312C2.88154 12.1822 3.5869 12.8876 4.45749 12.8873L7.60988 12.8856C7.63228 12.885 7.65264 12.8796 7.675 12.879L10.339 12.8805C9.79338 13.8242 8.77646 14.4607 7.60905 14.4618L4.4566 14.4635C2.71514 14.4644 1.30471 13.054 1.30589 11.3128C1.30701 9.57171 2.71889 8.15983 4.46032 8.1584L7.61275 8.15669C8.78136 8.15612 9.79821 8.79262 10.3421 9.7369L7.63196 9.73519C7.62483 9.73491 7.61851 9.73318 7.61163 9.73318Z" fill="#EA3522"/>
<path d="M8 6L15 16.5" stroke="#EA3522" stroke-width="1.5" stroke-linecap="round"/>
</svg>
