<svg width="16" height="16" viewBox="0 0 16 16" fill="none" xmlns="http://www.w3.org/2000/svg">
<path d="M8 0C3.58187 0 0 3.58187 0 8C0 12.4181 3.58187 16 8 16C12.4181 16 16 12.4181 16 8C16 3.58187 12.4181 0 8 0ZM8 14.9333C4.17067 14.9333 1.06667 11.8293 1.06667 8C1.06667 4.17067 4.17067 1.06667 8 1.06667C11.8293 1.06667 14.9333 4.17067 14.9333 8C14.9333 11.8293 11.8293 14.9333 8 14.9333Z" fill="#FD4A29"/>
<path d="M7.99995 5.86621C7.8585 5.86621 7.72284 5.9224 7.62282 6.02242C7.5228 6.12244 7.46661 6.2581 7.46661 6.39954V12.2662C7.46661 12.4077 7.5228 12.5433 7.62282 12.6433C7.72284 12.7434 7.8585 12.7995 7.99995 12.7995C8.1414 12.7995 8.27705 12.7434 8.37707 12.6433C8.47709 12.5433 8.53328 12.4077 8.53328 12.2662V6.39954C8.53328 6.2581 8.47709 6.12244 8.37707 6.02242C8.27705 5.9224 8.1414 5.86621 7.99995 5.86621Z" fill="#FD4A29"/>
<path d="M7.20001 4.00117C7.20001 4.21335 7.2843 4.41683 7.43433 4.56686C7.58436 4.71689 7.78784 4.80117 8.00001 4.80117C8.21219 4.80117 8.41567 4.71689 8.5657 4.56686C8.71573 4.41683 8.80001 4.21335 8.80001 4.00117C8.80001 3.789 8.71573 3.58552 8.5657 3.43549C8.41567 3.28546 8.21219 3.20117 8.00001 3.20117C7.78784 3.20117 7.58436 3.28546 7.43433 3.43549C7.2843 3.58552 7.20001 3.789 7.20001 4.00117Z" fill="#FD4A29"/>
</svg>
