<svg xmlns="http://www.w3.org/2000/svg" xmlns:xlink="http://www.w3.org/1999/xlink" fill="none" version="1.1" width="31.5146484375" height="36.171875" viewBox="0 0 31.5146484375 36.171875"><defs><linearGradient x1="0.04964420944452286" y1="0.5" x2="0.27066487073898315" y2="0.5" id="master_svg0_729_9690"><stop offset="0%" stop-color="#0088CC" stop-opacity="1"/><stop offset="57.63599872589111%" stop-color="#2FB7FB" stop-opacity="1"/></linearGradient><filter id="master_svg1_729_9721" filterUnits="objectBoundingBox" color-interpolation-filters="sRGB" x="-0.6863530874252319" y="-0.34317654371261597" width="9.204284429550171" height="9.063615560531616"><feFlood flood-opacity="0" result="BackgroundImageFix"/><feColorMatrix in="SourceAlpha" type="matrix" values="0 0 0 0 0 0 0 0 0 0 0 0 0 0 0 0 0 0 127 0"/><feOffset dy="0.34317654371261597" dx="0"/><feGaussianBlur stdDeviation="0.17158827185630798"/><feColorMatrix type="matrix" values="0 0 0 0 0 0 0 0 0 0 0 0 0 0 0 0 0 0 0.30000001192092896 0"/><feBlend mode="normal" in2="BackgroundImageFix" result="effect1_dropShadow"/><feBlend mode="normal" in="SourceGraphic" in2="effect1_dropShadow" result="shape"/></filter></defs><g><g><path d="M28.5755,36.171875L2.42126,36.171875C1.08337,36.171875,0,35.095175,0,33.769675L0,2.570785C0,1.245325,1.08337,0.171875,2.42126,0.171875L22.9922,0.171875L30.9935,8.170425L31,33.769675C31,35.095175,29.9134,36.171875,28.5755,36.171875Z" fill-rule="evenodd" fill="#FFFFFF" fill-opacity="1"/></g><g><path d="M2.2842072818374635,1.1536930799484253L23.589347281837462,1.1536930799484253L30.021047281837465,8.013333079948424L30.021047281837465,33.880993079948425C30.021047281837465,34.600993079948424,29.433647281837462,35.190093079948426,28.715747281837462,35.190093079948426L2.2842072818374635,35.190093079948426C1.5630522818374635,35.190093079948426,0.9789472818374634,34.600993079948424,0.9789472818374634,33.880993079948425L0.9789472818374634,2.4627830799484256C0.9789472818374634,1.7395110799484252,1.5630522818374635,1.1536930799484253,2.2842072818374635,1.1536930799484253Z" fill-rule="evenodd" fill="#F3F3F3" fill-opacity="1"/></g><g><path d="M24.407452169799804,24.582628856811525L5.939958169799805,24.582628856811525C5.542897169799804,24.582628856811525,5.221052169799805,24.246548856811522,5.221052169799805,23.831699856811525C5.221052169799805,23.417045856811523,5.542897169799804,23.080968856811523,5.939958169799805,23.080968856811523L24.407452169799804,23.080968856811523C24.804452169799806,23.080968856811523,25.126352169799805,23.417045856811523,25.126352169799805,23.831699856811525C25.126352169799805,24.246548856811522,24.804452169799806,24.582628856811525,24.407452169799804,24.582628856811525ZM24.407452169799804,28.086248856811523L5.939958169799805,28.086248856811523C5.542897169799804,28.086248856811523,5.221052169799805,27.750198856811522,5.221052169799805,27.335348856811525C5.221052169799805,26.920828856811525,5.542897169799804,26.584778856811525,5.939958169799805,26.584778856811525L24.407452169799804,26.584778856811525C24.804452169799806,26.584778856811525,25.126352169799805,26.920828856811525,25.126352169799805,27.335348856811525C25.126352169799805,27.750198856811522,24.804452169799806,28.086248856811523,24.407452169799804,28.086248856811523ZM5.939958169799805,31.590058856811524L24.407452169799804,31.590058856811524C24.804452169799806,31.590058856811524,25.126352169799805,31.253988856811524,25.126352169799805,30.839168856811526C25.126352169799805,30.424478856811525,24.804452169799806,30.088398856811523,24.407452169799804,30.088398856811523L5.939958169799805,30.088398856811523C5.542897169799804,30.088398856811523,5.221052169799805,30.424478856811525,5.221052169799805,30.839168856811526C5.221052169799805,31.253988856811524,5.542897169799804,31.590058856811524,5.939958169799805,31.590058856811524Z" fill-rule="evenodd" fill="#808080" fill-opacity="1"/></g><g><rect x="5.547367572784424" y="6.062784671783447" width="14.031578063964844" height="14.072728157043457" rx="0" fill="url(#master_svg0_729_9690)" fill-opacity="1"/></g><g filter="url(#master_svg1_729_9721)"><path d="M23.168418884277344,6.490075C23.168418884277344,7.248205,23.783000884277342,7.862785,24.541128884277345,7.862785L30.999998884277343,7.862785L23.168418884277344,0.171875L23.168418884277344,6.490075Z" fill="#FFFFFF" fill-opacity="1"/></g><g><path d="M12.4,14.485875L12.4,13.735875L14.08,13.735875L14.08,15.523875Q13.876,15.853875,13.429,16.048875Q12.982,16.243875,12.442,16.243875Q11.8,16.243875,11.302,15.955874999999999Q10.804,15.667875,10.528,15.151875Q10.252,14.635875,10.252,13.969875Q10.252,13.297875,10.537,12.781875Q10.822,12.265875,11.32,11.983875Q11.818,11.701875,12.424,11.701875Q13.03,11.701875,13.477,11.974875Q13.924,12.247875,14.08,12.673874999999999L13.36,13.087875Q13.228,12.811875,12.982,12.652875Q12.736,12.493875,12.4,12.493875Q12.046,12.493875,11.764,12.673874999999999Q11.482,12.853875,11.32,13.189875Q11.158,13.525875,11.158,13.969875Q11.158,14.425875,11.323,14.761875Q11.488,15.097875,11.791,15.277875Q12.094,15.457875,12.496,15.457875Q12.964,15.457875,13.228,15.199874999999999L13.228,14.485875L12.4,14.485875Z" fill="#FFFFFF" fill-opacity="1"/></g></g></svg>