<svg xmlns="http://www.w3.org/2000/svg" xmlns:xlink="http://www.w3.org/1999/xlink" fill="none" version="1.1" width="31.489990234375" height="36.1640625" viewBox="0 0 31.489990234375 36.1640625"><defs><linearGradient x1="0.04964420944452286" y1="0.5" x2="0.27066487073898315" y2="0.5" id="master_svg0_729_9690"><stop offset="0%" stop-color="#0088CC" stop-opacity="1"/><stop offset="57.63599872589111%" stop-color="#2FB7FB" stop-opacity="1"/></linearGradient><filter id="master_svg1_729_9699" filterUnits="objectBoundingBox" color-interpolation-filters="sRGB" x="-0.6533517241477966" y="-0.3266758620738983" width="9.1382817029953" height="8.997612357139587"><feFlood flood-opacity="0" result="BackgroundImageFix"/><feColorMatrix in="SourceAlpha" type="matrix" values="0 0 0 0 0 0 0 0 0 0 0 0 0 0 0 0 0 0 127 0"/><feOffset dy="0.3266758620738983" dx="0"/><feGaussianBlur stdDeviation="0.16333793103694916"/><feColorMatrix type="matrix" values="0 0 0 0 0 0 0 0 0 0 0 0 0 0 0 0 0 0 0.30000001192092896 0"/><feBlend mode="normal" in2="BackgroundImageFix" result="effect1_dropShadow"/><feBlend mode="normal" in="SourceGraphic" in2="effect1_dropShadow" result="shape"/></filter></defs><g><g><path d="M28.5755,36.1640625L2.42126,36.1640625C1.08337,36.1640625,0,35.0873625,0,33.7618625L0,2.5629725C0,1.2375125,1.08337,0.1640625,2.42126,0.1640625L22.9922,0.1640625L30.9935,8.1626125L31,33.7618625C31,35.0873625,29.9134,36.1640625,28.5755,36.1640625Z" fill-rule="evenodd" fill="#FFFFFF" fill-opacity="1"/></g><g><path d="M2.2842072818374635,1.1458806991577148L23.589347281837462,1.1458806991577148L30.021047281837465,8.005520699157714L30.021047281837465,33.873180699157714C30.021047281837465,34.59318069915771,29.433647281837462,35.182280699157715,28.715747281837462,35.182280699157715L2.2842072818374635,35.182280699157715C1.5630522818374635,35.182280699157715,0.9789472818374634,34.59318069915771,0.9789472818374634,33.873180699157714L0.9789472818374634,2.454970699157715C0.9789472818374634,1.7316986991577148,1.5630522818374635,1.1458806991577148,2.2842072818374635,1.1458806991577148Z" fill-rule="evenodd" fill="#F3F3F3" fill-opacity="1"/></g><g><path d="M24.407452169799804,24.57481254211426L5.939958169799805,24.57481254211426C5.542897169799804,24.57481254211426,5.221052169799805,24.238732542114256,5.221052169799805,23.82388354211426C5.221052169799805,23.409229542114257,5.542897169799804,23.073152542114258,5.939958169799805,23.073152542114258L24.407452169799804,23.073152542114258C24.804452169799806,23.073152542114258,25.126352169799805,23.409229542114257,25.126352169799805,23.82388354211426C25.126352169799805,24.238732542114256,24.804452169799806,24.57481254211426,24.407452169799804,24.57481254211426ZM24.407452169799804,28.078432542114257L5.939958169799805,28.078432542114257C5.542897169799804,28.078432542114257,5.221052169799805,27.742382542114257,5.221052169799805,27.32753254211426C5.221052169799805,26.91301254211426,5.542897169799804,26.57696254211426,5.939958169799805,26.57696254211426L24.407452169799804,26.57696254211426C24.804452169799806,26.57696254211426,25.126352169799805,26.91301254211426,25.126352169799805,27.32753254211426C25.126352169799805,27.742382542114257,24.804452169799806,28.078432542114257,24.407452169799804,28.078432542114257ZM5.939958169799805,31.58224254211426L24.407452169799804,31.58224254211426C24.804452169799806,31.58224254211426,25.126352169799805,31.24617254211426,25.126352169799805,30.83135254211426C25.126352169799805,30.41666254211426,24.804452169799806,30.080582542114257,24.407452169799804,30.080582542114257L5.939958169799805,30.080582542114257C5.542897169799804,30.080582542114257,5.221052169799805,30.41666254211426,5.221052169799805,30.83135254211426C5.221052169799805,31.24617254211426,5.542897169799804,31.58224254211426,5.939958169799805,31.58224254211426Z" fill-rule="evenodd" fill="#808080" fill-opacity="1"/></g><g><rect x="5.547368049621582" y="6.054971694946289" width="14.031578063964844" height="14.072726249694824" rx="0" fill="url(#master_svg0_729_9690)" fill-opacity="1"/></g><g filter="url(#master_svg1_729_9699)"><path d="M23.168420791625977,6.5482725C23.168420791625977,7.2699425,23.753451791625977,7.8549725,24.475120791625976,7.8549725L31.000000791625975,7.8549725L23.168420791625977,0.1640625L23.168420791625977,6.5482725Z" fill="#FFFFFF" fill-opacity="1"/></g><g><path d="M7.52,14.0962625L7.52,13.6212625L8.584,13.6212625L8.584,14.7536625Q8.4548,14.9626625,8.1717,15.0861625Q7.8886,15.2096625,7.5466,15.2096625Q7.14,15.2096625,6.8246,15.027262499999999Q6.5092,14.8448625,6.3344,14.5180625Q6.1596,14.1912625,6.1596,13.7694625Q6.1596,13.3438625,6.3401,13.0170625Q6.5206,12.6902625,6.836,12.5116625Q7.1514,12.3330625,7.5352,12.3330625Q7.9190000000000005,12.3330625,8.2021,12.5059625Q8.485199999999999,12.6788625,8.584,12.9486625L8.128,13.2108625Q8.0444,13.0360625,7.8886,12.9353625Q7.7328,12.8346625,7.52,12.8346625Q7.2958,12.8346625,7.1172,12.9486625Q6.9386,13.0626625,6.836,13.2754625Q6.7334,13.4882625,6.7334,13.7694625Q6.7334,14.0582625,6.8379,14.2710625Q6.9424,14.4838625,7.1343,14.5978625Q7.3262,14.7118625,7.5808,14.7118625Q7.8772,14.7118625,8.0444,14.5484625L8.0444,14.0962625L7.52,14.0962625ZM10.2256,14.7042625Q10.427,14.7042625,10.5733,14.5978625Q10.7196,14.4914625,10.807,14.3014625L11.2668,14.5674625Q11.164200000000001,14.8486625,10.8906,15.0291625Q10.617,15.2096625,10.237,15.2096625Q9.8684,15.2096625,9.5644,15.0310625Q9.2604,14.8524625,9.0818,14.5237625Q8.9032,14.1950625,8.9032,13.7694625Q8.9032,13.3438625,9.0799,13.0170625Q9.2566,12.6902625,9.5625,12.5116625Q9.8684,12.3330625,10.237,12.3330625Q10.617,12.3330625,10.8906,12.5135625Q11.164200000000001,12.6940625,11.2668,12.9752625L10.807,13.2412625Q10.7196,13.0512625,10.5733,12.9448625Q10.427,12.8384625,10.2256,12.8384625Q10.0128,12.8384625,9.845600000000001,12.9524625Q9.6784,13.0664625,9.5815,13.2773625Q9.4846,13.4882625,9.4846,13.7694625Q9.4846,14.0506625,9.5815,14.2634625Q9.6784,14.4762625,9.845600000000001,14.5902625Q10.0128,14.7042625,10.2256,14.7042625ZM11.418800000000001,13.7694625Q11.418800000000001,13.3324625,11.5936,13.0056625Q11.7684,12.6788625,12.0705,12.5059625Q12.3726,12.3330625,12.745000000000001,12.3330625Q13.1174,12.3330625,13.4195,12.5059625Q13.721599999999999,12.6788625,13.898299999999999,13.0056625Q14.075,13.3324625,14.075,13.7694625Q14.075,14.210262499999999,13.898299999999999,14.537062500000001Q13.721599999999999,14.8638625,13.4195,15.0367625Q13.1174,15.2096625,12.745000000000001,15.2096625Q12.3726,15.2096625,12.0705,15.0367625Q11.7684,14.8638625,11.5936,14.537062500000001Q11.418800000000001,14.210262499999999,11.418800000000001,13.7694625ZM12.0002,13.7694625Q12.0002,14.0468625,12.0933,14.259662500000001Q12.186399999999999,14.472462499999999,12.3555,14.5883625Q12.5246,14.7042625,12.745000000000001,14.7042625Q12.965399999999999,14.7042625,13.1345,14.5883625Q13.3036,14.472462499999999,13.3967,14.259662500000001Q13.489799999999999,14.0468625,13.489799999999999,13.7694625Q13.489799999999999,13.4920625,13.3967,13.2811625Q13.3036,13.0702625,13.1345,12.9543625Q12.965399999999999,12.8384625,12.745000000000001,12.8384625Q12.5246,12.8384625,12.3555,12.9543625Q12.186399999999999,13.0702625,12.0933,13.2811625Q12.0002,13.4920625,12.0002,13.7694625ZM15.4544,12.3824625Q15.861,12.3824625,16.189700000000002,12.5458625Q16.5184,12.7092625,16.708399999999997,13.0227625Q16.898400000000002,13.3362625,16.898400000000002,13.7694625Q16.898400000000002,14.2026625,16.708399999999997,14.5180625Q16.5184,14.8334625,16.1916,14.9987625Q15.8648,15.1640625,15.4544,15.1640625L14.5272,15.1640625L14.5272,12.3824625L15.4544,12.3824625ZM15.3898,14.6928625Q15.8382,14.6928625,16.0776,14.4534625Q16.317,14.2140625,16.317,13.7694625Q16.317,13.3324625,16.075699999999998,13.0911625Q15.8344,12.8498625,15.3898,12.8498625L15.0782,12.8498625L15.0782,14.6928625L15.3898,14.6928625ZM19.0302,13.989862500000001L17.901600000000002,13.989862500000001L17.901600000000002,14.6814625L19.205,14.6814625L19.205,15.1640625L17.3506,15.1640625L17.3506,12.3824625L19.1632,12.3824625L19.1632,12.8612625L17.901600000000002,12.8612625L17.901600000000002,13.5148625L19.0302,13.5148625L19.0302,13.989862500000001Z" fill="#FFFFFF" fill-opacity="1"/></g></g></svg>