<svg xmlns="http://www.w3.org/2000/svg" xmlns:xlink="http://www.w3.org/1999/xlink" fill="none" version="1.1" width="37.13427734375" height="33" viewBox="0 0 37.13427734375 33"><g><g><g transform="matrix(0,1,-1,0,34.44534921646118,-31.44534921646118)"><path d="M41.16358921646118,31.4538L41.16396921646118,31.454Q41.46379921646118,31.5928,41.79421921646118,31.5928Q41.826899216461186,31.5928,41.85954921646118,31.5914Q41.96213921646118,31.5869,42.06315921646118,31.5685Q42.16417921646118,31.5501,42.26174921646118,31.5181Q42.35931921646118,31.4861,42.45161921646118,31.4411Q42.543919216461184,31.3961,42.62921921646118,31.3389Q42.714519216461184,31.2817,42.79123921646118,31.2135Q42.86795921646118,31.1452,42.934659216461185,31.0672Q43.00134921646118,30.9891,43.05684921646118,30.9027Q43.11224921646118,30.8162,43.15534921646118,30.723Q43.29424921646118,30.4232,43.29424921646118,30.0928Q43.29424921646118,30.0601,43.29274921646118,30.0275Q43.288349216461185,29.9249,43.269949216461185,29.8239Q43.251549216461186,29.7228,43.219449216461186,29.6253Q43.18744921646118,29.5277,43.14244921646118,29.4354Q43.097449216461186,29.3431,43.04034921646118,29.2578Q42.983149216461186,29.1725,42.91490921646118,29.0958Q42.846659216461184,29.0191,42.76858921646118,28.9524Q42.69051921646118,28.8857,42.60408921646118,28.8302Q42.51765921646118,28.7748,42.42447921646118,28.7316Q42.42305921646118,28.731,42.421649216461184,28.7303Q38.81703921646118,27.0604,36.655379216461185,23.8133Q34.44534921646118,20.4936,34.44534921646118,16.5328Q34.44534921646118,13.7888,35.54381921646118,11.28374Q36.60774921646118,8.85744,38.55142921646118,6.98262Q40.50081921646118,5.10229,43.03054921646118,4.070209999999999Q45.65374921646118,3,48.53024921646118,3Q48.66794921646118,3,48.80324921646118,2.9749600000000003Q48.93144921646118,2.95122,49.053749216461185,2.90571Q49.17594921646118,2.8601900000000002,49.28844921646118,2.79426Q49.40104921646118,2.7283299999999997,49.50054921646118,2.64396Q49.599949216461184,2.55959,49.683449216461185,2.459318Q49.76684921646118,2.359046,49.83164921646118,2.24588Q49.89654921646118,2.132714,49.94084921646118,2.010052Q49.985249216461185,1.887389,50.00774921646118,1.758912Q50.030249216461186,1.630435,50.030249216461186,1.5Q50.030249216461186,1.4263097,50.02304921646118,1.3529740000000001Q50.01584921646118,1.279639,50.00144921646118,1.207365Q49.98704921646118,1.13509,49.96564921646118,1.064573Q49.94424921646118,0.994056,49.91604921646118,0.925975Q49.88784921646118,0.857894,49.85314921646118,0.792905Q49.81844921646118,0.727916,49.77744921646118,0.666645Q49.736549216461185,0.605373,49.68974921646118,0.54841Q49.64304921646118,0.49144999999999994,49.59094921646118,0.43934000000000006Q49.53884921646118,0.38722999999999996,49.481849216461185,0.3404799999999999Q49.42494921646119,0.2937399999999999,49.363649216461184,0.2527999999999999Q49.30234921646118,0.21185999999999994,49.23734921646118,0.17711999999999994Q49.172349216461186,0.14237999999999995,49.10434921646118,0.11417999999999995Q49.03624921646119,0.08597999999999995,48.96574921646118,0.06458999999999993Q48.89514921646118,0.043199999999999905,48.82294921646118,0.028820000000000068Q48.750649216461184,0.014450000000000074,48.67734921646118,0.007220000000000004Q48.60394921646118,0,48.53024921646118,0Q45.06534921646118,0,41.89728921646118,1.292492Q38.83335921646118,2.5425199999999997,36.46870921646118,4.8233999999999995Q34.09834921646118,7.10978,32.79635821646118,10.07898Q31.44534921646118,13.16,31.44534921646118,16.5328Q31.44534921646118,21.4009,34.15814921646118,25.4758Q36.788479216461184,29.4269,41.16038921646118,31.4523Q41.16198921646118,31.453,41.16358921646118,31.4538Z" fill-rule="evenodd" fill="#328DFB" fill-opacity="1"/></g><g transform="matrix(0.5978189706802368,-0.8016310930252075,0.7802826762199402,0.6254270672798157,-0.18334169558352187,30.43383409459784)"><path d="M31.50759744644165,20.75499649810791L33.83314744644165,20.75499649810791Q33.90684744644165,20.75499649810791,33.98017744644165,20.74777649810791Q34.05351744644165,20.74055649810791,34.12578744644165,20.72617649810791Q34.19805744644165,20.71180649810791,34.268577446441654,20.69040649810791Q34.33909744644165,20.66901649810791,34.40717744644165,20.64081649810791Q34.47525744644165,20.61261649810791,34.540247446441654,20.577886498107908Q34.60523744644165,20.54314649810791,34.66650744644165,20.50220649810791Q34.72777744644165,20.46126649810791,34.78473744644165,20.41451649810791Q34.84170744644165,20.367766498107912,34.89380744644165,20.31565649810791Q34.94591744644165,20.26355649810791,34.99266744644165,20.20658649810791Q35.03941744644165,20.14962649810791,35.08035744644165,20.08835649810791Q35.12129744644165,20.02708649810791,35.15603744644165,19.96209649810791Q35.19076744644165,19.89710649810791,35.21896744644165,19.82902649810791Q35.24716744644165,19.76094649810791,35.26856744644165,19.69042649810791Q35.28995744644165,19.61990649810791,35.30432744644165,19.54763649810791Q35.31870744644165,19.47535649810791,35.32592744644165,19.40202649810791Q35.33315744644165,19.32868649810791,35.33314744644165,19.25499649810791Q35.33315744644165,19.18130649810791,35.32592744644165,19.10797649810791Q35.31870744644165,19.03463649810791,35.30432744644165,18.96236649810791Q35.28995744644165,18.89008649810791,35.26856744644165,18.81957649810791Q35.24716744644165,18.74905649810791,35.21896744644165,18.68097649810791Q35.19076744644165,18.61289649810791,35.15603744644165,18.54790649810791Q35.12129744644165,18.48291649810791,35.08035744644165,18.42164649810791Q35.03941744644165,18.36037649810791,34.99266744644165,18.30340649810791Q34.94591744644165,18.24644649810791,34.89380744644165,18.19433649810791Q34.84170744644165,18.14223649810791,34.78473744644165,18.09548649810791Q34.72777744644165,18.04873649810791,34.66650744644165,18.00779649810791Q34.60523744644165,17.96685649810791,34.540247446441654,17.93211649810791Q34.47525744644165,17.89737649810791,34.40717744644165,17.86917649810791Q34.33909744644165,17.84097649810791,34.268577446441654,17.81958649810791Q34.19805744644165,17.79819649810791,34.12578744644165,17.78382649810791Q34.05351744644165,17.76944649810791,33.98017744644165,17.76222649810791Q33.90684744644165,17.75499649810791,33.83314744644165,17.75499649810791L32.00759744644165,17.75499649810791L32.00759744644165,15.95949649810791Q32.00759744644165,15.88580619810791,32.000377446441654,15.81247049810791Q31.99314744644165,15.73913549810791,31.97877744644165,15.66686149810791Q31.96439744644165,15.59458649810791,31.94300744644165,15.52406949810791Q31.92161744644165,15.45355249810791,31.89341744644165,15.38547149810791Q31.86521744644165,15.31739049810791,31.830477446441652,15.25240149810791Q31.79573744644165,15.18741249810791,31.75479744644165,15.126141498107911Q31.71385744644165,15.06486949810791,31.66711744644165,15.00790649810791Q31.62036744644165,14.95094649810791,31.56825744644165,14.89883649810791Q31.51614744644165,14.84672649810791,31.45918744644165,14.79997649810791Q31.40222444644165,14.75323649810791,31.34095244644165,14.71229649810791Q31.27968144644165,14.67135649810791,31.21469244644165,14.63661649810791Q31.14970344644165,14.60187649810791,31.08162244644165,14.57367649810791Q31.01354144644165,14.54547649810791,30.94302444644165,14.52408649810791Q30.87250744644165,14.50269649810791,30.80023244644165,14.48831649810791Q30.72795844644165,14.47394649810791,30.65462344644165,14.46671649810791Q30.58128774644165,14.45949649810791,30.50759744644165,14.45949649810791Q30.43390714644165,14.45949649810791,30.36057144644165,14.46671649810791Q30.28723644644165,14.47394649810791,30.21496244644165,14.48831649810791Q30.142687446441652,14.50269649810791,30.07217044644165,14.52408649810791Q30.00165344644165,14.54547649810791,29.93357244644165,14.57367649810791Q29.865491446441652,14.60187649810791,29.80050244644165,14.63661649810791Q29.73551344644165,14.67135649810791,29.67424244644165,14.71229649810791Q29.61297044644165,14.75323649810791,29.55600744644165,14.79997649810791Q29.49904744644165,14.84672649810791,29.446937446441652,14.89883649810791Q29.39482744644165,14.95094649810791,29.34807744644165,15.00790649810791Q29.30133744644165,15.06486949810791,29.26039744644165,15.126141498107911Q29.219457446441652,15.18741249810791,29.18471744644165,15.25240149810791Q29.14997744644165,15.31739049810791,29.12177744644165,15.38547149810791Q29.09357744644165,15.45355249810791,29.07218744644165,15.52406949810791Q29.05079744644165,15.59458649810791,29.03641744644165,15.66686149810791Q29.02204744644165,15.73913549810791,29.01481744644165,15.81247049810791Q29.00759744644165,15.88580619810791,29.00759744644165,15.95949649810791L29.00759744644165,18.25499649810791Q29.00759744644165,19.29053649810791,29.73983044644165,20.02276649810791Q30.47206304644165,20.75499649810791,31.50759744644165,20.75499649810791Z" fill-rule="evenodd" fill="#328DFB" fill-opacity="1"/></g></g><g transform="matrix(-1,0,0,-1,65.56328582763672,63)"><g transform="matrix(0,1,-1,0,92.87444305419922,-29.87444305419922)"><path d="M69.59268305419921,61.4538L69.59306305419922,61.454Q69.89289305419922,61.5928,70.22331305419922,61.5928Q70.25599305419922,61.5928,70.28864305419921,61.5914Q70.39123305419922,61.5869,70.49225305419922,61.5685Q70.59327305419922,61.5501,70.69084305419922,61.518100000000004Q70.78841305419922,61.4861,70.88071305419922,61.4411Q70.97301305419921,61.396100000000004,71.05831305419922,61.338899999999995Q71.14361305419922,61.2817,71.22033305419922,61.213499999999996Q71.29705305419922,61.1452,71.36375305419922,61.0672Q71.43044305419922,60.9891,71.48594305419923,60.902699999999996Q71.54134305419922,60.816199999999995,71.58444305419923,60.723Q71.72334305419922,60.4232,71.72334305419922,60.0928Q71.72334305419922,60.0601,71.72184305419921,60.0275Q71.71744305419922,59.9249,71.69904305419922,59.823899999999995Q71.68064305419922,59.7228,71.64854305419922,59.625299999999996Q71.61654305419921,59.527699999999996,71.57154305419922,59.4354Q71.52654305419922,59.3431,71.46944305419922,59.2578Q71.41224305419922,59.1725,71.34400305419922,59.0958Q71.27575305419921,59.0191,71.19768305419922,58.9524Q71.11961305419922,58.8857,71.03318305419921,58.830200000000005Q70.94675305419922,58.7748,70.85357305419922,58.7316Q70.85215305419922,58.731,70.85074305419921,58.7303Q67.24613305419922,57.0604,65.08447305419922,53.8133Q62.87444305419922,50.4936,62.87444305419922,46.5328Q62.87444305419922,43.7888,63.97291305419922,41.28374Q65.03684305419922,38.85744,66.98052305419922,36.98262Q68.92991305419922,35.102289999999996,71.45964305419922,34.07021Q74.08284305419922,33,76.95934305419922,33Q77.09704305419922,33,77.23234305419922,32.97496Q77.36054305419921,32.95122,77.48284305419922,32.90571Q77.60504305419921,32.86019,77.71754305419921,32.79426Q77.83014305419923,32.72833,77.92964305419922,32.64396Q78.02904305419922,32.55959,78.11254305419922,32.459318Q78.19594305419922,32.359046,78.26074305419922,32.24588Q78.32564305419922,32.132714,78.36994305419921,32.010052Q78.41434305419922,31.887389,78.43684305419922,31.758912Q78.45934305419922,31.630435,78.45934305419922,31.5Q78.45934305419922,31.4263097,78.45214305419921,31.352974Q78.44494305419921,31.279639,78.43054305419922,31.207365Q78.41614305419921,31.13509,78.39474305419921,31.064573Q78.37334305419921,30.994056,78.34514305419921,30.925975Q78.31694305419921,30.857894,78.28224305419923,30.792905Q78.24754305419921,30.727916,78.20654305419922,30.666645Q78.16564305419922,30.605373,78.11884305419922,30.54841Q78.07214305419922,30.49145,78.02004305419922,30.43934Q77.96794305419922,30.38723,77.91094305419922,30.34048Q77.85404305419922,30.29374,77.79274305419922,30.2528Q77.73144305419922,30.21186,77.66644305419922,30.17712Q77.60144305419922,30.14238,77.53344305419921,30.11418Q77.46534305419922,30.08598,77.39484305419921,30.06459Q77.32424305419921,30.0432,77.25204305419922,30.02882Q77.17974305419922,30.01445,77.10644305419922,30.00722Q77.03304305419923,30,76.95934305419922,30Q73.49444305419922,30,70.32638305419923,31.292492Q67.26245305419921,32.54252,64.89780305419922,34.8234Q62.52744305419922,37.10978,61.225452054199216,40.07898Q59.87444305419922,43.16,59.87444305419922,46.5328Q59.87444305419922,51.4009,62.58724305419922,55.4758Q65.21757305419922,59.4269,69.58948305419922,61.4523Q69.59108305419922,61.453,69.59268305419921,61.4538Z" fill-rule="evenodd" fill="#328DFB" fill-opacity="1"/></g><g transform="matrix(0.5978189706802368,-0.8016310930252075,0.7802826762199402,0.6254270672798157,-12.158179759892107,64.4606676430655)"><path d="M59.93669128417969,50.75499649810791L62.26224128417969,50.75499649810791Q62.33594128417969,50.75499649810791,62.40927128417969,50.74777649810791Q62.48261128417969,50.74055649810791,62.554881284179686,50.72617649810791Q62.62715128417969,50.71180649810791,62.69767128417969,50.69040649810791Q62.768191284179686,50.66901649810791,62.83627128417969,50.64081649810791Q62.90435128417969,50.61261649810791,62.96934128417969,50.57788649810791Q63.034331284179686,50.54314649810791,63.095601284179686,50.50220649810791Q63.15687128417969,50.46126649810791,63.21383128417969,50.41451649810791Q63.27080128417969,50.36776649810791,63.322901284179686,50.31565649810791Q63.375011284179685,50.26355649810791,63.42176128417969,50.20658649810791Q63.468511284179684,50.14962649810791,63.50945128417969,50.08835649810791Q63.55039128417969,50.02708649810791,63.58513128417969,49.96209649810791Q63.619861284179684,49.89710649810791,63.64806128417969,49.82902649810791Q63.67626128417969,49.76094649810791,63.69766128417969,49.69042649810791Q63.719051284179685,49.61990649810791,63.733421284179684,49.54763649810791Q63.74780128417969,49.475356498107914,63.75502128417969,49.40202649810791Q63.76225128417969,49.32868649810791,63.76224128417969,49.25499649810791Q63.76225128417969,49.18130649810791,63.75502128417969,49.10797649810791Q63.74780128417969,49.03463649810791,63.733421284179684,48.96236649810791Q63.719051284179685,48.89008649810791,63.69766128417969,48.81957649810791Q63.67626128417969,48.74905649810791,63.64806128417969,48.68097649810791Q63.619861284179684,48.61289649810791,63.58513128417969,48.54790649810791Q63.55039128417969,48.48291649810791,63.50945128417969,48.42164649810791Q63.468511284179684,48.36037649810791,63.42176128417969,48.30340649810791Q63.375011284179685,48.24644649810791,63.322901284179686,48.19433649810791Q63.27080128417969,48.14223649810791,63.21383128417969,48.09548649810791Q63.15687128417969,48.048736498107914,63.095601284179686,48.00779649810791Q63.034331284179686,47.96685649810791,62.96934128417969,47.93211649810791Q62.90435128417969,47.89737649810791,62.83627128417969,47.86917649810791Q62.768191284179686,47.84097649810791,62.69767128417969,47.81958649810791Q62.62715128417969,47.79819649810791,62.554881284179686,47.78382649810791Q62.48261128417969,47.76944649810791,62.40927128417969,47.76222649810791Q62.33594128417969,47.75499649810791,62.26224128417969,47.75499649810791L60.43669128417969,47.75499649810791L60.43669128417969,45.95949649810791Q60.43669128417969,45.88580619810791,60.42947128417969,45.81247049810791Q60.42224128417969,45.73913549810791,60.407871284179684,45.66686149810791Q60.39349128417969,45.59458649810791,60.372101284179685,45.52406949810791Q60.35071128417969,45.45355249810791,60.32251128417969,45.38547149810791Q60.294311284179685,45.31739049810791,60.259571284179685,45.25240149810791Q60.224831284179686,45.18741249810791,60.18389128417969,45.12614149810791Q60.14295128417969,45.06486949810791,60.09621128417969,45.00790649810791Q60.049461284179685,44.95094649810791,59.997351284179686,44.89883649810791Q59.94524128417969,44.84672649810791,59.88828128417969,44.79997649810791Q59.83131828417969,44.75323649810791,59.770046284179685,44.71229649810791Q59.70877528417969,44.67135649810791,59.64378628417969,44.63661649810791Q59.578797284179686,44.60187649810791,59.510716284179686,44.57367649810791Q59.44263528417969,44.54547649810791,59.372118284179685,44.52408649810791Q59.30160128417969,44.50269649810791,59.229326284179685,44.48831649810791Q59.157052284179684,44.47394649810791,59.083717284179684,44.46671649810791Q59.01038158417969,44.45949649810791,58.93669128417969,44.45949649810791Q58.863000984179685,44.45949649810791,58.78966528417969,44.46671649810791Q58.71633028417969,44.47394649810791,58.64405628417969,44.48831649810791Q58.571781284179686,44.50269649810791,58.50126428417969,44.52408649810791Q58.43074728417969,44.54547649810791,58.36266628417969,44.57367649810791Q58.29458528417969,44.60187649810791,58.229596284179685,44.63661649810791Q58.16460728417969,44.67135649810791,58.10333628417969,44.71229649810791Q58.04206428417969,44.75323649810791,57.985101284179684,44.79997649810791Q57.92814128417969,44.84672649810791,57.87603128417969,44.89883649810791Q57.82392128417969,44.95094649810791,57.77717128417969,45.00790649810791Q57.73043128417969,45.06486949810791,57.68949128417969,45.12614149810791Q57.64855128417969,45.18741249810791,57.61381128417969,45.25240149810791Q57.57907128417969,45.31739049810791,57.550871284179685,45.38547149810791Q57.52267128417969,45.45355249810791,57.50128128417969,45.52406949810791Q57.479891284179686,45.59458649810791,57.46551128417969,45.66686149810791Q57.451141284179684,45.73913549810791,57.443911284179684,45.81247049810791Q57.43669128417969,45.88580619810791,57.43669128417969,45.95949649810791L57.43669128417969,48.25499649810791Q57.43669128417969,49.29053649810791,58.16892428417969,50.02276649810791Q58.901156884179684,50.75499649810791,59.93669128417969,50.75499649810791Z" fill-rule="evenodd" fill="#328DFB" fill-opacity="1"/></g></g></g></svg>