<svg xmlns="http://www.w3.org/2000/svg" xmlns:xlink="http://www.w3.org/1999/xlink" fill="none" version="1.1" width="31.489990234375" height="36.1640625" viewBox="0 0 31.489990234375 36.1640625"><defs><linearGradient x1="0.04964420944452286" y1="0.5" x2="0.27066487073898315" y2="0.5" id="master_svg0_729_9690"><stop offset="0%" stop-color="#0088CC" stop-opacity="1"/><stop offset="57.63599872589111%" stop-color="#2FB7FB" stop-opacity="1"/></linearGradient><filter id="master_svg1_729_9678" filterUnits="objectBoundingBox" color-interpolation-filters="sRGB" x="-0.6533517241477966" y="-0.3266758620738983" width="9.1382817029953" height="8.997612833976746"><feFlood flood-opacity="0" result="BackgroundImageFix"/><feColorMatrix in="SourceAlpha" type="matrix" values="0 0 0 0 0 0 0 0 0 0 0 0 0 0 0 0 0 0 127 0"/><feOffset dy="0.3266758620738983" dx="0"/><feGaussianBlur stdDeviation="0.16333793103694916"/><feColorMatrix type="matrix" values="0 0 0 0 0 0 0 0 0 0 0 0 0 0 0 0 0 0 0.30000001192092896 0"/><feBlend mode="normal" in2="BackgroundImageFix" result="effect1_dropShadow"/><feBlend mode="normal" in="SourceGraphic" in2="effect1_dropShadow" result="shape"/></filter></defs><g><g><path d="M28.5755,36.1640625L2.42126,36.1640625C1.08337,36.1640625,0,35.0873625,0,33.7618625L0,2.5629725C0,1.2375125,1.08337,0.1640625,2.42126,0.1640625L22.9922,0.1640625L30.9935,8.1626125L31,33.7618625C31,35.0873625,29.9134,36.1640625,28.5755,36.1640625Z" fill-rule="evenodd" fill="#FFFFFF" fill-opacity="1"/></g><g><path d="M2.2842072818374635,1.14588063955307L23.589347281837462,1.14588063955307L30.021047281837465,8.005520639553069L30.021047281837465,33.87318063955307C30.021047281837465,34.59318063955307,29.433647281837462,35.18228063955307,28.715747281837462,35.18228063955307L2.2842072818374635,35.18228063955307C1.5630522818374635,35.18228063955307,0.9789472818374634,34.59318063955307,0.9789472818374634,33.87318063955307L0.9789472818374634,2.4549706395530704C0.9789472818374634,1.73169863955307,1.5630522818374635,1.14588063955307,2.2842072818374635,1.14588063955307Z" fill-rule="evenodd" fill="#F3F3F3" fill-opacity="1"/></g><g><path d="M24.407452169799804,24.57481444946289L5.939958169799805,24.57481444946289C5.542897169799804,24.57481444946289,5.221052169799805,24.23873444946289,5.221052169799805,23.823885449462892C5.221052169799805,23.40923144946289,5.542897169799804,23.07315444946289,5.939958169799805,23.07315444946289L24.407452169799804,23.07315444946289C24.804452169799806,23.07315444946289,25.126352169799805,23.40923144946289,25.126352169799805,23.823885449462892C25.126352169799805,24.23873444946289,24.804452169799806,24.57481444946289,24.407452169799804,24.57481444946289ZM24.407452169799804,28.07843444946289L5.939958169799805,28.07843444946289C5.542897169799804,28.07843444946289,5.221052169799805,27.74238444946289,5.221052169799805,27.327534449462892C5.221052169799805,26.913014449462892,5.542897169799804,26.576964449462892,5.939958169799805,26.576964449462892L24.407452169799804,26.576964449462892C24.804452169799806,26.576964449462892,25.126352169799805,26.913014449462892,25.126352169799805,27.327534449462892C25.126352169799805,27.74238444946289,24.804452169799806,28.07843444946289,24.407452169799804,28.07843444946289ZM5.939958169799805,31.58224444946289L24.407452169799804,31.58224444946289C24.804452169799806,31.58224444946289,25.126352169799805,31.24617444946289,25.126352169799805,30.831354449462893C25.126352169799805,30.416664449462893,24.804452169799806,30.08058444946289,24.407452169799804,30.08058444946289L5.939958169799805,30.08058444946289C5.542897169799804,30.08058444946289,5.221052169799805,30.416664449462893,5.221052169799805,30.831354449462893C5.221052169799805,31.24617444946289,5.542897169799804,31.58224444946289,5.939958169799805,31.58224444946289Z" fill-rule="evenodd" fill="#808080" fill-opacity="1"/></g><g><rect x="5.547368049621582" y="6.054971694946289" width="14.031578063964844" height="14.072728157043457" rx="0" fill="url(#master_svg0_729_9690)" fill-opacity="1"/></g><g filter="url(#master_svg1_729_9678)"><path d="M23.168420791625977,6.5482725C23.168420791625977,7.2699425,23.753451791625977,7.8549725,24.475120791625976,7.8549725L31.000000791625975,7.8549725L23.168420791625977,0.1640625L23.168420791625977,6.5482725Z" fill="#FFFFFF" fill-opacity="1"/></g><g><path d="M10.4,13.4780625L10.4,12.7280625L12.08,12.7280625L12.08,14.5160625Q11.876,14.8460625,11.429,15.041062499999999Q10.982,15.2360625,10.442,15.2360625Q9.8,15.2360625,9.302,14.948062499999999Q8.804,14.6600625,8.528,14.1440625Q8.252,13.6280625,8.252,12.9620625Q8.252,12.2900625,8.537,11.7740625Q8.822,11.2580625,9.32,10.9760625Q9.818,10.6940625,10.424,10.6940625Q11.03,10.6940625,11.477,10.9670625Q11.924,11.2400625,12.08,11.666062499999999L11.36,12.0800625Q11.228,11.8040625,10.982,11.6450625Q10.736,11.4860625,10.4,11.4860625Q10.046,11.4860625,9.764,11.666062499999999Q9.482,11.8460625,9.32,12.1820625Q9.158,12.5180625,9.158,12.9620625Q9.158,13.4180625,9.323,13.7540625Q9.488,14.0900625,9.791,14.2700625Q10.094,14.4500625,10.496,14.4500625Q10.964,14.4500625,11.228,14.192062499999999L11.228,13.4780625L10.4,13.4780625ZM16.52,10.7720625L14.978,12.9140625L16.592,15.1640625L15.512,15.1640625L14.443999999999999,13.6220625L13.370000000000001,15.1640625L12.362,15.1640625L13.969999999999999,12.9320625L12.434000000000001,10.7720625L13.496,10.7720625L14.504,12.2240625L15.512,10.7720625L16.52,10.7720625Z" fill="#FFFFFF" fill-opacity="1"/></g></g></svg>