<svg xmlns="http://www.w3.org/2000/svg" xmlns:xlink="http://www.w3.org/1999/xlink" fill="none" version="1.1" width="31.489990234375" height="36.1640625" viewBox="0 0 31.489990234375 36.1640625"><defs><linearGradient x1="0.04964420944452286" y1="0.5" x2="0.27066487073898315" y2="0.5" id="master_svg0_729_9690"><stop offset="0%" stop-color="#0088CC" stop-opacity="1"/><stop offset="57.63599872589111%" stop-color="#2FB7FB" stop-opacity="1"/></linearGradient><filter id="master_svg1_729_9703" filterUnits="objectBoundingBox" color-interpolation-filters="sRGB" x="-0.6533517241477966" y="-0.3266758620738983" width="9.1382817029953" height="8.997612833976746"><feFlood flood-opacity="0" result="BackgroundImageFix"/><feColorMatrix in="SourceAlpha" type="matrix" values="0 0 0 0 0 0 0 0 0 0 0 0 0 0 0 0 0 0 127 0"/><feOffset dy="0.3266758620738983" dx="0"/><feGaussianBlur stdDeviation="0.16333793103694916"/><feColorMatrix type="matrix" values="0 0 0 0 0 0 0 0 0 0 0 0 0 0 0 0 0 0 0.30000001192092896 0"/><feBlend mode="normal" in2="BackgroundImageFix" result="effect1_dropShadow"/><feBlend mode="normal" in="SourceGraphic" in2="effect1_dropShadow" result="shape"/></filter></defs><g><g><path d="M28.5755,36.1640625L2.42126,36.1640625C1.08337,36.1640625,0,35.0873625,0,33.7618625L0,2.5629725C0,1.2375125,1.08337,0.1640625,2.42126,0.1640625L22.9922,0.1640625L30.9935,8.1626125L31,33.7618625C31,35.0873625,29.9134,36.1640625,28.5755,36.1640625Z" fill-rule="evenodd" fill="#FFFFFF" fill-opacity="1"/></g><g><path d="M2.2842072818374635,1.14588063955307L23.589347281837462,1.14588063955307L30.021047281837465,8.005520639553069L30.021047281837465,33.87318063955307C30.021047281837465,34.59318063955307,29.433647281837462,35.18228063955307,28.715747281837462,35.18228063955307L2.2842072818374635,35.18228063955307C1.5630522818374635,35.18228063955307,0.9789472818374634,34.59318063955307,0.9789472818374634,33.87318063955307L0.9789472818374634,2.4549706395530704C0.9789472818374634,1.73169863955307,1.5630522818374635,1.14588063955307,2.2842072818374635,1.14588063955307Z" fill-rule="evenodd" fill="#F3F3F3" fill-opacity="1"/></g><g><path d="M24.407452169799804,24.57481444946289L5.939958169799805,24.57481444946289C5.542897169799804,24.57481444946289,5.221052169799805,24.23873444946289,5.221052169799805,23.823885449462892C5.221052169799805,23.40923144946289,5.542897169799804,23.07315444946289,5.939958169799805,23.07315444946289L24.407452169799804,23.07315444946289C24.804452169799806,23.07315444946289,25.126352169799805,23.40923144946289,25.126352169799805,23.823885449462892C25.126352169799805,24.23873444946289,24.804452169799806,24.57481444946289,24.407452169799804,24.57481444946289ZM24.407452169799804,28.07843444946289L5.939958169799805,28.07843444946289C5.542897169799804,28.07843444946289,5.221052169799805,27.74238444946289,5.221052169799805,27.327534449462892C5.221052169799805,26.913014449462892,5.542897169799804,26.576964449462892,5.939958169799805,26.576964449462892L24.407452169799804,26.576964449462892C24.804452169799806,26.576964449462892,25.126352169799805,26.913014449462892,25.126352169799805,27.327534449462892C25.126352169799805,27.74238444946289,24.804452169799806,28.07843444946289,24.407452169799804,28.07843444946289ZM5.939958169799805,31.58224444946289L24.407452169799804,31.58224444946289C24.804452169799806,31.58224444946289,25.126352169799805,31.24617444946289,25.126352169799805,30.831354449462893C25.126352169799805,30.416664449462893,24.804452169799806,30.08058444946289,24.407452169799804,30.08058444946289L5.939958169799805,30.08058444946289C5.542897169799804,30.08058444946289,5.221052169799805,30.416664449462893,5.221052169799805,30.831354449462893C5.221052169799805,31.24617444946289,5.542897169799804,31.58224444946289,5.939958169799805,31.58224444946289Z" fill-rule="evenodd" fill="#808080" fill-opacity="1"/></g><g><rect x="5.547368049621582" y="6.054971694946289" width="14.031578063964844" height="14.072728157043457" rx="0" fill="url(#master_svg0_729_9690)" fill-opacity="1"/></g><g filter="url(#master_svg1_729_9703)"><path d="M23.168420791625977,6.5482725C23.168420791625977,7.2699425,23.753451791625977,7.8549725,24.475120791625976,7.8549725L31.000000791625975,7.8549725L23.168420791625977,0.1640625L23.168420791625977,6.5482725Z" fill="#FFFFFF" fill-opacity="1"/></g><g><path d="M9.538,12.8720625Q9.904,13.0100625,10.096,13.2770625Q10.288,13.544062499999999,10.288,13.9400625Q10.288,14.348062500000001,10.081,14.6390625Q9.874,14.9300625,9.523,15.0830625Q9.172,15.2360625,8.746,15.2360625Q8.2,15.2360625,7.795,14.9780625Q7.39,14.720062500000001,7.222,14.2280625L7.912,13.8320625Q8.008,14.1440625,8.23,14.3030625Q8.452,14.4620625,8.728,14.4620625Q8.998,14.4620625,9.181000000000001,14.3060625Q9.364,14.1500625,9.364,13.8740625Q9.364,13.2680625,8.44,13.2680625L8.278,13.2680625L8.278,12.5480625L8.512,12.5480625Q8.854,12.5480625,9.036999999999999,12.3830625Q9.22,12.2180625,9.22,11.9720625Q9.22,11.7440625,9.07,11.6060625Q8.92,11.4680625,8.68,11.4680625Q8.422,11.4680625,8.233,11.6330625Q8.044,11.7980625,7.942,12.1040625L7.282,11.7260625Q7.438,11.2220625,7.828,10.9550625Q8.218,10.688062500000001,8.752,10.688062500000001Q9.166,10.688062500000001,9.481,10.8410625Q9.796,10.9940625,9.97,11.2700625Q10.144,11.5460625,10.144,11.9060625Q10.144,12.2420625,9.991,12.4880625Q9.838000000000001,12.7340625,9.538,12.8720625ZM14.751999999999999,10.7720625L15.412,10.7720625L15.412,15.1640625L14.584,15.1640625L14.584,12.3320625L13.468,13.9940625L13.012,13.9940625L11.89,12.3200625L11.89,15.1640625L11.068,15.1640625L11.068,10.7720625L11.758,10.7720625L13.258,13.0460625L14.751999999999999,10.7720625ZM16.336,10.7720625L19.198,10.7720625L19.198,11.534062500000001L17.206,11.534062500000001L17.206,12.6560625L18.988,12.6560625L18.988,13.412062500000001L17.206,13.412062500000001L17.206,15.1640625L16.336,15.1640625L16.336,10.7720625Z" fill="#FFFFFF" fill-opacity="1"/></g></g></svg>