<svg viewBox="0 0 20 20" xmlns="http://www.w3.org/2000/svg" xmlns:xlink="http://www.w3.org/1999/xlink" width="20.000000" height="20.000000" fill="none" customFrame="#000000">
	<rect id="组合 1690" width="20.000000" height="20.000000" x="0.000000" y="0.000000" />
	<path id="矢量 456" d="M3.10177 15.7237C2.93327 15.7238 2.78364 15.6707 2.65287 15.5643C2.51034 15.4489 2.37246 15.3282 2.23921 15.2021C2.10596 15.0761 1.97774 14.9452 1.85456 14.8093C1.73137 14.6734 1.61358 14.5329 1.50119 14.3879C1.38879 14.2429 1.28213 14.0938 1.18119 13.9406C1.08025 13.7874 0.985342 13.6306 0.896457 13.47C0.807573 13.3095 0.724978 13.1458 0.648673 12.9789C0.572367 12.812 0.502577 12.6424 0.439302 12.4702C0.376027 12.2979 0.319454 12.1234 0.269584 11.9468C0.219714 11.7702 0.176693 11.5919 0.140522 11.4119C0.104352 11.232 0.0751377 11.0509 0.0528806 10.8687C0.0306235 10.6865 0.015389 10.5037 0.00717708 10.3203C-0.0010348 10.1369 -0.00219977 9.95353 0.00368216 9.77006C0.0095641 9.58659 0.0224755 9.40362 0.0424165 9.22115C0.0623574 9.03868 0.0892689 8.85725 0.123151 8.67685C0.157033 8.49645 0.197785 8.31763 0.245408 8.14037C0.293031 7.96311 0.347383 7.78795 0.408465 7.61489C0.469546 7.44182 0.537177 7.27137 0.611356 7.10351C0.685536 6.93566 0.766044 6.77091 0.852883 6.60927C0.939721 6.44762 1.03263 6.28956 1.13162 6.13508C1.2306 5.9806 1.33536 5.83015 1.44591 5.68375C1.55645 5.53734 1.67245 5.39541 1.79389 5.25795C1.91534 5.12048 2.04189 4.9879 2.17352 4.86019C2.30516 4.73248 2.4415 4.61003 2.58255 4.49284C2.72359 4.37564 2.86893 4.26405 3.01855 4.15805C3.16817 4.05206 3.32163 3.95199 3.47894 3.85782C3.63625 3.76366 3.79694 3.6757 3.96101 3.59392C4.12508 3.51215 4.29204 3.43681 4.4619 3.36791C4.63176 3.29901 4.80401 3.23675 4.97865 3.18113C5.1533 3.12551 5.32981 3.07669 5.50821 3.03468C5.6866 2.99266 5.86634 2.95758 6.04743 2.92942C6.22852 2.90126 6.41042 2.88012 6.59313 2.86599C6.77585 2.85185 6.95883 2.84477 7.14209 2.84475L11.8465 2.84475L11.6371 2.63524C11.604 2.60201 11.5744 2.56586 11.5484 2.52679C11.5224 2.48773 11.5004 2.4465 11.4825 2.4031C11.4646 2.3597 11.4511 2.31497 11.4419 2.2689C11.4328 2.22284 11.4283 2.17633 11.4283 2.12936C11.4283 2.0824 11.4329 2.03589 11.442 1.98984C11.4512 1.94378 11.4647 1.89906 11.4827 1.85567C11.5006 1.81229 11.5227 1.77107 11.5487 1.73203C11.5748 1.69298 11.6044 1.65686 11.6375 1.62365C11.6707 1.59044 11.7067 1.56079 11.7457 1.5347C11.7847 1.5086 11.8258 1.48657 11.8691 1.46859C11.9125 1.45061 11.9571 1.43703 12.0031 1.42785C12.0491 1.41868 12.0955 1.41408 12.1424 1.41406C12.1893 1.41404 12.2357 1.41861 12.2817 1.42774C12.3277 1.43688 12.3723 1.45043 12.4157 1.46837C12.459 1.48632 12.5002 1.50833 12.5392 1.53439C12.5782 1.56046 12.6142 1.59008 12.6474 1.62326L14.076 3.05425C14.1092 3.08747 14.1388 3.12362 14.1649 3.16268C14.191 3.20175 14.213 3.24299 14.2309 3.2864C14.2489 3.32981 14.2624 3.37455 14.2716 3.42064C14.2807 3.46672 14.2853 3.51326 14.2853 3.56024C14.2853 3.60723 14.2807 3.65376 14.2716 3.69985C14.2624 3.74593 14.2489 3.79068 14.2309 3.83409C14.213 3.8775 14.191 3.91874 14.1649 3.9578C14.1388 3.99687 14.1092 4.03301 14.076 4.06623L12.6474 5.49722C12.6142 5.53041 12.5782 5.56003 12.5392 5.58609C12.5002 5.61216 12.459 5.63416 12.4157 5.65211C12.3723 5.67006 12.3277 5.6836 12.2817 5.69274C12.2357 5.70188 12.1893 5.70644 12.1424 5.70642C12.0955 5.7064 12.0491 5.70181 12.0031 5.69263C11.9571 5.68346 11.9125 5.66988 11.8691 5.6519C11.8258 5.63392 11.7847 5.61188 11.7457 5.58579C11.7067 5.55969 11.6707 5.53004 11.6375 5.49683C11.6044 5.46363 11.5748 5.4275 11.5487 5.38845C11.5227 5.34941 11.5007 5.3082 11.4827 5.26481C11.4648 5.22143 11.4512 5.17671 11.442 5.13065C11.4329 5.08459 11.4283 5.03808 11.4283 4.99112C11.4283 4.94416 11.4328 4.89764 11.4419 4.85158C11.4511 4.80552 11.4646 4.76078 11.4825 4.71739C11.5004 4.67399 11.5224 4.63276 11.5484 4.59369C11.5744 4.55463 11.604 4.51848 11.6371 4.48524L11.8465 4.27574L7.14209 4.27574C3.99108 4.27574 1.4276 6.84348 1.4276 9.99971C1.42722 10.2126 1.4387 10.4248 1.46205 10.6364C1.48539 10.8479 1.52045 11.0575 1.56723 11.2652C1.614 11.4728 1.6722 11.6772 1.74182 11.8783C1.81144 12.0794 1.89205 12.276 1.98365 12.4681C2.07525 12.6602 2.17726 12.8465 2.28969 13.0272C2.40212 13.2078 2.52426 13.3816 2.65612 13.5485C2.78797 13.7154 2.92872 13.8745 3.07835 14.0256C3.22798 14.1768 3.38557 14.3191 3.55111 14.4526C3.6084 14.4991 3.65731 14.5533 3.69785 14.615C3.73839 14.6767 3.76866 14.7431 3.78865 14.8143C3.80864 14.8854 3.81742 14.9579 3.81499 15.0317C3.81256 15.1056 3.79904 15.1773 3.77441 15.247C3.74979 15.3167 3.71522 15.3809 3.67072 15.4399C3.62621 15.4988 3.57384 15.5496 3.51362 15.5923C3.4534 15.635 3.38814 15.6675 3.31785 15.6899C3.24756 15.7124 3.17553 15.7236 3.10177 15.7237ZM8.36155 18.3762C8.39473 18.3429 8.42435 18.3068 8.45041 18.2677C8.47648 18.2287 8.49849 18.1874 8.51644 18.144C8.53439 18.1006 8.54795 18.0559 8.5571 18.0098C8.56625 17.9637 8.57083 17.9172 8.57083 17.8702C8.57083 17.8232 8.56625 17.7766 8.5571 17.7306C8.54795 17.6845 8.53439 17.6397 8.51644 17.5963C8.49849 17.5529 8.47648 17.5117 8.45041 17.4726C8.42435 17.4335 8.39473 17.3974 8.36155 17.3642L8.15217 17.1547L12.8566 17.1547C13.0399 17.1547 13.2229 17.1476 13.4056 17.1335C13.5884 17.1194 13.7703 17.0983 13.9514 17.0702C14.1326 17.042 14.3123 17.007 14.4908 16.965C14.6692 16.923 14.8457 16.8742 15.0204 16.8186C15.1951 16.763 15.3674 16.7007 15.5373 16.6318C15.7072 16.5629 15.8742 16.4876 16.0383 16.4059C16.2024 16.3241 16.3631 16.2361 16.5204 16.142C16.6778 16.0478 16.8313 15.9477 16.9809 15.8417C17.1306 15.7357 17.2759 15.6241 17.417 15.5069C17.5581 15.3897 17.6945 15.2673 17.8261 15.1396C17.9578 15.0118 18.0844 14.8792 18.2059 14.7418C18.3273 14.6043 18.4434 14.4623 18.5539 14.3159C18.6645 14.1695 18.7693 14.019 18.8683 13.8645C18.9673 13.71 19.0602 13.5519 19.1471 13.3903C19.2339 13.2286 19.3144 13.0638 19.3886 12.8959C19.4628 12.7281 19.5305 12.5576 19.5916 12.3845C19.6526 12.2114 19.707 12.0362 19.7546 11.8589C19.8023 11.6816 19.843 11.5028 19.8769 11.3224C19.9108 11.1419 19.9377 10.9605 19.9576 10.778C19.9776 10.5955 19.9905 10.4125 19.9963 10.229C20.0022 10.0455 20.001 9.86202 19.9928 9.67861C19.9846 9.49521 19.9693 9.31239 19.9471 9.13016C19.9248 8.94793 19.8955 8.76683 19.8594 8.58685C19.8232 8.40688 19.7801 8.22856 19.7302 8.0519C19.6803 7.87525 19.6237 7.70077 19.5604 7.52848C19.4971 7.35619 19.4273 7.18659 19.351 7.01968C19.2746 6.85277 19.192 6.68905 19.1031 6.52851C19.0141 6.36797 18.9192 6.21109 18.8182 6.05788C18.7172 5.90466 18.6105 5.75556 18.4981 5.61057C18.3857 5.46558 18.2678 5.32513 18.1446 5.18923C18.0214 5.05333 17.8931 4.92237 17.7598 4.79635C17.6265 4.67034 17.4886 4.54964 17.346 4.43427C17.3096 4.40467 17.2706 4.37891 17.229 4.35701C17.1875 4.33511 17.1443 4.31748 17.0993 4.30412C17.0543 4.29076 17.0084 4.28193 16.9617 4.27762C16.9149 4.27332 16.8682 4.27363 16.8215 4.27854C16.7749 4.28346 16.7291 4.29289 16.6843 4.30684C16.6395 4.32079 16.5965 4.33898 16.5552 4.36143C16.514 4.38387 16.4753 4.41013 16.4393 4.44021C16.4032 4.47028 16.3704 4.5036 16.3409 4.54014C16.3114 4.57669 16.2857 4.61578 16.2639 4.6574C16.242 4.69902 16.2245 4.74237 16.2112 4.78745C16.1979 4.83254 16.1891 4.87849 16.1849 4.9253C16.1806 4.97212 16.181 5.0189 16.1859 5.06565C16.1909 5.1124 16.2003 5.15821 16.2143 5.20309C16.2283 5.24797 16.2465 5.29105 16.2689 5.33234C16.2914 5.37362 16.3176 5.41232 16.3477 5.44842C16.3778 5.48452 16.411 5.51733 16.4476 5.54686C16.6131 5.68034 16.7707 5.82265 16.9203 5.97379C17.07 6.12494 17.2107 6.28398 17.3426 6.45091C17.4744 6.61785 17.5966 6.79163 17.709 6.97226C17.8214 7.15289 17.9234 7.33925 18.015 7.53132C18.1066 7.72339 18.1872 7.91999 18.2569 8.1211C18.3265 8.32221 18.3847 8.52659 18.4314 8.73423C18.4782 8.94187 18.5133 9.15148 18.5366 9.36306C18.56 9.57463 18.5715 9.78685 18.5711 9.99971C18.5711 13.1559 16.0076 15.7237 12.8566 15.7237L8.15217 15.7237L8.36155 15.5142C8.39472 15.4809 8.42434 15.4448 8.4504 15.4057C8.47646 15.3667 8.49846 15.3254 8.51641 15.282C8.53436 15.2386 8.54792 15.1939 8.55707 15.1478C8.56622 15.1017 8.5708 15.0552 8.5708 15.0082C8.5708 14.9612 8.56622 14.9147 8.55707 14.8686C8.54792 14.8225 8.53437 14.7777 8.51641 14.7343C8.49846 14.6909 8.47646 14.6497 8.4504 14.6106C8.42434 14.5716 8.39472 14.5354 8.36155 14.5022C8.32838 14.469 8.2923 14.4393 8.2533 14.4132C8.2143 14.3871 8.17313 14.3651 8.12979 14.3471C8.08645 14.3291 8.04178 14.3155 7.99577 14.3064C7.94977 14.2972 7.90331 14.2926 7.8564 14.2926C7.80949 14.2926 7.76304 14.2972 7.71703 14.3064C7.67102 14.3155 7.62635 14.3291 7.58301 14.3471C7.53968 14.3651 7.49851 14.3871 7.45951 14.4132C7.4205 14.4393 7.38442 14.469 7.35125 14.5022L5.92263 15.9332C5.88945 15.9664 5.85983 16.0025 5.83377 16.0416C5.8077 16.0807 5.78569 16.1219 5.76774 16.1653C5.74979 16.2087 5.73623 16.2535 5.72708 16.2996C5.71793 16.3456 5.71335 16.3922 5.71335 16.4392C5.71335 16.4862 5.71793 16.5327 5.72708 16.5788C5.73623 16.6249 5.74979 16.6696 5.76774 16.713C5.78569 16.7564 5.8077 16.7977 5.83377 16.8367C5.85983 16.8758 5.88945 16.9119 5.92263 16.9452L7.35125 18.3762C7.38442 18.4094 7.4205 18.4391 7.4595 18.4652C7.4985 18.4913 7.53967 18.5133 7.58301 18.5313C7.62635 18.5493 7.67102 18.5629 7.71703 18.572C7.76303 18.5812 7.80949 18.5858 7.8564 18.5858C7.90331 18.5858 7.94977 18.5812 7.99578 18.572C8.04178 18.5629 8.08646 18.5493 8.1298 18.5313C8.17313 18.5133 8.2143 18.4913 8.2533 18.4652C8.2923 18.4391 8.32839 18.4094 8.36155 18.3762Z" fill="rgb(65,148,136)" fill-rule="nonzero" />
</svg>
