<svg width="14" height="16" viewBox="0 0 14 16" fill="none" xmlns="http://www.w3.org/2000/svg">
<path d="M12.5983 16H0.940171C0.690908 15.9997 0.451934 15.9039 0.275679 15.7334C0.0994231 15.563 0.000279949 15.3319 0 15.0909V0.909094C0.000279949 0.668071 0.0994231 0.436998 0.275679 0.266569C0.451934 0.09614 0.690908 0.000274105 0.940171 3.41049e-06H9.16807C9.29159 -0.000324792 9.41395 0.0230381 9.52806 0.0687399C9.64218 0.114442 9.74579 0.181575 9.83289 0.266253L13.2631 3.58307C13.3507 3.6673 13.4201 3.76748 13.4674 3.87782C13.5146 3.98817 13.5388 4.10648 13.5385 4.22591V15.0909C13.5382 15.3319 13.439 15.563 13.2628 15.7334C13.0865 15.9039 12.8476 15.9997 12.5983 16ZM0.940171 0.727276C0.890301 0.727276 0.842474 0.746432 0.807211 0.780529C0.771947 0.814627 0.752137 0.860873 0.752137 0.909094V15.0909C0.752137 15.1391 0.771947 15.1854 0.807211 15.2195C0.842474 15.2536 0.890301 15.2727 0.940171 15.2727H12.5983C12.6482 15.2727 12.696 15.2536 12.7312 15.2195C12.7665 15.1854 12.7863 15.1391 12.7863 15.0909V4.36364H9.96581C9.71655 4.36337 9.47757 4.2675 9.30132 4.09707C9.12506 3.92664 9.02592 3.69557 9.02564 3.45455V0.727276H0.940171ZM9.77778 1.24148V3.45455C9.77778 3.50277 9.79759 3.54902 9.83285 3.58311C9.86811 3.61721 9.91594 3.63637 9.96581 3.63637H12.2545L9.77778 1.24148ZM10.1538 12.3636H3.38461C3.28487 12.3636 3.18922 12.3253 3.11869 12.2571C3.04817 12.1889 3.00855 12.0964 3.00855 12C3.00855 11.9036 3.04817 11.8111 3.11869 11.7429C3.18922 11.6747 3.28487 11.6364 3.38461 11.6364H10.1538C10.2536 11.6364 10.3492 11.6747 10.4198 11.7429C10.4903 11.8111 10.5299 11.9036 10.5299 12C10.5299 12.0964 10.4903 12.1889 10.4198 12.2571C10.3492 12.3253 10.2536 12.3636 10.1538 12.3636ZM10.1538 8.72727H3.38461C3.28487 8.72727 3.18922 8.68896 3.11869 8.62077C3.04817 8.55257 3.00855 8.46008 3.00855 8.36364C3.00855 8.2672 3.04817 8.1747 3.11869 8.10651C3.18922 8.03831 3.28487 8 3.38461 8H10.1538C10.2536 8 10.3492 8.03831 10.4198 8.10651C10.4903 8.1747 10.5299 8.2672 10.5299 8.36364C10.5299 8.46008 10.4903 8.55257 10.4198 8.62077C10.3492 8.68896 10.2536 8.72727 10.1538 8.72727ZM6.39316 4.36364H3.38461C3.28487 4.36364 3.18922 4.32533 3.11869 4.25713C3.04817 4.18894 3.00855 4.09645 3.00855 4C3.00855 3.90356 3.04817 3.81107 3.11869 3.74287C3.18922 3.67468 3.28487 3.63637 3.38461 3.63637H6.39316C6.4929 3.63637 6.58855 3.67468 6.65908 3.74287C6.72961 3.81107 6.76923 3.90356 6.76923 4C6.76923 4.09645 6.72961 4.18894 6.65908 4.25713C6.58855 4.32533 6.4929 4.36364 6.39316 4.36364Z" fill="#328DFB"/>
</svg>
