<svg width="20" height="10" viewBox="0 0 20 10" fill="none" xmlns="http://www.w3.org/2000/svg">
<path d="M9.16289 6.62367C8.38864 6.57591 7.63272 6.45611 6.90886 6.27179L5.40984 9.21079C5.35892 9.30999 5.28707 9.399 5.19842 9.47273C5.10977 9.54646 5.00606 9.60345 4.89325 9.64043C4.78044 9.67741 4.66075 9.69365 4.54106 9.68821C4.42137 9.68277 4.30403 9.65577 4.19578 9.60875C3.97692 9.51548 3.80717 9.34698 3.72344 9.13989C3.63971 8.93281 3.64877 8.70387 3.74864 8.50285L5.18719 5.68198C3.96435 5.15614 2.87515 4.4025 1.9894 3.46935C1.33473 2.7776 0.82139 1.98387 0.473887 1.12603C0.432495 1.02272 0.413763 0.912964 0.418759 0.803034C0.423756 0.693104 0.452384 0.585151 0.503008 0.485337C0.553633 0.385524 0.625263 0.295806 0.713809 0.221304C0.802355 0.146803 0.906082 0.0889772 1.01907 0.0511298C1.13206 0.0132824 1.25209 -0.00384583 1.37231 0.000722829C1.49254 0.00529149 1.61061 0.0314679 1.71977 0.0777571C1.82893 0.124046 1.92705 0.189542 2.00853 0.270504C2.09001 0.351467 2.15325 0.446311 2.19465 0.549621C2.46685 1.21903 2.86846 1.83824 3.3803 2.3777C4.89581 3.99298 7.30927 4.9732 9.94447 4.9732C12.5806 4.9732 14.994 3.99214 16.5096 2.3777C17.0214 1.83824 17.423 1.21903 17.6952 0.549621C17.7788 0.340977 17.9496 0.171242 18.1701 0.0777571C18.3906 -0.0157281 18.6426 -0.0253064 18.8708 0.0511298C19.099 0.127566 19.2846 0.283755 19.3868 0.485337C19.4891 0.68692 19.4996 0.917383 19.416 1.12603C19.0685 1.98387 18.5551 2.7776 17.9005 3.46935C17.7709 3.60739 17.6365 3.74151 17.4973 3.8715L19.7385 5.92075C19.9075 6.07839 20.0016 6.29063 20.0004 6.51135C19.9992 6.73207 19.9028 6.94345 19.7321 7.09954C19.648 7.17751 19.5479 7.23954 19.4375 7.28205C19.3271 7.32456 19.2086 7.34673 19.0888 7.34727C18.969 7.34782 18.8503 7.32673 18.7395 7.28522C18.6286 7.24372 18.5278 7.18261 18.4429 7.1054L16.0881 4.95226C15.6483 5.22873 15.181 5.47421 14.6917 5.68701L16.1284 8.50202C16.2285 8.70312 16.2378 8.93227 16.154 9.13955C16.0703 9.34684 15.9003 9.51548 15.6812 9.60875C15.573 9.65577 15.4557 9.68277 15.336 9.68821C15.2163 9.69365 15.0966 9.67741 14.9838 9.64043C14.871 9.60345 14.7673 9.54646 14.6786 9.47273C14.59 9.399 14.5181 9.30999 14.4672 9.21079L12.97 6.27431C12.324 6.43826 11.6631 6.54873 10.9954 6.6044V9.16974C10.9933 9.39063 10.8958 9.6018 10.7242 9.75729C10.5526 9.91278 10.3208 10 10.0792 10C9.56971 10 9.16289 9.62802 9.16289 9.17058V6.62367Z" fill="#999999"/>
<path d="M2.86593 3.54063C2.95083 3.46337 3.05157 3.4022 3.16238 3.36062C3.2732 3.31904 3.3919 3.29788 3.51167 3.29835C3.63145 3.29881 3.74995 3.3209 3.86037 3.36334C3.97079 3.40578 4.07096 3.46774 4.15513 3.54566C4.32608 3.70179 4.42267 3.91334 4.42388 4.13426C4.42508 4.35519 4.33079 4.56761 4.16154 4.72528L1.55841 7.10547C1.47344 7.1828 1.3726 7.24402 1.26167 7.2856C1.15074 7.32718 1.03191 7.3483 0.912027 7.34776C0.79214 7.34721 0.673552 7.32501 0.56308 7.28242C0.452609 7.23984 0.352431 7.17771 0.268305 7.0996C0.0976268 6.94351 0.00121233 6.73214 1.1355e-05 6.51142C-0.00118962 6.2907 0.0929199 6.07846 0.261891 5.92082L2.86593 3.53979V3.54063Z" fill="#999999"/>
</svg>
