<svg width="14" height="16" viewBox="0 0 14 16" fill="none" xmlns="http://www.w3.org/2000/svg">
<path d="M13.5947 2.48698C13.5579 2.48374 9.84573 2.07681 7.26537 0.0907893C7.18737 0.0308035 7.09712 0 7.00076 0C6.90593 0 6.81415 0.0308035 6.73615 0.0907893C4.16956 2.06546 0.44357 2.48374 0.406861 2.48698C0.174369 2.50968 0 2.71557 0 2.962C0 3.07062 0.00917729 5.65002 0.838195 8.54555C1.32918 10.2608 2.00677 11.7297 2.85567 12.9099C3.93095 14.4063 5.28001 15.4391 6.8631 15.9773C6.90746 15.9919 6.95334 16 7.00076 16C7.04818 16 7.09406 15.9919 7.13689 15.9773C8.72151 15.4391 10.069 14.4079 11.1443 12.9099C11.9917 11.7313 12.6708 10.2641 13.1618 8.54555C13.9893 5.65002 14 3.07062 14 2.962C14.0015 2.71557 13.8272 2.5113 13.5947 2.48698ZM13.0899 3.3819L13.0884 3.40784C13.044 4.34978 12.8834 6.23528 12.3022 8.26994C11.282 11.8383 9.50158 14.108 7.00994 15.0159L7.00076 15.0192L6.99158 15.0159C4.50759 14.1096 2.72872 11.848 1.70545 8.29263C1.09669 6.17692 0.949852 4.17145 0.913143 3.40622L0.911613 3.38028L0.934556 3.37704C2.01442 3.21005 4.76608 2.65072 6.98393 1.0684L6.9977 1.05705L7.013 1.0684C9.23391 2.65072 11.9856 3.21005 13.0654 3.37866L13.0899 3.3819Z" fill="#999999"/>
<path d="M8.98596 5.38878L6.3123 9.10628L4.951 7.87252C4.86993 7.79956 4.76592 7.75903 4.65885 7.75903C4.52731 7.75903 4.40189 7.81901 4.31623 7.92602C4.15563 8.12543 4.17704 8.4286 4.36671 8.59883L6.09051 10.1617C6.17005 10.233 6.28018 10.2752 6.39031 10.2752C6.40407 10.2752 6.41784 10.2752 6.4316 10.2736C6.55397 10.2606 6.66716 10.1925 6.7421 10.0887L9.70485 5.9708C9.77826 5.86866 9.80886 5.74383 9.79203 5.61737C9.77674 5.49092 9.71402 5.37905 9.61919 5.30123C9.41882 5.13911 9.13585 5.17964 8.98596 5.38878Z" fill="#999999"/>
</svg>
