<svg width="14" height="16" viewBox="0 0 14 16" fill="none" xmlns="http://www.w3.org/2000/svg">
<path d="M12.5312 6H12V5C12 4.32812 11.8672 3.67344 11.6047 3.05781C11.3531 2.4625 10.9906 1.92812 10.5312 1.46875C10.0719 1.00938 9.5375 0.648438 8.94219 0.395312C8.32656 0.132812 7.67188 0 7 0C6.32812 0 5.67344 0.132812 5.05781 0.395312C4.4625 0.646875 3.92812 1.00938 3.46875 1.46875C3.00938 1.92812 2.64844 2.4625 2.39531 3.05781C2.13281 3.67344 2 4.32812 2 5V6H1.46875C0.659375 6 0 6.65938 0 7.46875V14.5312C0 15.3406 0.659375 16 1.46875 16H12.5312C13.3406 16 14 15.3406 14 14.5312V7.46875C14 6.65938 13.3406 6 12.5312 6ZM2.9375 5C2.9375 3.92031 3.36094 2.90156 4.13125 2.13125C4.90156 1.36094 5.92031 0.9375 7 0.9375C8.07969 0.9375 9.09844 1.36094 9.86875 2.13125C10.6391 2.90156 11.0625 3.92031 11.0625 5V6H2.9375V5ZM13.0625 14.5312C13.0625 14.8234 12.8234 15.0625 12.5312 15.0625H1.46875C1.17656 15.0625 0.9375 14.8234 0.9375 14.5312V7.46875C0.9375 7.17656 1.17656 6.9375 1.46875 6.9375H12.5312C12.8234 6.9375 13.0625 7.17656 13.0625 7.46875V14.5312Z" fill="#999999"/>
<path d="M7 8.77295C6.74219 8.77295 6.53125 8.98389 6.53125 9.2417V11.3042C6.53125 11.562 6.74219 11.7729 7 11.7729C7.25781 11.7729 7.46875 11.562 7.46875 11.3042V9.2417C7.46875 8.98389 7.25781 8.77295 7 8.77295Z" fill="#999999"/>
</svg>
