<svg width="14" height="16" viewBox="0 0 14 16" fill="none" xmlns="http://www.w3.org/2000/svg">
<path d="M9.0087 8.87532C10.5507 8.10178 11.6058 6.51399 11.6058 4.68193C11.6058 2.07634 9.53623 0 6.93913 0C4.38261 0 2.27246 2.11705 2.27246 4.68193C2.27246 6.51399 3.32754 8.14249 4.86957 8.87532C2.06957 9.77099 0 12.4173 0 15.5929C0 15.7964 0.202898 16 0.405797 16C0.608696 16 0.811594 15.8372 0.811594 15.5929C0.811594 12.1323 3.69275 9.36387 6.97971 9.36387C10.3478 9.36387 13.1478 12.1323 13.1478 15.5929C13.1478 15.7964 13.3507 16 13.5942 16C13.7971 16 14 15.8372 14 15.5929C13.9594 12.4173 11.8899 9.77099 9.0087 8.87532ZM3.16522 4.64122C3.16522 2.52417 4.86957 0.814249 6.97971 0.814249C9.08986 0.814249 10.7942 2.52417 10.7942 4.64122C10.7942 6.75827 9.08986 8.46819 6.97971 8.46819C4.86957 8.50891 3.16522 6.79898 3.16522 4.64122Z" fill="#999999"/>
</svg>
