<svg viewBox="0 0 30 30" xmlns="http://www.w3.org/2000/svg" xmlns:xlink="http://www.w3.org/1999/xlink" width="30.000000" height="30.000000" fill="none" customFrame="#000000">
	<rect id="组合 1233" width="30.000000" height="30.000000" x="0.000000" y="0.000000" />
	<g id="组合 1155">
		<path id="矢量 9" d="M25.7138 20.5922L25.7138 25.9306C25.7138 26.2121 25.4811 26.4424 25.1966 26.4424L4.80328 26.4424C4.51881 26.4424 4.28606 26.2121 4.28606 25.9306L4.28606 20.5922C4.28606 20.3911 4.11981 20.2266 3.91662 20.2266L2.0694 20.2266C1.8662 20.2266 1.69995 20.3911 1.69995 20.5922L1.69995 26.8081C1.69995 28.0184 2.69376 29.0019 3.91662 29.0019L26.0833 29.0019C27.3061 29.0019 28.3 28.0184 28.3 26.8081L28.3 20.5922C28.3 20.3911 28.1337 20.2266 27.9305 20.2266L26.0833 20.2266C25.8801 20.2266 25.7138 20.3911 25.7138 20.5922Z" fill="rgb(50,141,251)" fill-rule="nonzero" />
		<path id="矢量 10" d="M16.293 21.7967L16.293 5.36118L22.7065 11.7087C23.2127 12.2096 24.0291 12.2096 24.5353 11.7087C25.0414 11.2078 25.0414 10.3997 24.5353 9.89877L15.9161 1.36838C15.9014 1.35376 15.8866 1.33913 15.8681 1.32451C15.8607 1.3172 15.8533 1.30988 15.846 1.30623C15.8386 1.29891 15.8312 1.2916 15.8201 1.28429C15.809 1.27697 15.8016 1.26966 15.7905 1.26235C15.7831 1.25869 15.7758 1.25138 15.7721 1.24772L15.7388 1.22578C15.7314 1.22213 15.7277 1.21847 15.7203 1.21482C15.7093 1.2075 15.6982 1.20019 15.6834 1.19288C15.676 1.18922 15.6723 1.18556 15.6649 1.18191C15.6538 1.17459 15.6428 1.16728 15.628 1.16363C15.6206 1.15997 15.6132 1.15631 15.6095 1.15266C15.5984 1.14534 15.5873 1.14169 15.5763 1.13437L15.5541 1.1234C15.543 1.11975 15.5319 1.11244 15.5245 1.10878C15.5171 1.10512 15.5061 1.10147 15.4987 1.09781C15.4876 1.09415 15.4802 1.0905 15.4691 1.08684L15.4359 1.07587C15.4285 1.07221 15.4211 1.06856 15.41 1.06856C15.3989 1.0649 15.3878 1.06125 15.3731 1.05759C15.3657 1.05393 15.3583 1.05393 15.3509 1.05028C15.3361 1.04662 15.325 1.04296 15.3103 1.03931C15.3029 1.03931 15.2955 1.03565 15.2881 1.03565C15.2733 1.03199 15.2622 1.02834 15.2475 1.02834C15.2401 1.02834 15.2327 1.02468 15.2253 1.02468C15.2105 1.02102 15.1994 1.02102 15.1846 1.01737C15.1773 1.01737 15.1699 1.01371 15.1588 1.01371C15.1477 1.01371 15.1329 1.01006 15.1218 1.01006C15.1108 1.01006 15.0997 1.01006 15.0886 1.0064C15.0775 1.0064 15.0701 1.0064 15.059 1.00274C15.0147 0.999086 14.9741 0.999086 14.9297 1.00274C14.9186 1.00274 14.9113 1.00274 14.9002 1.0064C14.8891 1.0064 14.878 1.0064 14.8669 1.01006C14.8558 1.01006 14.8411 1.01371 14.83 1.01371C14.8226 1.01371 14.8152 1.01737 14.8041 1.01737C14.7893 1.02103 14.7783 1.02103 14.7635 1.02468C14.7561 1.02468 14.7487 1.02834 14.7413 1.02834C14.7265 1.03199 14.7155 1.03565 14.7007 1.03565C14.6933 1.03565 14.6859 1.03931 14.6785 1.03931C14.6637 1.04296 14.6526 1.04662 14.6379 1.05028C14.6305 1.05393 14.6231 1.05393 14.6157 1.05759C14.6046 1.06125 14.5935 1.0649 14.5788 1.06856C14.5714 1.07222 14.5603 1.07222 14.5529 1.07587L14.5196 1.08684C14.5086 1.0905 14.5012 1.09415 14.4901 1.09781C14.4827 1.10147 14.4716 1.10512 14.4642 1.10878C14.4531 1.11244 14.4421 1.11975 14.4347 1.1234L14.4125 1.13437C14.4014 1.14169 14.3903 1.14534 14.3793 1.15266C14.3719 1.15631 14.3645 1.15997 14.3608 1.16363C14.3497 1.17094 14.3386 1.17825 14.3238 1.18556C14.3165 1.18922 14.3128 1.19288 14.3054 1.19653C14.2943 1.20385 14.2832 1.21116 14.2684 1.21847C14.261 1.22213 14.2573 1.22578 14.25 1.22944C14.2389 1.23675 14.2278 1.24407 14.2167 1.25504C14.2093 1.25869 14.2056 1.26601 14.1982 1.26966C14.1871 1.27697 14.1798 1.28429 14.1687 1.2916C14.1613 1.29891 14.1539 1.30623 14.1428 1.31354C14.1354 1.32085 14.128 1.32816 14.1206 1.33182L14.0763 1.3757L5.46456 9.89877C4.95843 10.3997 4.95843 11.2078 5.46456 11.7087C5.9707 12.2096 6.78718 12.2096 7.29331 11.7087L13.7069 5.36118L13.7069 21.7967C13.7069 22.5024 14.2869 23.0764 14.9999 23.0764C15.7129 23.0764 16.293 22.5024 16.293 21.7967Z" fill="rgb(50,141,251)" fill-rule="nonzero" />
	</g>
</svg>
