<svg xmlns="http://www.w3.org/2000/svg" fill="none" viewBox="0 0 16 16" class="design-iconfont">
  <path d="M7.98992 0.825672C8.92265 0.825672 9.83564 1.0032 10.6951 1.35262C11.5856 1.71331 12.3858 2.24591 13.0734 2.93064C13.761 3.6182 14.2907 4.41848 14.6514 5.30894C15.0008 6.17122 15.1784 7.08139 15.1784 8.01412C15.1784 8.94686 15.0008 9.85984 14.6514 10.7193C14.2907 11.6098 13.7582 12.41 13.0734 13.0976C12.3858 13.7852 11.5856 14.3149 10.6951 14.6756C9.83283 15.025 8.92265 15.2026 7.98992 15.2026C7.05718 15.2026 6.1442 15.025 5.28475 14.6756C4.39428 14.3149 3.59401 13.7823 2.90645 13.0976C2.21887 12.41 1.68911 11.6097 1.32842 10.7193C0.979012 9.85701 0.801481 8.94684 0.801481 8.01412C0.801481 7.0814 0.979012 6.16841 1.32842 5.30894C1.68912 4.41848 2.2217 3.6182 2.90645 2.93064C3.59401 2.24308 4.39429 1.7133 5.28475 1.35262C6.1442 1.0032 7.05439 0.825656 7.98992 0.825656L7.98992 0.825672ZM7.98992 0.0253906C5.94414 0.0253906 3.90117 0.805953 2.34004 2.36706C-0.779363 5.48647 -0.779363 10.5418 2.34004 13.6612C3.89834 15.2223 5.94414 16 7.98711 16C10.0301 16 12.0759 15.2195 13.6342 13.6612C16.7536 10.5418 16.7536 5.48366 13.6342 2.36425C12.0787 0.805953 10.0329 0.0253906 7.98992 0.0253906M8.0012 3.88872C7.24883 3.88872 6.64297 4.09161 6.18365 4.49458C5.72715 4.90036 5.451 5.48083 5.35801 6.24167L6.38654 6.36283C6.47672 5.79361 6.6627 5.37939 6.95012 5.11169C7.23473 4.84398 7.59261 4.71155 8.01809 4.71155C8.46051 4.71155 8.83247 4.86089 9.13681 5.15395C9.44114 5.44702 9.59331 5.7908 9.59331 6.17967C9.59331 6.39383 9.53976 6.59389 9.43831 6.77425C9.33406 6.95459 9.10862 7.19975 8.76203 7.50409C8.41542 7.81123 8.1759 8.0423 8.04347 8.20292C7.86312 8.42272 7.73069 8.63969 7.64897 8.85386C7.53906 9.13845 7.48272 9.47942 7.48272 9.87111C7.48272 9.93873 7.48553 10.0374 7.48834 10.1726L8.44925 10.1726C8.45768 9.77248 8.48306 9.48225 8.53378 9.30472C8.58169 9.12719 8.65776 8.96939 8.75639 8.83131C8.85501 8.69323 9.06918 8.48189 9.39606 8.19164C9.88073 7.76051 10.2076 7.397 10.3739 7.09548C10.5401 6.7968 10.6247 6.46709 10.6247 6.11205C10.6247 5.49773 10.388 4.9708 9.91173 4.53684C9.43268 4.1057 8.79865 3.88872 8.0012 3.88872M7.99275 10.9109C7.65459 10.9109 7.37844 11.1842 7.37844 11.5252C7.37844 11.8634 7.65178 12.1395 7.99275 12.1395C8.33089 12.1395 8.60705 11.8662 8.60705 11.5252C8.60423 11.1871 8.33089 10.9109 7.99275 10.9109L7.99275 10.9109Z" fill="#000"/>
</svg>
