<svg xmlns="http://www.w3.org/2000/svg" fill="none" viewBox="0 0 40 40" class="design-iconfont">
  <path d="M30.5188 33.257C30.5188 33.4072 30.5042 33.556 30.4749 33.7033C30.4455 33.8506 30.4022 33.9936 30.3447 34.1324C30.2872 34.2712 30.2167 34.403 30.1333 34.5279C30.0498 34.6528 29.955 34.7683 29.8488 34.8745C29.7426 34.9807 29.6271 35.0756 29.5022 35.159C29.3773 35.2425 29.2455 35.3129 29.1067 35.3704C28.9679 35.4279 28.8249 35.4713 28.6776 35.5006C28.5303 35.5299 28.3815 35.5445 28.2313 35.5445L11.7688 35.5445C11.6187 35.5441 11.4701 35.5291 11.323 35.4995C11.1758 35.47 11.033 35.4264 10.8944 35.3687C10.7558 35.3111 10.6241 35.2406 10.4994 35.1571C10.3747 35.0736 10.2592 34.9788 10.1531 34.8727C10.047 34.7666 9.9522 34.6512 9.86873 34.5264C9.78526 34.4017 9.71472 34.27 9.6571 34.1315C9.59947 33.9929 9.55587 33.85 9.52629 33.7029C9.49671 33.5557 9.48172 33.4071 9.48131 33.257L9.48131 9.00078L30.5188 9.00078L30.5188 33.257ZM14.0501 4.90078C14.0492 4.83836 14.0605 4.77824 14.084 4.72041C14.1075 4.66258 14.1413 4.61159 14.1855 4.56745C14.2296 4.52331 14.2806 4.4895 14.3384 4.466C14.3963 4.44251 14.4564 4.43118 14.5188 4.43203L25.5063 4.43203C25.5687 4.43118 25.6288 4.4425 25.6867 4.466C25.7445 4.48949 25.7955 4.52331 25.8396 4.56745C25.8838 4.61159 25.9176 4.66258 25.9411 4.72041C25.9646 4.77824 25.9759 4.83836 25.9751 4.90078L25.9751 6.25078L14.0501 6.25078L14.0501 4.90078ZM37.3751 6.25078L28.7001 6.25078L28.7001 4.90078C28.7001 4.79618 28.6949 4.69183 28.6847 4.58774C28.6744 4.48364 28.6591 4.3803 28.6387 4.27771C28.6183 4.17512 28.5929 4.07378 28.5625 3.97368C28.5322 3.87359 28.497 3.77522 28.4569 3.67859C28.4169 3.58195 28.3722 3.48751 28.3229 3.39526C28.2736 3.30301 28.2199 3.2134 28.1618 3.12643C28.1037 3.03946 28.0415 2.95554 27.9751 2.87469C27.9087 2.79383 27.8386 2.71642 27.7646 2.64246C27.6907 2.5685 27.6133 2.49834 27.5324 2.43198C27.4515 2.36562 27.3676 2.30339 27.2807 2.24528C27.1937 2.18716 27.1041 2.13345 27.0118 2.08415C26.9196 2.03484 26.8251 1.99017 26.7285 1.95014C26.6319 1.91011 26.5335 1.87492 26.4334 1.84455C26.3333 1.81419 26.232 1.7888 26.1294 1.7684C26.0268 1.74799 25.9234 1.73266 25.8193 1.72241C25.7153 1.71216 25.6109 1.70703 25.5063 1.70703L14.5188 1.70703C14.4143 1.70744 14.3101 1.71294 14.2062 1.72353C14.1022 1.73413 13.999 1.74977 13.8966 1.77045C13.7942 1.79114 13.693 1.81677 13.5931 1.84734C13.4932 1.87791 13.395 1.91329 13.2985 1.95346C13.2021 1.99363 13.1078 2.03842 13.0157 2.08781C12.9237 2.13719 12.8342 2.19096 12.7474 2.24909C12.6606 2.30723 12.5768 2.36946 12.4961 2.43578C12.4153 2.50211 12.338 2.57221 12.2641 2.6461C12.1902 2.71998 12.1201 2.79729 12.0538 2.87803C11.9875 2.95877 11.9253 3.04255 11.8671 3.12937C11.809 3.21619 11.7552 3.30564 11.7058 3.39772C11.6564 3.48979 11.6117 3.58406 11.5715 3.68052C11.5313 3.77697 11.4959 3.87516 11.4654 3.97507C11.4348 4.07499 11.4092 4.17615 11.3885 4.27857C11.3678 4.38099 11.3522 4.48418 11.3416 4.58813C11.331 4.69208 11.3255 4.79629 11.3251 4.90078L11.3251 6.25078L2.62506 6.25078C2.53847 6.25662 2.45319 6.27049 2.36921 6.2924C2.28524 6.31431 2.20405 6.34387 2.12564 6.38108C2.04724 6.4183 1.97301 6.46251 1.90294 6.51371C1.83287 6.56492 1.7682 6.62222 1.70893 6.68562C1.64966 6.74901 1.59684 6.81739 1.55046 6.89074C1.50408 6.9641 1.46496 7.04114 1.4331 7.12186C1.40124 7.20259 1.37721 7.28558 1.36099 7.37084C1.34478 7.4561 1.33667 7.54212 1.33667 7.62891C1.33667 7.71569 1.34478 7.80171 1.36099 7.88697C1.37721 7.97223 1.40124 8.05522 1.4331 8.13595C1.46496 8.21668 1.50408 8.29372 1.55046 8.36707C1.59684 8.44042 1.64966 8.5088 1.70893 8.57219C1.7682 8.63559 1.83287 8.69289 1.90294 8.7441C1.97301 8.79531 2.04724 8.83951 2.12564 8.87673C2.20405 8.91394 2.28524 8.9435 2.36921 8.96541C2.45319 8.98732 2.53847 9.0012 2.62506 9.00703L6.73131 9.00703L6.73131 33.257C6.73131 33.422 6.73939 33.5866 6.75556 33.7508C6.77174 33.915 6.79592 34.078 6.8281 34.2398C6.86029 34.4016 6.90033 34.5615 6.94822 34.7193C6.99611 34.8772 7.05163 35.0324 7.11476 35.1848C7.1779 35.3372 7.24836 35.4862 7.32613 35.6317C7.4039 35.7772 7.48862 35.9185 7.58028 36.0557C7.67194 36.1929 7.7701 36.3253 7.87477 36.4528C7.97943 36.5803 8.0901 36.7024 8.20676 36.8191C8.32342 36.9357 8.44552 37.0464 8.57305 37.1511C8.70059 37.2557 8.83294 37.3539 8.97012 37.4456C9.1073 37.5372 9.24864 37.6219 9.39415 37.6997C9.53965 37.7775 9.68862 37.8479 9.84104 37.9111C9.99347 37.9742 10.1486 38.0297 10.3065 38.0776C10.4644 38.1255 10.6242 38.1656 10.786 38.1977C10.9479 38.2299 11.1109 38.2541 11.275 38.2703C11.4392 38.2864 11.6038 38.2945 11.7688 38.2945L28.2313 38.2945C28.3963 38.2945 28.5609 38.2864 28.7251 38.2703C28.8893 38.2541 29.0523 38.2299 29.2141 38.1977C29.3759 38.1656 29.5357 38.1255 29.6936 38.0776C29.8515 38.0297 30.0066 37.9742 30.1591 37.9111C30.3115 37.8479 30.4605 37.7775 30.606 37.6997C30.7515 37.6219 30.8928 37.5372 31.03 37.4456C31.1672 37.3539 31.2995 37.2557 31.4271 37.1511C31.5546 37.0464 31.6767 36.9357 31.7934 36.8191C31.91 36.7024 32.0207 36.5803 32.1254 36.4528C32.23 36.3253 32.3282 36.1929 32.4198 36.0557C32.5115 35.9185 32.5962 35.7772 32.674 35.6317C32.7518 35.4862 32.8222 35.3372 32.8854 35.1848C32.9485 35.0324 33.004 34.8772 33.0519 34.7193C33.0998 34.5615 33.1398 34.4016 33.172 34.2398C33.2042 34.078 33.2284 33.915 33.2446 33.7508C33.2607 33.5866 33.2688 33.422 33.2688 33.257L33.2688 9.00078L37.3751 9.00078C37.4653 9.00078 37.5548 8.99197 37.6433 8.97436C37.7318 8.95675 37.8178 8.93067 37.9012 8.89611C37.9847 8.86156 38.0639 8.81921 38.139 8.76905C38.214 8.71889 38.2835 8.66189 38.3473 8.59805C38.4112 8.53421 38.4682 8.46476 38.5183 8.38969C38.5685 8.31462 38.6108 8.23538 38.6454 8.15197C38.6799 8.06856 38.706 7.98258 38.7236 7.89403C38.7412 7.80548 38.7501 7.71606 38.7501 7.62578C38.7518 7.53503 38.7444 7.44502 38.7279 7.35576C38.7115 7.2665 38.6863 7.17978 38.6523 7.0956C38.6184 7.01143 38.5763 6.93148 38.5263 6.85578C38.4762 6.78008 38.4191 6.71013 38.3549 6.64595C38.2907 6.58177 38.2208 6.52464 38.1451 6.47457C38.0694 6.4245 37.9894 6.38248 37.9052 6.34853C37.8211 6.31458 37.7343 6.28938 37.6451 6.27292C37.5558 6.25647 37.4658 6.24908 37.3751 6.25078ZM20.0001 31.4133C20.0906 31.4133 20.1803 31.4044 20.2691 31.3867C20.3579 31.369 20.4441 31.3428 20.5277 31.308C20.6113 31.2733 20.6907 31.2307 20.7659 31.1803C20.8411 31.1298 20.9107 31.0725 20.9745 31.0083C21.0384 30.9442 21.0954 30.8744 21.1455 30.7989C21.1956 30.7235 21.2378 30.6439 21.2722 30.5601C21.3066 30.4764 21.3324 30.39 21.3497 30.3012C21.367 30.2123 21.3755 30.1226 21.3751 30.032L21.3751 15.3883C21.3751 15.2979 21.3664 15.2085 21.3489 15.1198C21.3313 15.0312 21.3053 14.9452 21.2708 14.8617C21.2363 14.7782 21.1939 14.6989 21.1438 14.6237C21.0937 14.5486 21.0367 14.4791 20.9728 14.4151C20.909 14.3512 20.8395 14.2942 20.7644 14.2439C20.6893 14.1937 20.61 14.1513 20.5266 14.1167C20.4431 14.0821 20.3571 14.056 20.2685 14.0384C20.1799 14.0208 20.0904 14.0119 20.0001 14.0119C19.9097 14.0119 19.8202 14.0208 19.7316 14.0384C19.643 14.056 19.557 14.0821 19.4736 14.1167C19.3901 14.1513 19.3108 14.1937 19.2357 14.2439C19.1606 14.2942 19.0912 14.3512 19.0273 14.4151C18.9635 14.4791 18.9065 14.5486 18.8563 14.6237C18.8062 14.6989 18.7639 14.7782 18.7293 14.8617C18.6948 14.9452 18.6688 15.0312 18.6512 15.1198C18.6337 15.2085 18.625 15.2979 18.6251 15.3883L18.6251 30.032C18.6246 30.1226 18.6331 30.2123 18.6504 30.3012C18.6677 30.39 18.6936 30.4764 18.7279 30.5601C18.7623 30.6439 18.8045 30.7235 18.8546 30.7989C18.9047 30.8744 18.9617 30.9442 19.0256 31.0083C19.0894 31.0725 19.159 31.1298 19.2342 31.1802C19.3094 31.2307 19.3888 31.2733 19.4724 31.308C19.556 31.3428 19.6422 31.369 19.731 31.3867C19.8198 31.4044 19.9095 31.4133 20.0001 31.4133ZM13.5813 31.4133C13.672 31.4133 13.7618 31.4044 13.8508 31.3867C13.9397 31.369 14.0261 31.3428 14.1099 31.3081C14.1937 31.2734 14.2733 31.2309 14.3487 31.1805C14.4241 31.1301 14.4939 31.0728 14.558 31.0087C14.6221 30.9446 14.6794 30.8748 14.7298 30.7994C14.7802 30.724 14.8227 30.6444 14.8574 30.5606C14.8921 30.4768 14.9183 30.3904 14.936 30.3015C14.9537 30.2125 14.9626 30.1227 14.9626 30.032L14.9626 15.3883C14.9689 15.2939 14.9656 15.1998 14.9527 15.1061C14.9397 15.0124 14.9173 14.921 14.8856 14.8319C14.8538 14.7428 14.8134 14.6578 14.7641 14.577C14.7149 14.4962 14.658 14.4212 14.5934 14.3521C14.5288 14.283 14.4579 14.2212 14.3805 14.1667C14.3032 14.1122 14.2212 14.0661 14.1344 14.0284C14.0476 13.9907 13.9579 13.9623 13.8653 13.943C13.7727 13.9238 13.679 13.9142 13.5844 13.9142C13.4898 13.9142 13.3962 13.9238 13.3036 13.943C13.2109 13.9623 13.1212 13.9907 13.0345 14.0284C12.9477 14.0661 12.8656 14.1122 12.7883 14.1667C12.711 14.2212 12.6401 14.283 12.5754 14.3521C12.5108 14.4212 12.4539 14.4962 12.4047 14.577C12.3555 14.6578 12.315 14.7428 12.2833 14.8319C12.2515 14.921 12.2292 15.0124 12.2162 15.1061C12.2032 15.1998 12.1999 15.2939 12.2063 15.3883L12.2063 30.032C12.2086 30.1218 12.2194 30.2105 12.2386 30.2982C12.2577 30.386 12.285 30.4711 12.3203 30.5536C12.3557 30.6362 12.3985 30.7146 12.4487 30.7891C12.499 30.8635 12.5558 30.9325 12.6191 30.9961C12.6824 31.0598 12.7512 31.1169 12.8254 31.1674C12.8996 31.218 12.9779 31.2612 13.0602 31.2969C13.1426 31.3326 13.2276 31.3602 13.3152 31.3798C13.4029 31.3994 13.4916 31.4105 13.5813 31.4133ZM26.4188 31.4133C26.5092 31.4129 26.5988 31.4037 26.6874 31.3857C26.776 31.3677 26.862 31.3412 26.9455 31.3064C27.0289 31.2715 27.1081 31.2288 27.1832 31.1783C27.2582 31.1279 27.3277 31.0706 27.3915 31.0065C27.4553 30.9424 27.5122 30.8727 27.5623 30.7975C27.6124 30.7222 27.6548 30.6428 27.6893 30.5592C27.7238 30.4756 27.7498 30.3894 27.7674 30.3007C27.785 30.212 27.7938 30.1225 27.7938 30.032L27.7938 15.3883C27.8002 15.2939 27.7969 15.1998 27.7839 15.1061C27.7709 15.0124 27.7486 14.921 27.7168 14.8319C27.6851 14.7428 27.6446 14.6578 27.5954 14.577C27.5462 14.4962 27.4893 14.4212 27.4247 14.3521C27.3601 14.283 27.2891 14.2212 27.2118 14.1667C27.1345 14.1122 27.0524 14.0661 26.9657 14.0284C26.8789 13.9907 26.7892 13.9623 26.6965 13.943C26.6039 13.9238 26.5103 13.9142 26.4157 13.9142C26.3211 13.9142 26.2275 13.9238 26.1348 13.943C26.0422 13.9623 25.9525 13.9907 25.8657 14.0284C25.7789 14.0661 25.6969 14.1122 25.6196 14.1667C25.5423 14.2212 25.4713 14.283 25.4067 14.3521C25.3421 14.4212 25.2852 14.4962 25.236 14.577C25.1868 14.6578 25.1463 14.7428 25.1145 14.8319C25.0828 14.921 25.0604 15.0124 25.0475 15.1061C25.0345 15.1998 25.0312 15.2939 25.0376 15.3883L25.0376 30.032C25.0376 30.1227 25.0464 30.2125 25.0641 30.3015C25.0818 30.3904 25.108 30.4768 25.1427 30.5606C25.1774 30.6444 25.22 30.724 25.2703 30.7994C25.3207 30.8748 25.378 30.9446 25.4421 31.0087C25.5062 31.0728 25.576 31.1301 25.6514 31.1805C25.7268 31.2309 25.8064 31.2734 25.8902 31.3081C25.974 31.3428 26.0604 31.369 26.1493 31.3867C26.2383 31.4044 26.3281 31.4133 26.4188 31.4133Z" fill="#FFF"/>
</svg>
