<svg width="243" height="177" viewBox="0 0 243 177" fill="none" xmlns="http://www.w3.org/2000/svg">
<path d="M242.354 177H0C0 162.021 23.9589 131.879 119.795 131.145C215.63 130.411 241.432 161.409 242.354 177Z" fill="#89BCFB"/>
<rect x="29.4879" width="101.365" height="176.083" rx="2" fill="#9FCBFF"/>
<rect x="33.1739" y="9.17094" width="93.9927" height="154.073" rx="2" fill="#C4DFFF"/>
<rect x="38.7029" y="18.342" width="84.7778" height="25.6788" rx="2" fill="#F4F9FF"/>
<rect x="38.1231" y="50.3769" width="85.7769" height="100.754" rx="2" fill="#F4F9FF"/>
<rect x="108.737" y="82.5388" width="112.423" height="93.544" rx="2" fill="#9FCBFF"/>
<rect x="119.795" y="93.5439" width="90.3067" height="53.1917" rx="2" fill="#F4F9FF"/>
<ellipse cx="183.378" cy="160.492" rx="6.45048" ry="6.41969" fill="#F4F7FF"/>
<ellipse cx="205.494" cy="160.492" rx="6.45048" ry="6.41969" fill="#F4F7FF"/>
<ellipse cx="140.989" cy="112.803" rx="4.60749" ry="4.58549" fill="#89BCFB"/>
<ellipse cx="188.907" cy="112.803" rx="4.60749" ry="4.58549" fill="#89BCFB"/>
<path d="M193.514 127.606C185.221 130.969 162.368 135.676 137.303 127.606" stroke="#89BCFB" stroke-width="2" stroke-linecap="round"/>
<rect x="58.5461" y="25.8692" width="4.08462" height="12.2538" rx="2.04231" fill="#89BCFB"/>
<rect x="95.3077" y="25.8692" width="4.08462" height="12.2538" rx="2.04231" fill="#89BCFB"/>
</svg>
