<svg width="20" height="20" viewBox="0 0 20 20" fill="none" xmlns="http://www.w3.org/2000/svg">
<path fill-rule="evenodd" clip-rule="evenodd" d="M19.375 20H0.625C0.28 20 0 19.72 0 19.375C0 19.03 0.28 18.75 0.625 18.75H19.375C19.72 18.75 20 19.03 20 19.375C20 19.72 19.72 20 19.375 20ZM13.3704 12.3262C14.515 13.1704 15.8333 14.8537 15.8333 16.632C15.8333 17.7966 15.6 17.665 15.1904 17.9187H9.79041H4.39083C3.98124 17.665 3.74791 17.7966 3.74791 16.632C3.74791 14.8537 5.06624 13.1704 6.21041 12.3262C7.35499 11.4825 7.68791 10.9933 7.68791 10.2187C7.68791 9.55287 7.07958 8.92912 6.21041 8.54453V7.9187H9.79041H13.3704V8.54453C12.5017 8.92912 11.8929 9.55287 11.8929 10.2187C11.8929 10.9933 12.2262 11.4825 13.3704 12.3262ZM18.75 0.833333H12.2916V2.08333C12.2916 2.31333 12.105 2.5 11.875 2.5H10.9979L10.05 3.60375L9.10207 2.5H8.12498C7.89498 2.5 7.70832 2.31333 7.70832 2.08333V0.833333H1.24998C1.01998 0.833333 0.833318 0.646667 0.833318 0.416667C0.833318 0.186667 1.01998 0 1.24998 0H18.75C18.98 0 19.1666 0.186667 19.1666 0.416667C19.1666 0.646667 18.98 0.833333 18.75 0.833333Z" fill="#328DFB"/>
<path d="M9.84888 4.5835C9.84888 6.21652 6.25 5.2077 6.25 6.68206C6.25 7.37855 12.7849 6.9171 12.9167 7.0835" stroke="#328DFB" stroke-linecap="round"/>
</svg>
