<svg width="16" height="16" viewBox="0 0 16 16" fill="none" xmlns="http://www.w3.org/2000/svg">
<path d="M7.99993 0.118652C3.65029 0.118652 0.121826 3.64712 0.121826 7.99676C0.121826 12.3464 3.65029 15.8749 7.99993 15.8749C12.3496 15.8749 15.878 12.3464 15.878 7.99676C15.8716 3.65033 12.3464 0.125068 7.99993 0.118652ZM14.8099 10.7554L12.5677 11.1435C12.8243 10.2037 12.9622 9.23493 12.9815 8.263H15.3456C15.3135 9.11625 15.1371 9.96308 14.8099 10.7554ZM0.654304 8.25979H3.01517C3.03442 9.23493 3.17235 10.2037 3.42896 11.1403L1.18678 10.7522C0.862804 9.96308 0.686381 9.11625 0.654304 8.25979ZM1.18999 5.23814L3.43217 4.85001C3.17555 5.78986 3.03762 6.75859 3.01838 7.73052H0.654304C0.686381 6.87727 0.862805 6.03044 1.18999 5.23814ZM8.26296 4.33678C9.20603 4.34961 10.1491 4.43301 11.0761 4.59339L12.0031 4.75378C12.2886 5.7225 12.4394 6.72651 12.4586 7.73694H8.26296V4.33678ZM11.1659 4.07374C10.2068 3.91015 9.2349 3.82034 8.26296 3.80751V0.660753C9.77058 0.8051 11.0761 2.18441 11.8171 4.18922L11.1659 4.07374ZM7.7369 3.81071C6.76497 3.82354 5.79304 3.91015 4.83393 4.07695L4.18277 4.18922C4.92375 2.1812 6.22928 0.8051 7.7369 0.660753V3.81071ZM4.92375 4.59339C5.85398 4.43301 6.79705 4.34961 7.7369 4.33678V7.73373H3.53802C3.55727 6.7233 3.71124 5.71929 3.99352 4.75057L4.92375 4.59339ZM3.53802 8.25979H7.7369V11.6567C6.79384 11.6439 5.85078 11.5605 4.92375 11.4001L3.99673 11.2397C3.71124 10.271 3.55727 9.27022 3.53802 8.25979ZM4.83393 11.9198C5.79304 12.0866 6.76497 12.1732 7.7369 12.186V15.336C6.22928 15.1916 4.92375 13.8123 4.18277 11.8075L4.83393 11.9198ZM8.26296 12.186C9.2349 12.1732 10.2068 12.0834 11.1659 11.9198L11.8171 11.8075C11.0761 13.8155 9.77058 15.1916 8.26296 15.336V12.186ZM11.0761 11.4001C10.1459 11.5605 9.20282 11.6439 8.26296 11.6567V8.25979H12.4618C12.4426 9.27022 12.2886 10.2742 12.0063 11.2429L11.0761 11.4001ZM12.9847 7.73373C12.9654 6.75859 12.8275 5.78986 12.5709 4.85321L14.8131 5.24135C15.1339 6.03686 15.3167 6.88369 15.3456 7.74014L12.9847 7.73373ZM14.5468 4.65755L12.4009 4.28545C12.016 3.02483 11.291 1.89892 10.3127 1.01681C12.1443 1.62948 13.6647 2.93501 14.5468 4.65755ZM5.69039 1.02002C4.70883 1.89892 3.9871 3.03124 3.60218 4.28866L1.45302 4.66075C2.33514 2.93501 3.85559 1.62948 5.69039 1.02002ZM1.45302 11.336L3.59897 11.7081C3.98389 12.9687 4.70883 14.0946 5.68718 14.9767C3.85559 14.364 2.33514 13.0585 1.45302 11.336ZM10.3095 14.9735C11.291 14.0946 12.0128 12.9623 12.3977 11.7049L14.5436 11.3328C13.6647 13.0585 12.1443 14.364 10.3095 14.9735Z" fill="#328DFB"/>
<path d="M7.99992 15.9198C5.88284 15.9198 3.89407 15.0954 2.39607 13.6006C0.901283 12.1026 0.0769043 10.1138 0.0769043 7.99675C0.0769043 5.87966 0.901283 3.89089 2.39607 2.3929C3.89407 0.898109 5.88284 0.0737305 7.99992 0.0737305C10.1138 0.0769382 12.1026 0.901317 13.6006 2.39931C15.0953 3.8941 15.9229 5.88287 15.9261 7.99995C15.9261 10.117 15.1018 12.1058 13.607 13.6038C12.1058 15.0954 10.117 15.9198 7.99992 15.9198ZM7.99992 0.166754C5.9085 0.166754 3.94218 0.981509 2.46343 2.46026C0.984683 3.93901 0.169928 5.90533 0.169928 7.99675C0.169928 10.0882 0.984683 12.0545 2.46343 13.5332C3.94218 15.012 5.9085 15.8267 7.99992 15.8267C10.0913 15.8267 12.0577 15.012 13.5364 13.5332C15.0152 12.0545 15.8299 10.0882 15.8299 7.99675C15.8267 5.90533 15.0119 3.94221 13.5332 2.46347C12.0545 0.984717 10.0913 0.169961 7.99992 0.166754ZM8.21484 15.3873V12.1379H8.25974C9.21564 12.1251 10.1908 12.0352 11.1563 11.8716L11.8877 11.7465L11.8588 11.8235C11.0889 13.9117 9.74491 15.2429 8.26616 15.3841L8.21484 15.3873ZM8.30786 12.2309V15.2846C9.71283 15.1243 10.9895 13.854 11.7433 11.8684L11.1723 11.9679C10.2196 12.1283 9.25734 12.2181 8.30786 12.2309ZM7.785 15.3873L7.73368 15.3809C6.25493 15.2397 4.91091 13.9085 4.14106 11.8203L4.11219 11.7433L4.84354 11.8684C5.78982 12.032 6.76496 12.1218 7.7401 12.1347H7.785V15.3873ZM4.25654 11.8684C5.01034 13.854 6.28701 15.1243 7.69198 15.2846V12.2309C6.72646 12.2149 5.76415 12.1283 4.82751 11.9647L4.25654 11.8684ZM5.88925 15.0922L5.67755 15.0216C3.82029 14.4025 2.30625 13.1002 1.41451 11.3584L1.37281 11.275L3.64066 11.6664L3.65028 11.6952C4.02879 12.9398 4.74731 14.0625 5.72566 14.9446L5.88925 15.0922ZM1.53961 11.3969C2.38965 13.0104 3.785 14.2293 5.49471 14.858C4.59655 13.9983 3.93256 12.927 3.56688 11.7498L1.53961 11.3969ZM10.1106 15.089L10.2774 14.9382C11.2525 14.0657 11.9711 12.943 12.3528 11.6888L12.3624 11.6599L14.6302 11.2686L14.5885 11.352C13.6968 13.097 12.1828 14.3993 10.3255 15.0152L10.1106 15.089ZM12.433 11.7465C12.0673 12.9334 11.4033 14.0016 10.5051 14.8548C12.2116 14.2293 13.607 13.0104 14.457 11.3937L12.433 11.7465ZM8.21484 11.7048V8.21166H12.5067V8.25978C12.4875 9.27662 12.3335 10.2838 12.048 11.2526L12.0384 11.2814L11.0825 11.445C10.1587 11.6022 9.21243 11.6888 8.26295 11.7016L8.21484 11.7048ZM8.30786 8.30468V11.6086C9.23488 11.5926 10.1651 11.5092 11.0665 11.3552L11.9646 11.2012C12.2373 10.2614 12.3881 9.28945 12.4105 8.30789H8.30786V8.30468ZM7.785 11.7048H7.73689C6.7842 11.692 5.83472 11.6054 4.91732 11.4482L3.96143 11.2846L3.9518 11.2558C3.66632 10.2838 3.51235 9.27662 3.4931 8.26298V8.21487H7.785V11.7048ZM4.032 11.2012L4.93015 11.3552C5.82831 11.5092 6.75854 11.5958 7.68877 11.6086V8.30468H3.58613C3.60858 9.28624 3.75934 10.2614 4.032 11.2012ZM12.5067 11.2044L12.526 11.1339C12.7794 10.2004 12.9173 9.23492 12.9366 8.26298V8.21808H15.3937L15.3905 8.26619C15.3584 9.13869 15.1787 9.98231 14.8516 10.7778L14.8419 10.8003L12.5067 11.2044ZM13.0296 8.30789C13.0071 9.24775 12.8756 10.1812 12.635 11.0858L14.7778 10.7137C15.0857 9.95023 15.2621 9.14189 15.2974 8.30789H13.0296ZM3.4931 11.2012L1.15469 10.7971L1.14507 10.7714C0.82109 9.9791 0.641459 9.13227 0.609382 8.25978L0.606175 8.21166H3.06006V8.25657C3.07931 9.23171 3.21724 10.1972 3.47065 11.1275L3.4931 11.2012ZM1.21884 10.7105L3.36159 11.0826C3.12101 10.1812 2.98949 9.24775 2.96704 8.30468H0.702406C0.73769 9.14189 0.914114 9.95023 1.21884 10.7105ZM15.3937 7.78504H12.9398V7.73692L12.9879 7.73371H12.9398C12.9205 6.75857 12.7826 5.79306 12.5292 4.86282L12.5099 4.79225L14.8484 5.19642L14.858 5.22209C15.1852 6.02722 15.3648 6.87405 15.3937 7.73692V7.78504ZM13.0328 7.69201H15.2974C15.2654 6.86443 15.0921 6.05609 14.781 5.28303L12.6383 4.91094C12.8788 5.8123 13.0103 6.74574 13.0328 7.69201ZM12.5067 7.78183H8.21484V4.28865H8.26295C9.21564 4.30148 10.1651 4.38808 11.0825 4.54526L12.0384 4.70885L12.048 4.73772C12.3335 5.70966 12.4875 6.71687 12.5067 7.73051V7.78183ZM8.30786 7.68881H12.4105C12.3881 6.70725 12.2373 5.73532 11.9646 4.79546L11.0665 4.64149C10.1683 4.48752 9.23809 4.40092 8.30786 4.38808V7.68881ZM7.785 7.78183H3.4931V7.73371C3.51235 6.71687 3.66632 5.70966 3.9518 4.74093L3.96143 4.71206L4.91732 4.54847C5.84114 4.39129 6.78741 4.30468 7.73689 4.29185H7.785V7.78183ZM3.58613 7.68881H7.68877V4.38488C6.76175 4.40092 5.83152 4.48432 4.93015 4.63829L4.032 4.79225C3.75934 5.73211 3.60858 6.70725 3.58613 7.68881ZM3.06327 7.77862H0.606175L0.609382 7.73051C0.641459 6.85801 0.82109 6.01439 1.14828 5.21888L1.1579 5.19642L3.49631 4.79225L3.47706 4.86282C3.22366 5.79626 3.08573 6.76178 3.06648 7.73371L3.06327 7.77862ZM0.702406 7.6856H2.97025C2.9927 6.74574 3.12422 5.8123 3.3648 4.90773L1.22205 5.27983C0.914114 6.04005 0.73769 6.84839 0.702406 7.6856ZM1.36961 4.72489L1.41131 4.64149C2.30305 2.8965 3.81708 1.59418 5.67434 0.978301L5.88925 0.907732L5.72245 1.05849C4.74731 1.93099 4.02879 3.05368 3.64707 4.30789L3.63745 4.33676L1.36961 4.72489ZM5.4915 1.13869C3.785 1.76419 2.38965 2.98311 1.53961 4.59979L3.56688 4.25015C3.93256 3.06331 4.59655 1.99193 5.4915 1.13869ZM14.6302 4.72169L12.3624 4.32714L12.3528 4.29827C11.9743 3.05689 11.2557 1.93099 10.2774 1.05208L10.1106 0.901317L10.3255 0.971886C12.1828 1.59097 13.6968 2.8933 14.5885 4.63508L14.6302 4.72169ZM12.433 4.24374L14.4602 4.59338C13.6102 2.97991 12.2148 1.76098 10.5051 1.13227C11.4065 1.99514 12.0705 3.06651 12.433 4.24374ZM11.8877 4.25015L11.1563 4.11864C10.1908 3.95505 9.21564 3.86523 8.25974 3.8524H8.21484V0.609416L8.26616 0.615831C9.74491 0.75697 11.0889 2.08817 11.8588 4.17638L11.8877 4.25015ZM8.30786 3.76258C9.25413 3.77862 10.2164 3.86523 11.1723 4.02882L11.7401 4.13147C10.9895 2.1459 9.71283 0.875655 8.30786 0.712062V3.76258ZM4.11219 4.25015L4.14106 4.17317C4.91091 2.08496 6.25493 0.753763 7.73368 0.612624L7.785 0.606208V3.85881H7.7401C6.76496 3.87165 5.78982 3.96146 4.84354 4.12505L4.11219 4.25015ZM7.69198 0.712062C6.28701 0.872447 5.01034 2.1427 4.25654 4.12826L4.82751 4.02882C5.76415 3.86844 6.72646 3.77862 7.69198 3.76258V0.712062Z" fill="#328DFB"/>
<path d="M8.00001 15.9517C5.87331 15.9517 3.87812 15.1241 2.37371 13.6229C0.872508 12.1185 0.0449219 10.1233 0.0449219 7.9966C0.0449219 5.86989 0.872508 3.8747 2.37371 2.37029C3.87812 0.86909 5.87331 0.0415039 8.00001 0.0415039C10.1235 0.0447116 12.1187 0.872298 13.6231 2.3735C15.1243 3.8747 15.9519 5.86989 15.9551 7.9966C15.9551 10.1233 15.1275 12.1185 13.6263 13.6229C12.1251 15.1273 10.1267 15.9517 8.00001 15.9517ZM8.00001 0.198681C5.91501 0.198681 3.95831 1.00702 2.48598 2.48256C1.01044 3.9549 0.202099 5.91159 0.202099 7.9966C0.202099 10.0816 1.01044 12.0383 2.48598 13.5106C3.95831 14.983 5.91822 15.7945 8.00001 15.7945C10.085 15.7945 12.0417 14.9862 13.514 13.5106C14.9864 12.0383 15.7979 10.0784 15.7979 7.9966C15.7947 5.9148 14.9832 3.9581 13.5108 2.48577C12.0385 1.01344 10.0818 0.201889 8.00001 0.198681ZM8.18285 15.4192V12.1057H8.25984C9.21252 12.0928 10.1877 12.0062 11.15 11.8394L11.9359 11.7047L11.8877 11.833C11.1115 13.934 9.75783 15.2717 8.26946 15.4128L8.18285 15.4192ZM8.34003 12.2628V15.2492C9.70651 15.0728 10.9511 13.8378 11.6953 11.9068L11.1788 11.9966C10.2358 12.157 9.27989 12.2436 8.34003 12.2628ZM7.81718 15.4192L7.73378 15.4096C6.2422 15.2652 4.88855 13.9276 4.11549 11.8298L4.06738 11.7015L4.85326 11.8362C5.79633 11.9998 6.76826 12.0896 7.7434 12.1025H7.82038L7.81718 15.4192ZM4.30475 11.9068C5.04893 13.8346 6.29352 15.0728 7.66 15.2492V12.2628C6.7041 12.2468 5.74821 12.157 4.82118 11.9966L4.30475 11.9068ZM6.02086 15.169L5.66481 15.0503C3.80114 14.428 2.28069 13.1193 1.38574 11.3679L1.31517 11.2267L3.66321 11.6341L3.67604 11.6822C4.05454 12.9204 4.76986 14.0399 5.74179 14.9188L6.02086 15.169ZM1.59745 11.4385C2.42183 12.9717 3.74661 14.1458 5.36329 14.7745C4.51966 13.9308 3.89737 12.9044 3.54131 11.7721L1.59745 11.4385ZM9.97916 15.1658L10.2614 14.9156C11.2302 14.0463 11.9455 12.9268 12.3272 11.679L12.34 11.6309L14.6881 11.2235L14.6175 11.3647C13.7193 13.1193 12.2021 14.4248 10.3384 15.0439L9.97916 15.1658ZM12.4587 11.7721C12.1059 12.9076 11.4772 13.9373 10.6367 14.7713C12.2534 14.1425 13.575 12.9717 14.4026 11.4352L12.4587 11.7721ZM8.18285 11.7336V8.17944H12.5357V8.25642C12.5165 9.27647 12.3593 10.2837 12.077 11.2588L12.0642 11.3069L11.089 11.4769C10.1652 11.6373 9.21252 11.7207 8.26305 11.7336H8.18285ZM8.34003 8.33661V11.5796C9.25743 11.5636 10.1716 11.4802 11.0634 11.3262L11.9455 11.1754C12.2117 10.2548 12.3593 9.29892 12.3817 8.33982L8.34003 8.33661ZM7.81718 11.7336H7.74019C6.7875 11.7207 5.83803 11.6341 4.91421 11.4769L3.93907 11.3069L3.92624 11.2588C3.64075 10.2837 3.48678 9.27326 3.46754 8.25642V8.17944H7.82038L7.81718 11.7336ZM4.05775 11.1722L4.93987 11.323C5.8284 11.4769 6.7426 11.5603 7.66321 11.5764V8.33661H3.62151C3.64396 9.29571 3.79151 10.2516 4.05775 11.1722ZM12.4651 11.2396L12.4972 11.1209C12.7506 10.1939 12.8885 9.22514 12.9078 8.25642V8.17944H15.4258L15.4226 8.25963C15.3906 9.13533 15.2109 9.98216 14.8805 10.7809L14.8645 10.8226L12.4651 11.2396ZM13.0586 8.33982C13.0329 9.25722 12.9046 10.165 12.6768 11.0471L14.7554 10.6879C15.057 9.94367 15.2238 9.15778 15.2655 8.33982H13.0586ZM3.53169 11.2396L1.12912 10.8226L1.11309 10.7809C0.789108 9.98537 0.606269 9.13533 0.574192 8.25963L0.570984 8.17944H3.09224V8.25642C3.11148 9.22835 3.24941 10.1907 3.50282 11.1209L3.53169 11.2396ZM1.24139 10.6846L3.31998 11.0439C3.08903 10.165 2.96072 9.25722 2.93827 8.33661H0.734577C0.773069 9.15137 0.946285 9.94046 1.24139 10.6846ZM15.4258 7.81376H12.9078V7.73356C12.8885 6.76163 12.7506 5.79932 12.4972 4.86909L12.4651 4.75041L14.8677 5.16741L14.8837 5.20911C15.2109 6.01745 15.3938 6.86428 15.4226 7.73356L15.4258 7.81376ZM13.0618 7.65979H15.2655C15.2302 6.85466 15.0602 6.06556 14.7586 5.30854L12.68 4.94928C12.911 5.8314 13.0393 6.73918 13.0618 7.65979ZM12.5389 7.81376H8.18285V4.25963H8.25984C9.21252 4.27246 10.162 4.35907 11.0858 4.51624L12.061 4.68625L12.0738 4.73437C12.3593 5.70951 12.5132 6.71993 12.5325 7.73677L12.5389 7.81376ZM8.34003 7.65658H12.3785C12.3529 6.69748 12.2053 5.74479 11.9423 4.82097L11.0602 4.67021C10.1716 4.51624 9.25743 4.43284 8.33682 4.4168L8.34003 7.65658ZM7.81718 7.81376H3.46112V7.73677C3.48037 6.71672 3.63754 5.70951 3.91982 4.73437L3.93265 4.68625L4.90779 4.51624C5.83161 4.35586 6.7843 4.27246 7.73378 4.25963H7.81076L7.81718 7.81376ZM3.62151 7.65658H7.66V4.4136C6.7426 4.42964 5.8284 4.51304 4.93666 4.66701L4.05454 4.81777C3.79151 5.74158 3.64396 6.69748 3.62151 7.65658ZM3.09544 7.81055H0.574192L0.5774 7.73036C0.609477 6.85466 0.789108 6.00782 1.1195 5.20911L1.13554 5.16741L3.53811 4.75041L3.50603 4.86909C3.25262 5.79611 3.11469 6.76484 3.09544 7.73356V7.81055ZM0.734577 7.65337H2.93827C2.96393 6.73597 3.09224 5.82819 3.31998 4.94607L1.24139 5.30534C0.946285 6.04952 0.773069 6.83862 0.734577 7.65337ZM1.31517 4.76324L1.38574 4.6221C2.28069 2.87069 3.80114 1.56195 5.66481 0.942867L6.02086 0.824182L5.73859 1.07438C4.76986 1.94367 4.05454 3.06316 3.67283 4.31095L3.66 4.35907L1.31517 4.76324ZM5.36329 1.21873C3.74661 1.84744 2.42503 3.01825 1.60066 4.55794L3.54452 4.22114C3.89737 3.08561 4.51966 2.05594 5.36329 1.21873ZM14.6849 4.76003L12.3368 4.35265L12.324 4.30453C11.9455 3.06636 11.2302 1.94688 10.2582 1.06797L9.97916 0.817767L10.3352 0.936452C12.1957 1.55875 13.7161 2.86749 14.6111 4.61889L14.6849 4.76003ZM12.4587 4.21793L14.4026 4.55474C13.5782 3.02146 12.2534 1.84744 10.6367 1.21552C11.4804 2.05915 12.1027 3.08882 12.4587 4.21793ZM11.9391 4.2885L11.1532 4.14736C10.1909 3.98377 9.21573 3.89395 8.26305 3.88112H8.18606V0.573982L8.26946 0.583605C9.76104 0.727951 11.1147 2.06556 11.8877 4.1634L11.9391 4.2885ZM8.34003 3.73036C9.27668 3.7464 10.2326 3.83621 11.1788 3.9966L11.6953 4.08641C10.9511 2.16179 9.70651 0.923621 8.34003 0.747198V3.73036ZM4.06417 4.2885L4.11228 4.16019C4.88534 2.06235 6.23899 0.721536 7.73057 0.583605L7.81397 0.573982V3.88753H7.73698C6.76184 3.90037 5.78991 3.98697 4.84685 4.15377L4.06417 4.2885ZM7.66 0.747198C6.29352 0.923621 5.04893 2.15858 4.30475 4.08962L4.82118 3.9998C5.74821 3.83942 6.7041 3.7496 7.66 3.73356V0.747198Z" fill="#328DFB"/>
<path d="M8 16C5.86367 16 3.85565 15.1692 2.34162 13.6584C0.830794 12.1443 0 10.1363 0 8C0 5.86367 0.830794 3.85565 2.34162 2.34162C3.85565 0.830794 5.86688 0 8 0C10.1363 0.0032077 12.1443 0.83721 13.6552 2.34483C15.166 3.85565 15.9968 5.86367 16 8C16 10.1363 15.1692 12.1443 13.6584 13.6584C12.1508 15.166 10.1427 16 8 16ZM8 0.0898156C5.88933 0.0898156 3.90377 0.910986 2.40577 2.40577C0.914194 3.90056 0.0930233 5.88613 0.0930233 7.99679C0.0930233 10.1075 0.914194 12.093 2.40898 13.591C3.90377 15.0826 5.89254 15.907 8.00321 15.907C10.1203 15.907 12.1059 15.0858 13.5974 13.591C15.089 12.0962 15.9134 10.1075 15.9134 7.99679C15.9102 5.88292 15.0858 3.89735 13.5942 2.40577C12.0962 0.914194 10.1107 0.0930233 8 0.0898156ZM8 15.8428C5.90537 15.8428 3.93585 15.0249 2.45389 13.5429C0.971933 12.0642 0.15397 10.0946 0.15397 7.99679C0.15397 5.89896 0.971933 3.92943 2.45389 2.45068C3.93264 0.968725 5.90216 0.150762 8 0.150762C10.0946 0.15397 12.0642 0.971933 13.5429 2.45389C15.0249 3.93585 15.8428 5.90537 15.846 7.99679C15.846 10.0914 15.0281 12.0609 13.5461 13.5429C12.0674 15.0249 10.0978 15.8428 8 15.8428ZM8 0.243785C5.92783 0.243785 3.98075 1.04892 2.51804 2.51484C1.05533 3.97755 0.246993 5.92462 0.246993 7.99679C0.246993 10.069 1.05213 12.016 2.51804 13.4787C3.98396 14.9447 5.92783 15.7498 8 15.7498C10.0722 15.7498 12.0192 14.9447 13.482 13.4787C14.9479 12.0128 15.753 10.069 15.753 7.99679C15.7498 5.92783 14.9415 3.98396 13.4787 2.51804C12.016 1.05213 10.069 0.246993 8 0.243785ZM8.13793 15.4707V12.0609H8.26303C9.22855 12.0481 10.1973 11.9583 11.1468 11.7947L12.0096 11.6472L11.9358 11.8524C11.1532 13.9695 9.78669 15.32 8.27586 15.4611L8.13793 15.4707ZM8.23095 12.154V15.3713L8.26945 15.3681C9.74178 15.2302 11.0794 13.9022 11.8492 11.8204L11.8685 11.769L11.1628 11.8909C10.2101 12.0545 9.23496 12.1443 8.26303 12.1572H8.23095V12.154ZM7.86528 15.4675H7.81075L7.72735 15.4579C6.21973 15.3136 4.85004 13.9631 4.06736 11.8492L3.99358 11.6439L4.85646 11.7915C5.80593 11.9551 6.77787 12.0449 7.74018 12.0577H7.86528V15.4675ZM4.13793 11.7626L4.15718 11.814C4.92702 13.8925 6.26464 15.2205 7.73697 15.3617L7.77225 15.3649V12.1508H7.74018C6.77145 12.1379 5.79631 12.0481 4.84042 11.8845L4.13793 11.7626ZM8.29511 15.3007V12.2149H8.34002C9.28949 12.1957 10.2422 12.1059 11.1724 11.9487L11.769 11.8428L11.7402 11.9198C11.3745 12.8725 10.8709 13.684 10.2871 14.2646C9.70008 14.8484 9.02967 15.2045 8.34964 15.2911L8.29511 15.3007ZM8.38813 12.3079V15.1949C9.69366 14.9992 10.8933 13.7995 11.6215 11.9679L11.1885 12.0449C10.2678 12.1989 9.32799 12.2887 8.38813 12.3079ZM7.70489 15.3007L7.65357 15.2943C6.97354 15.2077 6.30313 14.8516 5.71612 14.2678C5.13232 13.6872 4.62871 12.8757 4.26303 11.923L4.23416 11.846L4.83079 11.9519C5.76103 12.1123 6.71371 12.2021 7.66319 12.2181H7.7081V15.3007H7.70489ZM4.37851 11.9679C5.10666 13.7995 6.30633 14.9992 7.61187 15.1949V12.3111C6.67522 12.2919 5.73216 12.2053 4.81155 12.0449L4.37851 11.9679ZM6.21973 15.2847L5.64876 15.0954C3.77225 14.4699 2.24218 13.1516 1.34403 11.3905L1.22855 11.166L3.69848 11.5926L3.71772 11.6696C4.09302 12.8949 4.80192 14.008 5.77065 14.8805L6.21973 15.2847ZM1.39856 11.2911L1.42743 11.3488C2.31596 13.0906 3.82678 14.3897 5.68083 15.0088L5.82518 15.0569L5.7097 14.9543C4.72815 14.069 4.00962 12.9431 3.63111 11.6985L3.6247 11.6792L1.39856 11.2911ZM9.77706 15.2847L10.2294 14.8837C11.1949 14.0176 11.9038 12.9078 12.2823 11.6696L12.3015 11.5958L14.7715 11.1692L14.656 11.3937C13.7546 13.158 12.2245 14.4731 10.3512 15.0954L9.77706 15.2847ZM12.3753 11.676L12.3721 11.6953C11.9872 12.9527 11.2686 14.0786 10.2935 14.9543L10.1812 15.0537L10.3224 15.0056C12.1732 14.3897 13.684 13.0938 14.5758 11.3488L14.6047 11.2911L12.3753 11.676ZM10.4411 14.8998L10.6014 14.7426C11.4354 13.9118 12.0642 12.8821 12.4106 11.7626L12.4202 11.7338L14.4892 11.3777L14.4443 11.4611C13.6135 12.9976 12.2662 14.1876 10.6528 14.8164L10.4411 14.8998ZM12.494 11.814C12.1604 12.8661 11.5862 13.8412 10.826 14.6464C12.2983 14.0208 13.5269 12.911 14.3127 11.5028L12.494 11.814ZM5.55573 14.8998L5.34723 14.8196C3.72735 14.1877 2.38332 12.9944 1.55573 11.4611L1.51083 11.3777L3.57658 11.7338L3.58621 11.7626C3.93585 12.8821 4.56135 13.9118 5.39535 14.7426L5.55573 14.8998ZM1.68725 11.4996C2.46993 12.9078 3.69848 14.0176 5.17723 14.6431C4.417 13.838 3.84282 12.8629 3.50922 11.8107L1.68725 11.4996ZM8.18284 11.7819H8.13472V8.13472H12.587V8.25982C12.5678 9.27666 12.4138 10.2903 12.1251 11.2783L12.1059 11.352L11.1018 11.5253C10.1844 11.6824 9.23176 11.769 8.26945 11.7819H8.18284ZM8.23095 11.6889H8.26624C9.22534 11.676 10.1716 11.5894 11.0826 11.4322L12.0289 11.2686L12.0321 11.2494C12.3176 10.271 12.4715 9.26383 12.4908 8.25662V8.22775H8.23095V11.6889ZM7.86528 11.7819H7.73697C6.7907 11.769 5.8348 11.6824 4.90457 11.5253L3.90056 11.352L3.88132 11.2751C3.59262 10.2903 3.43865 9.27666 3.41941 8.25982V8.13472H7.86848V11.7819H7.86528ZM3.97434 11.2686L4.92061 11.4322C5.84763 11.5894 6.79711 11.676 7.74018 11.6889H7.77546V8.22775H3.51243V8.25982C3.53168 9.26704 3.68565 10.2743 3.97113 11.2494L3.97434 11.2686ZM8.29511 11.6279V8.33681H8.34322V8.2919H12.433V8.34002C12.4074 9.30553 12.2598 10.2614 11.9936 11.1885L11.984 11.2173L11.073 11.3713C10.1844 11.5253 9.26704 11.6087 8.34322 11.6247L8.29511 11.6279ZM8.38813 8.38813V11.5317C9.28949 11.5124 10.1876 11.429 11.0569 11.2815L11.9102 11.1371C12.1636 10.2454 12.3079 9.32157 12.3368 8.39134H8.38813V8.38813ZM7.7081 11.6247H7.65998C6.73296 11.6087 5.81556 11.5221 4.93023 11.3713L4.01925 11.2173L4.00962 11.1885C3.74018 10.2518 3.59262 9.2927 3.57017 8.34002V8.2919H7.7081V11.6247ZM4.09623 11.1307L4.94948 11.2751C5.81556 11.4258 6.71371 11.5092 7.61828 11.5253V8.38172H3.66961C3.69527 9.30233 3.83641 10.2261 4.09623 11.1307ZM12.401 11.3007L12.4523 11.1115C12.7057 10.1876 12.8404 9.22855 12.8597 8.25982V8.13472H15.4739L15.4675 8.26624C15.4354 9.14836 15.2526 10.0016 14.9222 10.8035L14.8966 10.8677L12.401 11.3007ZM12.9527 8.22775V8.25982C12.9334 9.23817 12.7955 10.2037 12.5421 11.1339L12.5293 11.182L14.8324 10.7843L14.8388 10.7682C15.166 9.97273 15.3456 9.12911 15.3777 8.25982V8.22775H12.9527ZM3.59583 11.2975L1.09383 10.8645L1.06816 10.8003C0.740978 9.9984 0.55814 9.14515 0.526063 8.26303L0.519647 8.13472H3.13392V8.25982C3.15317 9.22855 3.2911 10.1876 3.5413 11.1115L3.59583 11.2975ZM1.16439 10.7811L3.47073 11.1788L3.4579 11.1307C3.20449 10.2005 3.06656 9.23176 3.04731 8.25662V8.22454H0.622293V8.25662C0.65437 9.1259 0.834002 9.96953 1.15798 10.7618L1.16439 10.7811ZM12.6127 11.1051L12.6319 11.0345C12.8597 10.1556 12.988 9.251 13.0104 8.33681V8.2919H15.3136L15.3103 8.34002C15.2686 9.1676 15.0954 9.9599 14.7971 10.7041L14.7875 10.7298L12.6127 11.1051ZM13.1034 8.38813C13.0746 9.26704 12.9527 10.1427 12.741 10.9896L14.7233 10.6464C15.0056 9.93745 15.1724 9.17723 15.2173 8.38813H13.1034ZM3.38412 11.1018L1.2093 10.7265L1.19968 10.7009C0.898156 9.94707 0.728148 9.15156 0.689655 8.33681L0.686447 8.28869H2.98637V8.3336C3.00882 9.24779 3.13713 10.1556 3.36488 11.0313L3.38412 11.1018ZM1.27666 10.6431L3.25902 10.9864C3.0409 10.1427 2.91901 9.26704 2.89655 8.38492H0.785886C0.827586 9.16119 0.991179 9.92141 1.27666 10.6431ZM15.4739 7.86207H12.8597V7.73376C12.8404 6.76504 12.7025 5.80593 12.4523 4.88212L12.401 4.69286L14.903 5.1259L14.9286 5.19006C15.259 6.00481 15.4419 6.86127 15.4707 7.73055L15.4739 7.86207ZM12.9559 7.76905H15.3777V7.73697C15.3488 6.87731 15.1692 6.03368 14.842 5.22855L14.8356 5.21251L12.5293 4.81476L12.5421 4.86287C12.7955 5.7931 12.9334 6.76183 12.9527 7.73697V7.76905H12.9559ZM12.587 7.85886H8.13793V4.21171H8.26303C9.2093 4.22454 10.1652 4.31115 11.0954 4.46832L12.0994 4.64154L12.1187 4.71852C12.4074 5.70329 12.5613 6.71692 12.5806 7.73376L12.587 7.85886ZM8.23095 7.76584H12.4908V7.73697C12.4715 6.72975 12.3176 5.72253 12.0321 4.74419L12.0257 4.72494L11.0794 4.56135C10.1475 4.40363 9.20487 4.31784 8.25982 4.30473H8.22775V7.76584H8.23095ZM7.81716 7.85886H3.41299V7.73376C3.43224 6.71692 3.58621 5.70329 3.8749 4.71532L3.89415 4.64154L4.89816 4.46832C5.81556 4.31115 6.76824 4.22454 7.73055 4.21171H7.85565V7.81395H7.81075V7.85886H7.81716ZM3.50922 7.76584H7.76584V4.30473H7.73376C6.77466 4.31756 5.82839 4.40417 4.9174 4.56135L3.97113 4.72494L3.96792 4.74419C3.68244 5.72253 3.52847 6.72975 3.50922 7.73697V7.76584ZM3.14354 7.85565H0.522855L0.52927 7.72414C0.561347 6.84202 0.744186 5.98877 1.07458 5.18685L1.10024 5.12269L3.60225 4.68965L3.55092 4.87891C3.29751 5.80273 3.16279 6.76183 3.14354 7.73055V7.85565ZM0.622293 7.76263H3.05052V7.73055C3.06977 6.75221 3.2077 5.78669 3.46111 4.85646L3.47394 4.80834L1.1676 5.20609L1.16119 5.22213C0.834002 6.01764 0.65437 6.86127 0.622293 7.73055V7.76263ZM15.3136 7.70489H13.0136V7.65998C12.9912 6.74579 12.8629 5.83801 12.6351 4.96231L12.6159 4.89174L14.7907 5.26704L14.8003 5.2927C15.1051 6.05934 15.2751 6.85485 15.3103 7.65998L15.3136 7.70489ZM13.1067 7.61187H15.2141C15.1756 6.84523 15.012 6.0818 14.7233 5.35044L12.741 5.00722C12.9591 5.85726 13.081 6.73296 13.1067 7.61187ZM12.4266 7.70168H8.28869V4.36889H8.33681C9.26383 4.38492 10.1812 4.47153 11.0666 4.62229L11.9775 4.77626L11.9872 4.80513C12.2534 5.72895 12.401 6.68805 12.4266 7.65357V7.70168ZM8.38492 7.60866H12.3304C12.3015 6.67843 12.1604 5.75461 11.9038 4.86287L11.0505 4.71852C10.1844 4.56776 9.28949 4.48436 8.38172 4.46832V7.60866H8.38492ZM7.70489 7.70168H3.57338V7.65357C3.59583 6.7073 3.74018 5.7482 4.00962 4.80513L4.01925 4.77626L4.93023 4.62229C5.81877 4.46832 6.73617 4.38492 7.65998 4.36889H7.7081V7.70168H7.70489ZM3.66961 7.60866H7.61187V4.46191C6.71051 4.48115 5.81235 4.56456 4.94306 4.71211L4.08982 4.85646C3.83641 5.77065 3.69527 6.69447 3.66961 7.60866ZM2.98637 7.69848H0.686447L0.689655 7.65036C0.728148 6.83561 0.898156 6.0401 1.19968 5.28629L1.2093 5.26063L3.38412 4.88532L3.36488 4.95589C3.13713 5.8348 3.00882 6.73937 2.98637 7.65357V7.69848ZM0.785886 7.60545H2.89334C2.92221 6.72654 3.04411 5.85084 3.25581 5.00401L1.27346 5.34723C0.991179 6.06897 0.827586 6.82919 0.785886 7.60545ZM1.22855 4.82759L1.34403 4.60305C2.24539 2.83881 3.77546 1.52366 5.64876 0.901363L6.22294 0.708901L5.77065 1.10986C4.80513 1.97594 4.09623 3.08581 3.71772 4.32398L3.69848 4.39775L1.22855 4.82759ZM5.81876 0.943063L5.67763 0.991179C3.82678 1.60706 2.31596 2.90618 1.42422 4.64796L1.39535 4.70569L3.62149 4.32077L3.6247 4.30152C4.00962 3.04731 4.72815 1.9182 5.70329 1.0425L5.81876 0.943063ZM14.7715 4.82438L12.3015 4.39775L12.2823 4.32077C11.907 3.09543 11.1981 1.98236 10.2294 1.10986L9.78348 0.708901L10.3545 0.898156C12.2277 1.52366 13.7578 2.84202 14.656 4.60305L14.7715 4.82438ZM12.3753 4.31435L14.5982 4.69928L14.5694 4.64475C13.6808 2.90297 12.17 1.60385 10.3192 0.984763L10.1812 0.939856L10.2935 1.03929C11.2751 1.92462 11.9936 3.05052 12.3721 4.29511L12.3753 4.31435ZM1.51083 4.62229L1.55573 4.53889C2.38332 2.9992 3.72735 1.80593 5.34403 1.17723L5.55253 1.09703L5.39214 1.25421C4.55814 2.0818 3.93585 3.11147 3.58621 4.23416L3.57658 4.26303L1.51083 4.62229ZM5.17081 1.34723C3.69527 1.97594 2.46672 3.0826 1.68725 4.49399L3.50922 4.17642C3.83962 3.1243 4.41379 2.14916 5.17081 1.34723ZM14.4892 4.61909L12.4202 4.25982L12.4106 4.23095C12.0609 3.11147 11.4354 2.0818 10.6014 1.251L10.4411 1.09383L10.6496 1.17723C12.2727 1.80593 13.6167 2.9992 14.4443 4.53248L14.4892 4.61909ZM12.494 4.17642L14.3127 4.49399C13.5301 3.08581 12.3015 1.97915 10.826 1.34723C11.5862 2.14916 12.1604 3.1243 12.494 4.17642ZM12.0128 4.34964L11.1468 4.19567C10.178 4.03208 9.2093 3.94226 8.26303 3.92943H8.13793V0.519647L8.27586 0.535686C9.78348 0.680032 11.1532 2.03047 11.9358 4.14435L12.0128 4.34964ZM8.23095 3.83641H8.26303C9.21251 3.84924 10.1877 3.93905 11.1628 4.10265L11.8653 4.22775L11.846 4.17642C11.0762 2.09463 9.73857 0.769848 8.26624 0.625501L8.23416 0.622294V3.83641H8.23095ZM3.99358 4.34964L4.06736 4.14435C4.85004 2.02727 6.21652 0.676824 7.72735 0.535686L7.86207 0.519647V3.93264H7.73697C6.75541 3.94547 5.78348 4.03528 4.85325 4.19888L3.99358 4.34964ZM7.76905 0.625501L7.73697 0.628709C6.26464 0.76664 4.92382 2.09463 4.15718 4.17642L4.13793 4.22775L4.84042 4.10585C5.77386 3.94226 6.7522 3.85245 7.74018 3.83962H7.77225V0.625501H7.76905ZM4.23095 4.15076L4.25982 4.07378C4.6255 3.12109 5.12911 2.30954 5.71291 1.72895C6.29992 1.14515 6.97033 0.789094 7.65036 0.702486L7.70168 0.696071V3.78188H7.65678C6.71371 3.79791 5.76103 3.88773 4.82438 4.04812L4.23095 4.15076ZM7.61187 0.801925C6.30633 0.997594 5.10666 2.19727 4.37851 4.02887L4.81155 3.95188C5.73536 3.79471 6.67843 3.70489 7.61187 3.68565V0.801925ZM11.769 4.14755L11.1724 4.0417C10.2197 3.88132 9.26704 3.7915 8.34002 3.77546H8.29511V0.696071L8.34643 0.702486C9.72253 0.878909 10.9928 2.13954 11.737 4.07057L11.769 4.14755ZM8.38813 3.68565C9.30233 3.70489 10.2454 3.7915 11.1885 3.95188L11.6215 4.02887C10.8933 2.19727 9.69366 1.0008 8.38813 0.805132V3.68565Z" fill="#328DFB"/>
</svg>
