<svg width="17" height="18" viewBox="0 0 17 18" fill="none" xmlns="http://www.w3.org/2000/svg">
<path d="M2.95093 10.4977H2.7095C1.76537 10.4977 1 9.73236 1 8.78823V2.7095C1 1.76537 1.76537 1 2.7095 1H8.52178C9.4659 1 10.2313 1.76537 10.2313 2.7095V8.78823C10.2313 9.73236 9.46591 10.4977 8.52178 10.4977H5.68224" stroke="#328DFB" stroke-width="1.2" stroke-linecap="round"/>
<path d="M11.5689 7.15395L13.9067 7.15395C14.8508 7.15395 15.6162 7.91932 15.6162 8.86345L15.6162 13.1372C15.6162 14.0813 14.8508 14.8467 13.9067 14.8467L5.78662 14.8467C4.84249 14.8467 4.07712 14.0813 4.07712 13.1372L4.07712 8.86345C4.07712 7.91932 4.84249 7.15395 5.78662 7.15395L8.19822 7.15395" stroke="#328DFB" stroke-width="1.2" stroke-linecap="round"/>
<path d="M10.2383 14.8467L10.2383 16.7462" stroke="#328DFB" stroke-width="1.2" stroke-linecap="round"/>
<path d="M7.1543 16.7466L13.3238 16.7466" stroke="#328DFB" stroke-width="1.2" stroke-linecap="round"/>
<path d="M4.23926 3.22217L6.9384 3.22217" stroke="#328DFB" stroke-width="1.2" stroke-linecap="round"/>
<path d="M1 14.2173V16.9999H3.9372" stroke="#328DFB" stroke-width="1.2" stroke-linecap="round"/>
<path d="M15.3057 3.78271L15.3057 1.0001L12.3685 1.0001" stroke="#328DFB" stroke-width="1.2" stroke-linecap="round"/>
</svg>
