<svg width="17" height="18" viewBox="0 0 17 18" fill="none" xmlns="http://www.w3.org/2000/svg">
<path d="M2.95093 10.4977H2.7095C1.76537 10.4977 1 9.73236 1 8.78823V2.7095C1 1.76537 1.76537 1 2.7095 1H8.52178C9.4659 1 10.2313 1.76537 10.2313 2.7095V8.78823C10.2313 9.73236 9.46591 10.4977 8.52178 10.4977H5.68224" stroke="#333333" stroke-width="1.2" stroke-linecap="round"/>
<path d="M11.569 7.15395L13.9068 7.15395C14.851 7.15395 15.6163 7.91932 15.6163 8.86345L15.6163 13.1372C15.6163 14.0813 14.8509 14.8467 13.9068 14.8467L5.78672 14.8467C4.8426 14.8467 4.07723 14.0813 4.07723 13.1372L4.07723 8.86345C4.07723 7.91932 4.8426 7.15395 5.78672 7.15395L8.19833 7.15395" stroke="#333333" stroke-width="1.2" stroke-linecap="round"/>
<path d="M10.2387 14.8467L10.2387 16.7462" stroke="#333333" stroke-width="1.2" stroke-linecap="round"/>
<path d="M7.15408 16.7466L13.3235 16.7466" stroke="#333333" stroke-width="1.2" stroke-linecap="round"/>
<path d="M4.23915 3.22217L6.93829 3.22217" stroke="#333333" stroke-width="1.2" stroke-linecap="round"/>
<path d="M1 14.2173V16.9999H3.9372" stroke="#333333" stroke-width="1.2" stroke-linecap="round"/>
<path d="M15.3056 3.78271L15.3056 1.0001L12.3684 1.0001" stroke="#333333" stroke-width="1.2" stroke-linecap="round"/>
</svg>
