<svg width="24.000000" height="24.000000" viewBox="0 0 24 24" fill="none" xmlns="http://www.w3.org/2000/svg" xmlns:xlink="http://www.w3.org/1999/xlink">
	<desc>
			Created with Pixso.
	</desc>
	<defs/>
	<circle id="椭圆形" cx="12.000000" cy="12.000000" r="12.000000" fill="#328DFB" fill-opacity="1.000000"/>
	<path id="2" d="M11.28 13.59Q10.35 14.45 8.79 15.67L8.79 17L15.19 17L15.19 15.93L10.18 15.93L10.18 15.81L10.74 15.37Q11.92 14.43 12.7 13.71Q13.48 12.99 13.95 12.37Q14.41 11.75 14.6 11.16Q14.8 10.58 14.8 9.93Q14.8 9.18 14.58 8.65Q14.41 8.22 14.11 7.92Q14.03 7.85 13.95 7.78Q13.54 7.45 12.96 7.29Q12.39 7.14 11.68 7.14Q11.06 7.14 10.51 7.2Q9.95 7.25 9.46 7.36L9.46 8.44Q10.04 8.29 10.56 8.24Q11.07 8.19 11.54 8.19Q11.89 8.19 12.26 8.26Q12.6 8.33 12.88 8.5Q12.9 8.51 12.92 8.53Q12.95 8.54 12.98 8.57Q13.24 8.75 13.41 9.06Q13.59 9.39 13.59 9.91Q13.59 9.98 13.59 10.04Q13.57 10.49 13.43 10.94Q13.26 11.45 12.74 12.1Q12.22 12.74 11.28 13.59Z" fill="#FFFFFF" fill-opacity="1.000000" fill-rule="evenodd"/>
</svg>
