<svg viewBox="0 0 411 110" xmlns="http://www.w3.org/2000/svg" xmlns:xlink="http://www.w3.org/1999/xlink" width="411" height="110" fill="none" customFrame="#000000">
	<defs>
		<linearGradient id="paint_linear_1" x1="205.5" x2="205.5" y1="0.163640216" y2="100.000008" gradientUnits="userSpaceOnUse">
			<stop stop-color="rgb(255,212,0)" offset="0" stop-opacity="1" />
			<stop stop-color="rgb(255,195,0)" offset="1" stop-opacity="1" />
		</linearGradient>
		<g id="pixso_custom_effect_2">
			<effect x="0" y="1" visibility="visible" fill="rgb(255,117.4,0)" fill-opacity="1" effectType="innerShadow" stdDeviation="31.5" radius="0" />
		</g>
		<filter id="filter_2" width="75.7911377" height="75.7910156" x="167.657715" y="12.0429688" filterUnits="userSpaceOnUse" customEffect="url(#pixso_custom_effect_2)" color-interpolation-filters="sRGB">
			<feFlood flood-opacity="0" result="BackgroundImageFix" />
			<feBlend result="shape" in="SourceGraphic" in2="BackgroundImageFix" mode="normal" />
			<feColorMatrix result="hardAlpha" in="SourceAlpha" type="matrix" values="0 0 0 0 0 0 0 0 0 0 0 0 0 0 0 0 0 0 127 0 " />
			<feOffset dx="0" dy="1" />
			<feGaussianBlur stdDeviation="10.5" />
			<feComposite k2="-1" k3="1" in2="hardAlpha" operator="arithmetic" />
			<feColorMatrix type="matrix" values="0 0 0 0 1 0 0 0 0 0.460391 0 0 0 0 0 0 0 0 1 0 " />
			<feBlend result="effect_innerShadow_1" in2="shape" mode="normal" />
		</filter>
		<radialGradient id="paint_radial_1" cx="0" cy="0" r="1" gradientUnits="userSpaceOnUse" gradientTransform="matrix(0,-51.971,51.971,0,205.553,23.2804)">
			<stop stop-color="rgb(255,223,0)" offset="0" stop-opacity="1" />
			<stop stop-color="rgb(255,176,0)" offset="1" stop-opacity="1" />
		</radialGradient>
		<g id="pixso_custom_effect_3">
			<effect x="1" y="1" visibility="visible" fill="rgb(255,160,0)" fill-opacity="1" effectType="dropShadow" stdDeviation="4" radius="0" />
		</g>
		<filter id="filter_3" width="45.4133301" height="45.5" x="183.75" y="28.25" filterUnits="userSpaceOnUse" customEffect="url(#pixso_custom_effect_3)" color-interpolation-filters="sRGB">
			<feFlood flood-opacity="0" result="BackgroundImageFix" />
			<feColorMatrix result="hardAlpha" in="SourceAlpha" type="matrix" values="0 0 0 0 0 0 0 0 0 0 0 0 0 0 0 0 0 0 127 0 " />
			<feOffset dx="1" dy="1" />
			<feGaussianBlur stdDeviation="1.33333337" />
			<feComposite k2="-1" k3="1" in2="hardAlpha" operator="out" />
			<feColorMatrix type="matrix" values="0 0 0 0 1 0 0 0 0 0.627451 0 0 0 0 0 0 0 0 1 0 " />
			<feBlend result="effect_dropShadow_1" in2="BackgroundImageFix" mode="normal" />
			<feBlend result="shape" in="SourceGraphic" in2="effect_dropShadow_1" mode="normal" />
		</filter>
	</defs>
	<rect id="大" width="411" height="110" x="0" y="0" />
	<g id="组合 1442">
		<g id="组合 1443">
			<g id="组合 1447">
				<circle id="椭圆 87" cx="205.5" cy="50" r="50" fill="url(#paint_linear_1)" />
			</g>
		</g>
		<g id="组合 1451">
			<g id="组合 1455" filter="url(#filter_2)">
				<circle id="椭圆 91" cx="205.553284" cy="49.93853" r="37.8955612" fill="url(#paint_radial_1)" />
				<path id="矢量 366" d="M243.449 49.9385C243.449 50.5587 243.434 51.1785 243.403 51.798C243.373 52.4174 243.327 53.0357 243.266 53.653C243.206 54.2701 243.13 54.8855 243.039 55.499C242.948 56.1124 242.841 56.7233 242.72 57.3316C242.6 57.9398 242.464 58.5448 242.313 59.1464C242.162 59.748 241.997 60.3456 241.817 60.939C241.637 61.5325 241.443 62.1212 241.234 62.7052C241.025 63.289 240.802 63.8675 240.564 64.4406C240.327 65.0137 240.076 65.5805 239.81 66.1411C239.545 66.7016 239.266 67.2554 238.974 67.8023C238.682 68.3493 238.376 68.8889 238.057 69.4209C237.739 69.9526 237.407 70.4764 237.062 70.9922C236.717 71.508 236.361 72.0149 235.991 72.5131C235.622 73.0112 235.24 73.4999 234.847 73.9791C234.453 74.4586 234.049 74.9281 233.632 75.3876C233.216 75.8471 232.788 76.296 232.349 76.7345C231.911 77.1733 231.462 77.6009 231.002 78.0174C230.543 78.4338 230.073 78.8387 229.594 79.232C229.115 79.6254 228.626 80.0069 228.128 80.3765C227.63 80.7458 227.123 81.1028 226.607 81.4473C226.091 81.7922 225.567 82.124 225.036 82.4427C224.504 82.7615 223.964 83.0671 223.417 83.3594C222.87 83.6517 222.316 83.9304 221.756 84.1956C221.195 84.4608 220.628 84.7121 220.055 84.9495C219.482 85.1868 218.904 85.41 218.32 85.6189C217.736 85.8277 217.147 86.0222 216.554 86.2023C215.96 86.3824 215.363 86.5477 214.761 86.6982C214.16 86.8492 213.555 86.985 212.946 87.1057C212.338 87.2267 211.727 87.3329 211.114 87.4241C210.5 87.515 209.885 87.5908 209.268 87.6515C208.65 87.7125 208.032 87.7581 207.413 87.7883C206.793 87.8188 206.173 87.8341 205.553 87.8341C204.933 87.8341 204.313 87.8188 203.694 87.7883C203.074 87.7581 202.456 87.7125 201.839 87.6515C201.222 87.5908 200.606 87.515 199.993 87.4241C199.379 87.3329 198.768 87.2267 198.16 87.1057C197.552 86.985 196.947 86.8492 196.345 86.6982C195.744 86.5477 195.146 86.3824 194.553 86.2023C193.959 86.0222 193.371 85.8277 192.787 85.6189C192.203 85.41 191.624 85.1868 191.051 84.9495C190.478 84.7121 189.911 84.4608 189.351 84.1956C188.79 83.9304 188.236 83.6517 187.689 83.3594C187.142 83.0671 186.603 82.7615 186.071 82.4427C185.539 82.124 185.015 81.7922 184.5 81.4473C183.984 81.1028 183.477 80.7458 182.979 80.3765C182.481 80.0069 181.992 79.6254 181.513 79.232C181.033 78.8387 180.564 78.4338 180.104 78.0174C179.645 77.6009 179.196 77.1733 178.757 76.7345C178.319 76.296 177.891 75.8471 177.475 75.3876C177.058 74.9281 176.653 74.4586 176.26 73.9791C175.866 73.4999 175.485 73.0112 175.115 72.5131C174.746 72.0149 174.389 71.508 174.044 70.9922C173.7 70.4764 173.368 69.9526 173.049 69.4209C172.73 68.8889 172.425 68.3493 172.132 67.8023C171.84 67.2554 171.561 66.7016 171.296 66.1411C171.031 65.5805 170.78 65.0137 170.542 64.4406C170.305 63.8675 170.082 63.289 169.873 62.7052C169.664 62.1212 169.47 61.5325 169.289 60.939C169.109 60.3456 168.944 59.748 168.793 59.1464C168.643 58.5448 168.507 57.9398 168.386 57.3316C168.265 56.7233 168.159 56.1124 168.068 55.499C167.977 54.8855 167.901 54.2701 167.84 53.653C167.779 53.0357 167.734 52.4174 167.703 51.798C167.673 51.1785 167.658 50.5587 167.658 49.9385C167.658 49.3183 167.673 48.6985 167.703 48.0791C167.734 47.4597 167.779 46.8413 167.84 46.2241C167.901 45.6069 167.977 44.9916 168.068 44.3781C168.159 43.7646 168.265 43.1537 168.386 42.5455C168.507 41.9372 168.643 41.3323 168.793 40.7307C168.944 40.1291 169.109 39.5315 169.289 38.938C169.47 38.3446 169.664 37.7558 169.873 37.1719C170.082 36.588 170.305 36.0095 170.542 35.4365C170.78 34.8635 171.031 34.2967 171.296 33.7361C171.561 33.1754 171.84 32.6216 172.132 32.0747C172.425 31.5277 172.73 30.9883 173.049 30.4563C173.368 29.9244 173.7 29.4006 174.044 28.8849C174.389 28.3692 174.746 27.8623 175.115 27.3642C175.485 26.866 175.866 26.3772 176.26 25.8978C176.653 25.4184 177.058 24.949 177.475 24.4894C177.891 24.0299 178.319 23.5809 178.757 23.1423C179.196 22.7038 179.645 22.2762 180.104 21.8597C180.564 21.4433 181.033 21.0383 181.513 20.6449C181.992 20.2514 182.481 19.87 182.979 19.5005C183.477 19.1311 183.984 18.7741 184.5 18.4295C185.015 18.0849 185.539 17.7532 186.071 17.4344C186.603 17.1156 187.142 16.81 187.689 16.5176C188.236 16.2253 188.79 15.9465 189.351 15.6814C189.911 15.4162 190.478 15.1649 191.051 14.9276C191.624 14.6903 192.203 14.4671 192.787 14.2582C193.371 14.0493 193.959 13.8548 194.553 13.6747C195.146 13.4947 195.744 13.3293 196.345 13.1786C196.947 13.028 197.552 12.8921 198.16 12.7711C198.768 12.6501 199.379 12.5441 199.993 12.4531C200.606 12.3621 201.222 12.2862 201.839 12.2254C202.456 12.1647 203.074 12.119 203.694 12.0886C204.313 12.0582 204.933 12.043 205.553 12.043C206.173 12.043 206.793 12.0582 207.413 12.0886C208.032 12.119 208.65 12.1647 209.268 12.2254C209.885 12.2862 210.5 12.3621 211.114 12.4531C211.727 12.5441 212.338 12.6501 212.946 12.7711C213.555 12.8921 214.16 13.028 214.761 13.1786C215.363 13.3293 215.96 13.4947 216.554 13.6747C217.147 13.8548 217.736 14.0493 218.32 14.2582C218.904 14.4671 219.482 14.6903 220.055 14.9276C220.628 15.1649 221.195 15.4162 221.756 15.6814C222.316 15.9465 222.87 16.2253 223.417 16.5176C223.964 16.81 224.504 17.1156 225.036 17.4344C225.567 17.7532 226.091 18.0849 226.607 18.4295C227.123 18.7741 227.63 19.1311 228.128 19.5005C228.626 19.87 229.115 20.2514 229.594 20.6449C230.073 21.0383 230.543 21.4433 231.002 21.8597C231.462 22.2762 231.911 22.7038 232.349 23.1423C232.788 23.5809 233.216 24.0299 233.632 24.4894C234.049 24.949 234.453 25.4184 234.847 25.8978C235.24 26.3772 235.622 26.866 235.991 27.3642C236.361 27.8623 236.717 28.3692 237.062 28.8849C237.407 29.4006 237.739 29.9244 238.057 30.4563C238.376 30.9883 238.682 31.5277 238.974 32.0747C239.266 32.6216 239.545 33.1754 239.81 33.7361C240.076 34.2967 240.327 34.8635 240.564 35.4365C240.802 36.0095 241.025 36.588 241.234 37.1719C241.443 37.7558 241.637 38.3446 241.817 38.938C241.997 39.5315 242.162 40.1291 242.313 40.7307C242.464 41.3323 242.6 41.9372 242.72 42.5455C242.841 43.1537 242.948 43.7646 243.039 44.3781C243.13 44.9916 243.206 45.6069 243.266 46.2241C243.327 46.8413 243.373 47.4597 243.403 48.0791C243.434 48.6985 243.449 49.3183 243.449 49.9385ZM240.397 49.9385C240.397 49.3683 240.383 48.7984 240.355 48.2289C240.327 47.6593 240.285 47.0908 240.229 46.5233C240.173 45.9557 240.103 45.39 240.02 44.8259C239.936 44.2619 239.839 43.7002 239.727 43.1409C239.616 42.5816 239.491 42.0254 239.353 41.4722C239.214 40.9191 239.062 40.3697 238.896 39.824C238.731 39.2783 238.552 38.737 238.36 38.2001C238.168 37.6632 237.963 37.1313 237.745 36.6045C237.526 36.0776 237.295 35.5565 237.051 35.041C236.808 34.5255 236.551 34.0163 236.283 33.5134C236.014 33.0105 235.733 32.5145 235.439 32.0254C235.146 31.5362 234.842 31.0546 234.525 30.5805C234.208 30.1063 233.879 29.6402 233.54 29.1822C233.2 28.7242 232.849 28.2748 232.488 27.834C232.126 27.3932 231.753 26.9615 231.371 26.539C230.988 26.1165 230.595 25.7036 230.191 25.3004C229.788 24.8972 229.375 24.5041 228.953 24.1211C228.53 23.7382 228.099 23.3659 227.658 23.0041C227.217 22.6423 226.768 22.2916 226.309 21.9519C225.852 21.6122 225.386 21.284 224.912 20.9671C224.437 20.6503 223.955 20.3454 223.466 20.0522C222.977 19.759 222.481 19.4781 221.979 19.2092C221.476 18.9404 220.967 18.6841 220.451 18.4403C219.935 18.1965 219.414 17.9655 218.887 17.7473C218.361 17.529 217.829 17.3239 217.292 17.1318C216.755 16.9397 216.214 16.7608 215.668 16.5953C215.122 16.4298 214.573 16.2777 214.02 16.1392C213.466 16.0006 212.91 15.8757 212.351 15.7645C211.792 15.6532 211.23 15.5558 210.666 15.4721C210.102 15.3884 209.536 15.3186 208.969 15.2627C208.401 15.2068 207.833 15.1649 207.263 15.1369C206.693 15.109 206.124 15.095 205.553 15.095C204.983 15.095 204.413 15.109 203.844 15.1369C203.274 15.1649 202.705 15.2068 202.138 15.2627C201.57 15.3186 201.005 15.3884 200.441 15.4721C199.877 15.5558 199.315 15.6532 198.756 15.7645C198.196 15.8757 197.64 16.0006 197.087 16.1392C196.534 16.2777 195.984 16.4298 195.439 16.5953C194.893 16.7608 194.352 16.9397 193.815 17.1318C193.278 17.3239 192.746 17.529 192.219 17.7473C191.692 17.9655 191.171 18.1965 190.656 18.4403C190.14 18.6841 189.631 18.9404 189.128 19.2092C188.625 19.4781 188.129 19.759 187.64 20.0522C187.151 20.3454 186.669 20.6503 186.195 20.9671C185.721 21.284 185.255 21.6122 184.797 21.9519C184.339 22.2916 183.89 22.6423 183.449 23.0041C183.008 23.3659 182.576 23.7382 182.154 24.1211C181.731 24.5041 181.318 24.8972 180.915 25.3004C180.512 25.7036 180.119 26.1165 179.736 26.539C179.353 26.9615 178.981 27.3932 178.619 27.834C178.257 28.2748 177.906 28.7242 177.567 29.1822C177.227 29.6403 176.899 30.1064 176.582 30.5805C176.265 31.0546 175.96 31.5362 175.667 32.0254C175.374 32.5145 175.093 33.0105 174.824 33.5134C174.555 34.0163 174.299 34.5255 174.055 35.041C173.811 35.5565 173.58 36.0776 173.362 36.6045C173.144 37.1313 172.939 37.6632 172.747 38.2001C172.554 38.737 172.376 39.2783 172.21 39.824C172.045 40.3697 171.892 40.9191 171.754 41.4723C171.615 42.0254 171.49 42.5816 171.379 43.1409C171.268 43.7002 171.171 44.2619 171.087 44.8259C171.003 45.39 170.933 45.9557 170.877 46.5233C170.822 47.0908 170.78 47.6593 170.752 48.2289C170.724 48.7984 170.71 49.3683 170.71 49.9385C170.71 50.5088 170.724 51.0787 170.752 51.6482C170.78 52.2178 170.822 52.7863 170.877 53.3538C170.933 53.9213 171.003 54.4871 171.087 55.0511C171.171 55.6152 171.268 56.1769 171.379 56.7362C171.49 57.2955 171.615 57.8517 171.754 58.4048C171.892 58.958 172.045 59.5074 172.21 60.0531C172.376 60.5988 172.554 61.1401 172.747 61.6769C172.939 62.2139 173.144 62.7458 173.362 63.2727C173.58 63.7993 173.811 64.3205 174.055 64.8363C174.299 65.3518 174.555 65.8609 174.824 66.3638C175.093 66.8667 175.374 67.3627 175.667 67.8517C175.96 68.3407 176.265 68.8224 176.582 69.2968C176.899 69.7709 177.227 70.2368 177.567 70.6946C177.906 71.1528 178.257 71.6022 178.619 72.0431C178.981 72.4839 179.353 72.9156 179.736 73.3382C180.119 73.7607 180.512 74.1735 180.915 74.5768C181.318 74.9799 181.731 75.373 182.154 75.7558C182.576 76.1387 183.008 76.511 183.449 76.8729C183.89 77.2347 184.339 77.5855 184.797 77.9253C185.255 78.2647 185.721 78.593 186.195 78.9101C186.669 79.2268 187.151 79.5317 187.64 79.8246C188.129 80.118 188.625 80.3991 189.128 80.668C189.631 80.9366 190.14 81.1928 190.656 81.4366C191.171 81.6804 191.692 81.9115 192.219 82.1299C192.746 82.348 193.278 82.5531 193.815 82.7454C194.352 82.9373 194.893 83.1161 195.439 83.2815C195.984 83.4474 196.534 83.5995 197.087 83.7378C197.64 83.8765 198.196 84.0015 198.756 84.1127C199.315 84.2239 199.877 84.3214 200.441 84.4052C201.005 84.4886 201.57 84.5583 202.138 84.6143C202.705 84.6702 203.274 84.7121 203.844 84.7399C204.413 84.768 204.983 84.7821 205.553 84.7821C206.124 84.7821 206.693 84.768 207.263 84.7399C207.833 84.7121 208.401 84.6702 208.969 84.6143C209.536 84.5583 210.102 84.4886 210.666 84.4052C211.23 84.3214 211.792 84.2239 212.351 84.1127C212.91 84.0015 213.466 83.8765 214.02 83.7378C214.573 83.5995 215.122 83.4474 215.668 83.2815C216.214 83.1161 216.755 82.9373 217.292 82.7454C217.829 82.5531 218.361 82.348 218.887 82.1299C219.414 81.9115 219.935 81.6804 220.451 81.4366C220.967 81.1928 221.476 80.9366 221.979 80.668C222.481 80.3991 222.977 80.118 223.466 79.8246C223.955 79.5317 224.437 79.2268 224.912 78.9101C225.386 78.593 225.852 78.2647 226.309 77.9253C226.768 77.5855 227.217 77.2347 227.658 76.8729C228.099 76.511 228.53 76.1387 228.953 75.7558C229.375 75.373 229.788 74.9799 230.191 74.5768C230.595 74.1735 230.988 73.7607 231.371 73.3382C231.753 72.9156 232.126 72.4839 232.488 72.0431C232.849 71.6022 233.2 71.1528 233.54 70.6946C233.879 70.2368 234.208 69.7709 234.525 69.2968C234.842 68.8224 235.146 68.3407 235.439 67.8517C235.733 67.3627 236.014 66.8667 236.283 66.3638C236.551 65.8609 236.808 65.3518 237.051 64.8363C237.295 64.3205 237.526 63.7993 237.745 63.2727C237.963 62.7458 238.168 62.2139 238.36 61.6769C238.552 61.1401 238.731 60.5988 238.896 60.0531C239.062 59.5074 239.214 58.958 239.353 58.4048C239.491 57.8517 239.616 57.2955 239.727 56.7362C239.839 56.1769 239.936 55.6152 240.02 55.0511C240.103 54.4871 240.173 53.9213 240.229 53.3538C240.285 52.7863 240.327 52.2178 240.355 51.6482C240.383 51.0787 240.397 50.5088 240.397 49.9385Z" fill="rgb(255,220,0)" fill-rule="nonzero" />
			</g>
		</g>
		<path id="星形 1" d="M208.916 41.5067C209.062 41.9568 209.481 42.2615 209.955 42.2615L221.32 42.2621C222.379 42.2621 222.819 43.6162 221.962 44.2383L212.768 50.9193C212.385 51.1975 212.225 51.6906 212.371 52.1407L215.883 62.9503C216.21 63.9568 215.058 64.7937 214.201 64.1717L205.006 57.4915C204.623 57.2133 204.105 57.2133 203.722 57.4915L194.526 64.1717C193.67 64.7937 192.518 63.9568 192.845 62.9503L196.357 52.1407C196.503 51.6906 196.343 51.1975 195.96 50.9193L186.765 44.2383C185.909 43.6162 186.349 42.2621 187.408 42.2621L198.773 42.2615C199.247 42.2615 199.666 41.9568 199.812 41.5067L203.325 30.6974C203.652 29.6909 205.076 29.6909 205.403 30.6974L208.916 41.5067Z" opacity="0" fill="rgb(255,255,255)" fill-opacity="0.800000012" fill-rule="evenodd" />
		<g filter="url(#filter_3)">
			<path id="矢量 368" d="M186.75 50L205.457 31.25L224.163 50L205.457 68.75L186.75 50ZM209.468 54.1896L205.446 58.2347L205.446 67.522L222.916 50L205.457 32.4883L205.457 40.5063L201.404 44.6237L201.404 54.1586L209.468 46.0374L209.468 54.1896L209.468 54.1896Z" fill="rgb(255,255,255)" fill-opacity="0.800000012" fill-rule="evenodd" />
		</g>
	</g>
</svg>
