<svg width="26" height="26" viewBox="0 0 26 26" fill="none" xmlns="http://www.w3.org/2000/svg">
<g id="&#231;&#188;&#150;&#231;&#187;&#132;">
<rect id="&#231;&#159;&#169;&#229;&#189;&#162;&#229;&#164;&#135;&#228;&#187;&#189; 3" width="25.4776" height="25.4776" rx="12.7388" fill="#D6E8FE"/>
<path id="&#231;&#159;&#169;&#229;&#189;&#162;" opacity="0.2" fill-rule="evenodd" clip-rule="evenodd" d="M5.22998 12.7392C5.22998 12.1185 5.73322 11.6152 6.35399 11.6152L19.0928 11.6152C19.7136 11.6152 20.2168 12.1185 20.2168 12.7392C20.2168 13.36 19.7136 13.8633 19.0928 13.8633L6.35399 13.8633C5.73322 13.8633 5.22998 13.36 5.22998 12.7392Z" fill="white"/>
<path id="&#231;&#159;&#169;&#229;&#189;&#162;_2" opacity="0.2" fill-rule="evenodd" clip-rule="evenodd" d="M12.7232 5.24414C13.3439 5.24414 13.8472 5.74738 13.8472 6.36815L13.8472 19.107C13.8472 19.7277 13.3439 20.231 12.7232 20.231C12.1024 20.231 11.5991 19.7277 11.5991 19.107L11.5991 6.36815C11.5991 5.74738 12.1024 5.24414 12.7232 5.24414Z" fill="white"/>
</g>
</svg>
