<svg width="12" height="12" viewBox="0 0 12 12" fill="none" xmlns="http://www.w3.org/2000/svg">
<g id="&#229;&#133;&#179;&#233;&#151;&#173;-&#230;&#140;&#137;&#228;&#184;&#139;">
<path id="&#232;&#183;&#175;&#229;&#190;&#132;" fill-rule="evenodd" clip-rule="evenodd" d="M7.87058 6L11.6131 9.74115C12.129 10.2584 12.129 11.0958 11.6131 11.6131C11.0958 12.129 10.2584 12.129 9.74115 11.6131L6 7.87058L2.25885 11.6131C1.74159 12.129 0.9042 12.129 0.386947 11.6131C-0.128982 11.0958 -0.128982 10.2584 0.386947 9.74115L4.12942 6L0.386947 2.25885C-0.128982 1.74159 -0.128982 0.9042 0.386947 0.386947C0.9042 -0.128982 1.74159 -0.128982 2.25885 0.386947L6 4.12942L9.74115 0.386947C10.2584 -0.128982 11.0958 -0.128982 11.6131 0.386947C12.129 0.9042 12.129 1.74159 11.6131 2.25885L7.87058 6Z" fill="#328DFB"/>
</g>
</svg>
