<svg width="22" height="16" viewBox="0 0 22 16" fill="none" xmlns="http://www.w3.org/2000/svg">
<g id="&#231;&#188;&#150;&#231;&#187;&#132;">
<path id="&#232;&#183;&#175;&#229;&#190;&#132;" d="M21.7045 0.256822C21.5241 0.0845488 21.2836 -0.00768203 21.0361 0.000501603C20.7886 0.00868524 20.5545 0.11661 20.3854 0.300437L7.98175 13.7491L1.55072 8.26115C1.29654 8.03366 0.940963 7.96389 0.621645 8.07885C0.302328 8.19382 0.0693976 8.47547 0.0130323 8.81477C-0.043333 9.15407 0.0857146 9.49776 0.350215 9.71278L7.45804 15.7781C7.62605 15.9218 7.8387 16.0004 8.0583 16C8.31661 16.0008 8.56357 15.8922 8.73977 15.7004L21.7474 1.59751C21.9169 1.41399 22.0076 1.16959 21.9995 0.91813C21.9915 0.666672 21.8853 0.428775 21.7045 0.256822Z" fill="#328DFB"/>
</g>
</svg>
