<svg width="16.000000" height="16.000000" viewBox="0 0 16 16" fill="none" xmlns="http://www.w3.org/2000/svg" xmlns:xlink="http://www.w3.org/1999/xlink">
	<desc>
			Created with Pixso.
	</desc>
	<defs/>
	<path id="Vector" d="M0 8C0 3.58203 3.58154 0 8 0C12.4185 0 16 3.58203 16 8C16 12.418 12.4185 16 8 16C3.58154 16 0 12.418 0 8ZM10.4492 13.9131C9.67261 14.2344 8.84058 14.4004 8 14.4004C6.30249 14.4004 4.6748 13.7256 3.47461 12.5254C2.27417 11.3252 1.6001 9.69727 1.6001 8C1.6001 6.30273 2.27417 4.6748 3.47461 3.47461C4.6748 2.27441 6.30249 1.59961 8 1.59961C8.84058 1.59961 9.67261 1.76562 10.4492 2.08691C11.2256 2.40918 11.9312 2.87988 12.5254 3.47461C13.1199 4.06836 13.5913 4.77441 13.9128 5.55078C14.2346 6.32715 14.3999 7.15918 14.3999 8C14.3999 8.84082 14.2346 9.67285 13.9128 10.4492C13.5913 11.2256 13.1199 11.9316 12.5254 12.5254C11.9312 13.1201 11.2256 13.5908 10.4492 13.9131ZM5.17163 5.17188C5.92163 4.42188 6.93921 4 8 4C9.06079 4 10.0784 4.42188 10.8284 5.17188C11.5786 5.92188 12 6.93945 12 8C12 9.06055 11.5786 10.0781 10.8284 10.8281C10.0784 11.5781 9.06079 12 8 12C6.93921 12 5.92163 11.5781 5.17163 10.8281C4.42139 10.0781 4 9.06055 4 8C4 6.93945 4.42139 5.92188 5.17163 5.17188Z" clip-rule="evenodd" fill="#65A79E" fill-opacity="1.000000" fill-rule="evenodd"/>
</svg>
