<svg viewBox="0 0 20 20" xmlns="http://www.w3.org/2000/svg" xmlns:xlink="http://www.w3.org/1999/xlink" width="20.000000" height="20.000000" fill="none" customFrame="#000000">
	<defs>
		<clipPath id="clipPath_0">
			<rect width="20.000000" height="20.000000" x="0.000000" y="0.000000" fill="rgb(255,255,255)" transform="matrix(-1,0,0,1,20,0)" />
		</clipPath>
	</defs>
	<rect id="组合 1627" width="20.000000" height="20.000000" x="0.000000" y="0.000000" />
	<g id="组合 1628" customFrame="url(#clipPath_0)">
		<rect id="组合 1628" width="20.000000" height="20.000000" x="0.000000" y="0.000000" transform="matrix(-1,0,0,1,20,0)" />
		<g id="组合 1626">
			<path id="矢量 449" d="M14.0885 0C16.8448 0 19.088 2.24314 19.088 4.99944C19.088 7.75574 16.8448 9.99888 14.0885 9.99888L4.99944 9.99888C2.24314 9.99888 0 7.75574 0 4.99944C0 2.24313 2.2409 0 4.99944 0L14.0885 0Z" fill="rgb(221,221,221)" fill-rule="nonzero" transform="matrix(-1,0,0,1,19.5452,5)" />
			<path id="矢量 450" d="M5.45434 10.0011C2.9535 10.0011 0.909804 7.95518 0.909804 5.45658C0.909804 2.95798 2.95574 0.912045 5.45434 0.912045L14.5457 0.912045C17.0465 0.912045 19.0902 2.95798 19.0902 5.45658C19.0902 7.95518 17.0443 10.0011 14.5434 10.0011L5.45434 10.0011ZM5.45434 10.9087L14.5457 10.9087C17.5529 10.9087 20 8.46162 20 5.45434C20 2.44706 17.5507 0 14.5434 0L5.45434 0C2.44482 0 0 2.44706 0 5.45434C0 8.46162 2.44482 10.9087 5.45434 10.9087Z" fill="rgb(221,221,221)" fill-rule="nonzero" transform="matrix(-1,0,0,1,20,4.54688)" />
			<path id="矢量 451" d="M1.36773e-06 4.54454C-7.13217e-05 4.69342 0.00715509 4.84195 0.0216806 4.99013C0.0362061 5.1383 0.0579608 5.28541 0.0869445 5.43145C0.115928 5.57749 0.152001 5.72175 0.195164 5.86424C0.238327 6.00673 0.288371 6.14677 0.345297 6.28434C0.402222 6.42191 0.465755 6.55636 0.535895 6.68769C0.606035 6.81902 0.682445 6.94659 0.765123 7.07041C0.847802 7.19423 0.936352 7.3137 1.03077 7.42882C1.12519 7.54393 1.22503 7.65414 1.33028 7.75945C1.43553 7.86475 1.54569 7.96464 1.66076 8.05912C1.77583 8.15359 1.89526 8.2422 2.01904 8.32494C2.14282 8.40768 2.27035 8.48415 2.40165 8.55436C2.53294 8.62456 2.66736 8.68816 2.80491 8.74515C2.94245 8.80214 3.08246 8.85226 3.22493 8.89549C3.3674 8.93872 3.51165 8.97486 3.65767 9.00392C3.80369 9.03297 3.95079 9.0548 4.09896 9.0694C4.24713 9.084 4.39565 9.0913 4.54454 9.0913C4.69342 9.0913 4.84195 9.084 4.99012 9.0694C5.13829 9.0548 5.28538 9.03297 5.43141 9.00392C5.57743 8.97486 5.72168 8.93872 5.86415 8.89549C6.00662 8.85226 6.14663 8.80214 6.28417 8.74515C6.42172 8.68816 6.55614 8.62456 6.68743 8.55435C6.81873 8.48415 6.94626 8.40768 7.07004 8.32494C7.19382 8.2422 7.31325 8.15359 7.42832 8.05912C7.54339 7.96464 7.65355 7.86475 7.7588 7.75945C7.86405 7.65414 7.96389 7.54393 8.05831 7.42882C8.15273 7.3137 8.24128 7.19423 8.32396 7.07041C8.40664 6.9466 8.48305 6.81902 8.55319 6.68769C8.62333 6.55636 8.68686 6.42191 8.74378 6.28434C8.80071 6.14677 8.85075 6.00673 8.89392 5.86424C8.93708 5.72175 8.97315 5.57749 9.00214 5.43145C9.03112 5.28541 9.05287 5.1383 9.0674 4.99013C9.08192 4.84195 9.08915 4.69342 9.08908 4.54454C9.08908 4.3957 9.08178 4.24722 9.06719 4.0991C9.05261 3.95097 9.03079 3.80392 9.00176 3.65794C8.97272 3.51196 8.9366 3.36776 8.89339 3.22533C8.85019 3.0829 8.8001 2.94293 8.74314 2.80542C8.68619 2.66791 8.62263 2.53352 8.55247 2.40226C8.4823 2.27099 8.40588 2.14348 8.32318 2.01973C8.24049 1.89597 8.15194 1.77657 8.05752 1.66151C7.96309 1.54646 7.86326 1.43631 7.75801 1.33106C7.65277 1.22582 7.54262 1.12599 7.42757 1.03156C7.31251 0.93714 7.19311 0.848583 7.06935 0.765893C6.9456 0.683202 6.81809 0.606776 6.68682 0.536613C6.55556 0.466451 6.42117 0.402891 6.28366 0.345932C6.14615 0.288974 6.00618 0.238892 5.86375 0.195686C5.72132 0.152481 5.57712 0.116359 5.43114 0.087322C5.28516 0.0582849 5.13811 0.036472 4.98998 0.0218832C4.84186 0.0072944 4.69338 0 4.54454 0C4.3957 0 4.24722 0.0072944 4.0991 0.0218832C3.95098 0.036472 3.80392 0.0582849 3.65794 0.087322C3.51197 0.116359 3.36776 0.152481 3.22533 0.195686C3.0829 0.238892 2.94293 0.288974 2.80542 0.345932C2.66791 0.402891 2.53352 0.466451 2.40226 0.536613C2.271 0.606776 2.14349 0.683202 2.01973 0.765893C1.89598 0.848583 1.77657 0.93714 1.66152 1.03156C1.54646 1.12599 1.43631 1.22582 1.33107 1.33106C1.22582 1.43631 1.12599 1.54646 1.03157 1.66151C0.937143 1.77657 0.848586 1.89597 0.765895 2.01973C0.683205 2.14348 0.606778 2.27099 0.536616 2.40226C0.466454 2.53352 0.402893 2.66791 0.345935 2.80542C0.288977 2.94293 0.238895 3.0829 0.195689 3.22533C0.152483 3.36776 0.116362 3.51196 0.0873247 3.65794C0.0582877 3.80392 0.0364747 3.95097 0.0218859 4.0991C0.00729713 4.24722 2.73547e-06 4.3957 2.73547e-06 4.54454L1.36773e-06 4.54454Z" fill="rgb(255,255,255)" fill-rule="nonzero" transform="matrix(-1,0,0,1,10.0011,5.45703)" />
		</g>
	</g>
</svg>
