<svg viewBox="0 0 20 20" xmlns="http://www.w3.org/2000/svg" xmlns:xlink="http://www.w3.org/1999/xlink" width="20.000000" height="20.000000" fill="none" customFrame="#000000">
	<rect id="组合 1627" width="20.000000" height="20.000000" x="0.000000" y="0.000000" />
	<g id="组合 1626">
		<path id="矢量 449" d="M14.5434 5C17.2997 5 19.5428 7.24314 19.5428 9.99944C19.5428 12.7557 17.2997 14.9989 14.5434 14.9989L5.45427 14.9989C2.69797 14.9989 0.454834 12.7557 0.454834 9.99944C0.454834 7.24313 2.69573 5 5.45427 5L14.5434 5Z" fill="rgb(65,148,136)" fill-rule="nonzero" />
		<path id="矢量 450" d="M5.45434 14.548C2.9535 14.548 0.909804 12.5021 0.909804 10.0035C0.909804 7.50486 2.95574 5.45892 5.45434 5.45892L14.5457 5.45892C17.0465 5.45892 19.0902 7.50486 19.0902 10.0035C19.0902 12.5021 17.0443 14.548 14.5434 14.548L5.45434 14.548ZM5.45434 15.4556L14.5457 15.4556C17.5529 15.4556 20 13.0085 20 10.0012C20 6.99393 17.5507 4.54688 14.5434 4.54688L5.45434 4.54688C2.44482 4.54688 0 6.99393 0 10.0012C0 13.0085 2.44482 15.4556 5.45434 15.4556Z" fill="rgb(65,148,136)" fill-rule="nonzero" />
		<path id="矢量 451" d="M9.9989 10.0016C9.99883 10.1505 10.0061 10.299 10.0206 10.4472C10.0351 10.5953 10.0569 10.7424 10.0858 10.8885C10.1148 11.0345 10.1509 11.1788 10.1941 11.3213C10.2372 11.4638 10.2873 11.6038 10.3442 11.7414C10.4011 11.8789 10.4647 12.0134 10.5348 12.1447C10.6049 12.2761 10.6813 12.4036 10.764 12.5274C10.8467 12.6513 10.9353 12.7707 11.0297 12.8858C11.1241 13.001 11.2239 13.1112 11.3292 13.2165C11.4344 13.3218 11.5446 13.4217 11.6597 13.5161C11.7747 13.6106 11.8942 13.6992 12.0179 13.782C12.1417 13.8647 12.2693 13.9412 12.4005 14.0114C12.5318 14.0816 12.6663 14.1452 12.8038 14.2022C12.9414 14.2592 13.0814 14.3093 13.2238 14.3525C13.3663 14.3958 13.5106 14.4319 13.6566 14.4609C13.8026 14.49 13.9497 14.5118 14.0979 14.5264C14.246 14.541 14.3946 14.5483 14.5434 14.5483C14.6923 14.5483 14.8409 14.541 14.989 14.5264C15.1372 14.5118 15.2843 14.49 15.4303 14.4609C15.5763 14.4319 15.7206 14.3958 15.863 14.3525C16.0055 14.3093 16.1455 14.2592 16.2831 14.2022C16.4206 14.1452 16.555 14.0816 16.6863 14.0114C16.8176 13.9412 16.9452 13.8647 17.0689 13.782C17.1927 13.6992 17.3121 13.6106 17.4272 13.5161C17.5423 13.4217 17.6524 13.3218 17.7577 13.2165C17.863 13.1112 17.9628 13.001 18.0572 12.8858C18.1516 12.7707 18.2402 12.6513 18.3229 12.5274C18.4055 12.4036 18.4819 12.2761 18.5521 12.1447C18.6222 12.0134 18.6858 11.8789 18.7427 11.7414C18.7996 11.6038 18.8497 11.4638 18.8928 11.3213C18.936 11.1788 18.9721 11.0345 19.001 10.8885C19.03 10.7424 19.0518 10.5953 19.0663 10.4472C19.0808 10.299 19.0881 10.1505 19.088 10.0016C19.088 9.85273 19.0807 9.70425 19.0661 9.55613C19.0515 9.408 19.0297 9.26095 19.0007 9.11497C18.9716 8.96899 18.9355 8.82479 18.8923 8.68236C18.8491 8.53993 18.799 8.39996 18.742 8.26245C18.6851 8.12494 18.6215 7.99055 18.5514 7.85929C18.4812 7.72802 18.4048 7.60051 18.3221 7.47676C18.2394 7.353 18.1508 7.2336 18.0564 7.11854C17.962 7.00349 17.8622 6.89334 17.7569 6.7881C17.6517 6.68285 17.5415 6.58302 17.4265 6.48859C17.3114 6.39417 17.192 6.30561 17.0683 6.22292C16.9445 6.14023 16.817 6.06381 16.6857 5.99364C16.5545 5.92348 16.4201 5.85992 16.2826 5.80296C16.1451 5.74601 16.0051 5.69592 15.8627 5.65272C15.7202 5.60951 15.576 5.57339 15.43 5.54435C15.2841 5.51532 15.137 5.4935 14.9889 5.47891C14.8408 5.46433 14.6923 5.45703 14.5434 5.45703C14.3946 5.45703 14.2461 5.46433 14.098 5.47891C13.9499 5.4935 13.8028 5.51532 13.6568 5.54435C13.5109 5.57339 13.3667 5.60951 13.2242 5.65272C13.0818 5.69592 12.9418 5.74601 12.8043 5.80296C12.6668 5.85992 12.5324 5.92348 12.4012 5.99364C12.2699 6.06381 12.1424 6.14023 12.0186 6.22292C11.8949 6.30561 11.7755 6.39417 11.6604 6.48859C11.5454 6.58302 11.4352 6.68285 11.33 6.7881C11.2247 6.89334 11.1249 7.00349 11.0305 7.11854C10.936 7.2336 10.8475 7.353 10.7648 7.47676C10.6821 7.60051 10.6057 7.72802 10.5355 7.85929C10.4654 7.99055 10.4018 8.12494 10.3448 8.26245C10.2879 8.39996 10.2378 8.53993 10.1946 8.68236C10.1514 8.82479 10.1153 8.96899 10.0862 9.11497C10.0572 9.26095 10.0354 9.408 10.0208 9.55613C10.0062 9.70425 9.9989 9.85273 9.9989 10.0016L9.9989 10.0016Z" fill="rgb(255,255,255)" fill-rule="nonzero" />
	</g>
</svg>
