<svg width="12.000000" height="12.000000" viewBox="0 0 12 12" fill="none" xmlns="http://www.w3.org/2000/svg" xmlns:xlink="http://www.w3.org/1999/xlink">
	<desc>
			Created with Pixso.
	</desc>
	<defs/>
	<path id="path" d="M6 0C2.68 0 0 2.68 0 6C0 9.31 2.68 12 6 12C9.31 12 12 9.31 12 6C12 2.68 9.31 0 6 0ZM9.44 4.44L5.56 8.32C5.38 8.5 5.1 8.53 4.9 8.4C4.86 8.38 4.82 8.35 4.79 8.32L2.55 6.08C2.34 5.87 2.34 5.53 2.55 5.32C2.77 5.11 3.11 5.11 3.32 5.32L5.17 7.17L8.67 3.67C8.88 3.46 9.22 3.46 9.44 3.67C9.65 3.88 9.65 4.23 9.44 4.44Z" fill="#272635" fill-opacity="1.000000" fill-rule="nonzero"/>
</svg>
