<svg width="14.750000" height="16.750000" viewBox="0 0 14.75 16.75" fill="none" xmlns="http://www.w3.org/2000/svg" xmlns:xlink="http://www.w3.org/1999/xlink">
	<desc>
			Created with Pixso.
	</desc>
	<defs/>
	<ellipse id="circle" cx="7.375000" cy="7.162109" rx="6.999984" ry="6.786788" fill="#000000" fill-opacity="0"/>
	<ellipse id="circle" cx="7.375000" cy="7.162109" rx="6.999984" ry="6.786788" stroke="#328DFB" stroke-opacity="1.000000" stroke-width="0.750000"/>
	<path id="path" d="M5.76 4.11C5.04 4.11 4.46 4.67 4.46 5.37C4.46 6.07 5.04 6.63 5.76 6.63C6.48 6.63 7.06 6.07 7.06 5.37C7.06 4.67 6.48 4.11 5.76 4.11ZM7.07 3.02C9.13 3.02 10.8 4.65 10.8 6.64C10.8 8.64 9.13 10.26 7.07 10.26C5.01 10.26 3.34 8.64 3.34 6.64C3.34 4.65 5.01 3.02 7.07 3.02Z" fill="#000000" fill-opacity="0" fill-rule="evenodd"/>
	<path id="path" d="M4.46 5.37C4.46 6.07 5.04 6.63 5.76 6.63C6.48 6.63 7.06 6.07 7.06 5.37C7.06 4.67 6.48 4.11 5.76 4.11C5.04 4.11 4.46 4.67 4.46 5.37ZM10.8 6.64C10.8 8.64 9.13 10.26 7.07 10.26C5.01 10.26 3.34 8.64 3.34 6.64C3.34 4.65 5.01 3.02 7.07 3.02C9.13 3.02 10.8 4.65 10.8 6.64Z" stroke="#328DFB" stroke-opacity="1.000000" stroke-width="0.750000"/>
	<path id="path" d="M2.92 13.37L2.93 13.34C3.11 13.23 3.34 13.29 3.44 13.47C3.55 13.65 3.49 13.88 3.31 13.98L3.28 13.98L2.92 13.37ZM11.31 13.98L11.28 13.98C11.1 13.88 11.04 13.65 11.14 13.47C11.25 13.29 11.48 13.23 11.66 13.34L11.66 13.37L11.31 13.98Z" fill="#000000" fill-opacity="0" fill-rule="nonzero"/>
	<path id="path" d="M3.12 13.66C2.66 13.93 2.4 14.25 2.4 14.59C2.4 15.57 4.59 16.37 7.3 16.37C10 16.37 12.19 15.57 12.19 14.59C12.19 14.25 11.93 13.93 11.47 13.66" stroke="#328DFB" stroke-opacity="1.000000" stroke-width="0.750000" stroke-linecap="round"/>
</svg>
