<svg viewBox="0 0 20 20" xmlns="http://www.w3.org/2000/svg" xmlns:xlink="http://www.w3.org/1999/xlink" width="20" height="20" fill="none" customFrame="#000000">
	<g id="关闭-按下">
		<g id="关闭">
			<g id="关闭">
				<g id="编组">
					<path id="路径" d="M19.6416 19.642C19.1643 20.1193 18.3835 20.1193 17.9062 19.642L0.357988 2.09342C-0.119329 1.61609 -0.119329 0.835322 0.357988 0.357995C0.835304 -0.119332 1.61606 -0.119332 2.09337 0.357995L19.645 17.91C20.1189 18.3839 20.1189 19.1647 19.6416 19.642Z" fill="rgb(50,141,251)" fill-rule="nonzero" />
					<path id="路径" d="M19.642 0.358415C20.1193 0.835732 20.1193 1.61649 19.642 2.0938L2.09342 19.642C1.61609 20.1193 0.835322 20.1193 0.357995 19.642C-0.119332 19.1647 -0.119332 18.3839 0.357995 17.9066L17.91 0.355005C18.3839 -0.118902 19.1647 -0.118902 19.642 0.358415Z" fill="rgb(50,141,251)" fill-rule="nonzero" />
				</g>
			</g>
		</g>
	</g>
</svg>
