<svg width="6.899902" height="11.470581" viewBox="0 0 6.8999 11.4706" fill="none" xmlns="http://www.w3.org/2000/svg" xmlns:xlink="http://www.w3.org/1999/xlink">
	<desc>
			Created with Pixso.
	</desc>
	<defs/>
	<path id="?" d="M1.93 6.52C1.88 6.7 1.86 6.9 1.86 7.12L1.86 7.84L3.83 7.84L3.83 7.43C3.83 7.27 3.85 7.13 3.89 7.01C3.94 6.89 4.01 6.77 4.1 6.65C4.2 6.53 4.33 6.4 4.51 6.26C4.69 6.12 4.92 5.96 5.19 5.78C5.48 5.58 5.74 5.4 5.96 5.21C6.17 5.02 6.35 4.81 6.49 4.6C6.63 4.38 6.73 4.13 6.79 3.85C6.86 3.56 6.89 3.23 6.89 2.83C6.89 2.27 6.82 1.81 6.66 1.45C6.56 1.21 6.41 1 6.23 0.83C6.13 0.73 6.03 0.65 5.92 0.57C5.57 0.36 5.14 0.21 4.63 0.12C4.1 0.04 3.49 0 2.77 0C2.19 0 1.66 0.03 1.2 0.09C0.73 0.14 0.33 0.21 0 0.3L0 2.06C0.33 1.97 0.7 1.9 1.13 1.84C1.56 1.79 1.98 1.76 2.37 1.76C2.77 1.76 3.1 1.78 3.36 1.82C3.63 1.86 3.84 1.92 4 2.01C4.05 2.05 4.1 2.08 4.14 2.12C4.24 2.2 4.31 2.31 4.35 2.43C4.42 2.61 4.46 2.83 4.46 3.11C4.46 3.3 4.44 3.47 4.4 3.62C4.39 3.73 4.35 3.84 4.3 3.93C4.22 4.05 4.05 4.27 3.91 4.4C3.76 4.53 3.57 4.68 3.35 4.84C3.06 5.06 2.82 5.25 2.62 5.43C2.43 5.61 2.28 5.78 2.17 5.96C2.07 6.13 1.98 6.34 1.93 6.52ZM2.15 11.42C2.33 11.45 2.57 11.47 2.86 11.47C3.14 11.47 3.37 11.45 3.56 11.42C3.74 11.39 3.89 11.33 4 11.23C4.1 11.15 4.18 11.02 4.22 10.85C4.26 10.69 4.29 10.48 4.29 10.22C4.29 9.97 4.26 9.76 4.22 9.6C4.18 9.43 4.1 9.31 4 9.22C3.89 9.12 3.74 9.06 3.56 9.03C3.37 9.01 3.14 9 2.86 9C2.57 9 2.33 9.01 2.15 9.03C1.96 9.06 1.82 9.12 1.72 9.22C1.61 9.31 1.54 9.43 1.5 9.6C1.45 9.76 1.43 9.97 1.43 10.22C1.43 10.48 1.45 10.69 1.5 10.85C1.54 11.02 1.61 11.15 1.72 11.23C1.82 11.33 1.96 11.39 2.15 11.42Z" fill="#333333" fill-opacity="1.000000" fill-rule="evenodd"/>
</svg>
