<svg width="24.000000" height="24.000000" viewBox="0 0 24 24" fill="none" xmlns="http://www.w3.org/2000/svg" xmlns:xlink="http://www.w3.org/1999/xlink">
	<desc>
			Created with Pixso.
	</desc>
	<defs/>
	<circle id="椭圆形" cx="12.000000" cy="12.000000" r="12.000000" fill="#DDDDDD" fill-opacity="1.000000"/>
	<path id="3" d="M10.02 17.09Q10.57 17.14 11.16 17.14Q13.09 17.14 13.99 16.4Q14.27 16.17 14.47 15.89Q14.9 15.25 14.9 14.32Q14.9 13.35 14.43 12.76Q13.96 12.17 12.92 11.98L12.92 11.9Q13.72 11.66 14.18 11.15Q14.65 10.64 14.65 9.69Q14.65 8.57 14.09 7.97Q13.98 7.85 13.84 7.74Q13.04 7.14 11.47 7.14Q11.18 7.14 10.88 7.16Q10.62 7.18 10.35 7.22Q9.8 7.31 9.44 7.42L9.44 8.45Q9.9 8.31 10.45 8.25Q10.99 8.18 11.41 8.18Q12.46 8.18 12.97 8.54Q13.06 8.6 13.13 8.68Q13.48 9.05 13.48 9.76Q13.48 10.14 13.33 10.46Q13.16 10.78 12.82 11.02Q12.17 11.49 10.89 11.49L10.14 11.49L10.14 12.46L10.91 12.46Q12.29 12.46 12.99 12.87Q13.18 12.97 13.31 13.12Q13.69 13.54 13.69 14.31Q13.69 14.81 13.49 15.16Q13.4 15.32 13.28 15.45Q13.14 15.6 12.96 15.71Q12.63 15.92 12.16 16Q11.69 16.09 11.15 16.09Q10.59 16.09 10.06 16.04Q9.54 15.99 8.98 15.85L8.98 16.95Q9.46 17.05 10.02 17.09Z" fill="#FFFFFF" fill-opacity="1.000000" fill-rule="evenodd"/>
</svg>
