<svg viewBox="0 0 20 20" xmlns="http://www.w3.org/2000/svg" xmlns:xlink="http://www.w3.org/1999/xlink" width="20.000000" height="20.000000" fill="none" customFrame="#000000">
	<g id="组合 1864">
		<rect id="矩形 199" width="20.000000" height="20.000000" x="0.000000" y="0.000000" rx="4.000000" fill="rgb(0,0,0)" fill-opacity="0.800000012" />
		<g id="组合 1863">
			<path id="矢量 473" d="M8.84394 13.5917C8.76467 13.5917 8.68544 13.5898 8.60626 13.586C8.52708 13.5821 8.44805 13.5763 8.36915 13.5686C8.29026 13.561 8.21161 13.5513 8.13319 13.5398C8.05477 13.5283 7.97669 13.5149 7.89894 13.4996C7.82119 13.4843 7.74386 13.4671 7.66696 13.448C7.59006 13.4289 7.51368 13.408 7.43782 13.3852C7.36196 13.3624 7.28671 13.3378 7.21207 13.3114C7.13743 13.285 7.06349 13.2567 6.99025 13.2267C6.91701 13.1966 6.84455 13.1648 6.77289 13.1313C6.70123 13.0977 6.63044 13.0624 6.56052 13.0254C6.49061 12.9885 6.42165 12.9498 6.35366 12.9094C6.28566 12.8691 6.21871 12.8271 6.15279 12.7835C6.08688 12.7399 6.02208 12.6947 5.95841 12.6479C5.89474 12.6012 5.83226 12.5529 5.77098 12.5031C5.7097 12.4533 5.64969 12.4021 5.59095 12.3494C5.53221 12.2967 5.47481 12.2426 5.41876 12.1871C5.3627 12.1316 5.30806 12.0747 5.25482 12.0166C5.20158 11.9584 5.14982 11.899 5.09952 11.8383C5.04923 11.7777 5.00048 11.7158 4.95325 11.6528C4.90603 11.5897 4.86039 11.5256 4.81635 11.4603C4.77231 11.3951 4.72991 11.3288 4.68915 11.2614C4.6484 11.1941 4.60934 11.1258 4.57197 11.0566C4.5346 10.9874 4.49896 10.9173 4.46507 10.8464C4.43118 10.7754 4.39906 10.7037 4.36872 10.6312C4.33839 10.5587 4.30986 10.4854 4.28316 10.4115C4.25645 10.3376 4.23159 10.2631 4.20858 10.188C4.18557 10.1129 4.16443 10.0373 4.14517 9.96117C4.1259 9.88504 4.10854 9.80848 4.09307 9.7315C4.07761 9.65452 4.06406 9.57721 4.05243 9.49957C4.0408 9.42193 4.0311 9.34406 4.02332 9.26595C4.01555 9.18784 4.00972 9.10958 4.00583 9.03119C4.00195 8.9528 4 8.87436 4 8.79587C4 8.71738 4.00195 8.63894 4.00583 8.56055C4.00972 8.48215 4.01555 8.4039 4.02332 8.32579C4.0311 8.24768 4.0408 8.16981 4.05243 8.09217C4.06406 8.01453 4.07761 7.93722 4.09307 7.86024C4.10854 7.78326 4.1259 7.7067 4.14517 7.63057C4.16443 7.55443 4.18557 7.47881 4.20858 7.4037C4.23159 7.32859 4.25645 7.25409 4.28316 7.18019C4.30986 7.10629 4.33839 7.03308 4.36872 6.96057C4.39906 6.88806 4.43118 6.81632 4.46507 6.74537C4.49896 6.67442 4.5346 6.60433 4.57197 6.53511C4.60934 6.46589 4.6484 6.39762 4.68915 6.3303C4.72991 6.26298 4.77231 6.19669 4.81635 6.13143C4.86039 6.06617 4.90603 6.00202 4.95325 5.93897C5.00048 5.87593 5.04923 5.81407 5.09952 5.7534C5.14982 5.69273 5.20158 5.63332 5.25482 5.57516C5.30806 5.517 5.3627 5.46018 5.41876 5.40468C5.47481 5.34918 5.53221 5.29507 5.59095 5.24236C5.64969 5.18966 5.7097 5.1384 5.77098 5.08861C5.83226 5.03882 5.89474 4.99055 5.95841 4.94379C6.02208 4.89704 6.08688 4.85186 6.15279 4.80825C6.21871 4.76464 6.28566 4.72267 6.35366 4.68231C6.42165 4.64196 6.49061 4.60329 6.56052 4.56629C6.63044 4.52929 6.70123 4.49401 6.77289 4.46045C6.84455 4.4269 6.91701 4.3951 6.99025 4.36506C7.06349 4.33503 7.13743 4.30679 7.21207 4.28035C7.28671 4.25391 7.36196 4.22929 7.43782 4.20651C7.51368 4.18372 7.59006 4.1628 7.66696 4.14373C7.74386 4.12466 7.82119 4.10746 7.89894 4.09215C7.97669 4.07684 8.05477 4.06342 8.13319 4.05191C8.21161 4.04039 8.29026 4.03079 8.36915 4.02309C8.44805 4.0154 8.52708 4.00963 8.60626 4.00578C8.68544 4.00193 8.76467 4 8.84394 4C8.92322 4 9.00245 4.00193 9.08162 4.00578C9.1608 4.00963 9.23984 4.0154 9.31873 4.02309C9.39763 4.03079 9.47628 4.04039 9.5547 4.05191C9.63311 4.06342 9.7112 4.07684 9.78895 4.09215C9.8667 4.10746 9.94403 4.12466 10.0209 4.14373C10.0978 4.1628 10.1742 4.18372 10.2501 4.20651C10.3259 4.22929 10.4012 4.25391 10.4758 4.28035C10.5505 4.30679 10.6244 4.33503 10.6976 4.36506C10.7709 4.3951 10.8433 4.4269 10.915 4.46045C10.9867 4.49401 11.0574 4.52929 11.1274 4.56629C11.1973 4.60329 11.2662 4.64196 11.3342 4.68231C11.4022 4.72267 11.4692 4.76464 11.5351 4.80825C11.601 4.85186 11.6658 4.89704 11.7295 4.94379C11.7932 4.99055 11.8556 5.03882 11.9169 5.08861C11.9782 5.1384 12.0382 5.18966 12.0969 5.24236C12.1557 5.29507 12.2131 5.34918 12.2691 5.40468C12.3252 5.46018 12.3798 5.517 12.4331 5.57516C12.4863 5.63332 12.5381 5.69273 12.5884 5.7534C12.6387 5.81407 12.6874 5.87593 12.7346 5.93897C12.7819 6.00202 12.8275 6.06617 12.8715 6.13143C12.9156 6.19669 12.958 6.26298 12.9987 6.3303C13.0395 6.39762 13.0786 6.46589 13.1159 6.53511C13.1533 6.60433 13.1889 6.67442 13.2228 6.74537C13.2567 6.81632 13.2888 6.88806 13.3192 6.96057C13.3495 7.03308 13.378 7.10629 13.4047 7.18019C13.4314 7.25409 13.4563 7.32859 13.4793 7.4037C13.5023 7.47881 13.5235 7.55443 13.5427 7.63057C13.562 7.7067 13.5793 7.78326 13.5948 7.86024C13.6103 7.93722 13.6238 8.01453 13.6355 8.09217C13.6471 8.16981 13.6568 8.24768 13.6646 8.32579C13.6723 8.4039 13.6782 8.48215 13.6821 8.56055C13.6859 8.63894 13.6879 8.71738 13.6879 8.79587C13.6878 8.87434 13.6858 8.95275 13.6818 9.03112C13.6778 9.10948 13.6719 9.18771 13.6641 9.26579C13.6563 9.34387 13.6465 9.42171 13.6348 9.49932C13.6231 9.57692 13.6095 9.6542 13.594 9.73114C13.5784 9.80809 13.561 9.88461 13.5417 9.96071C13.5224 10.0368 13.5012 10.1124 13.4782 10.1875C13.4551 10.2625 13.4302 10.337 13.4035 10.4109C13.3767 10.4847 13.3482 10.5579 13.3178 10.6304C13.2874 10.7029 13.2553 10.7746 13.2214 10.8455C13.1874 10.9164 13.1518 10.9864 13.1144 11.0556C13.077 11.1248 13.0379 11.193 12.9972 11.2603C12.9564 11.3276 12.914 11.3939 12.87 11.4591C12.8259 11.5243 12.7803 11.5885 12.733 11.6515C12.6858 11.7145 12.6371 11.7763 12.5868 11.837C12.5365 11.8976 12.4847 11.957 12.4315 12.0151C12.3783 12.0733 12.3237 12.1301 12.2676 12.1856C12.2116 12.2411 12.1542 12.2951 12.0955 12.3478C12.0368 12.4005 11.9768 12.4518 11.9155 12.5016C11.8543 12.5514 11.7918 12.5996 11.7282 12.6464C11.6645 12.6931 11.5998 12.7383 11.5339 12.7819C11.468 12.8255 11.4011 12.8675 11.3331 12.9079C11.2651 12.9482 11.1962 12.9869 11.1263 13.0239C11.0565 13.061 10.9857 13.0963 10.9141 13.1298C10.8425 13.1634 10.77 13.1952 10.6968 13.2253C10.6236 13.2554 10.5497 13.2837 10.4751 13.3101C10.4005 13.3366 10.3253 13.3613 10.2495 13.3841C10.1737 13.4069 10.0973 13.4279 10.0205 13.447C9.9436 13.4661 9.86631 13.4834 9.78859 13.4987C9.71088 13.5141 9.63283 13.5276 9.55444 13.5392C9.47606 13.5507 9.39744 13.5604 9.31857 13.5682C9.23971 13.5759 9.1607 13.5818 9.08155 13.5857C9.0024 13.5897 8.92319 13.5917 8.84394 13.5917L8.84394 13.5917ZM8.84394 4.85028C8.77871 4.85028 8.71351 4.85186 8.64836 4.85503C8.5832 4.8582 8.51817 4.86295 8.45325 4.86928C8.38833 4.87561 8.3236 4.88351 8.25908 4.89299C8.19455 4.90247 8.13029 4.91351 8.06631 4.92611C8.00233 4.93871 7.9387 4.95285 7.87542 4.96855C7.81214 4.98424 7.74929 5.00146 7.68687 5.02021C7.62444 5.03896 7.56252 5.05921 7.5011 5.08097C7.43968 5.10273 7.37883 5.12597 7.31857 5.15068C7.2583 5.1754 7.19868 5.20156 7.13971 5.22918C7.08074 5.25679 7.02249 5.28582 6.96496 5.31627C6.90742 5.34671 6.85068 5.37854 6.79473 5.41174C6.73878 5.44495 6.68368 5.47949 6.62944 5.51537C6.5752 5.55125 6.52188 5.58843 6.46949 5.62691C6.41709 5.66538 6.36568 5.7051 6.31525 5.74608C6.26482 5.78705 6.21544 5.82922 6.16711 5.8726C6.11877 5.91597 6.07154 5.96049 6.02541 6.00616C5.97929 6.05183 5.93432 6.09859 5.89051 6.14645C5.8467 6.19431 5.80411 6.2432 5.76272 6.29312C5.72134 6.34305 5.68122 6.39395 5.64236 6.44583C5.6035 6.4977 5.56595 6.55049 5.5297 6.60419C5.49346 6.65789 5.45857 6.71244 5.42504 6.76784C5.3915 6.82324 5.35935 6.87942 5.3286 6.93638C5.29785 6.99334 5.26853 7.05101 5.24064 7.1094C5.21275 7.16778 5.18632 7.22681 5.16136 7.28648C5.13639 7.34615 5.11292 7.40639 5.09095 7.4672C5.06897 7.52801 5.04851 7.58932 5.02958 7.65113C5.01064 7.71293 4.99325 7.77516 4.9774 7.83781C4.96155 7.90046 4.94726 7.96346 4.93453 8.02681C4.92181 8.09015 4.91066 8.15377 4.90108 8.21766C4.89151 8.28154 4.88353 8.34562 4.87714 8.4099C4.87074 8.47418 4.86594 8.53857 4.86274 8.60308C4.85954 8.66759 4.85794 8.73213 4.85794 8.79672C4.85794 8.86131 4.85954 8.92585 4.86274 8.99036C4.86594 9.05487 4.87074 9.11926 4.87714 9.18354C4.88353 9.24781 4.89151 9.3119 4.90108 9.37578C4.91066 9.43967 4.92181 9.50329 4.93453 9.56663C4.94726 9.62998 4.96155 9.69298 4.9774 9.75563C4.99325 9.81828 5.01064 9.8805 5.02958 9.94231C5.04851 10.0041 5.06897 10.0654 5.09095 10.1262C5.11292 10.187 5.13639 10.2473 5.16136 10.307C5.18632 10.3666 5.21275 10.4257 5.24064 10.484C5.26853 10.5424 5.29785 10.6001 5.3286 10.6571C5.35936 10.714 5.3915 10.7702 5.42504 10.8256C5.45857 10.881 5.49346 10.9355 5.5297 10.9892C5.56595 11.0429 5.6035 11.0957 5.64236 11.1476C5.68122 11.1995 5.72134 11.2504 5.76272 11.3003C5.80411 11.3502 5.8467 11.3991 5.89051 11.447C5.93432 11.4948 5.97929 11.5416 6.02541 11.5873C6.07154 11.6329 6.11877 11.6775 6.16711 11.7208C6.21544 11.7642 6.26482 11.8064 6.31525 11.8474C6.36568 11.8883 6.41709 11.9281 6.46949 11.9665C6.52188 12.005 6.5752 12.0422 6.62944 12.0781C6.68368 12.1139 6.73878 12.1485 6.79473 12.1817C6.85068 12.2149 6.90742 12.2467 6.96496 12.2772C7.02249 12.3076 7.08074 12.3366 7.13971 12.3643C7.19868 12.3919 7.2583 12.418 7.31857 12.4428C7.37883 12.4675 7.43968 12.4907 7.5011 12.5125C7.56252 12.5342 7.62444 12.5545 7.68687 12.5732C7.74929 12.592 7.81215 12.6092 7.87542 12.6249C7.9387 12.6406 8.00233 12.6547 8.06631 12.6673C8.13029 12.6799 8.19455 12.691 8.25908 12.7004C8.3236 12.7099 8.38833 12.7178 8.45325 12.7242C8.51817 12.7305 8.5832 12.7352 8.64836 12.7384C8.71352 12.7416 8.77871 12.7432 8.84394 12.7432C8.90918 12.7432 8.97437 12.7416 9.03953 12.7384C9.10468 12.7352 9.16972 12.7305 9.23464 12.7242C9.29956 12.7178 9.36428 12.7099 9.42881 12.7004C9.49334 12.691 9.55759 12.6799 9.62157 12.6673C9.68555 12.6547 9.74918 12.6406 9.81246 12.6249C9.87574 12.6092 9.93859 12.592 10.001 12.5732C10.0634 12.5545 10.1254 12.5342 10.1868 12.5125C10.2482 12.4907 10.3091 12.4675 10.3693 12.4428C10.4296 12.418 10.4892 12.3919 10.5482 12.3643C10.6071 12.3366 10.6654 12.3076 10.7229 12.2772C10.7805 12.2467 10.8372 12.2149 10.8932 12.1817C10.9491 12.1485 11.0042 12.1139 11.0584 12.0781C11.1127 12.0422 11.166 12.005 11.2184 11.9665C11.2708 11.9281 11.3222 11.8883 11.3726 11.8474C11.4231 11.8064 11.4724 11.7642 11.5208 11.7208C11.5691 11.6775 11.6163 11.6329 11.6625 11.5873C11.7086 11.5416 11.7536 11.4948 11.7974 11.447C11.8412 11.3991 11.8838 11.3502 11.9252 11.3003C11.9665 11.2504 12.0067 11.1995 12.0455 11.1476C12.0844 11.0957 12.1219 11.0429 12.1582 10.9892C12.1944 10.9355 12.2293 10.881 12.2628 10.8256C12.2964 10.7702 12.3285 10.714 12.3593 10.6571C12.39 10.6001 12.4194 10.5424 12.4472 10.484C12.4751 10.4257 12.5016 10.3666 12.5265 10.307C12.5515 10.2473 12.575 10.187 12.5969 10.1262C12.6189 10.0654 12.6394 10.0041 12.6583 9.94231C12.6772 9.8805 12.6946 9.81828 12.7105 9.75563C12.7263 9.69298 12.7406 9.62998 12.7534 9.56663C12.7661 9.50329 12.7772 9.43967 12.7868 9.37578C12.7964 9.3119 12.8044 9.24781 12.8108 9.18354C12.8171 9.11926 12.8219 9.05487 12.8251 8.99036C12.8283 8.92585 12.8299 8.86131 12.8299 8.79672C12.8299 8.73215 12.8282 8.66763 12.8249 8.60314C12.8217 8.53865 12.8168 8.47428 12.8104 8.41003C12.8039 8.34578 12.7959 8.28173 12.7862 8.21787C12.7766 8.15401 12.7654 8.09042 12.7526 8.0271C12.7399 7.96378 12.7255 7.90082 12.7096 7.83819C12.6938 7.77557 12.6763 7.71338 12.6573 7.6516C12.6384 7.58983 12.6179 7.52855 12.5959 7.46777C12.5739 7.40699 12.5504 7.34678 12.5254 7.28714C12.5004 7.2275 12.4739 7.1685 12.446 7.11015C12.4181 7.05179 12.3888 6.99415 12.358 6.93722C12.3273 6.88029 12.2951 6.82414 12.2616 6.76877C12.228 6.7134 12.1931 6.65887 12.1569 6.6052C12.1206 6.55152 12.0831 6.49876 12.0442 6.4469C12.0053 6.39505 11.9652 6.34417 11.9239 6.29426C11.8825 6.24436 11.8399 6.19549 11.7961 6.14765C11.7523 6.09981 11.7073 6.05306 11.6612 6.00741C11.6151 5.96175 11.5679 5.91724 11.5196 5.87387C11.4713 5.83051 11.4219 5.78834 11.3715 5.74738C11.3211 5.70641 11.2697 5.66669 11.2173 5.62822C11.1649 5.58974 11.1116 5.55256 11.0574 5.51668C11.0032 5.48079 10.9482 5.44624 10.8922 5.41303C10.8363 5.37981 10.7796 5.34798 10.7221 5.31752C10.6646 5.28706 10.6064 5.25801 10.5474 5.23038C10.4885 5.20274 10.4289 5.17656 10.3687 5.15182C10.3084 5.12708 10.2476 5.10381 10.1862 5.08202C10.1248 5.06023 10.0629 5.03995 10.0005 5.02116C9.93815 5.00238 9.87533 4.98512 9.81208 4.96938C9.74883 4.95365 9.68523 4.93946 9.62128 4.92681C9.55733 4.91416 9.4931 4.90307 9.4286 4.89354C9.3641 4.88401 9.2994 4.87605 9.23451 4.86966C9.16961 4.86328 9.1046 4.85846 9.03946 4.85523C8.97433 4.852 8.90916 4.85035 8.84394 4.85028L8.84394 4.85028Z" fill="rgb(255,255,255)" fill-rule="nonzero" />
			<path id="矢量 474" d="M15.5696 15.4872C15.5137 15.4872 15.4598 15.4767 15.408 15.4559C15.3562 15.435 15.3102 15.4052 15.2702 15.3666L11.8144 12.0215C11.7943 12.002 11.7763 11.9807 11.7604 11.9577C11.7445 11.9346 11.731 11.9103 11.7199 11.8846C11.7089 11.859 11.7005 11.8325 11.6947 11.8052C11.6889 11.7779 11.6859 11.7503 11.6856 11.7224C11.6853 11.6945 11.6877 11.6668 11.6929 11.6394C11.6981 11.612 11.706 11.5853 11.7165 11.5594C11.727 11.5336 11.74 11.5089 11.7554 11.4856C11.7708 11.4622 11.7884 11.4406 11.8081 11.4206C11.8278 11.4007 11.8493 11.3829 11.8725 11.3671C11.8958 11.3514 11.9204 11.338 11.9463 11.3271C11.9722 11.3161 11.999 11.3078 12.0265 11.302C12.0541 11.2963 12.082 11.2933 12.1102 11.293C12.1383 11.2927 12.1663 11.2951 12.194 11.3003C12.2217 11.3054 12.2486 11.3132 12.2747 11.3236C12.3009 11.334 12.3257 11.3468 12.3493 11.362C12.3729 11.3773 12.3948 11.3947 12.415 11.4142L15.8707 14.7592C15.9013 14.7887 15.9269 14.822 15.9474 14.8591C15.9679 14.8961 15.9825 14.9353 15.9912 14.9767C15.9999 15.0181 16.0024 15.0598 15.9985 15.1019C15.9946 15.144 15.9846 15.1846 15.9685 15.2237C15.9524 15.2629 15.9308 15.2988 15.9038 15.3316C15.8769 15.3643 15.8457 15.3925 15.8102 15.416C15.7748 15.4396 15.7366 15.4575 15.6958 15.4697C15.6549 15.482 15.6132 15.4881 15.5705 15.488L15.5696 15.4872Z" fill="rgb(255,255,255)" fill-rule="nonzero" />
		</g>
	</g>
</svg>
