<svg width="38" height="38" viewBox="0 0 38 38" fill="none" xmlns="http://www.w3.org/2000/svg">
<path d="M19 0C8.50655 0 0 8.50655 0 19C0 29.4935 8.50655 38 19 38C29.4935 38 38 29.4935 38 19C38 8.50655 29.4935 0 19 0ZM19 36.2727C9.4606 36.2727 1.72727 28.5394 1.72727 19C1.72727 9.4606 9.4606 1.72727 19 1.72727C28.5394 1.72727 36.2727 9.4606 36.2727 19C36.2727 28.5394 28.5394 36.2727 19 36.2727ZM15.9773 27.6345C15.4048 27.634 14.8559 27.4064 14.451 27.0016C14.0462 26.5968 13.8186 26.0479 13.8182 25.4754V12.5254C13.8182 12.1328 13.9253 11.7475 14.128 11.4112C14.3306 11.0748 14.6212 10.8001 14.9684 10.6166C15.3155 10.4332 15.7062 10.3478 16.0982 10.3698C16.4903 10.3918 16.8689 10.5203 17.1934 10.7415L26.6918 17.2161C26.9823 17.4141 27.2201 17.6802 27.3844 17.9911C27.5487 18.302 27.6346 18.6483 27.6346 19C27.6346 19.3517 27.5487 19.698 27.3844 20.0089C27.2201 20.3198 26.9823 20.5859 26.6918 20.7839L17.1934 27.2585C16.8351 27.5033 16.4112 27.6343 15.9773 27.6345ZM15.9805 12.0917C15.9088 12.0923 15.8383 12.1101 15.7749 12.1435C15.7049 12.1795 15.6463 12.2344 15.6058 12.3018C15.5653 12.3693 15.5444 12.4467 15.5455 12.5254V25.4746C15.5454 25.5531 15.5668 25.6301 15.6073 25.6974C15.6478 25.7646 15.7059 25.8196 15.7753 25.8563C15.8447 25.893 15.9228 25.9101 16.0012 25.9058C16.0795 25.9014 16.1553 25.8758 16.2202 25.8316L25.7202 19.3568C25.7783 19.3172 25.8258 19.264 25.8587 19.2018C25.8916 19.1396 25.9087 19.0703 25.9087 19C25.9087 18.9297 25.8916 18.8604 25.8587 18.7982C25.8258 18.736 25.7783 18.6828 25.7202 18.6432L16.2202 12.1686C16.1503 12.1188 16.0669 12.0916 15.9811 12.0909L15.9805 12.0917Z" fill="white"/>
</svg>
